<?xml version="1.0" encoding="UTF-8" standalone="no"?>
<!DOCTYPE svg PUBLIC "-//W3C//DTD SVG 1.1//EN"
 "http://www.w3.org/Graphics/SVG/1.1/DTD/svg11.dtd">
<!-- Generated by graphviz version 2.43.0 (0)
 -->
<!-- Title: %3 Pages: 1 -->
<svg width="2156pt" height="580pt"
 viewBox="0.00 0.00 2156.00 580.00" xmlns="http://www.w3.org/2000/svg" xmlns:xlink="http://www.w3.org/1999/xlink">
<g id="graph0" class="graph" transform="scale(1 1) rotate(0) translate(4 576)">
<title>%3</title>
<polygon fill="white" stroke="transparent" points="-4,4 -4,-576 2152,-576 2152,4 -4,4"/>
<!-- q_indy7 -->
<g id="node1" class="node">
<title>q_indy7</title>
<polygon fill="none" stroke="green" points="1342.79,-382.54 1342.79,-397.46 1313.04,-408 1270.96,-408 1241.21,-397.46 1241.21,-382.54 1270.96,-372 1313.04,-372 1342.79,-382.54"/>
<polygon fill="none" stroke="green" points="1346.8,-379.72 1346.8,-400.28 1313.73,-412 1270.27,-412 1237.2,-400.28 1237.2,-379.72 1270.27,-368 1313.73,-368 1346.8,-379.72"/>
<text text-anchor="middle" x="1292" y="-386.3" font-family="Times,serif" font-size="14.00">q_indy7</text>
</g>
<!-- error_q_indy7_jointpos_init_indy7 -->
<g id="node5" class="node">
<title>error_q_indy7_jointpos_init_indy7</title>
<ellipse fill="none" stroke="green" cx="1678" cy="-310" rx="167.07" ry="18"/>
<text text-anchor="middle" x="1678" y="-306.3" font-family="Times,serif" font-size="14.00">error_q_indy7_jointpos_init_indy7</text>
</g>
<!-- q_indy7&#45;&gt;error_q_indy7_jointpos_init_indy7 -->
<g id="edge1" class="edge">
<title>q_indy7&#45;&gt;error_q_indy7_jointpos_init_indy7</title>
<path fill="none" stroke="black" d="M1343.66,-378.56C1407.46,-365.67 1516.87,-343.56 1593.09,-328.16"/>
<polygon fill="black" stroke="black" points="1594.04,-331.54 1603.14,-326.13 1592.65,-324.68 1594.04,-331.54"/>
</g>
<!-- limits_q_indy7 -->
<g id="node10" class="node">
<title>limits_q_indy7</title>
<polygon fill="none" stroke="magenta" points="1493.12,-310 1448.56,-328 1359.44,-328 1314.88,-310 1359.44,-292 1448.56,-292 1493.12,-310"/>
<text text-anchor="middle" x="1404" y="-306.3" font-family="Times,serif" font-size="14.00">limits_q_indy7</text>
</g>
<!-- q_indy7&#45;&gt;limits_q_indy7 -->
<g id="edge2" class="edge">
<title>q_indy7&#45;&gt;limits_q_indy7</title>
<path fill="none" stroke="black" d="M1319.4,-369.92C1335.06,-359.01 1354.8,-345.26 1371.28,-333.79"/>
<polygon fill="black" stroke="black" points="1373.35,-336.61 1379.55,-328.03 1369.35,-330.87 1373.35,-336.61"/>
</g>
<!-- pose_6_indy7 -->
<g id="node16" class="node">
<title>pose_6_indy7</title>
<ellipse fill="none" stroke="green" cx="1224" cy="-310" rx="72.59" ry="18"/>
<text text-anchor="middle" x="1224" y="-306.3" font-family="Times,serif" font-size="14.00">pose_6_indy7</text>
</g>
<!-- q_indy7&#45;&gt;pose_6_indy7 -->
<g id="edge3" class="edge">
<title>q_indy7&#45;&gt;pose_6_indy7</title>
<path fill="none" stroke="black" d="M1273.42,-367.69C1264.71,-357.69 1254.28,-345.74 1245.26,-335.38"/>
<polygon fill="black" stroke="black" points="1247.89,-333.08 1238.68,-327.84 1242.61,-337.68 1247.89,-333.08"/>
</g>
<!-- qd_indy7 -->
<g id="node2" class="node">
<title>qd_indy7</title>
<polygon fill="none" stroke="green" points="1100.97,-462.54 1100.97,-477.46 1067.6,-488 1020.4,-488 987.03,-477.46 987.03,-462.54 1020.4,-452 1067.6,-452 1100.97,-462.54"/>
<polygon fill="none" stroke="green" points="1104.97,-459.61 1104.97,-480.39 1068.21,-492 1019.79,-492 983.03,-480.39 983.03,-459.61 1019.79,-448 1068.21,-448 1104.97,-459.61"/>
<text text-anchor="middle" x="1044" y="-466.3" font-family="Times,serif" font-size="14.00">qd_indy7</text>
</g>
<!-- qd_indy7&#45;&gt;q_indy7 -->
<g id="edge28" class="edge">
<title>qd_indy7&#45;&gt;q_indy7</title>
<path fill="none" stroke="black" stroke-dasharray="5,2" d="M1089.49,-454.69C1131.74,-441.41 1194.65,-421.62 1239.12,-407.63"/>
<polygon fill="black" stroke="black" points="1240.39,-410.9 1248.88,-404.56 1238.29,-404.22 1240.39,-410.9"/>
</g>
<!-- stationary_qd_indy7 -->
<g id="node8" class="node">
<title>stationary_qd_indy7</title>
<polygon fill="none" stroke="magenta" points="512.66,-390 452.33,-408 331.67,-408 271.34,-390 331.67,-372 452.33,-372 512.66,-390"/>
<text text-anchor="middle" x="392" y="-386.3" font-family="Times,serif" font-size="14.00">stationary_qd_indy7</text>
</g>
<!-- qd_indy7&#45;&gt;stationary_qd_indy7 -->
<g id="edge4" class="edge">
<title>qd_indy7&#45;&gt;stationary_qd_indy7</title>
<path fill="none" stroke="black" d="M982.95,-461.7C868.61,-448.02 621.47,-418.45 485.83,-402.22"/>
<polygon fill="black" stroke="black" points="486.2,-398.74 475.86,-401.03 485.37,-405.69 486.2,-398.74"/>
</g>
<!-- limits_qd_indy7 -->
<g id="node12" class="node">
<title>limits_qd_indy7</title>
<polygon fill="none" stroke="magenta" points="833.13,-390 785.06,-408 688.94,-408 640.87,-390 688.94,-372 785.06,-372 833.13,-390"/>
<text text-anchor="middle" x="737" y="-386.3" font-family="Times,serif" font-size="14.00">limits_qd_indy7</text>
</g>
<!-- qd_indy7&#45;&gt;limits_qd_indy7 -->
<g id="edge5" class="edge">
<title>qd_indy7&#45;&gt;limits_qd_indy7</title>
<path fill="none" stroke="black" d="M993.65,-456.21C941.58,-442.98 860.03,-422.26 802.86,-407.73"/>
<polygon fill="black" stroke="black" points="803.39,-404.26 792.84,-405.19 801.67,-411.04 803.39,-404.26"/>
</g>
<!-- reg_qd_indy7 -->
<g id="node26" class="node">
<title>reg_qd_indy7</title>
<polygon fill="none" stroke="magenta" points="1128.11,-390 1086.05,-408 1001.95,-408 959.89,-390 1001.95,-372 1086.05,-372 1128.11,-390"/>
<text text-anchor="middle" x="1044" y="-386.3" font-family="Times,serif" font-size="14.00">reg_qd_indy7</text>
</g>
<!-- qd_indy7&#45;&gt;reg_qd_indy7 -->
<g id="edge6" class="edge">
<title>qd_indy7&#45;&gt;reg_qd_indy7</title>
<path fill="none" stroke="black" d="M1044,-447.69C1044,-438.64 1044,-427.99 1044,-418.37"/>
<polygon fill="black" stroke="black" points="1047.5,-418.09 1044,-408.09 1040.5,-418.09 1047.5,-418.09"/>
</g>
<!-- qdd_indy7 -->
<g id="node3" class="node">
<title>qdd_indy7</title>
<polygon fill="none" stroke="cyan" points="1903.14,-542.54 1903.14,-557.46 1866.15,-568 1813.85,-568 1776.86,-557.46 1776.86,-542.54 1813.85,-532 1866.15,-532 1903.14,-542.54"/>
<polygon fill="none" stroke="cyan" points="1907.13,-539.52 1907.13,-560.48 1866.71,-572 1813.29,-572 1772.87,-560.48 1772.87,-539.52 1813.29,-528 1866.71,-528 1907.13,-539.52"/>
<text text-anchor="middle" x="1840" y="-546.3" font-family="Times,serif" font-size="14.00">qdd_indy7</text>
</g>
<!-- qdd_indy7&#45;&gt;qd_indy7 -->
<g id="edge29" class="edge">
<title>qdd_indy7&#45;&gt;qd_indy7</title>
<path fill="none" stroke="black" stroke-dasharray="5,2" d="M1772.82,-542.42C1624.06,-527.84 1268,-492.95 1115.4,-478"/>
<polygon fill="black" stroke="black" points="1115.51,-474.49 1105.21,-477 1114.82,-481.46 1115.51,-474.49"/>
</g>
<!-- limits_qdd_indy7 -->
<g id="node14" class="node">
<title>limits_qdd_indy7</title>
<polygon fill="none" stroke="magenta" points="1942.63,-470 1891.32,-488 1788.68,-488 1737.37,-470 1788.68,-452 1891.32,-452 1942.63,-470"/>
<text text-anchor="middle" x="1840" y="-466.3" font-family="Times,serif" font-size="14.00">limits_qdd_indy7</text>
</g>
<!-- qdd_indy7&#45;&gt;limits_qdd_indy7 -->
<g id="edge7" class="edge">
<title>qdd_indy7&#45;&gt;limits_qdd_indy7</title>
<path fill="none" stroke="black" d="M1840,-527.69C1840,-518.64 1840,-507.99 1840,-498.37"/>
<polygon fill="black" stroke="black" points="1843.5,-498.09 1840,-488.09 1836.5,-498.09 1843.5,-498.09"/>
</g>
<!-- reg_qdd_indy7 -->
<g id="node28" class="node">
<title>reg_qdd_indy7</title>
<polygon fill="none" stroke="magenta" points="2143.62,-470 2098.31,-488 2007.69,-488 1962.38,-470 2007.69,-452 2098.31,-452 2143.62,-470"/>
<text text-anchor="middle" x="2053" y="-466.3" font-family="Times,serif" font-size="14.00">reg_qdd_indy7</text>
</g>
<!-- qdd_indy7&#45;&gt;reg_qdd_indy7 -->
<g id="edge8" class="edge">
<title>qdd_indy7&#45;&gt;reg_qdd_indy7</title>
<path fill="none" stroke="black" d="M1884.13,-532.84C1916.99,-520.81 1962.08,-504.3 1997.4,-491.36"/>
<polygon fill="black" stroke="black" points="1998.9,-494.54 2007.08,-487.81 1996.49,-487.97 1998.9,-494.54"/>
</g>
<!-- jointpos_init_indy7 -->
<g id="node4" class="node">
<title>jointpos_init_indy7</title>
<polygon fill="none" stroke="red" points="1716.45,-382.54 1716.45,-397.46 1654.09,-408 1565.91,-408 1503.55,-397.46 1503.55,-382.54 1565.91,-372 1654.09,-372 1716.45,-382.54"/>
<polygon fill="none" stroke="red" points="1720.46,-379.16 1720.46,-400.84 1654.43,-412 1565.57,-412 1499.54,-400.84 1499.54,-379.16 1565.57,-368 1654.43,-368 1720.46,-379.16"/>
<text text-anchor="middle" x="1610" y="-386.3" font-family="Times,serif" font-size="14.00">jointpos_init_indy7</text>
</g>
<!-- jointpos_init_indy7&#45;&gt;error_q_indy7_jointpos_init_indy7 -->
<g id="edge9" class="edge">
<title>jointpos_init_indy7&#45;&gt;error_q_indy7_jointpos_init_indy7</title>
<path fill="none" stroke="black" d="M1628.58,-367.69C1637.15,-357.86 1647.36,-346.14 1656.28,-335.91"/>
<polygon fill="black" stroke="black" points="1659.16,-337.93 1663.1,-328.09 1653.89,-333.33 1659.16,-337.93"/>
</g>
<!-- equality_q_indy7 -->
<g id="node6" class="node">
<title>equality_q_indy7</title>
<polygon fill="none" stroke="magenta" points="1788.63,-234 1737.32,-252 1634.68,-252 1583.37,-234 1634.68,-216 1737.32,-216 1788.63,-234"/>
<text text-anchor="middle" x="1686" y="-230.3" font-family="Times,serif" font-size="14.00">equality_q_indy7</text>
</g>
<!-- error_q_indy7_jointpos_init_indy7&#45;&gt;equality_q_indy7 -->
<g id="edge10" class="edge">
<title>error_q_indy7_jointpos_init_indy7&#45;&gt;equality_q_indy7</title>
<path fill="none" stroke="black" d="M1679.86,-291.84C1680.8,-283.06 1681.98,-272.16 1683.05,-262.27"/>
<polygon fill="black" stroke="black" points="1686.56,-262.39 1684.15,-252.07 1679.6,-261.64 1686.56,-262.39"/>
</g>
<!-- (&#39;initial&#39;, &#39;equality_q_indy7&#39;) -->
<g id="node7" class="node">
<title>(&#39;initial&#39;, &#39;equality_q_indy7&#39;)</title>
<polygon fill="none" stroke="purple" points="1792,-180 1580,-180 1580,-144 1792,-144 1792,-180"/>
<text text-anchor="middle" x="1686" y="-158.3" font-family="Times,serif" font-size="14.00">(&#39;initial&#39;, &#39;equality_q_indy7&#39;)</text>
</g>
<!-- equality_q_indy7&#45;&gt;(&#39;initial&#39;, &#39;equality_q_indy7&#39;) -->
<g id="edge11" class="edge">
<title>equality_q_indy7&#45;&gt;(&#39;initial&#39;, &#39;equality_q_indy7&#39;)</title>
<path fill="none" stroke="black" d="M1686,-215.7C1686,-207.98 1686,-198.71 1686,-190.11"/>
<polygon fill="black" stroke="black" points="1689.5,-190.1 1686,-180.1 1682.5,-190.1 1689.5,-190.1"/>
</g>
<!-- (&#39;initial&#39;, &#39;stationary_qd_indy7&#39;) -->
<g id="node9" class="node">
<title>(&#39;initial&#39;, &#39;stationary_qd_indy7&#39;)</title>
<polygon fill="none" stroke="purple" points="510,-328 274,-328 274,-292 510,-292 510,-328"/>
<text text-anchor="middle" x="392" y="-306.3" font-family="Times,serif" font-size="14.00">(&#39;initial&#39;, &#39;stationary_qd_indy7&#39;)</text>
</g>
<!-- stationary_qd_indy7&#45;&gt;(&#39;initial&#39;, &#39;stationary_qd_indy7&#39;) -->
<g id="edge12" class="edge">
<title>stationary_qd_indy7&#45;&gt;(&#39;initial&#39;, &#39;stationary_qd_indy7&#39;)</title>
<path fill="none" stroke="black" d="M392,-371.69C392,-361.89 392,-349.42 392,-338.33"/>
<polygon fill="black" stroke="black" points="395.5,-338.26 392,-328.26 388.5,-338.26 395.5,-338.26"/>
</g>
<!-- (&#39;terminal&#39;, &#39;stationary_qd_indy7&#39;) -->
<g id="node25" class="node">
<title>(&#39;terminal&#39;, &#39;stationary_qd_indy7&#39;)</title>
<polygon fill="none" stroke="purple" points="256,-328 0,-328 0,-292 256,-292 256,-328"/>
<text text-anchor="middle" x="128" y="-306.3" font-family="Times,serif" font-size="14.00">(&#39;terminal&#39;, &#39;stationary_qd_indy7&#39;)</text>
</g>
<!-- stationary_qd_indy7&#45;&gt;(&#39;terminal&#39;, &#39;stationary_qd_indy7&#39;) -->
<g id="edge13" class="edge">
<title>stationary_qd_indy7&#45;&gt;(&#39;terminal&#39;, &#39;stationary_qd_indy7&#39;)</title>
<path fill="none" stroke="black" d="M334.39,-371.98C293.57,-359.92 238.66,-343.7 195.74,-331.01"/>
<polygon fill="black" stroke="black" points="196.52,-327.6 185.94,-328.12 194.54,-334.31 196.52,-327.6"/>
</g>
<!-- (&#39;path&#39;, &#39;limits_q_indy7&#39;) -->
<g id="node11" class="node">
<title>(&#39;path&#39;, &#39;limits_q_indy7&#39;)</title>
<polygon fill="none" stroke="purple" points="1565,-252 1379,-252 1379,-216 1565,-216 1565,-252"/>
<text text-anchor="middle" x="1472" y="-230.3" font-family="Times,serif" font-size="14.00">(&#39;path&#39;, &#39;limits_q_indy7&#39;)</text>
</g>
<!-- limits_q_indy7&#45;&gt;(&#39;path&#39;, &#39;limits_q_indy7&#39;) -->
<g id="edge14" class="edge">
<title>limits_q_indy7&#45;&gt;(&#39;path&#39;, &#39;limits_q_indy7&#39;)</title>
<path fill="none" stroke="black" d="M1419.77,-291.84C1428.61,-282.22 1439.79,-270.06 1449.53,-259.46"/>
<polygon fill="black" stroke="black" points="1452.12,-261.8 1456.31,-252.07 1446.97,-257.07 1452.12,-261.8"/>
</g>
<!-- (&#39;path&#39;, &#39;limits_qd_indy7&#39;) -->
<g id="node13" class="node">
<title>(&#39;path&#39;, &#39;limits_qd_indy7&#39;)</title>
<polygon fill="none" stroke="purple" points="723.5,-328 528.5,-328 528.5,-292 723.5,-292 723.5,-328"/>
<text text-anchor="middle" x="626" y="-306.3" font-family="Times,serif" font-size="14.00">(&#39;path&#39;, &#39;limits_qd_indy7&#39;)</text>
</g>
<!-- limits_qd_indy7&#45;&gt;(&#39;path&#39;, &#39;limits_qd_indy7&#39;) -->
<g id="edge15" class="edge">
<title>limits_qd_indy7&#45;&gt;(&#39;path&#39;, &#39;limits_qd_indy7&#39;)</title>
<path fill="none" stroke="black" d="M712.64,-371.88C696.88,-360.81 676.17,-346.25 658.95,-334.15"/>
<polygon fill="black" stroke="black" points="660.5,-330.96 650.3,-328.08 656.47,-336.69 660.5,-330.96"/>
</g>
<!-- (&#39;path&#39;, &#39;limits_qdd_indy7&#39;) -->
<g id="node15" class="node">
<title>(&#39;path&#39;, &#39;limits_qdd_indy7&#39;)</title>
<polygon fill="none" stroke="purple" points="1942,-408 1738,-408 1738,-372 1942,-372 1942,-408"/>
<text text-anchor="middle" x="1840" y="-386.3" font-family="Times,serif" font-size="14.00">(&#39;path&#39;, &#39;limits_qdd_indy7&#39;)</text>
</g>
<!-- limits_qdd_indy7&#45;&gt;(&#39;path&#39;, &#39;limits_qdd_indy7&#39;) -->
<g id="edge16" class="edge">
<title>limits_qdd_indy7&#45;&gt;(&#39;path&#39;, &#39;limits_qdd_indy7&#39;)</title>
<path fill="none" stroke="black" d="M1840,-451.69C1840,-441.89 1840,-429.42 1840,-418.33"/>
<polygon fill="black" stroke="black" points="1843.5,-418.26 1840,-408.26 1836.5,-418.26 1843.5,-418.26"/>
</g>
<!-- trans_error_pose_6_indy7_vs_goal -->
<g id="node18" class="node">
<title>trans_error_pose_6_indy7_vs_goal</title>
<ellipse fill="none" stroke="green" cx="1193" cy="-234" rx="168.17" ry="18"/>
<text text-anchor="middle" x="1193" y="-230.3" font-family="Times,serif" font-size="14.00">trans_error_pose_6_indy7_vs_goal</text>
</g>
<!-- pose_6_indy7&#45;&gt;trans_error_pose_6_indy7_vs_goal -->
<g id="edge17" class="edge">
<title>pose_6_indy7&#45;&gt;trans_error_pose_6_indy7_vs_goal</title>
<path fill="none" stroke="black" d="M1216.81,-291.84C1213.01,-282.78 1208.28,-271.47 1204.03,-261.32"/>
<polygon fill="black" stroke="black" points="1207.24,-259.94 1200.15,-252.07 1200.79,-262.65 1207.24,-259.94"/>
</g>
<!-- rotmat_error_pose_6_indy7_vs_goal -->
<g id="node21" class="node">
<title>rotmat_error_pose_6_indy7_vs_goal</title>
<ellipse fill="none" stroke="green" cx="831" cy="-234" rx="175.47" ry="18"/>
<text text-anchor="middle" x="831" y="-230.3" font-family="Times,serif" font-size="14.00">rotmat_error_pose_6_indy7_vs_goal</text>
</g>
<!-- pose_6_indy7&#45;&gt;rotmat_error_pose_6_indy7_vs_goal -->
<g id="edge18" class="edge">
<title>pose_6_indy7&#45;&gt;rotmat_error_pose_6_indy7_vs_goal</title>
<path fill="none" stroke="black" d="M1176.89,-296.23C1165.51,-293.34 1153.36,-290.42 1142,-288 1073.87,-273.5 996.69,-260.32 936.25,-250.74"/>
<polygon fill="black" stroke="black" points="936.74,-247.27 926.32,-249.17 935.65,-254.19 936.74,-247.27"/>
</g>
<!-- goal_pose_indy7 -->
<g id="node17" class="node">
<title>goal_pose_indy7</title>
<polygon fill="none" stroke="red" points="932.63,-302.54 932.63,-317.46 877.78,-328 800.22,-328 745.37,-317.46 745.37,-302.54 800.22,-292 877.78,-292 932.63,-302.54"/>
<polygon fill="none" stroke="red" points="936.63,-299.24 936.63,-320.76 878.16,-332 799.84,-332 741.37,-320.76 741.37,-299.24 799.84,-288 878.16,-288 936.63,-299.24"/>
<text text-anchor="middle" x="839" y="-306.3" font-family="Times,serif" font-size="14.00">goal_pose_indy7</text>
</g>
<!-- goal_pose_indy7&#45;&gt;trans_error_pose_6_indy7_vs_goal -->
<g id="edge19" class="edge">
<title>goal_pose_indy7&#45;&gt;trans_error_pose_6_indy7_vs_goal</title>
<path fill="none" stroke="black" d="M910.21,-294.11C967.97,-282.04 1049.47,-265 1110.15,-252.32"/>
<polygon fill="black" stroke="black" points="1111.01,-255.72 1120.08,-250.24 1109.57,-248.86 1111.01,-255.72"/>
</g>
<!-- goal_pose_indy7&#45;&gt;rotmat_error_pose_6_indy7_vs_goal -->
<g id="edge20" class="edge">
<title>goal_pose_indy7&#45;&gt;rotmat_error_pose_6_indy7_vs_goal</title>
<path fill="none" stroke="black" d="M836.73,-287.99C835.87,-280.06 834.88,-270.91 833.97,-262.48"/>
<polygon fill="black" stroke="black" points="837.43,-261.88 832.87,-252.31 830.47,-262.63 837.43,-261.88"/>
</g>
<!-- trans_con_pose_6_indy7_vs_goal -->
<g id="node19" class="node">
<title>trans_con_pose_6_indy7_vs_goal</title>
<polygon fill="none" stroke="magenta" points="1387.24,-162 1294.62,-180 1109.38,-180 1016.76,-162 1109.38,-144 1294.62,-144 1387.24,-162"/>
<text text-anchor="middle" x="1202" y="-158.3" font-family="Times,serif" font-size="14.00">trans_con_pose_6_indy7_vs_goal</text>
</g>
<!-- trans_error_pose_6_indy7_vs_goal&#45;&gt;trans_con_pose_6_indy7_vs_goal -->
<g id="edge21" class="edge">
<title>trans_error_pose_6_indy7_vs_goal&#45;&gt;trans_con_pose_6_indy7_vs_goal</title>
<path fill="none" stroke="black" d="M1195.22,-215.7C1196.22,-207.98 1197.41,-198.71 1198.51,-190.11"/>
<polygon fill="black" stroke="black" points="1202,-190.47 1199.8,-180.1 1195.05,-189.58 1202,-190.47"/>
</g>
<!-- (&#39;terminal&#39;, &#39;trans_con_pose_6_indy7_vs_goal&#39;) -->
<g id="node20" class="node">
<title>(&#39;terminal&#39;, &#39;trans_con_pose_6_indy7_vs_goal&#39;)</title>
<polygon fill="none" stroke="purple" points="1373,-108 1031,-108 1031,-72 1373,-72 1373,-108"/>
<text text-anchor="middle" x="1202" y="-86.3" font-family="Times,serif" font-size="14.00">(&#39;terminal&#39;, &#39;trans_con_pose_6_indy7_vs_goal&#39;)</text>
</g>
<!-- trans_con_pose_6_indy7_vs_goal&#45;&gt;(&#39;terminal&#39;, &#39;trans_con_pose_6_indy7_vs_goal&#39;) -->
<g id="edge22" class="edge">
<title>trans_con_pose_6_indy7_vs_goal&#45;&gt;(&#39;terminal&#39;, &#39;trans_con_pose_6_indy7_vs_goal&#39;)</title>
<path fill="none" stroke="black" d="M1202,-143.7C1202,-135.98 1202,-126.71 1202,-118.11"/>
<polygon fill="black" stroke="black" points="1205.5,-118.1 1202,-108.1 1198.5,-118.1 1205.5,-118.1"/>
</g>
<!-- ax_ang_error_pose_6_indy7_vs_goal -->
<g id="node22" class="node">
<title>ax_ang_error_pose_6_indy7_vs_goal</title>
<ellipse fill="none" stroke="green" cx="822" cy="-162" rx="176.27" ry="18"/>
<text text-anchor="middle" x="822" y="-158.3" font-family="Times,serif" font-size="14.00">ax_ang_error_pose_6_indy7_vs_goal</text>
</g>
<!-- rotmat_error_pose_6_indy7_vs_goal&#45;&gt;ax_ang_error_pose_6_indy7_vs_goal -->
<g id="edge23" class="edge">
<title>rotmat_error_pose_6_indy7_vs_goal&#45;&gt;ax_ang_error_pose_6_indy7_vs_goal</title>
<path fill="none" stroke="black" d="M828.78,-215.7C827.78,-207.98 826.59,-198.71 825.49,-190.11"/>
<polygon fill="black" stroke="black" points="828.95,-189.58 824.2,-180.1 822,-190.47 828.95,-189.58"/>
</g>
<!-- rot_con_pose_6_indy7_vs_goal -->
<g id="node23" class="node">
<title>rot_con_pose_6_indy7_vs_goal</title>
<polygon fill="none" stroke="magenta" points="994.72,-90 908.36,-108 735.64,-108 649.28,-90 735.64,-72 908.36,-72 994.72,-90"/>
<text text-anchor="middle" x="822" y="-86.3" font-family="Times,serif" font-size="14.00">rot_con_pose_6_indy7_vs_goal</text>
</g>
<!-- ax_ang_error_pose_6_indy7_vs_goal&#45;&gt;rot_con_pose_6_indy7_vs_goal -->
<g id="edge24" class="edge">
<title>ax_ang_error_pose_6_indy7_vs_goal&#45;&gt;rot_con_pose_6_indy7_vs_goal</title>
<path fill="none" stroke="black" d="M822,-143.7C822,-135.98 822,-126.71 822,-118.11"/>
<polygon fill="black" stroke="black" points="825.5,-118.1 822,-108.1 818.5,-118.1 825.5,-118.1"/>
</g>
<!-- (&#39;terminal&#39;, &#39;rot_con_pose_6_indy7_vs_goal&#39;) -->
<g id="node24" class="node">
<title>(&#39;terminal&#39;, &#39;rot_con_pose_6_indy7_vs_goal&#39;)</title>
<polygon fill="none" stroke="purple" points="985,-36 659,-36 659,0 985,0 985,-36"/>
<text text-anchor="middle" x="822" y="-14.3" font-family="Times,serif" font-size="14.00">(&#39;terminal&#39;, &#39;rot_con_pose_6_indy7_vs_goal&#39;)</text>
</g>
<!-- rot_con_pose_6_indy7_vs_goal&#45;&gt;(&#39;terminal&#39;, &#39;rot_con_pose_6_indy7_vs_goal&#39;) -->
<g id="edge25" class="edge">
<title>rot_con_pose_6_indy7_vs_goal&#45;&gt;(&#39;terminal&#39;, &#39;rot_con_pose_6_indy7_vs_goal&#39;)</title>
<path fill="none" stroke="black" d="M822,-71.7C822,-63.98 822,-54.71 822,-46.11"/>
<polygon fill="black" stroke="black" points="825.5,-46.1 822,-36.1 818.5,-46.1 825.5,-46.1"/>
</g>
<!-- (&#39;path&#39;, &#39;reg_qd_indy7&#39;) -->
<g id="node27" class="node">
<title>(&#39;path&#39;, &#39;reg_qd_indy7&#39;)</title>
<polygon fill="none" stroke="purple" points="1133.5,-328 954.5,-328 954.5,-292 1133.5,-292 1133.5,-328"/>
<text text-anchor="middle" x="1044" y="-306.3" font-family="Times,serif" font-size="14.00">(&#39;path&#39;, &#39;reg_qd_indy7&#39;)</text>
</g>
<!-- reg_qd_indy7&#45;&gt;(&#39;path&#39;, &#39;reg_qd_indy7&#39;) -->
<g id="edge26" class="edge">
<title>reg_qd_indy7&#45;&gt;(&#39;path&#39;, &#39;reg_qd_indy7&#39;)</title>
<path fill="none" stroke="black" d="M1044,-371.69C1044,-361.89 1044,-349.42 1044,-338.33"/>
<polygon fill="black" stroke="black" points="1047.5,-338.26 1044,-328.26 1040.5,-338.26 1047.5,-338.26"/>
</g>
<!-- (&#39;path&#39;, &#39;reg_qdd_indy7&#39;) -->
<g id="node29" class="node">
<title>(&#39;path&#39;, &#39;reg_qdd_indy7&#39;)</title>
<polygon fill="none" stroke="purple" points="2148,-408 1960,-408 1960,-372 2148,-372 2148,-408"/>
<text text-anchor="middle" x="2054" y="-386.3" font-family="Times,serif" font-size="14.00">(&#39;path&#39;, &#39;reg_qdd_indy7&#39;)</text>
</g>
<!-- reg_qdd_indy7&#45;&gt;(&#39;path&#39;, &#39;reg_qdd_indy7&#39;) -->
<g id="edge27" class="edge">
<title>reg_qdd_indy7&#45;&gt;(&#39;path&#39;, &#39;reg_qdd_indy7&#39;)</title>
<path fill="none" stroke="black" d="M2053.22,-451.69C2053.35,-441.89 2053.51,-429.42 2053.65,-418.33"/>
<polygon fill="black" stroke="black" points="2057.15,-418.31 2053.78,-408.26 2050.15,-418.22 2057.15,-418.31"/>
</g>
</g>
</svg>
