<?xml version="1.0" encoding="UTF-8" standalone="no"?>
<!DOCTYPE svg PUBLIC "-//W3C//DTD SVG 1.1//EN"
 "http://www.w3.org/Graphics/SVG/1.1/DTD/svg11.dtd">
<!-- Generated by graphviz version 2.43.0 (0)
 -->
<!-- Title: %3 Pages: 1 -->
<svg width="1898pt" height="580pt"
 viewBox="0.00 0.00 1898.37 580.00" xmlns="http://www.w3.org/2000/svg" xmlns:xlink="http://www.w3.org/1999/xlink">
<g id="graph0" class="graph" transform="scale(1 1) rotate(0) translate(4 576)">
<title>%3</title>
<polygon fill="white" stroke="transparent" points="-4,4 -4,-576 1894.37,-576 1894.37,4 -4,4"/>
<!-- q_indy7 -->
<g id="node1" class="node">
<title>q_indy7</title>
<polygon fill="none" stroke="green" points="1003.79,-382.54 1003.79,-397.46 974.04,-408 931.96,-408 902.21,-397.46 902.21,-382.54 931.96,-372 974.04,-372 1003.79,-382.54"/>
<polygon fill="none" stroke="green" points="1007.8,-379.72 1007.8,-400.28 974.73,-412 931.27,-412 898.2,-400.28 898.2,-379.72 931.27,-368 974.73,-368 1007.8,-379.72"/>
<text text-anchor="middle" x="953" y="-386.3" font-family="Times,serif" font-size="14.00">q_indy7</text>
</g>
<!-- error_q_indy7_q_init_indy7 -->
<g id="node5" class="node">
<title>error_q_indy7_q_init_indy7</title>
<ellipse fill="none" stroke="green" cx="820" cy="-310" rx="135.68" ry="18"/>
<text text-anchor="middle" x="820" y="-306.3" font-family="Times,serif" font-size="14.00">error_q_indy7_q_init_indy7</text>
</g>
<!-- q_indy7&#45;&gt;error_q_indy7_q_init_indy7 -->
<g id="edge1" class="edge">
<title>q_indy7&#45;&gt;error_q_indy7_q_init_indy7</title>
<path fill="none" stroke="black" d="M922.49,-371.11C903.11,-359.74 877.91,-344.96 857.34,-332.9"/>
<polygon fill="black" stroke="black" points="858.95,-329.78 848.55,-327.74 855.41,-335.82 858.95,-329.78"/>
</g>
<!-- limits_q_indy7 -->
<g id="node9" class="node">
<title>limits_q_indy7</title>
<polygon fill="none" stroke="magenta" points="1578.12,-310 1533.56,-328 1444.44,-328 1399.88,-310 1444.44,-292 1533.56,-292 1578.12,-310"/>
<text text-anchor="middle" x="1489" y="-306.3" font-family="Times,serif" font-size="14.00">limits_q_indy7</text>
</g>
<!-- q_indy7&#45;&gt;limits_q_indy7 -->
<g id="edge2" class="edge">
<title>q_indy7&#45;&gt;limits_q_indy7</title>
<path fill="none" stroke="black" d="M992.98,-374.27C1000.54,-371.88 1008.46,-369.66 1016,-368 1157.95,-336.85 1196.82,-350.21 1341,-332 1365.22,-328.94 1391.62,-325.3 1415.33,-321.91"/>
<polygon fill="black" stroke="black" points="1415.91,-325.36 1425.32,-320.47 1414.92,-318.43 1415.91,-325.36"/>
</g>
<!-- pose_6_indy7 -->
<g id="node15" class="node">
<title>pose_6_indy7</title>
<ellipse fill="none" stroke="green" cx="1259" cy="-310" rx="72.59" ry="18"/>
<text text-anchor="middle" x="1259" y="-306.3" font-family="Times,serif" font-size="14.00">pose_6_indy7</text>
</g>
<!-- q_indy7&#45;&gt;pose_6_indy7 -->
<g id="edge3" class="edge">
<title>q_indy7&#45;&gt;pose_6_indy7</title>
<path fill="none" stroke="black" d="M993.82,-374.71C1001.16,-372.34 1008.78,-370 1016,-368 1087.08,-348.31 1106.29,-349.26 1178,-332 1185.55,-330.18 1193.47,-328.21 1201.29,-326.23"/>
<polygon fill="black" stroke="black" points="1202.28,-329.59 1211.1,-323.71 1200.54,-322.8 1202.28,-329.59"/>
</g>
<!-- qd_indy7 -->
<g id="node2" class="node">
<title>qd_indy7</title>
<polygon fill="none" stroke="green" points="829.97,-462.54 829.97,-477.46 796.6,-488 749.4,-488 716.03,-477.46 716.03,-462.54 749.4,-452 796.6,-452 829.97,-462.54"/>
<polygon fill="none" stroke="green" points="833.97,-459.61 833.97,-480.39 797.21,-492 748.79,-492 712.03,-480.39 712.03,-459.61 748.79,-448 797.21,-448 833.97,-459.61"/>
<text text-anchor="middle" x="773" y="-466.3" font-family="Times,serif" font-size="14.00">qd_indy7</text>
</g>
<!-- qd_indy7&#45;&gt;q_indy7 -->
<g id="edge33" class="edge">
<title>qd_indy7&#45;&gt;q_indy7</title>
<path fill="none" stroke="black" stroke-dasharray="5,2" d="M811.61,-452.27C839.58,-440.15 877.5,-423.72 907.02,-410.92"/>
<polygon fill="black" stroke="black" points="908.51,-414.09 916.29,-406.91 905.73,-407.67 908.51,-414.09"/>
</g>
<!-- stationary_qd_indy7 -->
<g id="node8" class="node">
<title>stationary_qd_indy7</title>
<polygon fill="none" stroke="magenta" points="256.66,-390 196.33,-408 75.67,-408 15.34,-390 75.67,-372 196.33,-372 256.66,-390"/>
<text text-anchor="middle" x="136" y="-386.3" font-family="Times,serif" font-size="14.00">stationary_qd_indy7</text>
</g>
<!-- qd_indy7&#45;&gt;stationary_qd_indy7 -->
<g id="edge4" class="edge">
<title>qd_indy7&#45;&gt;stationary_qd_indy7</title>
<path fill="none" stroke="black" d="M711.73,-462.91C616.9,-453.29 428.95,-433.45 270,-412 254.35,-409.89 237.7,-407.44 221.65,-404.98"/>
<polygon fill="black" stroke="black" points="222.16,-401.52 211.74,-403.45 221.09,-408.43 222.16,-401.52"/>
</g>
<!-- limits_qd_indy7 -->
<g id="node11" class="node">
<title>limits_qd_indy7</title>
<polygon fill="none" stroke="magenta" points="471.13,-390 423.06,-408 326.94,-408 278.87,-390 326.94,-372 423.06,-372 471.13,-390"/>
<text text-anchor="middle" x="375" y="-386.3" font-family="Times,serif" font-size="14.00">limits_qd_indy7</text>
</g>
<!-- qd_indy7&#45;&gt;limits_qd_indy7 -->
<g id="edge5" class="edge">
<title>qd_indy7&#45;&gt;limits_qd_indy7</title>
<path fill="none" stroke="black" d="M716.82,-457.99C645.97,-444.1 524.07,-420.21 446.6,-405.03"/>
<polygon fill="black" stroke="black" points="446.93,-401.53 436.45,-403.04 445.59,-408.4 446.93,-401.53"/>
</g>
<!-- err_qd_qinit_indy7 -->
<g id="node24" class="node">
<title>err_qd_qinit_indy7</title>
<ellipse fill="none" stroke="green" cx="1122" cy="-390" rx="96.68" ry="18"/>
<text text-anchor="middle" x="1122" y="-386.3" font-family="Times,serif" font-size="14.00">err_qd_qinit_indy7</text>
</g>
<!-- qd_indy7&#45;&gt;err_qd_qinit_indy7 -->
<g id="edge6" class="edge">
<title>qd_indy7&#45;&gt;err_qd_qinit_indy7</title>
<path fill="none" stroke="black" d="M826.39,-457.07C886.96,-443.53 985.95,-421.41 1052.5,-406.53"/>
<polygon fill="black" stroke="black" points="1053.49,-409.9 1062.48,-404.3 1051.96,-403.07 1053.49,-409.9"/>
</g>
<!-- reg_qd_indy7 -->
<g id="node31" class="node">
<title>reg_qd_indy7</title>
<polygon fill="none" stroke="magenta" points="677.11,-390 635.05,-408 550.95,-408 508.89,-390 550.95,-372 635.05,-372 677.11,-390"/>
<text text-anchor="middle" x="593" y="-386.3" font-family="Times,serif" font-size="14.00">reg_qd_indy7</text>
</g>
<!-- qd_indy7&#45;&gt;reg_qd_indy7 -->
<g id="edge7" class="edge">
<title>qd_indy7&#45;&gt;reg_qd_indy7</title>
<path fill="none" stroke="black" d="M734.39,-452.27C707.38,-440.56 671.09,-424.84 642.03,-412.25"/>
<polygon fill="black" stroke="black" points="643.05,-408.87 632.48,-408.11 640.27,-415.3 643.05,-408.87"/>
</g>
<!-- qdd_indy7 -->
<g id="node3" class="node">
<title>qdd_indy7</title>
<polygon fill="none" stroke="cyan" points="1402.14,-542.54 1402.14,-557.46 1365.15,-568 1312.85,-568 1275.86,-557.46 1275.86,-542.54 1312.85,-532 1365.15,-532 1402.14,-542.54"/>
<polygon fill="none" stroke="cyan" points="1406.13,-539.52 1406.13,-560.48 1365.71,-572 1312.29,-572 1271.87,-560.48 1271.87,-539.52 1312.29,-528 1365.71,-528 1406.13,-539.52"/>
<text text-anchor="middle" x="1339" y="-546.3" font-family="Times,serif" font-size="14.00">qdd_indy7</text>
</g>
<!-- qdd_indy7&#45;&gt;qd_indy7 -->
<g id="edge34" class="edge">
<title>qdd_indy7&#45;&gt;qd_indy7</title>
<path fill="none" stroke="black" stroke-dasharray="5,2" d="M1271.85,-539.75C1164.23,-524.91 954.07,-495.95 844.04,-480.79"/>
<polygon fill="black" stroke="black" points="844.41,-477.31 834.03,-479.41 843.46,-484.24 844.41,-477.31"/>
</g>
<!-- limits_qdd_indy7 -->
<g id="node13" class="node">
<title>limits_qdd_indy7</title>
<polygon fill="none" stroke="magenta" points="1441.63,-470 1390.32,-488 1287.68,-488 1236.37,-470 1287.68,-452 1390.32,-452 1441.63,-470"/>
<text text-anchor="middle" x="1339" y="-466.3" font-family="Times,serif" font-size="14.00">limits_qdd_indy7</text>
</g>
<!-- qdd_indy7&#45;&gt;limits_qdd_indy7 -->
<g id="edge8" class="edge">
<title>qdd_indy7&#45;&gt;limits_qdd_indy7</title>
<path fill="none" stroke="black" d="M1339,-527.69C1339,-518.64 1339,-507.99 1339,-498.37"/>
<polygon fill="black" stroke="black" points="1342.5,-498.09 1339,-488.09 1335.5,-498.09 1342.5,-498.09"/>
</g>
<!-- reg_qdd_indy7 -->
<g id="node33" class="node">
<title>reg_qdd_indy7</title>
<polygon fill="none" stroke="magenta" points="1642.62,-470 1597.31,-488 1506.69,-488 1461.38,-470 1506.69,-452 1597.31,-452 1642.62,-470"/>
<text text-anchor="middle" x="1552" y="-466.3" font-family="Times,serif" font-size="14.00">reg_qdd_indy7</text>
</g>
<!-- qdd_indy7&#45;&gt;reg_qdd_indy7 -->
<g id="edge9" class="edge">
<title>qdd_indy7&#45;&gt;reg_qdd_indy7</title>
<path fill="none" stroke="black" d="M1383.13,-532.84C1415.99,-520.81 1461.08,-504.3 1496.4,-491.36"/>
<polygon fill="black" stroke="black" points="1497.9,-494.54 1506.08,-487.81 1495.49,-487.97 1497.9,-494.54"/>
</g>
<!-- q_init_indy7 -->
<g id="node4" class="node">
<title>q_init_indy7</title>
<polygon fill="none" stroke="blue" points="876.42,-382.54 876.42,-397.46 834,-408 774,-408 731.58,-397.46 731.58,-382.54 774,-372 834,-372 876.42,-382.54"/>
<polygon fill="none" stroke="blue" points="880.42,-379.42 880.42,-400.58 834.49,-412 773.51,-412 727.58,-400.58 727.58,-379.42 773.51,-368 834.49,-368 880.42,-379.42"/>
<text text-anchor="middle" x="804" y="-386.3" font-family="Times,serif" font-size="14.00">q_init_indy7</text>
</g>
<!-- q_init_indy7&#45;&gt;error_q_indy7_q_init_indy7 -->
<g id="edge10" class="edge">
<title>q_init_indy7&#45;&gt;error_q_indy7_q_init_indy7</title>
<path fill="none" stroke="black" d="M808.37,-367.69C810.25,-358.54 812.46,-347.76 814.45,-338.06"/>
<polygon fill="black" stroke="black" points="817.91,-338.59 816.49,-328.09 811.06,-337.19 817.91,-338.59"/>
</g>
<!-- equality_q_indy7 -->
<g id="node6" class="node">
<title>equality_q_indy7</title>
<polygon fill="none" stroke="magenta" points="701.63,-234 650.32,-252 547.68,-252 496.37,-234 547.68,-216 650.32,-216 701.63,-234"/>
<text text-anchor="middle" x="599" y="-230.3" font-family="Times,serif" font-size="14.00">equality_q_indy7</text>
</g>
<!-- error_q_indy7_q_init_indy7&#45;&gt;equality_q_indy7 -->
<g id="edge11" class="edge">
<title>error_q_indy7_q_init_indy7&#45;&gt;equality_q_indy7</title>
<path fill="none" stroke="black" d="M772.59,-293.13C739.55,-282.06 695.19,-267.21 659.59,-255.29"/>
<polygon fill="black" stroke="black" points="660.39,-251.86 649.79,-252.01 658.17,-258.5 660.39,-251.86"/>
</g>
<!-- (&#39;initial&#39;, &#39;equality_q_indy7&#39;) -->
<g id="node7" class="node">
<title>(&#39;initial&#39;, &#39;equality_q_indy7&#39;)</title>
<polygon fill="none" stroke="purple" points="678,-180 466,-180 466,-144 678,-144 678,-180"/>
<text text-anchor="middle" x="572" y="-158.3" font-family="Times,serif" font-size="14.00">(&#39;initial&#39;, &#39;equality_q_indy7&#39;)</text>
</g>
<!-- equality_q_indy7&#45;&gt;(&#39;initial&#39;, &#39;equality_q_indy7&#39;) -->
<g id="edge12" class="edge">
<title>equality_q_indy7&#45;&gt;(&#39;initial&#39;, &#39;equality_q_indy7&#39;)</title>
<path fill="none" stroke="black" d="M592.33,-215.7C589.29,-207.81 585.62,-198.3 582.24,-189.55"/>
<polygon fill="black" stroke="black" points="585.46,-188.17 578.6,-180.1 578.93,-190.69 585.46,-188.17"/>
</g>
<!-- (&#39;terminal&#39;, &#39;stationary_qd_indy7&#39;) -->
<g id="node22" class="node">
<title>(&#39;terminal&#39;, &#39;stationary_qd_indy7&#39;)</title>
<polygon fill="none" stroke="purple" points="256,-328 0,-328 0,-292 256,-292 256,-328"/>
<text text-anchor="middle" x="128" y="-306.3" font-family="Times,serif" font-size="14.00">(&#39;terminal&#39;, &#39;stationary_qd_indy7&#39;)</text>
</g>
<!-- stationary_qd_indy7&#45;&gt;(&#39;terminal&#39;, &#39;stationary_qd_indy7&#39;) -->
<g id="edge13" class="edge">
<title>stationary_qd_indy7&#45;&gt;(&#39;terminal&#39;, &#39;stationary_qd_indy7&#39;)</title>
<path fill="none" stroke="black" d="M134.22,-371.69C133.22,-361.89 131.94,-349.42 130.8,-338.33"/>
<polygon fill="black" stroke="black" points="134.27,-337.85 129.77,-328.26 127.31,-338.57 134.27,-337.85"/>
</g>
<!-- (&#39;path&#39;, &#39;limits_q_indy7&#39;) -->
<g id="node10" class="node">
<title>(&#39;path&#39;, &#39;limits_q_indy7&#39;)</title>
<polygon fill="none" stroke="purple" points="1631,-252 1445,-252 1445,-216 1631,-216 1631,-252"/>
<text text-anchor="middle" x="1538" y="-230.3" font-family="Times,serif" font-size="14.00">(&#39;path&#39;, &#39;limits_q_indy7&#39;)</text>
</g>
<!-- limits_q_indy7&#45;&gt;(&#39;path&#39;, &#39;limits_q_indy7&#39;) -->
<g id="edge14" class="edge">
<title>limits_q_indy7&#45;&gt;(&#39;path&#39;, &#39;limits_q_indy7&#39;)</title>
<path fill="none" stroke="black" d="M1500.36,-291.84C1506.49,-282.59 1514.16,-271 1520.98,-260.7"/>
<polygon fill="black" stroke="black" points="1524.09,-262.34 1526.7,-252.07 1518.26,-258.48 1524.09,-262.34"/>
</g>
<!-- (&#39;path&#39;, &#39;limits_qd_indy7&#39;) -->
<g id="node12" class="node">
<title>(&#39;path&#39;, &#39;limits_qd_indy7&#39;)</title>
<polygon fill="none" stroke="purple" points="469.5,-328 274.5,-328 274.5,-292 469.5,-292 469.5,-328"/>
<text text-anchor="middle" x="372" y="-306.3" font-family="Times,serif" font-size="14.00">(&#39;path&#39;, &#39;limits_qd_indy7&#39;)</text>
</g>
<!-- limits_qd_indy7&#45;&gt;(&#39;path&#39;, &#39;limits_qd_indy7&#39;) -->
<g id="edge15" class="edge">
<title>limits_qd_indy7&#45;&gt;(&#39;path&#39;, &#39;limits_qd_indy7&#39;)</title>
<path fill="none" stroke="black" d="M374.33,-371.69C373.96,-361.89 373.48,-349.42 373.05,-338.33"/>
<polygon fill="black" stroke="black" points="376.55,-338.12 372.66,-328.26 369.55,-338.39 376.55,-338.12"/>
</g>
<!-- (&#39;path&#39;, &#39;limits_qdd_indy7&#39;) -->
<g id="node14" class="node">
<title>(&#39;path&#39;, &#39;limits_qdd_indy7&#39;)</title>
<polygon fill="none" stroke="purple" points="1441,-408 1237,-408 1237,-372 1441,-372 1441,-408"/>
<text text-anchor="middle" x="1339" y="-386.3" font-family="Times,serif" font-size="14.00">(&#39;path&#39;, &#39;limits_qdd_indy7&#39;)</text>
</g>
<!-- limits_qdd_indy7&#45;&gt;(&#39;path&#39;, &#39;limits_qdd_indy7&#39;) -->
<g id="edge16" class="edge">
<title>limits_qdd_indy7&#45;&gt;(&#39;path&#39;, &#39;limits_qdd_indy7&#39;)</title>
<path fill="none" stroke="black" d="M1339,-451.69C1339,-441.89 1339,-429.42 1339,-418.33"/>
<polygon fill="black" stroke="black" points="1342.5,-418.26 1339,-408.26 1335.5,-418.26 1342.5,-418.26"/>
</g>
<!-- trans_error_pose_6_indy7_vs_goal -->
<g id="node17" class="node">
<title>trans_error_pose_6_indy7_vs_goal</title>
<ellipse fill="none" stroke="green" cx="1259" cy="-234" rx="168.17" ry="18"/>
<text text-anchor="middle" x="1259" y="-230.3" font-family="Times,serif" font-size="14.00">trans_error_pose_6_indy7_vs_goal</text>
</g>
<!-- pose_6_indy7&#45;&gt;trans_error_pose_6_indy7_vs_goal -->
<g id="edge17" class="edge">
<title>pose_6_indy7&#45;&gt;trans_error_pose_6_indy7_vs_goal</title>
<path fill="none" stroke="black" d="M1259,-291.84C1259,-283.06 1259,-272.16 1259,-262.27"/>
<polygon fill="black" stroke="black" points="1262.5,-262.07 1259,-252.07 1255.5,-262.07 1262.5,-262.07"/>
</g>
<!-- rotmat_error_pose_6_indy7_vs_goal -->
<g id="node19" class="node">
<title>rotmat_error_pose_6_indy7_vs_goal</title>
<ellipse fill="none" stroke="green" cx="897" cy="-234" rx="175.47" ry="18"/>
<text text-anchor="middle" x="897" y="-230.3" font-family="Times,serif" font-size="14.00">rotmat_error_pose_6_indy7_vs_goal</text>
</g>
<!-- pose_6_indy7&#45;&gt;rotmat_error_pose_6_indy7_vs_goal -->
<g id="edge18" class="edge">
<title>pose_6_indy7&#45;&gt;rotmat_error_pose_6_indy7_vs_goal</title>
<path fill="none" stroke="black" d="M1212.02,-296.25C1200.9,-293.39 1189.06,-290.47 1178,-288 1116.77,-274.3 1047.51,-261.21 993.07,-251.47"/>
<polygon fill="black" stroke="black" points="993.54,-248 983.08,-249.69 992.31,-254.89 993.54,-248"/>
</g>
<!-- goal_pose_indy7 -->
<g id="node16" class="node">
<title>goal_pose_indy7</title>
<polygon fill="none" stroke="blue" points="1164.63,-302.54 1164.63,-317.46 1109.78,-328 1032.22,-328 977.37,-317.46 977.37,-302.54 1032.22,-292 1109.78,-292 1164.63,-302.54"/>
<polygon fill="none" stroke="blue" points="1168.63,-299.24 1168.63,-320.76 1110.16,-332 1031.84,-332 973.37,-320.76 973.37,-299.24 1031.84,-288 1110.16,-288 1168.63,-299.24"/>
<text text-anchor="middle" x="1071" y="-306.3" font-family="Times,serif" font-size="14.00">goal_pose_indy7</text>
</g>
<!-- goal_pose_indy7&#45;&gt;trans_error_pose_6_indy7_vs_goal -->
<g id="edge19" class="edge">
<title>goal_pose_indy7&#45;&gt;trans_error_pose_6_indy7_vs_goal</title>
<path fill="none" stroke="black" d="M1119.9,-289.75C1146.86,-279.14 1180.31,-265.98 1207.64,-255.22"/>
<polygon fill="black" stroke="black" points="1209.01,-258.44 1217.04,-251.52 1206.45,-251.92 1209.01,-258.44"/>
</g>
<!-- goal_pose_indy7&#45;&gt;rotmat_error_pose_6_indy7_vs_goal -->
<g id="edge20" class="edge">
<title>goal_pose_indy7&#45;&gt;rotmat_error_pose_6_indy7_vs_goal</title>
<path fill="none" stroke="black" d="M1024.37,-289.17C1000.02,-278.81 970.25,-266.15 945.61,-255.67"/>
<polygon fill="black" stroke="black" points="946.67,-252.32 936.1,-251.63 943.93,-258.76 946.67,-252.32"/>
</g>
<!-- trans_con_pose_6_indy7_vs_goal -->
<g id="node18" class="node">
<title>trans_con_pose_6_indy7_vs_goal</title>
<polygon fill="none" stroke="magenta" points="1890.24,-162 1797.62,-180 1612.38,-180 1519.76,-162 1612.38,-144 1797.62,-144 1890.24,-162"/>
<text text-anchor="middle" x="1705" y="-158.3" font-family="Times,serif" font-size="14.00">trans_con_pose_6_indy7_vs_goal</text>
</g>
<!-- trans_error_pose_6_indy7_vs_goal&#45;&gt;trans_con_pose_6_indy7_vs_goal -->
<g id="edge21" class="edge">
<title>trans_error_pose_6_indy7_vs_goal&#45;&gt;trans_con_pose_6_indy7_vs_goal</title>
<path fill="none" stroke="black" d="M1349.52,-218.79C1420.55,-207.64 1519.72,-192.08 1595.26,-180.22"/>
<polygon fill="black" stroke="black" points="1595.96,-183.66 1605.29,-178.65 1594.87,-176.74 1595.96,-183.66"/>
</g>
<!-- reg_trans_error_pose_6_indy7_vs_goal -->
<g id="node27" class="node">
<title>reg_trans_error_pose_6_indy7_vs_goal</title>
<polygon fill="none" stroke="magenta" points="1501.78,-162 1392.89,-180 1175.11,-180 1066.22,-162 1175.11,-144 1392.89,-144 1501.78,-162"/>
<text text-anchor="middle" x="1284" y="-158.3" font-family="Times,serif" font-size="14.00">reg_trans_error_pose_6_indy7_vs_goal</text>
</g>
<!-- trans_error_pose_6_indy7_vs_goal&#45;&gt;reg_trans_error_pose_6_indy7_vs_goal -->
<g id="edge22" class="edge">
<title>trans_error_pose_6_indy7_vs_goal&#45;&gt;reg_trans_error_pose_6_indy7_vs_goal</title>
<path fill="none" stroke="black" d="M1265.18,-215.7C1268,-207.81 1271.39,-198.3 1274.52,-189.55"/>
<polygon fill="black" stroke="black" points="1277.82,-190.7 1277.89,-180.1 1271.23,-188.34 1277.82,-190.7"/>
</g>
<!-- ax_ang_error_pose_6_indy7_vs_goal -->
<g id="node20" class="node">
<title>ax_ang_error_pose_6_indy7_vs_goal</title>
<ellipse fill="none" stroke="green" cx="872" cy="-162" rx="176.27" ry="18"/>
<text text-anchor="middle" x="872" y="-158.3" font-family="Times,serif" font-size="14.00">ax_ang_error_pose_6_indy7_vs_goal</text>
</g>
<!-- rotmat_error_pose_6_indy7_vs_goal&#45;&gt;ax_ang_error_pose_6_indy7_vs_goal -->
<g id="edge23" class="edge">
<title>rotmat_error_pose_6_indy7_vs_goal&#45;&gt;ax_ang_error_pose_6_indy7_vs_goal</title>
<path fill="none" stroke="black" d="M890.82,-215.7C888,-207.81 884.61,-198.3 881.48,-189.55"/>
<polygon fill="black" stroke="black" points="884.77,-188.34 878.11,-180.1 878.18,-190.7 884.77,-188.34"/>
</g>
<!-- rot_con_pose_6_indy7_vs_goal -->
<g id="node21" class="node">
<title>rot_con_pose_6_indy7_vs_goal</title>
<polygon fill="none" stroke="magenta" points="1066.72,-90 980.36,-108 807.64,-108 721.28,-90 807.64,-72 980.36,-72 1066.72,-90"/>
<text text-anchor="middle" x="894" y="-86.3" font-family="Times,serif" font-size="14.00">rot_con_pose_6_indy7_vs_goal</text>
</g>
<!-- ax_ang_error_pose_6_indy7_vs_goal&#45;&gt;rot_con_pose_6_indy7_vs_goal -->
<g id="edge24" class="edge">
<title>ax_ang_error_pose_6_indy7_vs_goal&#45;&gt;rot_con_pose_6_indy7_vs_goal</title>
<path fill="none" stroke="black" d="M877.44,-143.7C879.89,-135.9 882.84,-126.51 885.57,-117.83"/>
<polygon fill="black" stroke="black" points="888.96,-118.69 888.62,-108.1 882.29,-116.59 888.96,-118.69"/>
</g>
<!-- reg_ax_ang_error_pose_6_indy7_vs_goal -->
<g id="node29" class="node">
<title>reg_ax_ang_error_pose_6_indy7_vs_goal</title>
<polygon fill="none" stroke="magenta" points="703.8,-90 590.4,-108 363.6,-108 250.2,-90 363.6,-72 590.4,-72 703.8,-90"/>
<text text-anchor="middle" x="477" y="-86.3" font-family="Times,serif" font-size="14.00">reg_ax_ang_error_pose_6_indy7_vs_goal</text>
</g>
<!-- ax_ang_error_pose_6_indy7_vs_goal&#45;&gt;reg_ax_ang_error_pose_6_indy7_vs_goal -->
<g id="edge25" class="edge">
<title>ax_ang_error_pose_6_indy7_vs_goal&#45;&gt;reg_ax_ang_error_pose_6_indy7_vs_goal</title>
<path fill="none" stroke="black" d="M788.23,-146.15C728.47,-135.56 647.64,-121.24 583.33,-109.84"/>
<polygon fill="black" stroke="black" points="583.61,-106.34 573.15,-108.04 582.39,-113.23 583.61,-106.34"/>
</g>
<!-- qd_init_indy7 -->
<g id="node23" class="node">
<title>qd_init_indy7</title>
<polygon fill="none" stroke="blue" points="1200.59,-462.54 1200.59,-477.46 1154.55,-488 1089.45,-488 1043.41,-477.46 1043.41,-462.54 1089.45,-452 1154.55,-452 1200.59,-462.54"/>
<polygon fill="none" stroke="blue" points="1204.58,-459.35 1204.58,-480.65 1155,-492 1089,-492 1039.42,-480.65 1039.42,-459.35 1089,-448 1155,-448 1204.58,-459.35"/>
<text text-anchor="middle" x="1122" y="-466.3" font-family="Times,serif" font-size="14.00">qd_init_indy7</text>
</g>
<!-- qd_init_indy7&#45;&gt;err_qd_qinit_indy7 -->
<g id="edge26" class="edge">
<title>qd_init_indy7&#45;&gt;err_qd_qinit_indy7</title>
<path fill="none" stroke="black" d="M1122,-447.69C1122,-438.64 1122,-427.99 1122,-418.37"/>
<polygon fill="black" stroke="black" points="1125.5,-418.09 1122,-408.09 1118.5,-418.09 1125.5,-418.09"/>
</g>
<!-- eq_indy7 -->
<g id="node25" class="node">
<title>eq_indy7</title>
<polygon fill="none" stroke="magenta" points="1752.08,-310 1722.04,-328 1661.96,-328 1631.92,-310 1661.96,-292 1722.04,-292 1752.08,-310"/>
<text text-anchor="middle" x="1692" y="-306.3" font-family="Times,serif" font-size="14.00">eq_indy7</text>
</g>
<!-- err_qd_qinit_indy7&#45;&gt;eq_indy7 -->
<g id="edge27" class="edge">
<title>err_qd_qinit_indy7&#45;&gt;eq_indy7</title>
<path fill="none" stroke="black" d="M1182.64,-375.95C1197.44,-373.05 1213.25,-370.2 1228,-368 1386.61,-344.39 1428.41,-355.75 1587,-332 1604.05,-329.45 1622.53,-325.99 1639.16,-322.61"/>
<polygon fill="black" stroke="black" points="1640.17,-325.98 1649.25,-320.53 1638.75,-319.12 1640.17,-325.98"/>
</g>
<!-- (&#39;initial&#39;, &#39;eq_indy7&#39;) -->
<g id="node26" class="node">
<title>(&#39;initial&#39;, &#39;eq_indy7&#39;)</title>
<polygon fill="none" stroke="purple" points="1805,-252 1649,-252 1649,-216 1805,-216 1805,-252"/>
<text text-anchor="middle" x="1727" y="-230.3" font-family="Times,serif" font-size="14.00">(&#39;initial&#39;, &#39;eq_indy7&#39;)</text>
</g>
<!-- eq_indy7&#45;&gt;(&#39;initial&#39;, &#39;eq_indy7&#39;) -->
<g id="edge28" class="edge">
<title>eq_indy7&#45;&gt;(&#39;initial&#39;, &#39;eq_indy7&#39;)</title>
<path fill="none" stroke="black" d="M1700.12,-291.84C1704.4,-282.78 1709.75,-271.47 1714.55,-261.32"/>
<polygon fill="black" stroke="black" points="1717.81,-262.61 1718.93,-252.07 1711.49,-259.61 1717.81,-262.61"/>
</g>
<!-- (&#39;path&#39;, &#39;reg_trans_error_pose_6_indy7_vs_goal&#39;) -->
<g id="node28" class="node">
<title>(&#39;path&#39;, &#39;reg_trans_error_pose_6_indy7_vs_goal&#39;)</title>
<polygon fill="none" stroke="purple" points="1462,-108 1106,-108 1106,-72 1462,-72 1462,-108"/>
<text text-anchor="middle" x="1284" y="-86.3" font-family="Times,serif" font-size="14.00">(&#39;path&#39;, &#39;reg_trans_error_pose_6_indy7_vs_goal&#39;)</text>
</g>
<!-- reg_trans_error_pose_6_indy7_vs_goal&#45;&gt;(&#39;path&#39;, &#39;reg_trans_error_pose_6_indy7_vs_goal&#39;) -->
<g id="edge29" class="edge">
<title>reg_trans_error_pose_6_indy7_vs_goal&#45;&gt;(&#39;path&#39;, &#39;reg_trans_error_pose_6_indy7_vs_goal&#39;)</title>
<path fill="none" stroke="black" d="M1284,-143.7C1284,-135.98 1284,-126.71 1284,-118.11"/>
<polygon fill="black" stroke="black" points="1287.5,-118.1 1284,-108.1 1280.5,-118.1 1287.5,-118.1"/>
</g>
<!-- (&#39;path&#39;, &#39;reg_ax_ang_error_pose_6_indy7_vs_goal&#39;) -->
<g id="node30" class="node">
<title>(&#39;path&#39;, &#39;reg_ax_ang_error_pose_6_indy7_vs_goal&#39;)</title>
<polygon fill="none" stroke="purple" points="661,-36 293,-36 293,0 661,0 661,-36"/>
<text text-anchor="middle" x="477" y="-14.3" font-family="Times,serif" font-size="14.00">(&#39;path&#39;, &#39;reg_ax_ang_error_pose_6_indy7_vs_goal&#39;)</text>
</g>
<!-- reg_ax_ang_error_pose_6_indy7_vs_goal&#45;&gt;(&#39;path&#39;, &#39;reg_ax_ang_error_pose_6_indy7_vs_goal&#39;) -->
<g id="edge30" class="edge">
<title>reg_ax_ang_error_pose_6_indy7_vs_goal&#45;&gt;(&#39;path&#39;, &#39;reg_ax_ang_error_pose_6_indy7_vs_goal&#39;)</title>
<path fill="none" stroke="black" d="M477,-71.7C477,-63.98 477,-54.71 477,-46.11"/>
<polygon fill="black" stroke="black" points="480.5,-46.1 477,-36.1 473.5,-46.1 480.5,-46.1"/>
</g>
<!-- (&#39;path&#39;, &#39;reg_qd_indy7&#39;) -->
<g id="node32" class="node">
<title>(&#39;path&#39;, &#39;reg_qd_indy7&#39;)</title>
<polygon fill="none" stroke="purple" points="666.5,-328 487.5,-328 487.5,-292 666.5,-292 666.5,-328"/>
<text text-anchor="middle" x="577" y="-306.3" font-family="Times,serif" font-size="14.00">(&#39;path&#39;, &#39;reg_qd_indy7&#39;)</text>
</g>
<!-- reg_qd_indy7&#45;&gt;(&#39;path&#39;, &#39;reg_qd_indy7&#39;) -->
<g id="edge31" class="edge">
<title>reg_qd_indy7&#45;&gt;(&#39;path&#39;, &#39;reg_qd_indy7&#39;)</title>
<path fill="none" stroke="black" d="M589.45,-371.69C587.44,-361.89 584.88,-349.42 582.61,-338.33"/>
<polygon fill="black" stroke="black" points="585.98,-337.36 580.54,-328.26 579.12,-338.76 585.98,-337.36"/>
</g>
<!-- (&#39;path&#39;, &#39;reg_qdd_indy7&#39;) -->
<g id="node34" class="node">
<title>(&#39;path&#39;, &#39;reg_qdd_indy7&#39;)</title>
<polygon fill="none" stroke="purple" points="1647,-408 1459,-408 1459,-372 1647,-372 1647,-408"/>
<text text-anchor="middle" x="1553" y="-386.3" font-family="Times,serif" font-size="14.00">(&#39;path&#39;, &#39;reg_qdd_indy7&#39;)</text>
</g>
<!-- reg_qdd_indy7&#45;&gt;(&#39;path&#39;, &#39;reg_qdd_indy7&#39;) -->
<g id="edge32" class="edge">
<title>reg_qdd_indy7&#45;&gt;(&#39;path&#39;, &#39;reg_qdd_indy7&#39;)</title>
<path fill="none" stroke="black" d="M1552.22,-451.69C1552.35,-441.89 1552.51,-429.42 1552.65,-418.33"/>
<polygon fill="black" stroke="black" points="1556.15,-418.31 1552.78,-408.26 1549.15,-418.22 1556.15,-418.31"/>
</g>
</g>
</svg>
