<?xml version="1.0" encoding="UTF-8" standalone="no"?>
<!DOCTYPE svg PUBLIC "-//W3C//DTD SVG 1.1//EN"
 "http://www.w3.org/Graphics/SVG/1.1/DTD/svg11.dtd">
<!-- Generated by graphviz version 2.43.0 (0)
 -->
<!-- Title: %3 Pages: 1 -->
<svg width="1940pt" height="580pt"
 viewBox="0.00 0.00 1939.63 580.00" xmlns="http://www.w3.org/2000/svg" xmlns:xlink="http://www.w3.org/1999/xlink">
<g id="graph0" class="graph" transform="scale(1 1) rotate(0) translate(4 576)">
<title>%3</title>
<polygon fill="white" stroke="transparent" points="-4,4 -4,-576 1935.63,-576 1935.63,4 -4,4"/>
<!-- q_indy7 -->
<g id="node1" class="node">
<title>q_indy7</title>
<polygon fill="none" stroke="green" points="1048.29,-382.54 1048.29,-397.46 1018.54,-408 976.46,-408 946.71,-397.46 946.71,-382.54 976.46,-372 1018.54,-372 1048.29,-382.54"/>
<polygon fill="none" stroke="green" points="1052.3,-379.72 1052.3,-400.28 1019.23,-412 975.77,-412 942.7,-400.28 942.7,-379.72 975.77,-368 1019.23,-368 1052.3,-379.72"/>
<text text-anchor="middle" x="997.5" y="-386.3" font-family="Times,serif" font-size="14.00">q_indy7</text>
</g>
<!-- error_q_indy7_q_init_indy7 -->
<g id="node5" class="node">
<title>error_q_indy7_q_init_indy7</title>
<ellipse fill="none" stroke="green" cx="877.5" cy="-310" rx="135.68" ry="18"/>
<text text-anchor="middle" x="877.5" y="-306.3" font-family="Times,serif" font-size="14.00">error_q_indy7_q_init_indy7</text>
</g>
<!-- q_indy7&#45;&gt;error_q_indy7_q_init_indy7 -->
<g id="edge1" class="edge">
<title>q_indy7&#45;&gt;error_q_indy7_q_init_indy7</title>
<path fill="none" stroke="black" d="M968.76,-370.32C951.72,-359.24 930.01,-345.13 912.04,-333.45"/>
<polygon fill="black" stroke="black" points="913.85,-330.45 903.55,-327.93 910.03,-336.32 913.85,-330.45"/>
</g>
<!-- limits_q_indy7 -->
<g id="node10" class="node">
<title>limits_q_indy7</title>
<polygon fill="none" stroke="magenta" points="1209.62,-310 1165.06,-328 1075.94,-328 1031.38,-310 1075.94,-292 1165.06,-292 1209.62,-310"/>
<text text-anchor="middle" x="1120.5" y="-306.3" font-family="Times,serif" font-size="14.00">limits_q_indy7</text>
</g>
<!-- q_indy7&#45;&gt;limits_q_indy7 -->
<g id="edge2" class="edge">
<title>q_indy7&#45;&gt;limits_q_indy7</title>
<path fill="none" stroke="black" d="M1026.65,-370.52C1044.19,-359.39 1066.64,-345.16 1085.18,-333.4"/>
<polygon fill="black" stroke="black" points="1087.09,-336.33 1093.66,-328.02 1083.34,-330.42 1087.09,-336.33"/>
</g>
<!-- pose_6_indy7 -->
<g id="node16" class="node">
<title>pose_6_indy7</title>
<ellipse fill="none" stroke="green" cx="1384.5" cy="-310" rx="72.59" ry="18"/>
<text text-anchor="middle" x="1384.5" y="-306.3" font-family="Times,serif" font-size="14.00">pose_6_indy7</text>
</g>
<!-- q_indy7&#45;&gt;pose_6_indy7 -->
<g id="edge3" class="edge">
<title>q_indy7&#45;&gt;pose_6_indy7</title>
<path fill="none" stroke="black" d="M1038.22,-374.68C1045.9,-372.25 1053.9,-369.91 1061.5,-368 1146.43,-346.69 1245.87,-330.41 1311.75,-320.81"/>
<polygon fill="black" stroke="black" points="1312.63,-324.22 1322.02,-319.33 1311.63,-317.29 1312.63,-324.22"/>
</g>
<!-- qd_indy7 -->
<g id="node2" class="node">
<title>qd_indy7</title>
<polygon fill="none" stroke="green" points="840.47,-462.54 840.47,-477.46 807.1,-488 759.9,-488 726.53,-477.46 726.53,-462.54 759.9,-452 807.1,-452 840.47,-462.54"/>
<polygon fill="none" stroke="green" points="844.47,-459.61 844.47,-480.39 807.71,-492 759.29,-492 722.53,-480.39 722.53,-459.61 759.29,-448 807.71,-448 844.47,-459.61"/>
<text text-anchor="middle" x="783.5" y="-466.3" font-family="Times,serif" font-size="14.00">qd_indy7</text>
</g>
<!-- qd_indy7&#45;&gt;q_indy7 -->
<g id="edge24" class="edge">
<title>qd_indy7&#45;&gt;q_indy7</title>
<path fill="none" stroke="black" stroke-dasharray="5,2" d="M825.78,-453.59C860.89,-440.79 910.89,-422.57 947.89,-409.08"/>
<polygon fill="black" stroke="black" points="949.28,-412.3 957.48,-405.59 946.89,-405.72 949.28,-412.3"/>
</g>
<!-- stationary_qd_indy7 -->
<g id="node8" class="node">
<title>stationary_qd_indy7</title>
<polygon fill="none" stroke="magenta" points="726.16,-390 665.83,-408 545.17,-408 484.84,-390 545.17,-372 665.83,-372 726.16,-390"/>
<text text-anchor="middle" x="605.5" y="-386.3" font-family="Times,serif" font-size="14.00">stationary_qd_indy7</text>
</g>
<!-- qd_indy7&#45;&gt;stationary_qd_indy7 -->
<g id="edge4" class="edge">
<title>qd_indy7&#45;&gt;stationary_qd_indy7</title>
<path fill="none" stroke="black" d="M745.31,-452.27C718.61,-440.56 682.72,-424.84 653.99,-412.25"/>
<polygon fill="black" stroke="black" points="655.11,-408.92 644.54,-408.11 652.3,-415.33 655.11,-408.92"/>
</g>
<!-- limits_qd_indy7 -->
<g id="node12" class="node">
<title>limits_qd_indy7</title>
<polygon fill="none" stroke="magenta" points="330.63,-390 282.56,-408 186.44,-408 138.37,-390 186.44,-372 282.56,-372 330.63,-390"/>
<text text-anchor="middle" x="234.5" y="-386.3" font-family="Times,serif" font-size="14.00">limits_qd_indy7</text>
</g>
<!-- qd_indy7&#45;&gt;limits_qd_indy7 -->
<g id="edge5" class="edge">
<title>qd_indy7&#45;&gt;limits_qd_indy7</title>
<path fill="none" stroke="black" d="M722.39,-460.32C622.1,-446.07 422.78,-417.75 312.47,-402.08"/>
<polygon fill="black" stroke="black" points="312.8,-398.59 302.4,-400.65 311.81,-405.52 312.8,-398.59"/>
</g>
<!-- qdd_indy7 -->
<g id="node3" class="node">
<title>qdd_indy7</title>
<polygon fill="none" stroke="cyan" points="937.64,-542.54 937.64,-557.46 900.65,-568 848.35,-568 811.36,-557.46 811.36,-542.54 848.35,-532 900.65,-532 937.64,-542.54"/>
<polygon fill="none" stroke="cyan" points="941.63,-539.52 941.63,-560.48 901.21,-572 847.79,-572 807.37,-560.48 807.37,-539.52 847.79,-528 901.21,-528 941.63,-539.52"/>
<text text-anchor="middle" x="874.5" y="-546.3" font-family="Times,serif" font-size="14.00">qdd_indy7</text>
</g>
<!-- qdd_indy7&#45;&gt;qd_indy7 -->
<g id="edge25" class="edge">
<title>qdd_indy7&#45;&gt;qd_indy7</title>
<path fill="none" stroke="black" stroke-dasharray="5,2" d="M849.63,-527.69C839.22,-518.76 826.97,-508.26 815.86,-498.74"/>
<polygon fill="black" stroke="black" points="817.89,-495.87 808.02,-492.02 813.34,-501.18 817.89,-495.87"/>
</g>
<!-- limits_qdd_indy7 -->
<g id="node14" class="node">
<title>limits_qdd_indy7</title>
<polygon fill="none" stroke="magenta" points="1171.13,-470 1119.82,-488 1017.18,-488 965.87,-470 1017.18,-452 1119.82,-452 1171.13,-470"/>
<text text-anchor="middle" x="1068.5" y="-466.3" font-family="Times,serif" font-size="14.00">limits_qdd_indy7</text>
</g>
<!-- qdd_indy7&#45;&gt;limits_qdd_indy7 -->
<g id="edge6" class="edge">
<title>qdd_indy7&#45;&gt;limits_qdd_indy7</title>
<path fill="none" stroke="black" d="M916.6,-532.08C945.98,-520.26 985.4,-504.41 1016.71,-491.82"/>
<polygon fill="black" stroke="black" points="1018.18,-495 1026.15,-488.03 1015.57,-488.51 1018.18,-495"/>
</g>
<!-- q_init_indy7 -->
<g id="node4" class="node">
<title>q_init_indy7</title>
<polygon fill="none" stroke="blue" points="920.92,-382.54 920.92,-397.46 878.5,-408 818.5,-408 776.08,-397.46 776.08,-382.54 818.5,-372 878.5,-372 920.92,-382.54"/>
<polygon fill="none" stroke="blue" points="924.92,-379.42 924.92,-400.58 878.99,-412 818.01,-412 772.08,-400.58 772.08,-379.42 818.01,-368 878.99,-368 924.92,-379.42"/>
<text text-anchor="middle" x="848.5" y="-386.3" font-family="Times,serif" font-size="14.00">q_init_indy7</text>
</g>
<!-- q_init_indy7&#45;&gt;error_q_indy7_q_init_indy7 -->
<g id="edge7" class="edge">
<title>q_init_indy7&#45;&gt;error_q_indy7_q_init_indy7</title>
<path fill="none" stroke="black" d="M856.42,-367.69C859.86,-358.45 863.92,-347.53 867.55,-337.75"/>
<polygon fill="black" stroke="black" points="870.94,-338.69 871.14,-328.09 864.38,-336.25 870.94,-338.69"/>
</g>
<!-- equality_q_indy7 -->
<g id="node6" class="node">
<title>equality_q_indy7</title>
<polygon fill="none" stroke="magenta" points="980.13,-234 928.82,-252 826.18,-252 774.87,-234 826.18,-216 928.82,-216 980.13,-234"/>
<text text-anchor="middle" x="877.5" y="-230.3" font-family="Times,serif" font-size="14.00">equality_q_indy7</text>
</g>
<!-- error_q_indy7_q_init_indy7&#45;&gt;equality_q_indy7 -->
<g id="edge8" class="edge">
<title>error_q_indy7_q_init_indy7&#45;&gt;equality_q_indy7</title>
<path fill="none" stroke="black" d="M877.5,-291.84C877.5,-283.06 877.5,-272.16 877.5,-262.27"/>
<polygon fill="black" stroke="black" points="881,-262.07 877.5,-252.07 874,-262.07 881,-262.07"/>
</g>
<!-- (&#39;initial&#39;, &#39;equality_q_indy7&#39;) -->
<g id="node7" class="node">
<title>(&#39;initial&#39;, &#39;equality_q_indy7&#39;)</title>
<polygon fill="none" stroke="purple" points="983.5,-180 771.5,-180 771.5,-144 983.5,-144 983.5,-180"/>
<text text-anchor="middle" x="877.5" y="-158.3" font-family="Times,serif" font-size="14.00">(&#39;initial&#39;, &#39;equality_q_indy7&#39;)</text>
</g>
<!-- equality_q_indy7&#45;&gt;(&#39;initial&#39;, &#39;equality_q_indy7&#39;) -->
<g id="edge9" class="edge">
<title>equality_q_indy7&#45;&gt;(&#39;initial&#39;, &#39;equality_q_indy7&#39;)</title>
<path fill="none" stroke="black" d="M877.5,-215.7C877.5,-207.98 877.5,-198.71 877.5,-190.11"/>
<polygon fill="black" stroke="black" points="881,-190.1 877.5,-180.1 874,-190.1 881,-190.1"/>
</g>
<!-- (&#39;initial&#39;, &#39;stationary_qd_indy7&#39;) -->
<g id="node9" class="node">
<title>(&#39;initial&#39;, &#39;stationary_qd_indy7&#39;)</title>
<polygon fill="none" stroke="purple" points="723.5,-328 487.5,-328 487.5,-292 723.5,-292 723.5,-328"/>
<text text-anchor="middle" x="605.5" y="-306.3" font-family="Times,serif" font-size="14.00">(&#39;initial&#39;, &#39;stationary_qd_indy7&#39;)</text>
</g>
<!-- stationary_qd_indy7&#45;&gt;(&#39;initial&#39;, &#39;stationary_qd_indy7&#39;) -->
<g id="edge10" class="edge">
<title>stationary_qd_indy7&#45;&gt;(&#39;initial&#39;, &#39;stationary_qd_indy7&#39;)</title>
<path fill="none" stroke="black" d="M605.5,-371.69C605.5,-361.89 605.5,-349.42 605.5,-338.33"/>
<polygon fill="black" stroke="black" points="609,-338.26 605.5,-328.26 602,-338.26 609,-338.26"/>
</g>
<!-- (&#39;terminal&#39;, &#39;stationary_qd_indy7&#39;) -->
<g id="node25" class="node">
<title>(&#39;terminal&#39;, &#39;stationary_qd_indy7&#39;)</title>
<polygon fill="none" stroke="purple" points="469.5,-328 213.5,-328 213.5,-292 469.5,-292 469.5,-328"/>
<text text-anchor="middle" x="341.5" y="-306.3" font-family="Times,serif" font-size="14.00">(&#39;terminal&#39;, &#39;stationary_qd_indy7&#39;)</text>
</g>
<!-- stationary_qd_indy7&#45;&gt;(&#39;terminal&#39;, &#39;stationary_qd_indy7&#39;) -->
<g id="edge11" class="edge">
<title>stationary_qd_indy7&#45;&gt;(&#39;terminal&#39;, &#39;stationary_qd_indy7&#39;)</title>
<path fill="none" stroke="black" d="M547.89,-371.98C507.07,-359.92 452.16,-343.7 409.24,-331.01"/>
<polygon fill="black" stroke="black" points="410.02,-327.6 399.44,-328.12 408.04,-334.31 410.02,-327.6"/>
</g>
<!-- (&#39;path&#39;, &#39;limits_q_indy7&#39;) -->
<g id="node11" class="node">
<title>(&#39;path&#39;, &#39;limits_q_indy7&#39;)</title>
<polygon fill="none" stroke="purple" points="1198.5,-252 1012.5,-252 1012.5,-216 1198.5,-216 1198.5,-252"/>
<text text-anchor="middle" x="1105.5" y="-230.3" font-family="Times,serif" font-size="14.00">(&#39;path&#39;, &#39;limits_q_indy7&#39;)</text>
</g>
<!-- limits_q_indy7&#45;&gt;(&#39;path&#39;, &#39;limits_q_indy7&#39;) -->
<g id="edge12" class="edge">
<title>limits_q_indy7&#45;&gt;(&#39;path&#39;, &#39;limits_q_indy7&#39;)</title>
<path fill="none" stroke="black" d="M1117.02,-291.84C1115.22,-282.96 1112.99,-271.93 1110.96,-261.95"/>
<polygon fill="black" stroke="black" points="1114.38,-261.18 1108.96,-252.07 1107.52,-262.57 1114.38,-261.18"/>
</g>
<!-- (&#39;path&#39;, &#39;limits_qd_indy7&#39;) -->
<g id="node13" class="node">
<title>(&#39;path&#39;, &#39;limits_qd_indy7&#39;)</title>
<polygon fill="none" stroke="purple" points="195,-328 0,-328 0,-292 195,-292 195,-328"/>
<text text-anchor="middle" x="97.5" y="-306.3" font-family="Times,serif" font-size="14.00">(&#39;path&#39;, &#39;limits_qd_indy7&#39;)</text>
</g>
<!-- limits_qd_indy7&#45;&gt;(&#39;path&#39;, &#39;limits_qd_indy7&#39;) -->
<g id="edge13" class="edge">
<title>limits_qd_indy7&#45;&gt;(&#39;path&#39;, &#39;limits_qd_indy7&#39;)</title>
<path fill="none" stroke="black" d="M204.43,-371.88C184.45,-360.5 158.01,-345.45 136.42,-333.16"/>
<polygon fill="black" stroke="black" points="137.92,-329.98 127.5,-328.08 134.45,-336.07 137.92,-329.98"/>
</g>
<!-- (&#39;path&#39;, &#39;limits_qdd_indy7&#39;) -->
<g id="node15" class="node">
<title>(&#39;path&#39;, &#39;limits_qdd_indy7&#39;)</title>
<polygon fill="none" stroke="purple" points="1274.5,-408 1070.5,-408 1070.5,-372 1274.5,-372 1274.5,-408"/>
<text text-anchor="middle" x="1172.5" y="-386.3" font-family="Times,serif" font-size="14.00">(&#39;path&#39;, &#39;limits_qdd_indy7&#39;)</text>
</g>
<!-- limits_qdd_indy7&#45;&gt;(&#39;path&#39;, &#39;limits_qdd_indy7&#39;) -->
<g id="edge14" class="edge">
<title>limits_qdd_indy7&#45;&gt;(&#39;path&#39;, &#39;limits_qdd_indy7&#39;)</title>
<path fill="none" stroke="black" d="M1091.32,-451.88C1106.09,-440.81 1125.5,-426.25 1141.63,-414.15"/>
<polygon fill="black" stroke="black" points="1143.83,-416.88 1149.73,-408.08 1139.63,-411.28 1143.83,-416.88"/>
</g>
<!-- trans_error_pose_6_indy7_vs_goal -->
<g id="node18" class="node">
<title>trans_error_pose_6_indy7_vs_goal</title>
<ellipse fill="none" stroke="green" cx="1384.5" cy="-234" rx="168.17" ry="18"/>
<text text-anchor="middle" x="1384.5" y="-230.3" font-family="Times,serif" font-size="14.00">trans_error_pose_6_indy7_vs_goal</text>
</g>
<!-- pose_6_indy7&#45;&gt;trans_error_pose_6_indy7_vs_goal -->
<g id="edge15" class="edge">
<title>pose_6_indy7&#45;&gt;trans_error_pose_6_indy7_vs_goal</title>
<path fill="none" stroke="black" d="M1384.5,-291.84C1384.5,-283.06 1384.5,-272.16 1384.5,-262.27"/>
<polygon fill="black" stroke="black" points="1388,-262.07 1384.5,-252.07 1381,-262.07 1388,-262.07"/>
</g>
<!-- rotmat_error_pose_6_indy7_vs_goal -->
<g id="node21" class="node">
<title>rotmat_error_pose_6_indy7_vs_goal</title>
<ellipse fill="none" stroke="green" cx="1746.5" cy="-234" rx="175.47" ry="18"/>
<text text-anchor="middle" x="1746.5" y="-230.3" font-family="Times,serif" font-size="14.00">rotmat_error_pose_6_indy7_vs_goal</text>
</g>
<!-- pose_6_indy7&#45;&gt;rotmat_error_pose_6_indy7_vs_goal -->
<g id="edge16" class="edge">
<title>pose_6_indy7&#45;&gt;rotmat_error_pose_6_indy7_vs_goal</title>
<path fill="none" stroke="black" d="M1438.7,-297.92C1497.63,-285.87 1592.61,-266.46 1661.49,-252.38"/>
<polygon fill="black" stroke="black" points="1662.36,-255.77 1671.46,-250.34 1660.96,-248.91 1662.36,-255.77"/>
</g>
<!-- goal_pose_indy7 -->
<g id="node17" class="node">
<title>goal_pose_indy7</title>
<polygon fill="none" stroke="blue" points="1753.13,-302.54 1753.13,-317.46 1698.28,-328 1620.72,-328 1565.87,-317.46 1565.87,-302.54 1620.72,-292 1698.28,-292 1753.13,-302.54"/>
<polygon fill="none" stroke="blue" points="1757.13,-299.24 1757.13,-320.76 1698.66,-332 1620.34,-332 1561.87,-320.76 1561.87,-299.24 1620.34,-288 1698.66,-288 1757.13,-299.24"/>
<text text-anchor="middle" x="1659.5" y="-306.3" font-family="Times,serif" font-size="14.00">goal_pose_indy7</text>
</g>
<!-- goal_pose_indy7&#45;&gt;trans_error_pose_6_indy7_vs_goal -->
<g id="edge17" class="edge">
<title>goal_pose_indy7&#45;&gt;trans_error_pose_6_indy7_vs_goal</title>
<path fill="none" stroke="black" d="M1597.44,-292.3C1554.58,-280.77 1497.56,-265.42 1453.31,-253.52"/>
<polygon fill="black" stroke="black" points="1454.07,-250.1 1443.51,-250.88 1452.25,-256.86 1454.07,-250.1"/>
</g>
<!-- goal_pose_indy7&#45;&gt;rotmat_error_pose_6_indy7_vs_goal -->
<g id="edge18" class="edge">
<title>goal_pose_indy7&#45;&gt;rotmat_error_pose_6_indy7_vs_goal</title>
<path fill="none" stroke="black" d="M1684.2,-287.99C1694.95,-278.85 1707.6,-268.09 1718.68,-258.66"/>
<polygon fill="black" stroke="black" points="1721.08,-261.22 1726.43,-252.07 1716.54,-255.89 1721.08,-261.22"/>
</g>
<!-- trans_con_pose_6_indy7_vs_goal -->
<g id="node19" class="node">
<title>trans_con_pose_6_indy7_vs_goal</title>
<polygon fill="none" stroke="magenta" points="1560.74,-162 1468.12,-180 1282.88,-180 1190.26,-162 1282.88,-144 1468.12,-144 1560.74,-162"/>
<text text-anchor="middle" x="1375.5" y="-158.3" font-family="Times,serif" font-size="14.00">trans_con_pose_6_indy7_vs_goal</text>
</g>
<!-- trans_error_pose_6_indy7_vs_goal&#45;&gt;trans_con_pose_6_indy7_vs_goal -->
<g id="edge19" class="edge">
<title>trans_error_pose_6_indy7_vs_goal&#45;&gt;trans_con_pose_6_indy7_vs_goal</title>
<path fill="none" stroke="black" d="M1382.28,-215.7C1381.28,-207.98 1380.09,-198.71 1378.99,-190.11"/>
<polygon fill="black" stroke="black" points="1382.45,-189.58 1377.7,-180.1 1375.5,-190.47 1382.45,-189.58"/>
</g>
<!-- (&#39;terminal&#39;, &#39;trans_con_pose_6_indy7_vs_goal&#39;) -->
<g id="node20" class="node">
<title>(&#39;terminal&#39;, &#39;trans_con_pose_6_indy7_vs_goal&#39;)</title>
<polygon fill="none" stroke="purple" points="1546.5,-108 1204.5,-108 1204.5,-72 1546.5,-72 1546.5,-108"/>
<text text-anchor="middle" x="1375.5" y="-86.3" font-family="Times,serif" font-size="14.00">(&#39;terminal&#39;, &#39;trans_con_pose_6_indy7_vs_goal&#39;)</text>
</g>
<!-- trans_con_pose_6_indy7_vs_goal&#45;&gt;(&#39;terminal&#39;, &#39;trans_con_pose_6_indy7_vs_goal&#39;) -->
<g id="edge20" class="edge">
<title>trans_con_pose_6_indy7_vs_goal&#45;&gt;(&#39;terminal&#39;, &#39;trans_con_pose_6_indy7_vs_goal&#39;)</title>
<path fill="none" stroke="black" d="M1375.5,-143.7C1375.5,-135.98 1375.5,-126.71 1375.5,-118.11"/>
<polygon fill="black" stroke="black" points="1379,-118.1 1375.5,-108.1 1372,-118.1 1379,-118.1"/>
</g>
<!-- ax_ang_error_pose_6_indy7_vs_goal -->
<g id="node22" class="node">
<title>ax_ang_error_pose_6_indy7_vs_goal</title>
<ellipse fill="none" stroke="green" cx="1755.5" cy="-162" rx="176.27" ry="18"/>
<text text-anchor="middle" x="1755.5" y="-158.3" font-family="Times,serif" font-size="14.00">ax_ang_error_pose_6_indy7_vs_goal</text>
</g>
<!-- rotmat_error_pose_6_indy7_vs_goal&#45;&gt;ax_ang_error_pose_6_indy7_vs_goal -->
<g id="edge21" class="edge">
<title>rotmat_error_pose_6_indy7_vs_goal&#45;&gt;ax_ang_error_pose_6_indy7_vs_goal</title>
<path fill="none" stroke="black" d="M1748.72,-215.7C1749.72,-207.98 1750.91,-198.71 1752.01,-190.11"/>
<polygon fill="black" stroke="black" points="1755.5,-190.47 1753.3,-180.1 1748.55,-189.58 1755.5,-190.47"/>
</g>
<!-- rot_con_pose_6_indy7_vs_goal -->
<g id="node23" class="node">
<title>rot_con_pose_6_indy7_vs_goal</title>
<polygon fill="none" stroke="magenta" points="1928.22,-90 1841.86,-108 1669.14,-108 1582.78,-90 1669.14,-72 1841.86,-72 1928.22,-90"/>
<text text-anchor="middle" x="1755.5" y="-86.3" font-family="Times,serif" font-size="14.00">rot_con_pose_6_indy7_vs_goal</text>
</g>
<!-- ax_ang_error_pose_6_indy7_vs_goal&#45;&gt;rot_con_pose_6_indy7_vs_goal -->
<g id="edge22" class="edge">
<title>ax_ang_error_pose_6_indy7_vs_goal&#45;&gt;rot_con_pose_6_indy7_vs_goal</title>
<path fill="none" stroke="black" d="M1755.5,-143.7C1755.5,-135.98 1755.5,-126.71 1755.5,-118.11"/>
<polygon fill="black" stroke="black" points="1759,-118.1 1755.5,-108.1 1752,-118.1 1759,-118.1"/>
</g>
<!-- (&#39;terminal&#39;, &#39;rot_con_pose_6_indy7_vs_goal&#39;) -->
<g id="node24" class="node">
<title>(&#39;terminal&#39;, &#39;rot_con_pose_6_indy7_vs_goal&#39;)</title>
<polygon fill="none" stroke="purple" points="1918.5,-36 1592.5,-36 1592.5,0 1918.5,0 1918.5,-36"/>
<text text-anchor="middle" x="1755.5" y="-14.3" font-family="Times,serif" font-size="14.00">(&#39;terminal&#39;, &#39;rot_con_pose_6_indy7_vs_goal&#39;)</text>
</g>
<!-- rot_con_pose_6_indy7_vs_goal&#45;&gt;(&#39;terminal&#39;, &#39;rot_con_pose_6_indy7_vs_goal&#39;) -->
<g id="edge23" class="edge">
<title>rot_con_pose_6_indy7_vs_goal&#45;&gt;(&#39;terminal&#39;, &#39;rot_con_pose_6_indy7_vs_goal&#39;)</title>
<path fill="none" stroke="black" d="M1755.5,-71.7C1755.5,-63.98 1755.5,-54.71 1755.5,-46.11"/>
<polygon fill="black" stroke="black" points="1759,-46.1 1755.5,-36.1 1752,-46.1 1759,-46.1"/>
</g>
</g>
</svg>
