<?xml version="1.0" encoding="UTF-8" standalone="no"?>
<!DOCTYPE svg PUBLIC "-//W3C//DTD SVG 1.1//EN"
 "http://www.w3.org/Graphics/SVG/1.1/DTD/svg11.dtd">
<!-- Generated by graphviz version 2.43.0 (0)
 -->
<!-- Title: %3 Pages: 1 -->
<svg width="1741pt" height="508pt"
 viewBox="0.00 0.00 1741.00 508.00" xmlns="http://www.w3.org/2000/svg" xmlns:xlink="http://www.w3.org/1999/xlink">
<g id="graph0" class="graph" transform="scale(1 1) rotate(0) translate(4 504)">
<title>%3</title>
<polygon fill="white" stroke="transparent" points="-4,4 -4,-504 1737,-504 1737,4 -4,4"/>
<!-- q_indy7 -->
<g id="node1" class="node">
<title>q_indy7</title>
<polygon fill="none" stroke="green" points="654.79,-310.54 654.79,-325.46 625.04,-336 582.96,-336 553.21,-325.46 553.21,-310.54 582.96,-300 625.04,-300 654.79,-310.54"/>
<polygon fill="none" stroke="green" points="658.8,-307.72 658.8,-328.28 625.73,-340 582.27,-340 549.2,-328.28 549.2,-307.72 582.27,-296 625.73,-296 658.8,-307.72"/>
<text text-anchor="middle" x="604" y="-314.3" font-family="Times,serif" font-size="14.00">q_indy7</text>
</g>
<!-- error_q_indy7_q_init_indy7 -->
<g id="node5" class="node">
<title>error_q_indy7_q_init_indy7</title>
<ellipse fill="none" stroke="green" cx="898" cy="-238" rx="135.68" ry="18"/>
<text text-anchor="middle" x="898" y="-234.3" font-family="Times,serif" font-size="14.00">error_q_indy7_q_init_indy7</text>
</g>
<!-- q_indy7&#45;&gt;error_q_indy7_q_init_indy7 -->
<g id="edge1" class="edge">
<title>q_indy7&#45;&gt;error_q_indy7_q_init_indy7</title>
<path fill="none" stroke="black" d="M650.59,-304.64C699.08,-291.77 775.51,-271.5 830.59,-256.88"/>
<polygon fill="black" stroke="black" points="831.5,-260.26 840.27,-254.32 829.71,-253.5 831.5,-260.26"/>
</g>
<!-- limits_q_indy7 -->
<g id="node9" class="node">
<title>limits_q_indy7</title>
<polygon fill="none" stroke="magenta" points="319.12,-238 274.56,-256 185.44,-256 140.88,-238 185.44,-220 274.56,-220 319.12,-238"/>
<text text-anchor="middle" x="230" y="-234.3" font-family="Times,serif" font-size="14.00">limits_q_indy7</text>
</g>
<!-- q_indy7&#45;&gt;limits_q_indy7 -->
<g id="edge2" class="edge">
<title>q_indy7&#45;&gt;limits_q_indy7</title>
<path fill="none" stroke="black" d="M552.78,-306.32C486.48,-292.49 370.77,-268.36 297.4,-253.06"/>
<polygon fill="black" stroke="black" points="297.84,-249.57 287.33,-250.96 296.41,-256.43 297.84,-249.57"/>
</g>
<!-- pose_6_indy7 -->
<g id="node15" class="node">
<title>pose_6_indy7</title>
<ellipse fill="none" stroke="green" cx="459" cy="-238" rx="72.59" ry="18"/>
<text text-anchor="middle" x="459" y="-234.3" font-family="Times,serif" font-size="14.00">pose_6_indy7</text>
</g>
<!-- q_indy7&#45;&gt;pose_6_indy7 -->
<g id="edge3" class="edge">
<title>q_indy7&#45;&gt;pose_6_indy7</title>
<path fill="none" stroke="black" d="M571.82,-299.69C549.72,-287.8 520.3,-271.97 497.04,-259.46"/>
<polygon fill="black" stroke="black" points="498.6,-256.33 488.14,-254.67 495.28,-262.49 498.6,-256.33"/>
</g>
<!-- qd_indy7 -->
<g id="node2" class="node">
<title>qd_indy7</title>
<polygon fill="none" stroke="green" points="1353.97,-390.54 1353.97,-405.46 1320.6,-416 1273.4,-416 1240.03,-405.46 1240.03,-390.54 1273.4,-380 1320.6,-380 1353.97,-390.54"/>
<polygon fill="none" stroke="green" points="1357.97,-387.61 1357.97,-408.39 1321.21,-420 1272.79,-420 1236.03,-408.39 1236.03,-387.61 1272.79,-376 1321.21,-376 1357.97,-387.61"/>
<text text-anchor="middle" x="1297" y="-394.3" font-family="Times,serif" font-size="14.00">qd_indy7</text>
</g>
<!-- qd_indy7&#45;&gt;q_indy7 -->
<g id="edge21" class="edge">
<title>qd_indy7&#45;&gt;q_indy7</title>
<path fill="none" stroke="black" stroke-dasharray="5,2" d="M1235.8,-390.11C1105.73,-375.47 802.74,-341.37 669.2,-326.34"/>
<polygon fill="black" stroke="black" points="669.44,-322.84 659.11,-325.2 668.66,-329.8 669.44,-322.84"/>
</g>
<!-- stationary_qd_indy7 -->
<g id="node8" class="node">
<title>stationary_qd_indy7</title>
<polygon fill="none" stroke="magenta" points="1300.66,-318 1240.33,-336 1119.67,-336 1059.34,-318 1119.67,-300 1240.33,-300 1300.66,-318"/>
<text text-anchor="middle" x="1180" y="-314.3" font-family="Times,serif" font-size="14.00">stationary_qd_indy7</text>
</g>
<!-- qd_indy7&#45;&gt;stationary_qd_indy7 -->
<g id="edge4" class="edge">
<title>qd_indy7&#45;&gt;stationary_qd_indy7</title>
<path fill="none" stroke="black" d="M1267.78,-377.52C1251.52,-366.68 1231.21,-353.14 1214.21,-341.81"/>
<polygon fill="black" stroke="black" points="1215.93,-338.75 1205.67,-336.11 1212.05,-344.57 1215.93,-338.75"/>
</g>
<!-- limits_qd_indy7 -->
<g id="node11" class="node">
<title>limits_qd_indy7</title>
<polygon fill="none" stroke="magenta" points="1511.13,-318 1463.06,-336 1366.94,-336 1318.87,-318 1366.94,-300 1463.06,-300 1511.13,-318"/>
<text text-anchor="middle" x="1415" y="-314.3" font-family="Times,serif" font-size="14.00">limits_qd_indy7</text>
</g>
<!-- qd_indy7&#45;&gt;limits_qd_indy7 -->
<g id="edge5" class="edge">
<title>qd_indy7&#45;&gt;limits_qd_indy7</title>
<path fill="none" stroke="black" d="M1326.47,-377.52C1342.86,-366.68 1363.36,-353.14 1380.49,-341.81"/>
<polygon fill="black" stroke="black" points="1382.7,-344.55 1389.11,-336.11 1378.84,-338.71 1382.7,-344.55"/>
</g>
<!-- qdd_indy7 -->
<g id="node3" class="node">
<title>qdd_indy7</title>
<polygon fill="none" stroke="cyan" points="1451.14,-470.54 1451.14,-485.46 1414.15,-496 1361.85,-496 1324.86,-485.46 1324.86,-470.54 1361.85,-460 1414.15,-460 1451.14,-470.54"/>
<polygon fill="none" stroke="cyan" points="1455.13,-467.52 1455.13,-488.48 1414.71,-500 1361.29,-500 1320.87,-488.48 1320.87,-467.52 1361.29,-456 1414.71,-456 1455.13,-467.52"/>
<text text-anchor="middle" x="1388" y="-474.3" font-family="Times,serif" font-size="14.00">qdd_indy7</text>
</g>
<!-- qdd_indy7&#45;&gt;qd_indy7 -->
<g id="edge22" class="edge">
<title>qdd_indy7&#45;&gt;qd_indy7</title>
<path fill="none" stroke="black" stroke-dasharray="5,2" d="M1363.13,-455.69C1352.72,-446.76 1340.47,-436.26 1329.36,-426.74"/>
<polygon fill="black" stroke="black" points="1331.39,-423.87 1321.52,-420.02 1326.84,-429.18 1331.39,-423.87"/>
</g>
<!-- limits_qdd_indy7 -->
<g id="node13" class="node">
<title>limits_qdd_indy7</title>
<polygon fill="none" stroke="magenta" points="1657.63,-398 1606.32,-416 1503.68,-416 1452.37,-398 1503.68,-380 1606.32,-380 1657.63,-398"/>
<text text-anchor="middle" x="1555" y="-394.3" font-family="Times,serif" font-size="14.00">limits_qdd_indy7</text>
</g>
<!-- qdd_indy7&#45;&gt;limits_qdd_indy7 -->
<g id="edge6" class="edge">
<title>qdd_indy7&#45;&gt;limits_qdd_indy7</title>
<path fill="none" stroke="black" d="M1426.31,-459.11C1451.01,-447.57 1483.26,-432.51 1509.3,-420.35"/>
<polygon fill="black" stroke="black" points="1511,-423.41 1518.58,-416.01 1508.04,-417.07 1511,-423.41"/>
</g>
<!-- q_init_indy7 -->
<g id="node4" class="node">
<title>q_init_indy7</title>
<polygon fill="none" stroke="blue" points="970.42,-310.54 970.42,-325.46 928,-336 868,-336 825.58,-325.46 825.58,-310.54 868,-300 928,-300 970.42,-310.54"/>
<polygon fill="none" stroke="blue" points="974.42,-307.42 974.42,-328.58 928.49,-340 867.51,-340 821.58,-328.58 821.58,-307.42 867.51,-296 928.49,-296 974.42,-307.42"/>
<text text-anchor="middle" x="898" y="-314.3" font-family="Times,serif" font-size="14.00">q_init_indy7</text>
</g>
<!-- q_init_indy7&#45;&gt;error_q_indy7_q_init_indy7 -->
<g id="edge7" class="edge">
<title>q_init_indy7&#45;&gt;error_q_indy7_q_init_indy7</title>
<path fill="none" stroke="black" d="M898,-295.69C898,-286.64 898,-275.99 898,-266.37"/>
<polygon fill="black" stroke="black" points="901.5,-266.09 898,-256.09 894.5,-266.09 901.5,-266.09"/>
</g>
<!-- equality_q_indy7 -->
<g id="node6" class="node">
<title>equality_q_indy7</title>
<polygon fill="none" stroke="magenta" points="1134.63,-162 1083.32,-180 980.68,-180 929.37,-162 980.68,-144 1083.32,-144 1134.63,-162"/>
<text text-anchor="middle" x="1032" y="-158.3" font-family="Times,serif" font-size="14.00">equality_q_indy7</text>
</g>
<!-- error_q_indy7_q_init_indy7&#45;&gt;equality_q_indy7 -->
<g id="edge8" class="edge">
<title>error_q_indy7_q_init_indy7&#45;&gt;equality_q_indy7</title>
<path fill="none" stroke="black" d="M928.07,-220.39C947.03,-209.93 971.72,-196.29 992.28,-184.94"/>
<polygon fill="black" stroke="black" points="994.04,-187.96 1001.1,-180.06 990.65,-181.84 994.04,-187.96"/>
</g>
<!-- (&#39;initial&#39;, &#39;equality_q_indy7&#39;) -->
<g id="node7" class="node">
<title>(&#39;initial&#39;, &#39;equality_q_indy7&#39;)</title>
<polygon fill="none" stroke="purple" points="1140,-108 928,-108 928,-72 1140,-72 1140,-108"/>
<text text-anchor="middle" x="1034" y="-86.3" font-family="Times,serif" font-size="14.00">(&#39;initial&#39;, &#39;equality_q_indy7&#39;)</text>
</g>
<!-- equality_q_indy7&#45;&gt;(&#39;initial&#39;, &#39;equality_q_indy7&#39;) -->
<g id="edge9" class="edge">
<title>equality_q_indy7&#45;&gt;(&#39;initial&#39;, &#39;equality_q_indy7&#39;)</title>
<path fill="none" stroke="black" d="M1032.49,-143.7C1032.71,-135.98 1032.98,-126.71 1033.23,-118.11"/>
<polygon fill="black" stroke="black" points="1036.72,-118.2 1033.51,-108.1 1029.73,-118 1036.72,-118.2"/>
</g>
<!-- (&#39;terminal&#39;, &#39;stationary_qd_indy7&#39;) -->
<g id="node22" class="node">
<title>(&#39;terminal&#39;, &#39;stationary_qd_indy7&#39;)</title>
<polygon fill="none" stroke="purple" points="1308,-256 1052,-256 1052,-220 1308,-220 1308,-256"/>
<text text-anchor="middle" x="1180" y="-234.3" font-family="Times,serif" font-size="14.00">(&#39;terminal&#39;, &#39;stationary_qd_indy7&#39;)</text>
</g>
<!-- stationary_qd_indy7&#45;&gt;(&#39;terminal&#39;, &#39;stationary_qd_indy7&#39;) -->
<g id="edge10" class="edge">
<title>stationary_qd_indy7&#45;&gt;(&#39;terminal&#39;, &#39;stationary_qd_indy7&#39;)</title>
<path fill="none" stroke="black" d="M1180,-299.69C1180,-289.89 1180,-277.42 1180,-266.33"/>
<polygon fill="black" stroke="black" points="1183.5,-266.26 1180,-256.26 1176.5,-266.26 1183.5,-266.26"/>
</g>
<!-- (&#39;path&#39;, &#39;limits_q_indy7&#39;) -->
<g id="node10" class="node">
<title>(&#39;path&#39;, &#39;limits_q_indy7&#39;)</title>
<polygon fill="none" stroke="purple" points="186,-180 0,-180 0,-144 186,-144 186,-180"/>
<text text-anchor="middle" x="93" y="-158.3" font-family="Times,serif" font-size="14.00">(&#39;path&#39;, &#39;limits_q_indy7&#39;)</text>
</g>
<!-- limits_q_indy7&#45;&gt;(&#39;path&#39;, &#39;limits_q_indy7&#39;) -->
<g id="edge11" class="edge">
<title>limits_q_indy7&#45;&gt;(&#39;path&#39;, &#39;limits_q_indy7&#39;)</title>
<path fill="none" stroke="black" d="M198.23,-219.84C178.95,-209.42 154.16,-196.03 133.48,-184.87"/>
<polygon fill="black" stroke="black" points="135.06,-181.74 124.6,-180.07 131.74,-187.9 135.06,-181.74"/>
</g>
<!-- (&#39;path&#39;, &#39;limits_qd_indy7&#39;) -->
<g id="node12" class="node">
<title>(&#39;path&#39;, &#39;limits_qd_indy7&#39;)</title>
<polygon fill="none" stroke="purple" points="1521.5,-256 1326.5,-256 1326.5,-220 1521.5,-220 1521.5,-256"/>
<text text-anchor="middle" x="1424" y="-234.3" font-family="Times,serif" font-size="14.00">(&#39;path&#39;, &#39;limits_qd_indy7&#39;)</text>
</g>
<!-- limits_qd_indy7&#45;&gt;(&#39;path&#39;, &#39;limits_qd_indy7&#39;) -->
<g id="edge12" class="edge">
<title>limits_qd_indy7&#45;&gt;(&#39;path&#39;, &#39;limits_qd_indy7&#39;)</title>
<path fill="none" stroke="black" d="M1417,-299.69C1418.13,-289.89 1419.57,-277.42 1420.85,-266.33"/>
<polygon fill="black" stroke="black" points="1424.34,-266.6 1422.01,-256.26 1417.38,-265.8 1424.34,-266.6"/>
</g>
<!-- (&#39;path&#39;, &#39;limits_qdd_indy7&#39;) -->
<g id="node14" class="node">
<title>(&#39;path&#39;, &#39;limits_qdd_indy7&#39;)</title>
<polygon fill="none" stroke="purple" points="1733,-336 1529,-336 1529,-300 1733,-300 1733,-336"/>
<text text-anchor="middle" x="1631" y="-314.3" font-family="Times,serif" font-size="14.00">(&#39;path&#39;, &#39;limits_qdd_indy7&#39;)</text>
</g>
<!-- limits_qdd_indy7&#45;&gt;(&#39;path&#39;, &#39;limits_qdd_indy7&#39;) -->
<g id="edge13" class="edge">
<title>limits_qdd_indy7&#45;&gt;(&#39;path&#39;, &#39;limits_qdd_indy7&#39;)</title>
<path fill="none" stroke="black" d="M1571.87,-379.69C1582.2,-369.09 1595.59,-355.35 1607.01,-343.62"/>
<polygon fill="black" stroke="black" points="1609.71,-345.87 1614.18,-336.26 1604.69,-340.98 1609.71,-345.87"/>
</g>
<!-- trans_error_pose_6_indy7_vs_goal -->
<g id="node17" class="node">
<title>trans_error_pose_6_indy7_vs_goal</title>
<ellipse fill="none" stroke="green" cx="372" cy="-162" rx="168.17" ry="18"/>
<text text-anchor="middle" x="372" y="-158.3" font-family="Times,serif" font-size="14.00">trans_error_pose_6_indy7_vs_goal</text>
</g>
<!-- pose_6_indy7&#45;&gt;trans_error_pose_6_indy7_vs_goal -->
<g id="edge14" class="edge">
<title>pose_6_indy7&#45;&gt;trans_error_pose_6_indy7_vs_goal</title>
<path fill="none" stroke="black" d="M439.69,-220.58C427.92,-210.56 412.68,-197.6 399.64,-186.51"/>
<polygon fill="black" stroke="black" points="401.74,-183.7 391.86,-179.89 397.21,-189.04 401.74,-183.7"/>
</g>
<!-- rotmat_error_pose_6_indy7_vs_goal -->
<g id="node19" class="node">
<title>rotmat_error_pose_6_indy7_vs_goal</title>
<ellipse fill="none" stroke="green" cx="734" cy="-162" rx="175.47" ry="18"/>
<text text-anchor="middle" x="734" y="-158.3" font-family="Times,serif" font-size="14.00">rotmat_error_pose_6_indy7_vs_goal</text>
</g>
<!-- pose_6_indy7&#45;&gt;rotmat_error_pose_6_indy7_vs_goal -->
<g id="edge15" class="edge">
<title>pose_6_indy7&#45;&gt;rotmat_error_pose_6_indy7_vs_goal</title>
<path fill="none" stroke="black" d="M506.27,-224.28C549.9,-212.54 615.21,-194.96 664.72,-181.64"/>
<polygon fill="black" stroke="black" points="665.65,-185.02 674.4,-179.04 663.84,-178.26 665.65,-185.02"/>
</g>
<!-- goal_pose_indy7 -->
<g id="node16" class="node">
<title>goal_pose_indy7</title>
<polygon fill="none" stroke="blue" points="740.63,-230.54 740.63,-245.46 685.78,-256 608.22,-256 553.37,-245.46 553.37,-230.54 608.22,-220 685.78,-220 740.63,-230.54"/>
<polygon fill="none" stroke="blue" points="744.63,-227.24 744.63,-248.76 686.16,-260 607.84,-260 549.37,-248.76 549.37,-227.24 607.84,-216 686.16,-216 744.63,-227.24"/>
<text text-anchor="middle" x="647" y="-234.3" font-family="Times,serif" font-size="14.00">goal_pose_indy7</text>
</g>
<!-- goal_pose_indy7&#45;&gt;trans_error_pose_6_indy7_vs_goal -->
<g id="edge16" class="edge">
<title>goal_pose_indy7&#45;&gt;trans_error_pose_6_indy7_vs_goal</title>
<path fill="none" stroke="black" d="M584.94,-220.3C542.08,-208.77 485.06,-193.42 440.81,-181.52"/>
<polygon fill="black" stroke="black" points="441.57,-178.1 431.01,-178.88 439.75,-184.86 441.57,-178.1"/>
</g>
<!-- goal_pose_indy7&#45;&gt;rotmat_error_pose_6_indy7_vs_goal -->
<g id="edge17" class="edge">
<title>goal_pose_indy7&#45;&gt;rotmat_error_pose_6_indy7_vs_goal</title>
<path fill="none" stroke="black" d="M671.7,-215.99C682.45,-206.85 695.1,-196.09 706.18,-186.66"/>
<polygon fill="black" stroke="black" points="708.58,-189.22 713.93,-180.07 704.04,-183.89 708.58,-189.22"/>
</g>
<!-- trans_con_pose_6_indy7_vs_goal -->
<g id="node18" class="node">
<title>trans_con_pose_6_indy7_vs_goal</title>
<polygon fill="none" stroke="magenta" points="539.24,-90 446.62,-108 261.38,-108 168.76,-90 261.38,-72 446.62,-72 539.24,-90"/>
<text text-anchor="middle" x="354" y="-86.3" font-family="Times,serif" font-size="14.00">trans_con_pose_6_indy7_vs_goal</text>
</g>
<!-- trans_error_pose_6_indy7_vs_goal&#45;&gt;trans_con_pose_6_indy7_vs_goal -->
<g id="edge18" class="edge">
<title>trans_error_pose_6_indy7_vs_goal&#45;&gt;trans_con_pose_6_indy7_vs_goal</title>
<path fill="none" stroke="black" d="M367.55,-143.7C365.55,-135.9 363.13,-126.51 360.9,-117.83"/>
<polygon fill="black" stroke="black" points="364.28,-116.92 358.4,-108.1 357.5,-118.66 364.28,-116.92"/>
</g>
<!-- ax_ang_error_pose_6_indy7_vs_goal -->
<g id="node20" class="node">
<title>ax_ang_error_pose_6_indy7_vs_goal</title>
<ellipse fill="none" stroke="green" cx="734" cy="-90" rx="176.27" ry="18"/>
<text text-anchor="middle" x="734" y="-86.3" font-family="Times,serif" font-size="14.00">ax_ang_error_pose_6_indy7_vs_goal</text>
</g>
<!-- rotmat_error_pose_6_indy7_vs_goal&#45;&gt;ax_ang_error_pose_6_indy7_vs_goal -->
<g id="edge19" class="edge">
<title>rotmat_error_pose_6_indy7_vs_goal&#45;&gt;ax_ang_error_pose_6_indy7_vs_goal</title>
<path fill="none" stroke="black" d="M734,-143.7C734,-135.98 734,-126.71 734,-118.11"/>
<polygon fill="black" stroke="black" points="737.5,-118.1 734,-108.1 730.5,-118.1 737.5,-118.1"/>
</g>
<!-- rot_con_pose_6_indy7_vs_goal -->
<g id="node21" class="node">
<title>rot_con_pose_6_indy7_vs_goal</title>
<polygon fill="none" stroke="magenta" points="906.72,-18 820.36,-36 647.64,-36 561.28,-18 647.64,0 820.36,0 906.72,-18"/>
<text text-anchor="middle" x="734" y="-14.3" font-family="Times,serif" font-size="14.00">rot_con_pose_6_indy7_vs_goal</text>
</g>
<!-- ax_ang_error_pose_6_indy7_vs_goal&#45;&gt;rot_con_pose_6_indy7_vs_goal -->
<g id="edge20" class="edge">
<title>ax_ang_error_pose_6_indy7_vs_goal&#45;&gt;rot_con_pose_6_indy7_vs_goal</title>
<path fill="none" stroke="black" d="M734,-71.7C734,-63.98 734,-54.71 734,-46.11"/>
<polygon fill="black" stroke="black" points="737.5,-46.1 734,-36.1 730.5,-46.1 737.5,-46.1"/>
</g>
</g>
</svg>
