<?xml version="1.0" encoding="UTF-8" standalone="no"?>
<!DOCTYPE svg PUBLIC "-//W3C//DTD SVG 1.1//EN"
 "http://www.w3.org/Graphics/SVG/1.1/DTD/svg11.dtd">
<!-- Generated by graphviz version 2.43.0 (0)
 -->
<!-- Title: %3 Pages: 1 -->
<svg width="1987pt" height="580pt"
 viewBox="0.00 0.00 1986.63 580.00" xmlns="http://www.w3.org/2000/svg" xmlns:xlink="http://www.w3.org/1999/xlink">
<g id="graph0" class="graph" transform="scale(1 1) rotate(0) translate(4 576)">
<title>%3</title>
<polygon fill="white" stroke="transparent" points="-4,4 -4,-576 1982.63,-576 1982.63,4 -4,4"/>
<!-- q_indy7 -->
<g id="node1" class="node">
<title>q_indy7</title>
<polygon fill="none" stroke="green" points="1115.29,-382.54 1115.29,-397.46 1085.54,-408 1043.46,-408 1013.71,-397.46 1013.71,-382.54 1043.46,-372 1085.54,-372 1115.29,-382.54"/>
<polygon fill="none" stroke="green" points="1119.3,-379.72 1119.3,-400.28 1086.23,-412 1042.77,-412 1009.7,-400.28 1009.7,-379.72 1042.77,-368 1086.23,-368 1119.3,-379.72"/>
<text text-anchor="middle" x="1064.5" y="-386.3" font-family="Times,serif" font-size="14.00">q_indy7</text>
</g>
<!-- error_q_indy7_jointpos_init_indy7 -->
<g id="node5" class="node">
<title>error_q_indy7_jointpos_init_indy7</title>
<ellipse fill="none" stroke="green" cx="908.5" cy="-310" rx="167.07" ry="18"/>
<text text-anchor="middle" x="908.5" y="-306.3" font-family="Times,serif" font-size="14.00">error_q_indy7_jointpos_init_indy7</text>
</g>
<!-- q_indy7&#45;&gt;error_q_indy7_jointpos_init_indy7 -->
<g id="edge1" class="edge">
<title>q_indy7&#45;&gt;error_q_indy7_jointpos_init_indy7</title>
<path fill="none" stroke="black" d="M1030.65,-372.08C1007.37,-360.43 976.26,-344.88 951.27,-332.38"/>
<polygon fill="black" stroke="black" points="952.52,-329.1 942.02,-327.76 949.39,-335.36 952.52,-329.1"/>
</g>
<!-- limits_q_indy7 -->
<g id="node10" class="node">
<title>limits_q_indy7</title>
<polygon fill="none" stroke="magenta" points="1271.62,-310 1227.06,-328 1137.94,-328 1093.38,-310 1137.94,-292 1227.06,-292 1271.62,-310"/>
<text text-anchor="middle" x="1182.5" y="-306.3" font-family="Times,serif" font-size="14.00">limits_q_indy7</text>
</g>
<!-- q_indy7&#45;&gt;limits_q_indy7 -->
<g id="edge2" class="edge">
<title>q_indy7&#45;&gt;limits_q_indy7</title>
<path fill="none" stroke="black" d="M1093.06,-370.12C1109.56,-359.21 1130.43,-345.42 1147.85,-333.9"/>
<polygon fill="black" stroke="black" points="1150.2,-336.55 1156.61,-328.11 1146.34,-330.71 1150.2,-336.55"/>
</g>
<!-- pose_6_indy7 -->
<g id="node16" class="node">
<title>pose_6_indy7</title>
<ellipse fill="none" stroke="green" cx="1431.5" cy="-310" rx="72.59" ry="18"/>
<text text-anchor="middle" x="1431.5" y="-306.3" font-family="Times,serif" font-size="14.00">pose_6_indy7</text>
</g>
<!-- q_indy7&#45;&gt;pose_6_indy7 -->
<g id="edge3" class="edge">
<title>q_indy7&#45;&gt;pose_6_indy7</title>
<path fill="none" stroke="black" d="M1105.58,-374.64C1113.15,-372.25 1121.02,-369.92 1128.5,-368 1207.2,-347.78 1299.1,-331.5 1360.88,-321.59"/>
<polygon fill="black" stroke="black" points="1361.58,-325.02 1370.91,-320 1360.49,-318.11 1361.58,-325.02"/>
</g>
<!-- qd_indy7 -->
<g id="node2" class="node">
<title>qd_indy7</title>
<polygon fill="none" stroke="green" points="874.47,-462.54 874.47,-477.46 841.1,-488 793.9,-488 760.53,-477.46 760.53,-462.54 793.9,-452 841.1,-452 874.47,-462.54"/>
<polygon fill="none" stroke="green" points="878.47,-459.61 878.47,-480.39 841.71,-492 793.29,-492 756.53,-480.39 756.53,-459.61 793.29,-448 841.71,-448 878.47,-459.61"/>
<text text-anchor="middle" x="817.5" y="-466.3" font-family="Times,serif" font-size="14.00">qd_indy7</text>
</g>
<!-- qd_indy7&#45;&gt;q_indy7 -->
<g id="edge24" class="edge">
<title>qd_indy7&#45;&gt;q_indy7</title>
<path fill="none" stroke="black" stroke-dasharray="5,2" d="M863.82,-454.79C900.85,-443.37 954.07,-426.85 1000.5,-412 1004.51,-410.72 1008.66,-409.38 1012.82,-408.03"/>
<polygon fill="black" stroke="black" points="1014.1,-411.29 1022.53,-404.87 1011.94,-404.64 1014.1,-411.29"/>
</g>
<!-- stationary_qd_indy7 -->
<g id="node8" class="node">
<title>stationary_qd_indy7</title>
<polygon fill="none" stroke="magenta" points="726.16,-390 665.83,-408 545.17,-408 484.84,-390 545.17,-372 665.83,-372 726.16,-390"/>
<text text-anchor="middle" x="605.5" y="-386.3" font-family="Times,serif" font-size="14.00">stationary_qd_indy7</text>
</g>
<!-- qd_indy7&#45;&gt;stationary_qd_indy7 -->
<g id="edge4" class="edge">
<title>qd_indy7&#45;&gt;stationary_qd_indy7</title>
<path fill="none" stroke="black" d="M775.36,-453.5C742.8,-441.52 697.42,-424.82 661.76,-411.7"/>
<polygon fill="black" stroke="black" points="662.57,-408.27 651.98,-408.1 660.15,-414.84 662.57,-408.27"/>
</g>
<!-- limits_qd_indy7 -->
<g id="node12" class="node">
<title>limits_qd_indy7</title>
<polygon fill="none" stroke="magenta" points="330.63,-390 282.56,-408 186.44,-408 138.37,-390 186.44,-372 282.56,-372 330.63,-390"/>
<text text-anchor="middle" x="234.5" y="-386.3" font-family="Times,serif" font-size="14.00">limits_qd_indy7</text>
</g>
<!-- qd_indy7&#45;&gt;limits_qd_indy7 -->
<g id="edge5" class="edge">
<title>qd_indy7&#45;&gt;limits_qd_indy7</title>
<path fill="none" stroke="black" d="M756.48,-460.84C650.23,-446.62 431.34,-417.34 313.59,-401.58"/>
<polygon fill="black" stroke="black" points="313.93,-398.1 303.56,-400.24 313.01,-405.03 313.93,-398.1"/>
</g>
<!-- qdd_indy7 -->
<g id="node3" class="node">
<title>qdd_indy7</title>
<polygon fill="none" stroke="cyan" points="971.64,-542.54 971.64,-557.46 934.65,-568 882.35,-568 845.36,-557.46 845.36,-542.54 882.35,-532 934.65,-532 971.64,-542.54"/>
<polygon fill="none" stroke="cyan" points="975.63,-539.52 975.63,-560.48 935.21,-572 881.79,-572 841.37,-560.48 841.37,-539.52 881.79,-528 935.21,-528 975.63,-539.52"/>
<text text-anchor="middle" x="908.5" y="-546.3" font-family="Times,serif" font-size="14.00">qdd_indy7</text>
</g>
<!-- qdd_indy7&#45;&gt;qd_indy7 -->
<g id="edge25" class="edge">
<title>qdd_indy7&#45;&gt;qd_indy7</title>
<path fill="none" stroke="black" stroke-dasharray="5,2" d="M883.63,-527.69C873.22,-518.76 860.97,-508.26 849.86,-498.74"/>
<polygon fill="black" stroke="black" points="851.89,-495.87 842.02,-492.02 847.34,-501.18 851.89,-495.87"/>
</g>
<!-- limits_qdd_indy7 -->
<g id="node14" class="node">
<title>limits_qdd_indy7</title>
<polygon fill="none" stroke="magenta" points="1222.13,-470 1170.82,-488 1068.18,-488 1016.87,-470 1068.18,-452 1170.82,-452 1222.13,-470"/>
<text text-anchor="middle" x="1119.5" y="-466.3" font-family="Times,serif" font-size="14.00">limits_qdd_indy7</text>
</g>
<!-- qdd_indy7&#45;&gt;limits_qdd_indy7 -->
<g id="edge6" class="edge">
<title>qdd_indy7&#45;&gt;limits_qdd_indy7</title>
<path fill="none" stroke="black" d="M952.22,-532.84C984.55,-520.89 1028.83,-504.52 1063.71,-491.62"/>
<polygon fill="black" stroke="black" points="1065.11,-494.84 1073.28,-488.09 1062.69,-488.27 1065.11,-494.84"/>
</g>
<!-- jointpos_init_indy7 -->
<g id="node4" class="node">
<title>jointpos_init_indy7</title>
<polygon fill="none" stroke="red" points="987.95,-382.54 987.95,-397.46 925.59,-408 837.41,-408 775.05,-397.46 775.05,-382.54 837.41,-372 925.59,-372 987.95,-382.54"/>
<polygon fill="none" stroke="red" points="991.96,-379.16 991.96,-400.84 925.93,-412 837.07,-412 771.04,-400.84 771.04,-379.16 837.07,-368 925.93,-368 991.96,-379.16"/>
<text text-anchor="middle" x="881.5" y="-386.3" font-family="Times,serif" font-size="14.00">jointpos_init_indy7</text>
</g>
<!-- jointpos_init_indy7&#45;&gt;error_q_indy7_jointpos_init_indy7 -->
<g id="edge7" class="edge">
<title>jointpos_init_indy7&#45;&gt;error_q_indy7_jointpos_init_indy7</title>
<path fill="none" stroke="black" d="M888.88,-367.69C892.08,-358.45 895.86,-347.53 899.24,-337.75"/>
<polygon fill="black" stroke="black" points="902.62,-338.69 902.58,-328.09 896,-336.4 902.62,-338.69"/>
</g>
<!-- equality_q_indy7 -->
<g id="node6" class="node">
<title>equality_q_indy7</title>
<polygon fill="none" stroke="magenta" points="1011.13,-234 959.82,-252 857.18,-252 805.87,-234 857.18,-216 959.82,-216 1011.13,-234"/>
<text text-anchor="middle" x="908.5" y="-230.3" font-family="Times,serif" font-size="14.00">equality_q_indy7</text>
</g>
<!-- error_q_indy7_jointpos_init_indy7&#45;&gt;equality_q_indy7 -->
<g id="edge8" class="edge">
<title>error_q_indy7_jointpos_init_indy7&#45;&gt;equality_q_indy7</title>
<path fill="none" stroke="black" d="M908.5,-291.84C908.5,-283.06 908.5,-272.16 908.5,-262.27"/>
<polygon fill="black" stroke="black" points="912,-262.07 908.5,-252.07 905,-262.07 912,-262.07"/>
</g>
<!-- (&#39;initial&#39;, &#39;equality_q_indy7&#39;) -->
<g id="node7" class="node">
<title>(&#39;initial&#39;, &#39;equality_q_indy7&#39;)</title>
<polygon fill="none" stroke="purple" points="1014.5,-180 802.5,-180 802.5,-144 1014.5,-144 1014.5,-180"/>
<text text-anchor="middle" x="908.5" y="-158.3" font-family="Times,serif" font-size="14.00">(&#39;initial&#39;, &#39;equality_q_indy7&#39;)</text>
</g>
<!-- equality_q_indy7&#45;&gt;(&#39;initial&#39;, &#39;equality_q_indy7&#39;) -->
<g id="edge9" class="edge">
<title>equality_q_indy7&#45;&gt;(&#39;initial&#39;, &#39;equality_q_indy7&#39;)</title>
<path fill="none" stroke="black" d="M908.5,-215.7C908.5,-207.98 908.5,-198.71 908.5,-190.11"/>
<polygon fill="black" stroke="black" points="912,-190.1 908.5,-180.1 905,-190.1 912,-190.1"/>
</g>
<!-- (&#39;initial&#39;, &#39;stationary_qd_indy7&#39;) -->
<g id="node9" class="node">
<title>(&#39;initial&#39;, &#39;stationary_qd_indy7&#39;)</title>
<polygon fill="none" stroke="purple" points="723.5,-328 487.5,-328 487.5,-292 723.5,-292 723.5,-328"/>
<text text-anchor="middle" x="605.5" y="-306.3" font-family="Times,serif" font-size="14.00">(&#39;initial&#39;, &#39;stationary_qd_indy7&#39;)</text>
</g>
<!-- stationary_qd_indy7&#45;&gt;(&#39;initial&#39;, &#39;stationary_qd_indy7&#39;) -->
<g id="edge10" class="edge">
<title>stationary_qd_indy7&#45;&gt;(&#39;initial&#39;, &#39;stationary_qd_indy7&#39;)</title>
<path fill="none" stroke="black" d="M605.5,-371.69C605.5,-361.89 605.5,-349.42 605.5,-338.33"/>
<polygon fill="black" stroke="black" points="609,-338.26 605.5,-328.26 602,-338.26 609,-338.26"/>
</g>
<!-- (&#39;terminal&#39;, &#39;stationary_qd_indy7&#39;) -->
<g id="node25" class="node">
<title>(&#39;terminal&#39;, &#39;stationary_qd_indy7&#39;)</title>
<polygon fill="none" stroke="purple" points="469.5,-328 213.5,-328 213.5,-292 469.5,-292 469.5,-328"/>
<text text-anchor="middle" x="341.5" y="-306.3" font-family="Times,serif" font-size="14.00">(&#39;terminal&#39;, &#39;stationary_qd_indy7&#39;)</text>
</g>
<!-- stationary_qd_indy7&#45;&gt;(&#39;terminal&#39;, &#39;stationary_qd_indy7&#39;) -->
<g id="edge11" class="edge">
<title>stationary_qd_indy7&#45;&gt;(&#39;terminal&#39;, &#39;stationary_qd_indy7&#39;)</title>
<path fill="none" stroke="black" d="M547.89,-371.98C507.07,-359.92 452.16,-343.7 409.24,-331.01"/>
<polygon fill="black" stroke="black" points="410.02,-327.6 399.44,-328.12 408.04,-334.31 410.02,-327.6"/>
</g>
<!-- (&#39;path&#39;, &#39;limits_q_indy7&#39;) -->
<g id="node11" class="node">
<title>(&#39;path&#39;, &#39;limits_q_indy7&#39;)</title>
<polygon fill="none" stroke="purple" points="1245.5,-252 1059.5,-252 1059.5,-216 1245.5,-216 1245.5,-252"/>
<text text-anchor="middle" x="1152.5" y="-230.3" font-family="Times,serif" font-size="14.00">(&#39;path&#39;, &#39;limits_q_indy7&#39;)</text>
</g>
<!-- limits_q_indy7&#45;&gt;(&#39;path&#39;, &#39;limits_q_indy7&#39;) -->
<g id="edge12" class="edge">
<title>limits_q_indy7&#45;&gt;(&#39;path&#39;, &#39;limits_q_indy7&#39;)</title>
<path fill="none" stroke="black" d="M1175.54,-291.84C1171.91,-282.87 1167.38,-271.7 1163.3,-261.64"/>
<polygon fill="black" stroke="black" points="1166.42,-260.02 1159.42,-252.07 1159.93,-262.65 1166.42,-260.02"/>
</g>
<!-- (&#39;path&#39;, &#39;limits_qd_indy7&#39;) -->
<g id="node13" class="node">
<title>(&#39;path&#39;, &#39;limits_qd_indy7&#39;)</title>
<polygon fill="none" stroke="purple" points="195,-328 0,-328 0,-292 195,-292 195,-328"/>
<text text-anchor="middle" x="97.5" y="-306.3" font-family="Times,serif" font-size="14.00">(&#39;path&#39;, &#39;limits_qd_indy7&#39;)</text>
</g>
<!-- limits_qd_indy7&#45;&gt;(&#39;path&#39;, &#39;limits_qd_indy7&#39;) -->
<g id="edge13" class="edge">
<title>limits_qd_indy7&#45;&gt;(&#39;path&#39;, &#39;limits_qd_indy7&#39;)</title>
<path fill="none" stroke="black" d="M204.43,-371.88C184.45,-360.5 158.01,-345.45 136.42,-333.16"/>
<polygon fill="black" stroke="black" points="137.92,-329.98 127.5,-328.08 134.45,-336.07 137.92,-329.98"/>
</g>
<!-- (&#39;path&#39;, &#39;limits_qdd_indy7&#39;) -->
<g id="node15" class="node">
<title>(&#39;path&#39;, &#39;limits_qdd_indy7&#39;)</title>
<polygon fill="none" stroke="purple" points="1341.5,-408 1137.5,-408 1137.5,-372 1341.5,-372 1341.5,-408"/>
<text text-anchor="middle" x="1239.5" y="-386.3" font-family="Times,serif" font-size="14.00">(&#39;path&#39;, &#39;limits_qdd_indy7&#39;)</text>
</g>
<!-- limits_qdd_indy7&#45;&gt;(&#39;path&#39;, &#39;limits_qdd_indy7&#39;) -->
<g id="edge14" class="edge">
<title>limits_qdd_indy7&#45;&gt;(&#39;path&#39;, &#39;limits_qdd_indy7&#39;)</title>
<path fill="none" stroke="black" d="M1145.83,-451.88C1163.11,-440.66 1185.88,-425.85 1204.65,-413.65"/>
<polygon fill="black" stroke="black" points="1206.75,-416.46 1213.23,-408.08 1202.93,-410.59 1206.75,-416.46"/>
</g>
<!-- trans_error_pose_6_indy7_vs_goal -->
<g id="node18" class="node">
<title>trans_error_pose_6_indy7_vs_goal</title>
<ellipse fill="none" stroke="green" cx="1431.5" cy="-234" rx="168.17" ry="18"/>
<text text-anchor="middle" x="1431.5" y="-230.3" font-family="Times,serif" font-size="14.00">trans_error_pose_6_indy7_vs_goal</text>
</g>
<!-- pose_6_indy7&#45;&gt;trans_error_pose_6_indy7_vs_goal -->
<g id="edge15" class="edge">
<title>pose_6_indy7&#45;&gt;trans_error_pose_6_indy7_vs_goal</title>
<path fill="none" stroke="black" d="M1431.5,-291.84C1431.5,-283.06 1431.5,-272.16 1431.5,-262.27"/>
<polygon fill="black" stroke="black" points="1435,-262.07 1431.5,-252.07 1428,-262.07 1435,-262.07"/>
</g>
<!-- rotmat_error_pose_6_indy7_vs_goal -->
<g id="node21" class="node">
<title>rotmat_error_pose_6_indy7_vs_goal</title>
<ellipse fill="none" stroke="green" cx="1793.5" cy="-234" rx="175.47" ry="18"/>
<text text-anchor="middle" x="1793.5" y="-230.3" font-family="Times,serif" font-size="14.00">rotmat_error_pose_6_indy7_vs_goal</text>
</g>
<!-- pose_6_indy7&#45;&gt;rotmat_error_pose_6_indy7_vs_goal -->
<g id="edge16" class="edge">
<title>pose_6_indy7&#45;&gt;rotmat_error_pose_6_indy7_vs_goal</title>
<path fill="none" stroke="black" d="M1485.7,-297.92C1544.63,-285.87 1639.61,-266.46 1708.49,-252.38"/>
<polygon fill="black" stroke="black" points="1709.36,-255.77 1718.46,-250.34 1707.96,-248.91 1709.36,-255.77"/>
</g>
<!-- goal_pose_indy7 -->
<g id="node17" class="node">
<title>goal_pose_indy7</title>
<polygon fill="none" stroke="red" points="1800.13,-302.54 1800.13,-317.46 1745.28,-328 1667.72,-328 1612.87,-317.46 1612.87,-302.54 1667.72,-292 1745.28,-292 1800.13,-302.54"/>
<polygon fill="none" stroke="red" points="1804.13,-299.24 1804.13,-320.76 1745.66,-332 1667.34,-332 1608.87,-320.76 1608.87,-299.24 1667.34,-288 1745.66,-288 1804.13,-299.24"/>
<text text-anchor="middle" x="1706.5" y="-306.3" font-family="Times,serif" font-size="14.00">goal_pose_indy7</text>
</g>
<!-- goal_pose_indy7&#45;&gt;trans_error_pose_6_indy7_vs_goal -->
<g id="edge17" class="edge">
<title>goal_pose_indy7&#45;&gt;trans_error_pose_6_indy7_vs_goal</title>
<path fill="none" stroke="black" d="M1644.44,-292.3C1601.58,-280.77 1544.56,-265.42 1500.31,-253.52"/>
<polygon fill="black" stroke="black" points="1501.07,-250.1 1490.51,-250.88 1499.25,-256.86 1501.07,-250.1"/>
</g>
<!-- goal_pose_indy7&#45;&gt;rotmat_error_pose_6_indy7_vs_goal -->
<g id="edge18" class="edge">
<title>goal_pose_indy7&#45;&gt;rotmat_error_pose_6_indy7_vs_goal</title>
<path fill="none" stroke="black" d="M1731.2,-287.99C1741.95,-278.85 1754.6,-268.09 1765.68,-258.66"/>
<polygon fill="black" stroke="black" points="1768.08,-261.22 1773.43,-252.07 1763.54,-255.89 1768.08,-261.22"/>
</g>
<!-- trans_con_pose_6_indy7_vs_goal -->
<g id="node19" class="node">
<title>trans_con_pose_6_indy7_vs_goal</title>
<polygon fill="none" stroke="magenta" points="1607.74,-162 1515.12,-180 1329.88,-180 1237.26,-162 1329.88,-144 1515.12,-144 1607.74,-162"/>
<text text-anchor="middle" x="1422.5" y="-158.3" font-family="Times,serif" font-size="14.00">trans_con_pose_6_indy7_vs_goal</text>
</g>
<!-- trans_error_pose_6_indy7_vs_goal&#45;&gt;trans_con_pose_6_indy7_vs_goal -->
<g id="edge19" class="edge">
<title>trans_error_pose_6_indy7_vs_goal&#45;&gt;trans_con_pose_6_indy7_vs_goal</title>
<path fill="none" stroke="black" d="M1429.28,-215.7C1428.28,-207.98 1427.09,-198.71 1425.99,-190.11"/>
<polygon fill="black" stroke="black" points="1429.45,-189.58 1424.7,-180.1 1422.5,-190.47 1429.45,-189.58"/>
</g>
<!-- (&#39;terminal&#39;, &#39;trans_con_pose_6_indy7_vs_goal&#39;) -->
<g id="node20" class="node">
<title>(&#39;terminal&#39;, &#39;trans_con_pose_6_indy7_vs_goal&#39;)</title>
<polygon fill="none" stroke="purple" points="1593.5,-108 1251.5,-108 1251.5,-72 1593.5,-72 1593.5,-108"/>
<text text-anchor="middle" x="1422.5" y="-86.3" font-family="Times,serif" font-size="14.00">(&#39;terminal&#39;, &#39;trans_con_pose_6_indy7_vs_goal&#39;)</text>
</g>
<!-- trans_con_pose_6_indy7_vs_goal&#45;&gt;(&#39;terminal&#39;, &#39;trans_con_pose_6_indy7_vs_goal&#39;) -->
<g id="edge20" class="edge">
<title>trans_con_pose_6_indy7_vs_goal&#45;&gt;(&#39;terminal&#39;, &#39;trans_con_pose_6_indy7_vs_goal&#39;)</title>
<path fill="none" stroke="black" d="M1422.5,-143.7C1422.5,-135.98 1422.5,-126.71 1422.5,-118.11"/>
<polygon fill="black" stroke="black" points="1426,-118.1 1422.5,-108.1 1419,-118.1 1426,-118.1"/>
</g>
<!-- ax_ang_error_pose_6_indy7_vs_goal -->
<g id="node22" class="node">
<title>ax_ang_error_pose_6_indy7_vs_goal</title>
<ellipse fill="none" stroke="green" cx="1802.5" cy="-162" rx="176.27" ry="18"/>
<text text-anchor="middle" x="1802.5" y="-158.3" font-family="Times,serif" font-size="14.00">ax_ang_error_pose_6_indy7_vs_goal</text>
</g>
<!-- rotmat_error_pose_6_indy7_vs_goal&#45;&gt;ax_ang_error_pose_6_indy7_vs_goal -->
<g id="edge21" class="edge">
<title>rotmat_error_pose_6_indy7_vs_goal&#45;&gt;ax_ang_error_pose_6_indy7_vs_goal</title>
<path fill="none" stroke="black" d="M1795.72,-215.7C1796.72,-207.98 1797.91,-198.71 1799.01,-190.11"/>
<polygon fill="black" stroke="black" points="1802.5,-190.47 1800.3,-180.1 1795.55,-189.58 1802.5,-190.47"/>
</g>
<!-- rot_con_pose_6_indy7_vs_goal -->
<g id="node23" class="node">
<title>rot_con_pose_6_indy7_vs_goal</title>
<polygon fill="none" stroke="magenta" points="1975.22,-90 1888.86,-108 1716.14,-108 1629.78,-90 1716.14,-72 1888.86,-72 1975.22,-90"/>
<text text-anchor="middle" x="1802.5" y="-86.3" font-family="Times,serif" font-size="14.00">rot_con_pose_6_indy7_vs_goal</text>
</g>
<!-- ax_ang_error_pose_6_indy7_vs_goal&#45;&gt;rot_con_pose_6_indy7_vs_goal -->
<g id="edge22" class="edge">
<title>ax_ang_error_pose_6_indy7_vs_goal&#45;&gt;rot_con_pose_6_indy7_vs_goal</title>
<path fill="none" stroke="black" d="M1802.5,-143.7C1802.5,-135.98 1802.5,-126.71 1802.5,-118.11"/>
<polygon fill="black" stroke="black" points="1806,-118.1 1802.5,-108.1 1799,-118.1 1806,-118.1"/>
</g>
<!-- (&#39;terminal&#39;, &#39;rot_con_pose_6_indy7_vs_goal&#39;) -->
<g id="node24" class="node">
<title>(&#39;terminal&#39;, &#39;rot_con_pose_6_indy7_vs_goal&#39;)</title>
<polygon fill="none" stroke="purple" points="1965.5,-36 1639.5,-36 1639.5,0 1965.5,0 1965.5,-36"/>
<text text-anchor="middle" x="1802.5" y="-14.3" font-family="Times,serif" font-size="14.00">(&#39;terminal&#39;, &#39;rot_con_pose_6_indy7_vs_goal&#39;)</text>
</g>
<!-- rot_con_pose_6_indy7_vs_goal&#45;&gt;(&#39;terminal&#39;, &#39;rot_con_pose_6_indy7_vs_goal&#39;) -->
<g id="edge23" class="edge">
<title>rot_con_pose_6_indy7_vs_goal&#45;&gt;(&#39;terminal&#39;, &#39;rot_con_pose_6_indy7_vs_goal&#39;)</title>
<path fill="none" stroke="black" d="M1802.5,-71.7C1802.5,-63.98 1802.5,-54.71 1802.5,-46.11"/>
<polygon fill="black" stroke="black" points="1806,-46.1 1802.5,-36.1 1799,-46.1 1806,-46.1"/>
</g>
</g>
</svg>
