<?xml version="1.0" encoding="UTF-8" standalone="no"?>
<!DOCTYPE svg PUBLIC "-//W3C//DTD SVG 1.1//EN"
 "http://www.w3.org/Graphics/SVG/1.1/DTD/svg11.dtd">
<!-- Generated by graphviz version 2.43.0 (0)
 -->
<!-- Title: %3 Pages: 1 -->
<svg width="2488pt" height="580pt"
 viewBox="0.00 0.00 2487.65 580.00" xmlns="http://www.w3.org/2000/svg" xmlns:xlink="http://www.w3.org/1999/xlink">
<g id="graph0" class="graph" transform="scale(1 1) rotate(0) translate(4 576)">
<title>%3</title>
<polygon fill="white" stroke="transparent" points="-4,4 -4,-576 2483.65,-576 2483.65,4 -4,4"/>
<!-- q_mmo_500_ppr -->
<g id="node1" class="node">
<title>q_mmo_500_ppr</title>
<polygon fill="none" stroke="green" points="1407.13,-382.54 1407.13,-397.46 1352.28,-408 1274.72,-408 1219.87,-397.46 1219.87,-382.54 1274.72,-372 1352.28,-372 1407.13,-382.54"/>
<polygon fill="none" stroke="green" points="1411.13,-379.24 1411.13,-400.76 1352.66,-412 1274.34,-412 1215.87,-400.76 1215.87,-379.24 1274.34,-368 1352.66,-368 1411.13,-379.24"/>
<text text-anchor="middle" x="1313.5" y="-386.3" font-family="Times,serif" font-size="14.00">q_mmo_500_ppr</text>
</g>
<!-- error_q_mmo_500_ppr_q_init_mmo_500_ppr -->
<g id="node5" class="node">
<title>error_q_mmo_500_ppr_q_init_mmo_500_ppr</title>
<ellipse fill="none" stroke="green" cx="1081.5" cy="-310" rx="214.46" ry="18"/>
<text text-anchor="middle" x="1081.5" y="-306.3" font-family="Times,serif" font-size="14.00">error_q_mmo_500_ppr_q_init_mmo_500_ppr</text>
</g>
<!-- q_mmo_500_ppr&#45;&gt;error_q_mmo_500_ppr_q_init_mmo_500_ppr -->
<g id="edge1" class="edge">
<title>q_mmo_500_ppr&#45;&gt;error_q_mmo_500_ppr_q_init_mmo_500_ppr</title>
<path fill="none" stroke="black" d="M1259.4,-370.81C1223.75,-358.83 1177.08,-343.14 1140.49,-330.83"/>
<polygon fill="black" stroke="black" points="1141.53,-327.49 1130.93,-327.62 1139.3,-334.12 1141.53,-327.49"/>
</g>
<!-- limits_q_mmo_500_ppr -->
<g id="node9" class="node">
<title>limits_q_mmo_500_ppr</title>
<polygon fill="none" stroke="magenta" points="2145.68,-310 2078.09,-328 1942.91,-328 1875.32,-310 1942.91,-292 2078.09,-292 2145.68,-310"/>
<text text-anchor="middle" x="2010.5" y="-306.3" font-family="Times,serif" font-size="14.00">limits_q_mmo_500_ppr</text>
</g>
<!-- q_mmo_500_ppr&#45;&gt;limits_q_mmo_500_ppr -->
<g id="edge2" class="edge">
<title>q_mmo_500_ppr&#45;&gt;limits_q_mmo_500_ppr</title>
<path fill="none" stroke="black" d="M1384.11,-374.01C1396.21,-371.76 1408.69,-369.65 1420.5,-368 1608.67,-341.66 1657.55,-352.07 1846.5,-332 1868.16,-329.7 1891.39,-326.92 1913.35,-324.14"/>
<polygon fill="black" stroke="black" points="1913.86,-327.6 1923.34,-322.87 1912.98,-320.66 1913.86,-327.6"/>
</g>
<!-- pose_9_mmo_500_ppr -->
<g id="node15" class="node">
<title>pose_9_mmo_500_ppr</title>
<ellipse fill="none" stroke="green" cx="1725.5" cy="-310" rx="112.38" ry="18"/>
<text text-anchor="middle" x="1725.5" y="-306.3" font-family="Times,serif" font-size="14.00">pose_9_mmo_500_ppr</text>
</g>
<!-- q_mmo_500_ppr&#45;&gt;pose_9_mmo_500_ppr -->
<g id="edge3" class="edge">
<title>q_mmo_500_ppr&#45;&gt;pose_9_mmo_500_ppr</title>
<path fill="none" stroke="black" d="M1386.87,-374.51C1398.13,-372.31 1409.62,-370.08 1420.5,-368 1496.43,-353.45 1583.07,-337.3 1644.56,-325.92"/>
<polygon fill="black" stroke="black" points="1645.4,-329.33 1654.59,-324.06 1644.12,-322.44 1645.4,-329.33"/>
</g>
<!-- qd_mmo_500_ppr -->
<g id="node2" class="node">
<title>qd_mmo_500_ppr</title>
<polygon fill="none" stroke="green" points="1161.3,-462.54 1161.3,-477.46 1102.84,-488 1020.16,-488 961.7,-477.46 961.7,-462.54 1020.16,-452 1102.84,-452 1161.3,-462.54"/>
<polygon fill="none" stroke="green" points="1165.29,-459.2 1165.29,-480.8 1103.19,-492 1019.81,-492 957.71,-480.8 957.71,-459.2 1019.81,-448 1103.19,-448 1165.29,-459.2"/>
<text text-anchor="middle" x="1061.5" y="-466.3" font-family="Times,serif" font-size="14.00">qd_mmo_500_ppr</text>
</g>
<!-- qd_mmo_500_ppr&#45;&gt;q_mmo_500_ppr -->
<g id="edge33" class="edge">
<title>qd_mmo_500_ppr&#45;&gt;q_mmo_500_ppr</title>
<path fill="none" stroke="black" stroke-dasharray="5,2" d="M1119.95,-450.91C1157.75,-439.21 1207.06,-423.95 1246.45,-411.75"/>
<polygon fill="black" stroke="black" points="1247.72,-415.02 1256.24,-408.72 1245.65,-408.34 1247.72,-415.02"/>
</g>
<!-- stationary_qd_mmo_500_ppr -->
<g id="node8" class="node">
<title>stationary_qd_mmo_500_ppr</title>
<polygon fill="none" stroke="magenta" points="344.22,-390 261.36,-408 95.64,-408 12.78,-390 95.64,-372 261.36,-372 344.22,-390"/>
<text text-anchor="middle" x="178.5" y="-386.3" font-family="Times,serif" font-size="14.00">stationary_qd_mmo_500_ppr</text>
</g>
<!-- qd_mmo_500_ppr&#45;&gt;stationary_qd_mmo_500_ppr -->
<g id="edge4" class="edge">
<title>qd_mmo_500_ppr&#45;&gt;stationary_qd_mmo_500_ppr</title>
<path fill="none" stroke="black" d="M957.64,-461.55C821.2,-451.52 574.21,-432.56 363.5,-412 340.56,-409.76 316.04,-407.14 292.61,-404.52"/>
<polygon fill="black" stroke="black" points="292.97,-401.04 282.64,-403.4 292.19,-408 292.97,-401.04"/>
</g>
<!-- limits_qd_mmo_500_ppr -->
<g id="node11" class="node">
<title>limits_qd_mmo_500_ppr</title>
<polygon fill="none" stroke="magenta" points="656.18,-390 585.34,-408 443.66,-408 372.82,-390 443.66,-372 585.34,-372 656.18,-390"/>
<text text-anchor="middle" x="514.5" y="-386.3" font-family="Times,serif" font-size="14.00">limits_qd_mmo_500_ppr</text>
</g>
<!-- qd_mmo_500_ppr&#45;&gt;limits_qd_mmo_500_ppr -->
<g id="edge5" class="edge">
<title>qd_mmo_500_ppr&#45;&gt;limits_qd_mmo_500_ppr</title>
<path fill="none" stroke="black" d="M973.01,-456.38C874.39,-442.32 715.37,-419.64 612.91,-405.03"/>
<polygon fill="black" stroke="black" points="613.26,-401.55 602.87,-403.6 612.27,-408.48 613.26,-401.55"/>
</g>
<!-- err_qd_qinit_mmo_500_ppr -->
<g id="node24" class="node">
<title>err_qd_qinit_mmo_500_ppr</title>
<ellipse fill="none" stroke="green" cx="1565.5" cy="-390" rx="136.48" ry="18"/>
<text text-anchor="middle" x="1565.5" y="-386.3" font-family="Times,serif" font-size="14.00">err_qd_qinit_mmo_500_ppr</text>
</g>
<!-- qd_mmo_500_ppr&#45;&gt;err_qd_qinit_mmo_500_ppr -->
<g id="edge6" class="edge">
<title>qd_mmo_500_ppr&#45;&gt;err_qd_qinit_mmo_500_ppr</title>
<path fill="none" stroke="black" d="M1146.71,-455.81C1236.49,-441.92 1377.53,-420.09 1470.75,-405.66"/>
<polygon fill="black" stroke="black" points="1471.4,-409.1 1480.75,-404.12 1470.33,-402.19 1471.4,-409.1"/>
</g>
<!-- reg_qd_mmo_500_ppr -->
<g id="node31" class="node">
<title>reg_qd_mmo_500_ppr</title>
<polygon fill="none" stroke="magenta" points="939.17,-390 874.33,-408 744.67,-408 679.83,-390 744.67,-372 874.33,-372 939.17,-390"/>
<text text-anchor="middle" x="809.5" y="-386.3" font-family="Times,serif" font-size="14.00">reg_qd_mmo_500_ppr</text>
</g>
<!-- qd_mmo_500_ppr&#45;&gt;reg_qd_mmo_500_ppr -->
<g id="edge7" class="edge">
<title>qd_mmo_500_ppr&#45;&gt;reg_qd_mmo_500_ppr</title>
<path fill="none" stroke="black" d="M1003.05,-450.91C964.5,-438.98 913.97,-423.34 874.21,-411.03"/>
<polygon fill="black" stroke="black" points="875.2,-407.67 864.61,-408.06 873.13,-414.36 875.2,-407.67"/>
</g>
<!-- qdd_mmo_500_ppr -->
<g id="node3" class="node">
<title>qdd_mmo_500_ppr</title>
<polygon fill="none" stroke="cyan" points="1958.95,-542.54 1958.95,-557.46 1896.59,-568 1808.41,-568 1746.05,-557.46 1746.05,-542.54 1808.41,-532 1896.59,-532 1958.95,-542.54"/>
<polygon fill="none" stroke="cyan" points="1962.96,-539.16 1962.96,-560.84 1896.93,-572 1808.07,-572 1742.04,-560.84 1742.04,-539.16 1808.07,-528 1896.93,-528 1962.96,-539.16"/>
<text text-anchor="middle" x="1852.5" y="-546.3" font-family="Times,serif" font-size="14.00">qdd_mmo_500_ppr</text>
</g>
<!-- qdd_mmo_500_ppr&#45;&gt;qd_mmo_500_ppr -->
<g id="edge34" class="edge">
<title>qdd_mmo_500_ppr&#45;&gt;qd_mmo_500_ppr</title>
<path fill="none" stroke="black" stroke-dasharray="5,2" d="M1745.82,-538.48C1596.6,-523.77 1326.75,-497.16 1174.3,-482.12"/>
<polygon fill="black" stroke="black" points="1174.28,-478.6 1163.98,-481.11 1173.59,-485.57 1174.28,-478.6"/>
</g>
<!-- limits_qdd_mmo_500_ppr -->
<g id="node13" class="node">
<title>limits_qdd_mmo_500_ppr</title>
<polygon fill="none" stroke="magenta" points="2001.19,-470 1926.85,-488 1778.15,-488 1703.81,-470 1778.15,-452 1926.85,-452 2001.19,-470"/>
<text text-anchor="middle" x="1852.5" y="-466.3" font-family="Times,serif" font-size="14.00">limits_qdd_mmo_500_ppr</text>
</g>
<!-- qdd_mmo_500_ppr&#45;&gt;limits_qdd_mmo_500_ppr -->
<g id="edge8" class="edge">
<title>qdd_mmo_500_ppr&#45;&gt;limits_qdd_mmo_500_ppr</title>
<path fill="none" stroke="black" d="M1852.5,-527.69C1852.5,-518.64 1852.5,-507.99 1852.5,-498.37"/>
<polygon fill="black" stroke="black" points="1856,-498.09 1852.5,-488.09 1849,-498.09 1856,-498.09"/>
</g>
<!-- reg_qdd_mmo_500_ppr -->
<g id="node33" class="node">
<title>reg_qdd_mmo_500_ppr</title>
<polygon fill="none" stroke="magenta" points="2292.18,-470 2223.84,-488 2087.16,-488 2018.82,-470 2087.16,-452 2223.84,-452 2292.18,-470"/>
<text text-anchor="middle" x="2155.5" y="-466.3" font-family="Times,serif" font-size="14.00">reg_qdd_mmo_500_ppr</text>
</g>
<!-- qdd_mmo_500_ppr&#45;&gt;reg_qdd_mmo_500_ppr -->
<g id="edge9" class="edge">
<title>qdd_mmo_500_ppr&#45;&gt;reg_qdd_mmo_500_ppr</title>
<path fill="none" stroke="black" d="M1919.37,-531.79C1966.65,-519.61 2030.13,-503.27 2079.36,-490.6"/>
<polygon fill="black" stroke="black" points="2080.51,-493.92 2089.32,-488.04 2078.77,-487.14 2080.51,-493.92"/>
</g>
<!-- q_init_mmo_500_ppr -->
<g id="node4" class="node">
<title>q_init_mmo_500_ppr</title>
<polygon fill="none" stroke="blue" points="1193.75,-382.54 1193.75,-397.46 1126.24,-408 1030.76,-408 963.25,-397.46 963.25,-382.54 1030.76,-372 1126.24,-372 1193.75,-382.54"/>
<polygon fill="none" stroke="blue" points="1197.75,-379.12 1197.75,-400.88 1126.55,-412 1030.45,-412 959.25,-400.88 959.25,-379.12 1030.45,-368 1126.55,-368 1197.75,-379.12"/>
<text text-anchor="middle" x="1078.5" y="-386.3" font-family="Times,serif" font-size="14.00">q_init_mmo_500_ppr</text>
</g>
<!-- q_init_mmo_500_ppr&#45;&gt;error_q_mmo_500_ppr_q_init_mmo_500_ppr -->
<g id="edge10" class="edge">
<title>q_init_mmo_500_ppr&#45;&gt;error_q_mmo_500_ppr_q_init_mmo_500_ppr</title>
<path fill="none" stroke="black" d="M1079.32,-367.69C1079.67,-358.64 1080.08,-347.99 1080.45,-338.37"/>
<polygon fill="black" stroke="black" points="1083.96,-338.22 1080.84,-328.09 1076.96,-337.95 1083.96,-338.22"/>
</g>
<!-- equality_q_mmo_500_ppr -->
<g id="node6" class="node">
<title>equality_q_mmo_500_ppr</title>
<polygon fill="none" stroke="magenta" points="1040.19,-234 966.35,-252 818.65,-252 744.81,-234 818.65,-216 966.35,-216 1040.19,-234"/>
<text text-anchor="middle" x="892.5" y="-230.3" font-family="Times,serif" font-size="14.00">equality_q_mmo_500_ppr</text>
</g>
<!-- error_q_mmo_500_ppr_q_init_mmo_500_ppr&#45;&gt;equality_q_mmo_500_ppr -->
<g id="edge11" class="edge">
<title>error_q_mmo_500_ppr_q_init_mmo_500_ppr&#45;&gt;equality_q_mmo_500_ppr</title>
<path fill="none" stroke="black" d="M1038.61,-292.21C1011.12,-281.44 975.21,-267.38 945.88,-255.9"/>
<polygon fill="black" stroke="black" points="946.79,-252.5 936.2,-252.11 944.24,-259.01 946.79,-252.5"/>
</g>
<!-- (&#39;initial&#39;, &#39;equality_q_mmo_500_ppr&#39;) -->
<g id="node7" class="node">
<title>(&#39;initial&#39;, &#39;equality_q_mmo_500_ppr&#39;)</title>
<polygon fill="none" stroke="purple" points="1007,-180 734,-180 734,-144 1007,-144 1007,-180"/>
<text text-anchor="middle" x="870.5" y="-158.3" font-family="Times,serif" font-size="14.00">(&#39;initial&#39;, &#39;equality_q_mmo_500_ppr&#39;)</text>
</g>
<!-- equality_q_mmo_500_ppr&#45;&gt;(&#39;initial&#39;, &#39;equality_q_mmo_500_ppr&#39;) -->
<g id="edge12" class="edge">
<title>equality_q_mmo_500_ppr&#45;&gt;(&#39;initial&#39;, &#39;equality_q_mmo_500_ppr&#39;)</title>
<path fill="none" stroke="black" d="M887.06,-215.7C884.61,-207.9 881.66,-198.51 878.93,-189.83"/>
<polygon fill="black" stroke="black" points="882.21,-188.59 875.88,-180.1 875.54,-190.69 882.21,-188.59"/>
</g>
<!-- (&#39;terminal&#39;, &#39;stationary_qd_mmo_500_ppr&#39;) -->
<g id="node22" class="node">
<title>(&#39;terminal&#39;, &#39;stationary_qd_mmo_500_ppr&#39;)</title>
<polygon fill="none" stroke="purple" points="317,-328 0,-328 0,-292 317,-292 317,-328"/>
<text text-anchor="middle" x="158.5" y="-306.3" font-family="Times,serif" font-size="14.00">(&#39;terminal&#39;, &#39;stationary_qd_mmo_500_ppr&#39;)</text>
</g>
<!-- stationary_qd_mmo_500_ppr&#45;&gt;(&#39;terminal&#39;, &#39;stationary_qd_mmo_500_ppr&#39;) -->
<g id="edge13" class="edge">
<title>stationary_qd_mmo_500_ppr&#45;&gt;(&#39;terminal&#39;, &#39;stationary_qd_mmo_500_ppr&#39;)</title>
<path fill="none" stroke="black" d="M174.06,-371.69C171.52,-361.79 168.29,-349.16 165.42,-337.99"/>
<polygon fill="black" stroke="black" points="168.8,-337.08 162.93,-328.26 162.02,-338.82 168.8,-337.08"/>
</g>
<!-- (&#39;path&#39;, &#39;limits_q_mmo_500_ppr&#39;) -->
<g id="node10" class="node">
<title>(&#39;path&#39;, &#39;limits_q_mmo_500_ppr&#39;)</title>
<polygon fill="none" stroke="purple" points="2198,-252 1951,-252 1951,-216 2198,-216 2198,-252"/>
<text text-anchor="middle" x="2074.5" y="-230.3" font-family="Times,serif" font-size="14.00">(&#39;path&#39;, &#39;limits_q_mmo_500_ppr&#39;)</text>
</g>
<!-- limits_q_mmo_500_ppr&#45;&gt;(&#39;path&#39;, &#39;limits_q_mmo_500_ppr&#39;) -->
<g id="edge14" class="edge">
<title>limits_q_mmo_500_ppr&#45;&gt;(&#39;path&#39;, &#39;limits_q_mmo_500_ppr&#39;)</title>
<path fill="none" stroke="black" d="M2025.34,-291.84C2033.58,-282.31 2043.98,-270.29 2053.08,-259.76"/>
<polygon fill="black" stroke="black" points="2055.84,-261.92 2059.74,-252.07 2050.55,-257.34 2055.84,-261.92"/>
</g>
<!-- (&#39;path&#39;, &#39;limits_qd_mmo_500_ppr&#39;) -->
<g id="node12" class="node">
<title>(&#39;path&#39;, &#39;limits_qd_mmo_500_ppr&#39;)</title>
<polygon fill="none" stroke="purple" points="591.5,-328 335.5,-328 335.5,-292 591.5,-292 591.5,-328"/>
<text text-anchor="middle" x="463.5" y="-306.3" font-family="Times,serif" font-size="14.00">(&#39;path&#39;, &#39;limits_qd_mmo_500_ppr&#39;)</text>
</g>
<!-- limits_qd_mmo_500_ppr&#45;&gt;(&#39;path&#39;, &#39;limits_qd_mmo_500_ppr&#39;) -->
<g id="edge15" class="edge">
<title>limits_qd_mmo_500_ppr&#45;&gt;(&#39;path&#39;, &#39;limits_qd_mmo_500_ppr&#39;)</title>
<path fill="none" stroke="black" d="M503.18,-371.69C496.45,-361.39 487.78,-348.13 480.26,-336.63"/>
<polygon fill="black" stroke="black" points="483.19,-334.72 474.79,-328.26 477.33,-338.55 483.19,-334.72"/>
</g>
<!-- (&#39;path&#39;, &#39;limits_qdd_mmo_500_ppr&#39;) -->
<g id="node14" class="node">
<title>(&#39;path&#39;, &#39;limits_qdd_mmo_500_ppr&#39;)</title>
<polygon fill="none" stroke="purple" points="1985,-408 1720,-408 1720,-372 1985,-372 1985,-408"/>
<text text-anchor="middle" x="1852.5" y="-386.3" font-family="Times,serif" font-size="14.00">(&#39;path&#39;, &#39;limits_qdd_mmo_500_ppr&#39;)</text>
</g>
<!-- limits_qdd_mmo_500_ppr&#45;&gt;(&#39;path&#39;, &#39;limits_qdd_mmo_500_ppr&#39;) -->
<g id="edge16" class="edge">
<title>limits_qdd_mmo_500_ppr&#45;&gt;(&#39;path&#39;, &#39;limits_qdd_mmo_500_ppr&#39;)</title>
<path fill="none" stroke="black" d="M1852.5,-451.69C1852.5,-441.89 1852.5,-429.42 1852.5,-418.33"/>
<polygon fill="black" stroke="black" points="1856,-418.26 1852.5,-408.26 1849,-418.26 1856,-418.26"/>
</g>
<!-- trans_error_pose_9_mmo_500_ppr_vs_goal -->
<g id="node17" class="node">
<title>trans_error_pose_9_mmo_500_ppr_vs_goal</title>
<ellipse fill="none" stroke="green" cx="1725.5" cy="-234" rx="207.96" ry="18"/>
<text text-anchor="middle" x="1725.5" y="-230.3" font-family="Times,serif" font-size="14.00">trans_error_pose_9_mmo_500_ppr_vs_goal</text>
</g>
<!-- pose_9_mmo_500_ppr&#45;&gt;trans_error_pose_9_mmo_500_ppr_vs_goal -->
<g id="edge17" class="edge">
<title>pose_9_mmo_500_ppr&#45;&gt;trans_error_pose_9_mmo_500_ppr_vs_goal</title>
<path fill="none" stroke="black" d="M1725.5,-291.84C1725.5,-283.06 1725.5,-272.16 1725.5,-262.27"/>
<polygon fill="black" stroke="black" points="1729,-262.07 1725.5,-252.07 1722,-262.07 1729,-262.07"/>
</g>
<!-- rotmat_error_pose_9_mmo_500_ppr_vs_goal -->
<g id="node19" class="node">
<title>rotmat_error_pose_9_mmo_500_ppr_vs_goal</title>
<ellipse fill="none" stroke="green" cx="1284.5" cy="-234" rx="215.26" ry="18"/>
<text text-anchor="middle" x="1284.5" y="-230.3" font-family="Times,serif" font-size="14.00">rotmat_error_pose_9_mmo_500_ppr_vs_goal</text>
</g>
<!-- pose_9_mmo_500_ppr&#45;&gt;rotmat_error_pose_9_mmo_500_ppr_vs_goal -->
<g id="edge18" class="edge">
<title>pose_9_mmo_500_ppr&#45;&gt;rotmat_error_pose_9_mmo_500_ppr_vs_goal</title>
<path fill="none" stroke="black" d="M1652.29,-296.33C1636.22,-293.56 1619.29,-290.67 1603.5,-288 1531.25,-275.78 1449.76,-262.24 1387.22,-251.91"/>
<polygon fill="black" stroke="black" points="1387.79,-248.46 1377.35,-250.28 1386.65,-255.36 1387.79,-248.46"/>
</g>
<!-- goal_pose_mmo_500_ppr -->
<g id="node16" class="node">
<title>goal_pose_mmo_500_ppr</title>
<polygon fill="none" stroke="blue" points="1590.96,-302.54 1590.96,-317.46 1511.02,-328 1397.98,-328 1318.04,-317.46 1318.04,-302.54 1397.98,-292 1511.02,-292 1590.96,-302.54"/>
<polygon fill="none" stroke="blue" points="1594.96,-299.04 1594.96,-320.96 1511.28,-332 1397.72,-332 1314.04,-320.96 1314.04,-299.04 1397.72,-288 1511.28,-288 1594.96,-299.04"/>
<text text-anchor="middle" x="1454.5" y="-306.3" font-family="Times,serif" font-size="14.00">goal_pose_mmo_500_ppr</text>
</g>
<!-- goal_pose_mmo_500_ppr&#45;&gt;trans_error_pose_9_mmo_500_ppr_vs_goal -->
<g id="edge19" class="edge">
<title>goal_pose_mmo_500_ppr&#45;&gt;trans_error_pose_9_mmo_500_ppr_vs_goal</title>
<path fill="none" stroke="black" d="M1524.99,-289.75C1565.42,-278.71 1615.95,-264.91 1656.18,-253.93"/>
<polygon fill="black" stroke="black" points="1657.18,-257.28 1665.91,-251.27 1655.34,-250.53 1657.18,-257.28"/>
</g>
<!-- goal_pose_mmo_500_ppr&#45;&gt;rotmat_error_pose_9_mmo_500_ppr_vs_goal -->
<g id="edge20" class="edge">
<title>goal_pose_mmo_500_ppr&#45;&gt;rotmat_error_pose_9_mmo_500_ppr_vs_goal</title>
<path fill="none" stroke="black" d="M1406.24,-287.99C1383.03,-277.89 1355.3,-265.82 1332.17,-255.75"/>
<polygon fill="black" stroke="black" points="1333.46,-252.49 1322.89,-251.71 1330.67,-258.91 1333.46,-252.49"/>
</g>
<!-- trans_con_pose_9_mmo_500_ppr_vs_goal -->
<g id="node18" class="node">
<title>trans_con_pose_9_mmo_500_ppr_vs_goal</title>
<polygon fill="none" stroke="magenta" points="2479.8,-162 2364.15,-180 2132.85,-180 2017.2,-162 2132.85,-144 2364.15,-144 2479.8,-162"/>
<text text-anchor="middle" x="2248.5" y="-158.3" font-family="Times,serif" font-size="14.00">trans_con_pose_9_mmo_500_ppr_vs_goal</text>
</g>
<!-- trans_error_pose_9_mmo_500_ppr_vs_goal&#45;&gt;trans_con_pose_9_mmo_500_ppr_vs_goal -->
<g id="edge21" class="edge">
<title>trans_error_pose_9_mmo_500_ppr_vs_goal&#45;&gt;trans_con_pose_9_mmo_500_ppr_vs_goal</title>
<path fill="none" stroke="black" d="M1833.23,-218.58C1915.58,-207.56 2029.48,-192.31 2117.17,-180.58"/>
<polygon fill="black" stroke="black" points="2117.74,-184.03 2127.19,-179.24 2116.81,-177.09 2117.74,-184.03"/>
</g>
<!-- reg_trans_error_pose_9_mmo_500_ppr_vs_goal -->
<g id="node27" class="node">
<title>reg_trans_error_pose_9_mmo_500_ppr_vs_goal</title>
<polygon fill="none" stroke="magenta" points="1999.34,-162 1867.92,-180 1605.08,-180 1473.66,-162 1605.08,-144 1867.92,-144 1999.34,-162"/>
<text text-anchor="middle" x="1736.5" y="-158.3" font-family="Times,serif" font-size="14.00">reg_trans_error_pose_9_mmo_500_ppr_vs_goal</text>
</g>
<!-- trans_error_pose_9_mmo_500_ppr_vs_goal&#45;&gt;reg_trans_error_pose_9_mmo_500_ppr_vs_goal -->
<g id="edge22" class="edge">
<title>trans_error_pose_9_mmo_500_ppr_vs_goal&#45;&gt;reg_trans_error_pose_9_mmo_500_ppr_vs_goal</title>
<path fill="none" stroke="black" d="M1728.22,-215.7C1729.43,-207.98 1730.89,-198.71 1732.24,-190.11"/>
<polygon fill="black" stroke="black" points="1735.72,-190.53 1733.81,-180.1 1728.8,-189.44 1735.72,-190.53"/>
</g>
<!-- ax_ang_error_pose_9_mmo_500_ppr_vs_goal -->
<g id="node20" class="node">
<title>ax_ang_error_pose_9_mmo_500_ppr_vs_goal</title>
<ellipse fill="none" stroke="green" cx="1240.5" cy="-162" rx="215.56" ry="18"/>
<text text-anchor="middle" x="1240.5" y="-158.3" font-family="Times,serif" font-size="14.00">ax_ang_error_pose_9_mmo_500_ppr_vs_goal</text>
</g>
<!-- rotmat_error_pose_9_mmo_500_ppr_vs_goal&#45;&gt;ax_ang_error_pose_9_mmo_500_ppr_vs_goal -->
<g id="edge23" class="edge">
<title>rotmat_error_pose_9_mmo_500_ppr_vs_goal&#45;&gt;ax_ang_error_pose_9_mmo_500_ppr_vs_goal</title>
<path fill="none" stroke="black" d="M1273.62,-215.7C1268.51,-207.56 1262.3,-197.69 1256.66,-188.7"/>
<polygon fill="black" stroke="black" points="1259.54,-186.71 1251.25,-180.1 1253.61,-190.43 1259.54,-186.71"/>
</g>
<!-- rot_con_pose_9_mmo_500_ppr_vs_goal -->
<g id="node21" class="node">
<title>rot_con_pose_9_mmo_500_ppr_vs_goal</title>
<polygon fill="none" stroke="magenta" points="1484.78,-90 1375.64,-108 1157.36,-108 1048.22,-90 1157.36,-72 1375.64,-72 1484.78,-90"/>
<text text-anchor="middle" x="1266.5" y="-86.3" font-family="Times,serif" font-size="14.00">rot_con_pose_9_mmo_500_ppr_vs_goal</text>
</g>
<!-- ax_ang_error_pose_9_mmo_500_ppr_vs_goal&#45;&gt;rot_con_pose_9_mmo_500_ppr_vs_goal -->
<g id="edge24" class="edge">
<title>ax_ang_error_pose_9_mmo_500_ppr_vs_goal&#45;&gt;rot_con_pose_9_mmo_500_ppr_vs_goal</title>
<path fill="none" stroke="black" d="M1246.93,-143.7C1249.86,-135.81 1253.39,-126.3 1256.64,-117.55"/>
<polygon fill="black" stroke="black" points="1259.95,-118.7 1260.15,-108.1 1253.38,-116.26 1259.95,-118.7"/>
</g>
<!-- reg_ax_ang_error_pose_9_mmo_500_ppr_vs_goal -->
<g id="node29" class="node">
<title>reg_ax_ang_error_pose_9_mmo_500_ppr_vs_goal</title>
<polygon fill="none" stroke="magenta" points="1030.35,-90 894.43,-108 622.57,-108 486.65,-90 622.57,-72 894.43,-72 1030.35,-90"/>
<text text-anchor="middle" x="758.5" y="-86.3" font-family="Times,serif" font-size="14.00">reg_ax_ang_error_pose_9_mmo_500_ppr_vs_goal</text>
</g>
<!-- ax_ang_error_pose_9_mmo_500_ppr_vs_goal&#45;&gt;reg_ax_ang_error_pose_9_mmo_500_ppr_vs_goal -->
<g id="edge25" class="edge">
<title>ax_ang_error_pose_9_mmo_500_ppr_vs_goal&#45;&gt;reg_ax_ang_error_pose_9_mmo_500_ppr_vs_goal</title>
<path fill="none" stroke="black" d="M1137.99,-146.11C1064.29,-135.41 964.46,-120.91 885.68,-109.47"/>
<polygon fill="black" stroke="black" points="886.09,-105.99 875.69,-108.02 885.09,-112.92 886.09,-105.99"/>
</g>
<!-- qd_init_mmo_500_ppr -->
<g id="node23" class="node">
<title>qd_init_mmo_500_ppr</title>
<polygon fill="none" stroke="blue" points="1682.4,-462.54 1682.4,-477.46 1610.99,-488 1510.01,-488 1438.6,-477.46 1438.6,-462.54 1510.01,-452 1610.99,-452 1682.4,-462.54"/>
<polygon fill="none" stroke="blue" points="1686.41,-459.09 1686.41,-480.91 1611.29,-492 1509.71,-492 1434.59,-480.91 1434.59,-459.09 1509.71,-448 1611.29,-448 1686.41,-459.09"/>
<text text-anchor="middle" x="1560.5" y="-466.3" font-family="Times,serif" font-size="14.00">qd_init_mmo_500_ppr</text>
</g>
<!-- qd_init_mmo_500_ppr&#45;&gt;err_qd_qinit_mmo_500_ppr -->
<g id="edge26" class="edge">
<title>qd_init_mmo_500_ppr&#45;&gt;err_qd_qinit_mmo_500_ppr</title>
<path fill="none" stroke="black" d="M1561.87,-447.69C1562.45,-438.64 1563.13,-427.99 1563.75,-418.37"/>
<polygon fill="black" stroke="black" points="1567.26,-418.3 1564.4,-408.09 1560.27,-417.85 1567.26,-418.3"/>
</g>
<!-- eq_mmo_500_ppr -->
<g id="node25" class="node">
<title>eq_mmo_500_ppr</title>
<polygon fill="none" stroke="magenta" points="2412.14,-310 2359.32,-328 2253.68,-328 2200.86,-310 2253.68,-292 2359.32,-292 2412.14,-310"/>
<text text-anchor="middle" x="2306.5" y="-306.3" font-family="Times,serif" font-size="14.00">eq_mmo_500_ppr</text>
</g>
<!-- err_qd_qinit_mmo_500_ppr&#45;&gt;eq_mmo_500_ppr -->
<g id="edge27" class="edge">
<title>err_qd_qinit_mmo_500_ppr&#45;&gt;eq_mmo_500_ppr</title>
<path fill="none" stroke="black" d="M1650.11,-375.83C1669.89,-373.01 1690.91,-370.21 1710.5,-368 1907.23,-345.8 1957.7,-353.56 2154.5,-332 2177.45,-329.49 2202.29,-326.27 2225.1,-323.11"/>
<polygon fill="black" stroke="black" points="2225.66,-326.56 2235.08,-321.71 2224.69,-319.63 2225.66,-326.56"/>
</g>
<!-- (&#39;initial&#39;, &#39;eq_mmo_500_ppr&#39;) -->
<g id="node26" class="node">
<title>(&#39;initial&#39;, &#39;eq_mmo_500_ppr&#39;)</title>
<polygon fill="none" stroke="purple" points="2433,-252 2216,-252 2216,-216 2433,-216 2433,-252"/>
<text text-anchor="middle" x="2324.5" y="-230.3" font-family="Times,serif" font-size="14.00">(&#39;initial&#39;, &#39;eq_mmo_500_ppr&#39;)</text>
</g>
<!-- eq_mmo_500_ppr&#45;&gt;(&#39;initial&#39;, &#39;eq_mmo_500_ppr&#39;) -->
<g id="edge28" class="edge">
<title>eq_mmo_500_ppr&#45;&gt;(&#39;initial&#39;, &#39;eq_mmo_500_ppr&#39;)</title>
<path fill="none" stroke="black" d="M2310.67,-291.84C2312.83,-282.96 2315.52,-271.93 2317.94,-261.95"/>
<polygon fill="black" stroke="black" points="2321.39,-262.61 2320.35,-252.07 2314.58,-260.96 2321.39,-262.61"/>
</g>
<!-- (&#39;path&#39;, &#39;reg_trans_error_pose_9_mmo_500_ppr_vs_goal&#39;) -->
<g id="node28" class="node">
<title>(&#39;path&#39;, &#39;reg_trans_error_pose_9_mmo_500_ppr_vs_goal&#39;)</title>
<polygon fill="none" stroke="purple" points="1945,-108 1528,-108 1528,-72 1945,-72 1945,-108"/>
<text text-anchor="middle" x="1736.5" y="-86.3" font-family="Times,serif" font-size="14.00">(&#39;path&#39;, &#39;reg_trans_error_pose_9_mmo_500_ppr_vs_goal&#39;)</text>
</g>
<!-- reg_trans_error_pose_9_mmo_500_ppr_vs_goal&#45;&gt;(&#39;path&#39;, &#39;reg_trans_error_pose_9_mmo_500_ppr_vs_goal&#39;) -->
<g id="edge29" class="edge">
<title>reg_trans_error_pose_9_mmo_500_ppr_vs_goal&#45;&gt;(&#39;path&#39;, &#39;reg_trans_error_pose_9_mmo_500_ppr_vs_goal&#39;)</title>
<path fill="none" stroke="black" d="M1736.5,-143.7C1736.5,-135.98 1736.5,-126.71 1736.5,-118.11"/>
<polygon fill="black" stroke="black" points="1740,-118.1 1736.5,-108.1 1733,-118.1 1740,-118.1"/>
</g>
<!-- (&#39;path&#39;, &#39;reg_ax_ang_error_pose_9_mmo_500_ppr_vs_goal&#39;) -->
<g id="node30" class="node">
<title>(&#39;path&#39;, &#39;reg_ax_ang_error_pose_9_mmo_500_ppr_vs_goal&#39;)</title>
<polygon fill="none" stroke="purple" points="973,-36 544,-36 544,0 973,0 973,-36"/>
<text text-anchor="middle" x="758.5" y="-14.3" font-family="Times,serif" font-size="14.00">(&#39;path&#39;, &#39;reg_ax_ang_error_pose_9_mmo_500_ppr_vs_goal&#39;)</text>
</g>
<!-- reg_ax_ang_error_pose_9_mmo_500_ppr_vs_goal&#45;&gt;(&#39;path&#39;, &#39;reg_ax_ang_error_pose_9_mmo_500_ppr_vs_goal&#39;) -->
<g id="edge30" class="edge">
<title>reg_ax_ang_error_pose_9_mmo_500_ppr_vs_goal&#45;&gt;(&#39;path&#39;, &#39;reg_ax_ang_error_pose_9_mmo_500_ppr_vs_goal&#39;)</title>
<path fill="none" stroke="black" d="M758.5,-71.7C758.5,-63.98 758.5,-54.71 758.5,-46.11"/>
<polygon fill="black" stroke="black" points="762,-46.1 758.5,-36.1 755,-46.1 762,-46.1"/>
</g>
<!-- (&#39;path&#39;, &#39;reg_qd_mmo_500_ppr&#39;) -->
<g id="node32" class="node">
<title>(&#39;path&#39;, &#39;reg_qd_mmo_500_ppr&#39;)</title>
<polygon fill="none" stroke="purple" points="849,-328 610,-328 610,-292 849,-292 849,-328"/>
<text text-anchor="middle" x="729.5" y="-306.3" font-family="Times,serif" font-size="14.00">(&#39;path&#39;, &#39;reg_qd_mmo_500_ppr&#39;)</text>
</g>
<!-- reg_qd_mmo_500_ppr&#45;&gt;(&#39;path&#39;, &#39;reg_qd_mmo_500_ppr&#39;) -->
<g id="edge31" class="edge">
<title>reg_qd_mmo_500_ppr&#45;&gt;(&#39;path&#39;, &#39;reg_qd_mmo_500_ppr&#39;)</title>
<path fill="none" stroke="black" d="M791.75,-371.69C780.77,-360.98 766.51,-347.08 754.41,-335.29"/>
<polygon fill="black" stroke="black" points="756.81,-332.74 747.2,-328.26 751.92,-337.75 756.81,-332.74"/>
</g>
<!-- (&#39;path&#39;, &#39;reg_qdd_mmo_500_ppr&#39;) -->
<g id="node34" class="node">
<title>(&#39;path&#39;, &#39;reg_qdd_mmo_500_ppr&#39;)</title>
<polygon fill="none" stroke="purple" points="2279.5,-408 2031.5,-408 2031.5,-372 2279.5,-372 2279.5,-408"/>
<text text-anchor="middle" x="2155.5" y="-386.3" font-family="Times,serif" font-size="14.00">(&#39;path&#39;, &#39;reg_qdd_mmo_500_ppr&#39;)</text>
</g>
<!-- reg_qdd_mmo_500_ppr&#45;&gt;(&#39;path&#39;, &#39;reg_qdd_mmo_500_ppr&#39;) -->
<g id="edge32" class="edge">
<title>reg_qdd_mmo_500_ppr&#45;&gt;(&#39;path&#39;, &#39;reg_qdd_mmo_500_ppr&#39;)</title>
<path fill="none" stroke="black" d="M2155.5,-451.69C2155.5,-441.89 2155.5,-429.42 2155.5,-418.33"/>
<polygon fill="black" stroke="black" points="2159,-418.26 2155.5,-408.26 2152,-418.26 2159,-418.26"/>
</g>
</g>
</svg>
