<?xml version="1.0" encoding="UTF-8" standalone="no"?>
<!DOCTYPE svg PUBLIC "-//W3C//DTD SVG 1.1//EN"
 "http://www.w3.org/Graphics/SVG/1.1/DTD/svg11.dtd">
<!-- Generated by graphviz version 2.43.0 (0)
 -->
<!-- Title: %3 Pages: 1 -->
<svg width="2555pt" height="580pt"
 viewBox="0.00 0.00 2555.39 580.00" xmlns="http://www.w3.org/2000/svg" xmlns:xlink="http://www.w3.org/1999/xlink">
<g id="graph0" class="graph" transform="scale(1 1) rotate(0) translate(4 576)">
<title>%3</title>
<polygon fill="white" stroke="transparent" points="-4,4 -4,-576 2551.39,-576 2551.39,4 -4,4"/>
<!-- q_mmo_500_ppr -->
<g id="node1" class="node">
<title>q_mmo_500_ppr</title>
<polygon fill="none" stroke="green" points="1494.63,-382.54 1494.63,-397.46 1439.78,-408 1362.22,-408 1307.37,-397.46 1307.37,-382.54 1362.22,-372 1439.78,-372 1494.63,-382.54"/>
<polygon fill="none" stroke="green" points="1498.63,-379.24 1498.63,-400.76 1440.16,-412 1361.84,-412 1303.37,-400.76 1303.37,-379.24 1361.84,-368 1440.16,-368 1498.63,-379.24"/>
<text text-anchor="middle" x="1401" y="-386.3" font-family="Times,serif" font-size="14.00">q_mmo_500_ppr</text>
</g>
<!-- error_q_mmo_500_ppr_jointpos_init_mmo_500_ppr -->
<g id="node5" class="node">
<title>error_q_mmo_500_ppr_jointpos_init_mmo_500_ppr</title>
<ellipse fill="none" stroke="green" cx="1170" cy="-310" rx="245.86" ry="18"/>
<text text-anchor="middle" x="1170" y="-306.3" font-family="Times,serif" font-size="14.00">error_q_mmo_500_ppr_jointpos_init_mmo_500_ppr</text>
</g>
<!-- q_mmo_500_ppr&#45;&gt;error_q_mmo_500_ppr_jointpos_init_mmo_500_ppr -->
<g id="edge1" class="edge">
<title>q_mmo_500_ppr&#45;&gt;error_q_mmo_500_ppr_jointpos_init_mmo_500_ppr</title>
<path fill="none" stroke="black" d="M1347.13,-370.81C1311.76,-358.87 1265.49,-343.24 1229.11,-330.96"/>
<polygon fill="black" stroke="black" points="1230.2,-327.63 1219.61,-327.75 1227.96,-334.27 1230.2,-327.63"/>
</g>
<!-- limits_q_mmo_500_ppr -->
<g id="node10" class="node">
<title>limits_q_mmo_500_ppr</title>
<polygon fill="none" stroke="magenta" points="1704.18,-310 1636.59,-328 1501.41,-328 1433.82,-310 1501.41,-292 1636.59,-292 1704.18,-310"/>
<text text-anchor="middle" x="1569" y="-306.3" font-family="Times,serif" font-size="14.00">limits_q_mmo_500_ppr</text>
</g>
<!-- q_mmo_500_ppr&#45;&gt;limits_q_mmo_500_ppr -->
<g id="edge2" class="edge">
<title>q_mmo_500_ppr&#45;&gt;limits_q_mmo_500_ppr</title>
<path fill="none" stroke="black" d="M1444.7,-368.71C1468.84,-357.5 1498.8,-343.59 1523.25,-332.24"/>
<polygon fill="black" stroke="black" points="1524.74,-335.41 1532.33,-328.02 1521.79,-329.06 1524.74,-335.41"/>
</g>
<!-- pose_9_mmo_500_ppr -->
<g id="node16" class="node">
<title>pose_9_mmo_500_ppr</title>
<ellipse fill="none" stroke="green" cx="1876" cy="-310" rx="112.38" ry="18"/>
<text text-anchor="middle" x="1876" y="-306.3" font-family="Times,serif" font-size="14.00">pose_9_mmo_500_ppr</text>
</g>
<!-- q_mmo_500_ppr&#45;&gt;pose_9_mmo_500_ppr -->
<g id="edge3" class="edge">
<title>q_mmo_500_ppr&#45;&gt;pose_9_mmo_500_ppr</title>
<path fill="none" stroke="black" d="M1473.45,-374.37C1484.99,-372.16 1496.81,-369.96 1508,-368 1602.11,-351.48 1710.22,-335.04 1784.79,-324.09"/>
<polygon fill="black" stroke="black" points="1785.7,-327.49 1795.08,-322.58 1784.68,-320.57 1785.7,-327.49"/>
</g>
<!-- qd_mmo_500_ppr -->
<g id="node2" class="node">
<title>qd_mmo_500_ppr</title>
<polygon fill="none" stroke="green" points="1149.8,-462.54 1149.8,-477.46 1091.34,-488 1008.66,-488 950.2,-477.46 950.2,-462.54 1008.66,-452 1091.34,-452 1149.8,-462.54"/>
<polygon fill="none" stroke="green" points="1153.79,-459.2 1153.79,-480.8 1091.69,-492 1008.31,-492 946.21,-480.8 946.21,-459.2 1008.31,-448 1091.69,-448 1153.79,-459.2"/>
<text text-anchor="middle" x="1050" y="-466.3" font-family="Times,serif" font-size="14.00">qd_mmo_500_ppr</text>
</g>
<!-- qd_mmo_500_ppr&#45;&gt;q_mmo_500_ppr -->
<g id="edge24" class="edge">
<title>qd_mmo_500_ppr&#45;&gt;q_mmo_500_ppr</title>
<path fill="none" stroke="black" stroke-dasharray="5,2" d="M1121.03,-453.22C1179.38,-440.25 1261.95,-421.9 1322.3,-408.49"/>
<polygon fill="black" stroke="black" points="1323.16,-411.88 1332.17,-406.3 1321.65,-405.05 1323.16,-411.88"/>
</g>
<!-- stationary_qd_mmo_500_ppr -->
<g id="node8" class="node">
<title>stationary_qd_mmo_500_ppr</title>
<polygon fill="none" stroke="magenta" points="923.72,-390 840.86,-408 675.14,-408 592.28,-390 675.14,-372 840.86,-372 923.72,-390"/>
<text text-anchor="middle" x="758" y="-386.3" font-family="Times,serif" font-size="14.00">stationary_qd_mmo_500_ppr</text>
</g>
<!-- qd_mmo_500_ppr&#45;&gt;stationary_qd_mmo_500_ppr -->
<g id="edge4" class="edge">
<title>qd_mmo_500_ppr&#45;&gt;stationary_qd_mmo_500_ppr</title>
<path fill="none" stroke="black" d="M985.92,-451.88C940.39,-439.72 879.14,-423.36 831.6,-410.66"/>
<polygon fill="black" stroke="black" points="832.24,-407.21 821.68,-408.01 830.44,-413.97 832.24,-407.21"/>
</g>
<!-- limits_qd_mmo_500_ppr -->
<g id="node12" class="node">
<title>limits_qd_mmo_500_ppr</title>
<polygon fill="none" stroke="magenta" points="421.68,-390 350.84,-408 209.16,-408 138.32,-390 209.16,-372 350.84,-372 421.68,-390"/>
<text text-anchor="middle" x="280" y="-386.3" font-family="Times,serif" font-size="14.00">limits_qd_mmo_500_ppr</text>
</g>
<!-- qd_mmo_500_ppr&#45;&gt;limits_qd_mmo_500_ppr -->
<g id="edge5" class="edge">
<title>qd_mmo_500_ppr&#45;&gt;limits_qd_mmo_500_ppr</title>
<path fill="none" stroke="black" d="M948.54,-458.72C803.43,-444.02 537.73,-417.11 388.72,-402.01"/>
<polygon fill="black" stroke="black" points="388.93,-398.52 378.63,-400.99 388.23,-405.48 388.93,-398.52"/>
</g>
<!-- qdd_mmo_500_ppr -->
<g id="node3" class="node">
<title>qdd_mmo_500_ppr</title>
<polygon fill="none" stroke="cyan" points="1291.45,-542.54 1291.45,-557.46 1229.09,-568 1140.91,-568 1078.55,-557.46 1078.55,-542.54 1140.91,-532 1229.09,-532 1291.45,-542.54"/>
<polygon fill="none" stroke="cyan" points="1295.46,-539.16 1295.46,-560.84 1229.43,-572 1140.57,-572 1074.54,-560.84 1074.54,-539.16 1140.57,-528 1229.43,-528 1295.46,-539.16"/>
<text text-anchor="middle" x="1185" y="-546.3" font-family="Times,serif" font-size="14.00">qdd_mmo_500_ppr</text>
</g>
<!-- qdd_mmo_500_ppr&#45;&gt;qd_mmo_500_ppr -->
<g id="edge25" class="edge">
<title>qdd_mmo_500_ppr&#45;&gt;qd_mmo_500_ppr</title>
<path fill="none" stroke="black" stroke-dasharray="5,2" d="M1148.47,-527.89C1132.11,-518.44 1112.65,-507.2 1095.37,-497.22"/>
<polygon fill="black" stroke="black" points="1096.97,-494.1 1086.56,-492.12 1093.47,-500.16 1096.97,-494.1"/>
</g>
<!-- limits_qdd_mmo_500_ppr -->
<g id="node14" class="node">
<title>limits_qdd_mmo_500_ppr</title>
<polygon fill="none" stroke="magenta" points="1632.69,-470 1558.35,-488 1409.65,-488 1335.31,-470 1409.65,-452 1558.35,-452 1632.69,-470"/>
<text text-anchor="middle" x="1484" y="-466.3" font-family="Times,serif" font-size="14.00">limits_qdd_mmo_500_ppr</text>
</g>
<!-- qdd_mmo_500_ppr&#45;&gt;limits_qdd_mmo_500_ppr -->
<g id="edge6" class="edge">
<title>qdd_mmo_500_ppr&#45;&gt;limits_qdd_mmo_500_ppr</title>
<path fill="none" stroke="black" d="M1251.36,-531.69C1297.96,-519.53 1360.35,-503.26 1408.8,-490.62"/>
<polygon fill="black" stroke="black" points="1409.81,-493.97 1418.6,-488.06 1408.04,-487.2 1409.81,-493.97"/>
</g>
<!-- jointpos_init_mmo_500_ppr -->
<g id="node4" class="node">
<title>jointpos_init_mmo_500_ppr</title>
<polygon fill="none" stroke="red" points="1281.28,-382.54 1281.28,-397.46 1193.83,-408 1070.17,-408 982.72,-397.46 982.72,-382.54 1070.17,-372 1193.83,-372 1281.28,-382.54"/>
<polygon fill="none" stroke="red" points="1285.28,-379 1285.28,-401 1194.07,-412 1069.93,-412 978.72,-401 978.72,-379 1069.93,-368 1194.07,-368 1285.28,-379"/>
<text text-anchor="middle" x="1132" y="-386.3" font-family="Times,serif" font-size="14.00">jointpos_init_mmo_500_ppr</text>
</g>
<!-- jointpos_init_mmo_500_ppr&#45;&gt;error_q_mmo_500_ppr_jointpos_init_mmo_500_ppr -->
<g id="edge7" class="edge">
<title>jointpos_init_mmo_500_ppr&#45;&gt;error_q_mmo_500_ppr_jointpos_init_mmo_500_ppr</title>
<path fill="none" stroke="black" d="M1142.38,-367.69C1146.98,-358.25 1152.43,-347.07 1157.27,-337.13"/>
<polygon fill="black" stroke="black" points="1160.44,-338.62 1161.67,-328.09 1154.15,-335.55 1160.44,-338.62"/>
</g>
<!-- equality_q_mmo_500_ppr -->
<g id="node6" class="node">
<title>equality_q_mmo_500_ppr</title>
<polygon fill="none" stroke="magenta" points="1317.69,-234 1243.85,-252 1096.15,-252 1022.31,-234 1096.15,-216 1243.85,-216 1317.69,-234"/>
<text text-anchor="middle" x="1170" y="-230.3" font-family="Times,serif" font-size="14.00">equality_q_mmo_500_ppr</text>
</g>
<!-- error_q_mmo_500_ppr_jointpos_init_mmo_500_ppr&#45;&gt;equality_q_mmo_500_ppr -->
<g id="edge8" class="edge">
<title>error_q_mmo_500_ppr_jointpos_init_mmo_500_ppr&#45;&gt;equality_q_mmo_500_ppr</title>
<path fill="none" stroke="black" d="M1170,-291.84C1170,-283.06 1170,-272.16 1170,-262.27"/>
<polygon fill="black" stroke="black" points="1173.5,-262.07 1170,-252.07 1166.5,-262.07 1173.5,-262.07"/>
</g>
<!-- (&#39;initial&#39;, &#39;equality_q_mmo_500_ppr&#39;) -->
<g id="node7" class="node">
<title>(&#39;initial&#39;, &#39;equality_q_mmo_500_ppr&#39;)</title>
<polygon fill="none" stroke="purple" points="1306.5,-180 1033.5,-180 1033.5,-144 1306.5,-144 1306.5,-180"/>
<text text-anchor="middle" x="1170" y="-158.3" font-family="Times,serif" font-size="14.00">(&#39;initial&#39;, &#39;equality_q_mmo_500_ppr&#39;)</text>
</g>
<!-- equality_q_mmo_500_ppr&#45;&gt;(&#39;initial&#39;, &#39;equality_q_mmo_500_ppr&#39;) -->
<g id="edge9" class="edge">
<title>equality_q_mmo_500_ppr&#45;&gt;(&#39;initial&#39;, &#39;equality_q_mmo_500_ppr&#39;)</title>
<path fill="none" stroke="black" d="M1170,-215.7C1170,-207.98 1170,-198.71 1170,-190.11"/>
<polygon fill="black" stroke="black" points="1173.5,-190.1 1170,-180.1 1166.5,-190.1 1173.5,-190.1"/>
</g>
<!-- (&#39;initial&#39;, &#39;stationary_qd_mmo_500_ppr&#39;) -->
<g id="node9" class="node">
<title>(&#39;initial&#39;, &#39;stationary_qd_mmo_500_ppr&#39;)</title>
<polygon fill="none" stroke="purple" points="906.5,-328 609.5,-328 609.5,-292 906.5,-292 906.5,-328"/>
<text text-anchor="middle" x="758" y="-306.3" font-family="Times,serif" font-size="14.00">(&#39;initial&#39;, &#39;stationary_qd_mmo_500_ppr&#39;)</text>
</g>
<!-- stationary_qd_mmo_500_ppr&#45;&gt;(&#39;initial&#39;, &#39;stationary_qd_mmo_500_ppr&#39;) -->
<g id="edge10" class="edge">
<title>stationary_qd_mmo_500_ppr&#45;&gt;(&#39;initial&#39;, &#39;stationary_qd_mmo_500_ppr&#39;)</title>
<path fill="none" stroke="black" d="M758,-371.69C758,-361.89 758,-349.42 758,-338.33"/>
<polygon fill="black" stroke="black" points="761.5,-338.26 758,-328.26 754.5,-338.26 761.5,-338.26"/>
</g>
<!-- (&#39;terminal&#39;, &#39;stationary_qd_mmo_500_ppr&#39;) -->
<g id="node25" class="node">
<title>(&#39;terminal&#39;, &#39;stationary_qd_mmo_500_ppr&#39;)</title>
<polygon fill="none" stroke="purple" points="591.5,-328 274.5,-328 274.5,-292 591.5,-292 591.5,-328"/>
<text text-anchor="middle" x="433" y="-306.3" font-family="Times,serif" font-size="14.00">(&#39;terminal&#39;, &#39;stationary_qd_mmo_500_ppr&#39;)</text>
</g>
<!-- stationary_qd_mmo_500_ppr&#45;&gt;(&#39;terminal&#39;, &#39;stationary_qd_mmo_500_ppr&#39;) -->
<g id="edge11" class="edge">
<title>stationary_qd_mmo_500_ppr&#45;&gt;(&#39;terminal&#39;, &#39;stationary_qd_mmo_500_ppr&#39;)</title>
<path fill="none" stroke="black" d="M687.08,-371.98C636,-359.72 567,-343.16 513.79,-330.39"/>
<polygon fill="black" stroke="black" points="514.59,-326.98 504.05,-328.05 512.96,-333.79 514.59,-326.98"/>
</g>
<!-- (&#39;path&#39;, &#39;limits_q_mmo_500_ppr&#39;) -->
<g id="node11" class="node">
<title>(&#39;path&#39;, &#39;limits_q_mmo_500_ppr&#39;)</title>
<polygon fill="none" stroke="purple" points="1650.5,-252 1403.5,-252 1403.5,-216 1650.5,-216 1650.5,-252"/>
<text text-anchor="middle" x="1527" y="-230.3" font-family="Times,serif" font-size="14.00">(&#39;path&#39;, &#39;limits_q_mmo_500_ppr&#39;)</text>
</g>
<!-- limits_q_mmo_500_ppr&#45;&gt;(&#39;path&#39;, &#39;limits_q_mmo_500_ppr&#39;) -->
<g id="edge12" class="edge">
<title>limits_q_mmo_500_ppr&#45;&gt;(&#39;path&#39;, &#39;limits_q_mmo_500_ppr&#39;)</title>
<path fill="none" stroke="black" d="M1559.26,-291.84C1554.06,-282.68 1547.56,-271.23 1541.76,-261.01"/>
<polygon fill="black" stroke="black" points="1544.67,-259.04 1536.69,-252.07 1538.58,-262.49 1544.67,-259.04"/>
</g>
<!-- (&#39;path&#39;, &#39;limits_qd_mmo_500_ppr&#39;) -->
<g id="node13" class="node">
<title>(&#39;path&#39;, &#39;limits_qd_mmo_500_ppr&#39;)</title>
<polygon fill="none" stroke="purple" points="256,-328 0,-328 0,-292 256,-292 256,-328"/>
<text text-anchor="middle" x="128" y="-306.3" font-family="Times,serif" font-size="14.00">(&#39;path&#39;, &#39;limits_qd_mmo_500_ppr&#39;)</text>
</g>
<!-- limits_qd_mmo_500_ppr&#45;&gt;(&#39;path&#39;, &#39;limits_qd_mmo_500_ppr&#39;) -->
<g id="edge13" class="edge">
<title>limits_qd_mmo_500_ppr&#45;&gt;(&#39;path&#39;, &#39;limits_qd_mmo_500_ppr&#39;)</title>
<path fill="none" stroke="black" d="M246.64,-371.88C224.17,-360.35 194.34,-345.04 170.22,-332.67"/>
<polygon fill="black" stroke="black" points="171.77,-329.53 161.28,-328.08 168.58,-335.76 171.77,-329.53"/>
</g>
<!-- (&#39;path&#39;, &#39;limits_qdd_mmo_500_ppr&#39;) -->
<g id="node15" class="node">
<title>(&#39;path&#39;, &#39;limits_qdd_mmo_500_ppr&#39;)</title>
<polygon fill="none" stroke="purple" points="1781.5,-408 1516.5,-408 1516.5,-372 1781.5,-372 1781.5,-408"/>
<text text-anchor="middle" x="1649" y="-386.3" font-family="Times,serif" font-size="14.00">(&#39;path&#39;, &#39;limits_qdd_mmo_500_ppr&#39;)</text>
</g>
<!-- limits_qdd_mmo_500_ppr&#45;&gt;(&#39;path&#39;, &#39;limits_qdd_mmo_500_ppr&#39;) -->
<g id="edge14" class="edge">
<title>limits_qdd_mmo_500_ppr&#45;&gt;(&#39;path&#39;, &#39;limits_qdd_mmo_500_ppr&#39;)</title>
<path fill="none" stroke="black" d="M1520.21,-451.88C1544.71,-440.3 1577.27,-424.91 1603.52,-412.5"/>
<polygon fill="black" stroke="black" points="1605.33,-415.52 1612.87,-408.08 1602.34,-409.19 1605.33,-415.52"/>
</g>
<!-- trans_error_pose_9_mmo_500_ppr_vs_goal -->
<g id="node18" class="node">
<title>trans_error_pose_9_mmo_500_ppr_vs_goal</title>
<ellipse fill="none" stroke="green" cx="1876" cy="-234" rx="207.96" ry="18"/>
<text text-anchor="middle" x="1876" y="-230.3" font-family="Times,serif" font-size="14.00">trans_error_pose_9_mmo_500_ppr_vs_goal</text>
</g>
<!-- pose_9_mmo_500_ppr&#45;&gt;trans_error_pose_9_mmo_500_ppr_vs_goal -->
<g id="edge15" class="edge">
<title>pose_9_mmo_500_ppr&#45;&gt;trans_error_pose_9_mmo_500_ppr_vs_goal</title>
<path fill="none" stroke="black" d="M1876,-291.84C1876,-283.06 1876,-272.16 1876,-262.27"/>
<polygon fill="black" stroke="black" points="1879.5,-262.07 1876,-252.07 1872.5,-262.07 1879.5,-262.07"/>
</g>
<!-- rotmat_error_pose_9_mmo_500_ppr_vs_goal -->
<g id="node21" class="node">
<title>rotmat_error_pose_9_mmo_500_ppr_vs_goal</title>
<ellipse fill="none" stroke="green" cx="2317" cy="-234" rx="215.26" ry="18"/>
<text text-anchor="middle" x="2317" y="-230.3" font-family="Times,serif" font-size="14.00">rotmat_error_pose_9_mmo_500_ppr_vs_goal</text>
</g>
<!-- pose_9_mmo_500_ppr&#45;&gt;rotmat_error_pose_9_mmo_500_ppr_vs_goal -->
<g id="edge16" class="edge">
<title>pose_9_mmo_500_ppr&#45;&gt;rotmat_error_pose_9_mmo_500_ppr_vs_goal</title>
<path fill="none" stroke="black" d="M1950.81,-296.45C2023.63,-284.23 2134.82,-265.57 2215.57,-252.02"/>
<polygon fill="black" stroke="black" points="2216.48,-255.42 2225.76,-250.31 2215.32,-248.51 2216.48,-255.42"/>
</g>
<!-- goal_pose_mmo_500_ppr -->
<g id="node17" class="node">
<title>goal_pose_mmo_500_ppr</title>
<polygon fill="none" stroke="red" points="2368.46,-302.54 2368.46,-317.46 2288.52,-328 2175.48,-328 2095.54,-317.46 2095.54,-302.54 2175.48,-292 2288.52,-292 2368.46,-302.54"/>
<polygon fill="none" stroke="red" points="2372.46,-299.04 2372.46,-320.96 2288.78,-332 2175.22,-332 2091.54,-320.96 2091.54,-299.04 2175.22,-288 2288.78,-288 2372.46,-299.04"/>
<text text-anchor="middle" x="2232" y="-306.3" font-family="Times,serif" font-size="14.00">goal_pose_mmo_500_ppr</text>
</g>
<!-- goal_pose_mmo_500_ppr&#45;&gt;trans_error_pose_9_mmo_500_ppr_vs_goal -->
<g id="edge17" class="edge">
<title>goal_pose_mmo_500_ppr&#45;&gt;trans_error_pose_9_mmo_500_ppr_vs_goal</title>
<path fill="none" stroke="black" d="M2148.08,-291.56C2092.04,-279.91 2018.54,-264.63 1962.06,-252.89"/>
<polygon fill="black" stroke="black" points="1962.58,-249.42 1952.07,-250.81 1961.15,-256.27 1962.58,-249.42"/>
</g>
<!-- goal_pose_mmo_500_ppr&#45;&gt;rotmat_error_pose_9_mmo_500_ppr_vs_goal -->
<g id="edge18" class="edge">
<title>goal_pose_mmo_500_ppr&#45;&gt;rotmat_error_pose_9_mmo_500_ppr_vs_goal</title>
<path fill="none" stroke="black" d="M2256.13,-287.99C2266.64,-278.85 2279,-268.09 2289.82,-258.66"/>
<polygon fill="black" stroke="black" points="2292.15,-261.28 2297.39,-252.07 2287.55,-256 2292.15,-261.28"/>
</g>
<!-- trans_con_pose_9_mmo_500_ppr_vs_goal -->
<g id="node19" class="node">
<title>trans_con_pose_9_mmo_500_ppr_vs_goal</title>
<polygon fill="none" stroke="magenta" points="2095.3,-162 1979.65,-180 1748.35,-180 1632.7,-162 1748.35,-144 1979.65,-144 2095.3,-162"/>
<text text-anchor="middle" x="1864" y="-158.3" font-family="Times,serif" font-size="14.00">trans_con_pose_9_mmo_500_ppr_vs_goal</text>
</g>
<!-- trans_error_pose_9_mmo_500_ppr_vs_goal&#45;&gt;trans_con_pose_9_mmo_500_ppr_vs_goal -->
<g id="edge19" class="edge">
<title>trans_error_pose_9_mmo_500_ppr_vs_goal&#45;&gt;trans_con_pose_9_mmo_500_ppr_vs_goal</title>
<path fill="none" stroke="black" d="M1873.03,-215.7C1871.71,-207.98 1870.12,-198.71 1868.65,-190.11"/>
<polygon fill="black" stroke="black" points="1872.07,-189.37 1866.93,-180.1 1865.17,-190.55 1872.07,-189.37"/>
</g>
<!-- (&#39;terminal&#39;, &#39;trans_con_pose_9_mmo_500_ppr_vs_goal&#39;) -->
<g id="node20" class="node">
<title>(&#39;terminal&#39;, &#39;trans_con_pose_9_mmo_500_ppr_vs_goal&#39;)</title>
<polygon fill="none" stroke="purple" points="2065.5,-108 1662.5,-108 1662.5,-72 2065.5,-72 2065.5,-108"/>
<text text-anchor="middle" x="1864" y="-86.3" font-family="Times,serif" font-size="14.00">(&#39;terminal&#39;, &#39;trans_con_pose_9_mmo_500_ppr_vs_goal&#39;)</text>
</g>
<!-- trans_con_pose_9_mmo_500_ppr_vs_goal&#45;&gt;(&#39;terminal&#39;, &#39;trans_con_pose_9_mmo_500_ppr_vs_goal&#39;) -->
<g id="edge20" class="edge">
<title>trans_con_pose_9_mmo_500_ppr_vs_goal&#45;&gt;(&#39;terminal&#39;, &#39;trans_con_pose_9_mmo_500_ppr_vs_goal&#39;)</title>
<path fill="none" stroke="black" d="M1864,-143.7C1864,-135.98 1864,-126.71 1864,-118.11"/>
<polygon fill="black" stroke="black" points="1867.5,-118.1 1864,-108.1 1860.5,-118.1 1867.5,-118.1"/>
</g>
<!-- ax_ang_error_pose_9_mmo_500_ppr_vs_goal -->
<g id="node22" class="node">
<title>ax_ang_error_pose_9_mmo_500_ppr_vs_goal</title>
<ellipse fill="none" stroke="green" cx="2329" cy="-162" rx="215.56" ry="18"/>
<text text-anchor="middle" x="2329" y="-158.3" font-family="Times,serif" font-size="14.00">ax_ang_error_pose_9_mmo_500_ppr_vs_goal</text>
</g>
<!-- rotmat_error_pose_9_mmo_500_ppr_vs_goal&#45;&gt;ax_ang_error_pose_9_mmo_500_ppr_vs_goal -->
<g id="edge21" class="edge">
<title>rotmat_error_pose_9_mmo_500_ppr_vs_goal&#45;&gt;ax_ang_error_pose_9_mmo_500_ppr_vs_goal</title>
<path fill="none" stroke="black" d="M2319.97,-215.7C2321.29,-207.98 2322.88,-198.71 2324.35,-190.11"/>
<polygon fill="black" stroke="black" points="2327.83,-190.55 2326.07,-180.1 2320.93,-189.37 2327.83,-190.55"/>
</g>
<!-- rot_con_pose_9_mmo_500_ppr_vs_goal -->
<g id="node23" class="node">
<title>rot_con_pose_9_mmo_500_ppr_vs_goal</title>
<polygon fill="none" stroke="magenta" points="2547.28,-90 2438.14,-108 2219.86,-108 2110.72,-90 2219.86,-72 2438.14,-72 2547.28,-90"/>
<text text-anchor="middle" x="2329" y="-86.3" font-family="Times,serif" font-size="14.00">rot_con_pose_9_mmo_500_ppr_vs_goal</text>
</g>
<!-- ax_ang_error_pose_9_mmo_500_ppr_vs_goal&#45;&gt;rot_con_pose_9_mmo_500_ppr_vs_goal -->
<g id="edge22" class="edge">
<title>ax_ang_error_pose_9_mmo_500_ppr_vs_goal&#45;&gt;rot_con_pose_9_mmo_500_ppr_vs_goal</title>
<path fill="none" stroke="black" d="M2329,-143.7C2329,-135.98 2329,-126.71 2329,-118.11"/>
<polygon fill="black" stroke="black" points="2332.5,-118.1 2329,-108.1 2325.5,-118.1 2332.5,-118.1"/>
</g>
<!-- (&#39;terminal&#39;, &#39;rot_con_pose_9_mmo_500_ppr_vs_goal&#39;) -->
<g id="node24" class="node">
<title>(&#39;terminal&#39;, &#39;rot_con_pose_9_mmo_500_ppr_vs_goal&#39;)</title>
<polygon fill="none" stroke="purple" points="2522,-36 2136,-36 2136,0 2522,0 2522,-36"/>
<text text-anchor="middle" x="2329" y="-14.3" font-family="Times,serif" font-size="14.00">(&#39;terminal&#39;, &#39;rot_con_pose_9_mmo_500_ppr_vs_goal&#39;)</text>
</g>
<!-- rot_con_pose_9_mmo_500_ppr_vs_goal&#45;&gt;(&#39;terminal&#39;, &#39;rot_con_pose_9_mmo_500_ppr_vs_goal&#39;) -->
<g id="edge23" class="edge">
<title>rot_con_pose_9_mmo_500_ppr_vs_goal&#45;&gt;(&#39;terminal&#39;, &#39;rot_con_pose_9_mmo_500_ppr_vs_goal&#39;)</title>
<path fill="none" stroke="black" d="M2329,-71.7C2329,-63.98 2329,-54.71 2329,-46.11"/>
<polygon fill="black" stroke="black" points="2332.5,-46.1 2329,-36.1 2325.5,-46.1 2332.5,-46.1"/>
</g>
</g>
</svg>
