<?xml version="1.0" encoding="UTF-8" standalone="no"?>
<!DOCTYPE svg PUBLIC "-//W3C//DTD SVG 1.1//EN"
 "http://www.w3.org/Graphics/SVG/1.1/DTD/svg11.dtd">
<!-- Generated by graphviz version 2.43.0 (0)
 -->
<!-- Title: %3 Pages: 1 -->
<svg width="2495pt" height="580pt"
 viewBox="0.00 0.00 2495.39 580.00" xmlns="http://www.w3.org/2000/svg" xmlns:xlink="http://www.w3.org/1999/xlink">
<g id="graph0" class="graph" transform="scale(1 1) rotate(0) translate(4 576)">
<title>%3</title>
<polygon fill="white" stroke="transparent" points="-4,4 -4,-576 2491.39,-576 2491.39,4 -4,4"/>
<!-- q_mmo_500_ppr -->
<g id="node1" class="node">
<title>q_mmo_500_ppr</title>
<polygon fill="none" stroke="green" points="1428.63,-382.54 1428.63,-397.46 1373.78,-408 1296.22,-408 1241.37,-397.46 1241.37,-382.54 1296.22,-372 1373.78,-372 1428.63,-382.54"/>
<polygon fill="none" stroke="green" points="1432.63,-379.24 1432.63,-400.76 1374.16,-412 1295.84,-412 1237.37,-400.76 1237.37,-379.24 1295.84,-368 1374.16,-368 1432.63,-379.24"/>
<text text-anchor="middle" x="1335" y="-386.3" font-family="Times,serif" font-size="14.00">q_mmo_500_ppr</text>
</g>
<!-- error_q_mmo_500_ppr_q_init_mmo_500_ppr -->
<g id="node5" class="node">
<title>error_q_mmo_500_ppr_q_init_mmo_500_ppr</title>
<ellipse fill="none" stroke="green" cx="1139" cy="-310" rx="214.46" ry="18"/>
<text text-anchor="middle" x="1139" y="-306.3" font-family="Times,serif" font-size="14.00">error_q_mmo_500_ppr_q_init_mmo_500_ppr</text>
</g>
<!-- q_mmo_500_ppr&#45;&gt;error_q_mmo_500_ppr_q_init_mmo_500_ppr -->
<g id="edge1" class="edge">
<title>q_mmo_500_ppr&#45;&gt;error_q_mmo_500_ppr_q_init_mmo_500_ppr</title>
<path fill="none" stroke="black" d="M1286.55,-369.72C1257.3,-358.08 1220.05,-343.25 1190.29,-331.41"/>
<polygon fill="black" stroke="black" points="1191.5,-328.13 1180.92,-327.68 1188.91,-334.63 1191.5,-328.13"/>
</g>
<!-- limits_q_mmo_500_ppr -->
<g id="node10" class="node">
<title>limits_q_mmo_500_ppr</title>
<polygon fill="none" stroke="magenta" points="1642.18,-310 1574.59,-328 1439.41,-328 1371.82,-310 1439.41,-292 1574.59,-292 1642.18,-310"/>
<text text-anchor="middle" x="1507" y="-306.3" font-family="Times,serif" font-size="14.00">limits_q_mmo_500_ppr</text>
</g>
<!-- q_mmo_500_ppr&#45;&gt;limits_q_mmo_500_ppr -->
<g id="edge2" class="edge">
<title>q_mmo_500_ppr&#45;&gt;limits_q_mmo_500_ppr</title>
<path fill="none" stroke="black" d="M1379.29,-368.91C1404.01,-357.71 1434.78,-343.75 1459.93,-332.35"/>
<polygon fill="black" stroke="black" points="1461.61,-335.43 1469.27,-328.11 1458.71,-329.05 1461.61,-335.43"/>
</g>
<!-- pose_9_mmo_500_ppr -->
<g id="node16" class="node">
<title>pose_9_mmo_500_ppr</title>
<ellipse fill="none" stroke="green" cx="1816" cy="-310" rx="112.38" ry="18"/>
<text text-anchor="middle" x="1816" y="-306.3" font-family="Times,serif" font-size="14.00">pose_9_mmo_500_ppr</text>
</g>
<!-- q_mmo_500_ppr&#45;&gt;pose_9_mmo_500_ppr -->
<g id="edge3" class="edge">
<title>q_mmo_500_ppr&#45;&gt;pose_9_mmo_500_ppr</title>
<path fill="none" stroke="black" d="M1407.44,-374.35C1418.99,-372.14 1430.81,-369.95 1442,-368 1538.14,-351.25 1648.66,-334.74 1724.49,-323.84"/>
<polygon fill="black" stroke="black" points="1725.09,-327.29 1734.49,-322.4 1724.1,-320.36 1725.09,-327.29"/>
</g>
<!-- qd_mmo_500_ppr -->
<g id="node2" class="node">
<title>qd_mmo_500_ppr</title>
<polygon fill="none" stroke="green" points="1115.8,-462.54 1115.8,-477.46 1057.34,-488 974.66,-488 916.2,-477.46 916.2,-462.54 974.66,-452 1057.34,-452 1115.8,-462.54"/>
<polygon fill="none" stroke="green" points="1119.79,-459.2 1119.79,-480.8 1057.69,-492 974.31,-492 912.21,-480.8 912.21,-459.2 974.31,-448 1057.69,-448 1119.79,-459.2"/>
<text text-anchor="middle" x="1016" y="-466.3" font-family="Times,serif" font-size="14.00">qd_mmo_500_ppr</text>
</g>
<!-- qd_mmo_500_ppr&#45;&gt;q_mmo_500_ppr -->
<g id="edge24" class="edge">
<title>qd_mmo_500_ppr&#45;&gt;q_mmo_500_ppr</title>
<path fill="none" stroke="black" stroke-dasharray="5,2" d="M1083.26,-452.55C1134.89,-439.93 1206.15,-422.5 1259.69,-409.42"/>
<polygon fill="black" stroke="black" points="1260.59,-412.8 1269.47,-407.02 1258.92,-406 1260.59,-412.8"/>
</g>
<!-- stationary_qd_mmo_500_ppr -->
<g id="node8" class="node">
<title>stationary_qd_mmo_500_ppr</title>
<polygon fill="none" stroke="magenta" points="923.72,-390 840.86,-408 675.14,-408 592.28,-390 675.14,-372 840.86,-372 923.72,-390"/>
<text text-anchor="middle" x="758" y="-386.3" font-family="Times,serif" font-size="14.00">stationary_qd_mmo_500_ppr</text>
</g>
<!-- qd_mmo_500_ppr&#45;&gt;stationary_qd_mmo_500_ppr -->
<g id="edge4" class="edge">
<title>qd_mmo_500_ppr&#45;&gt;stationary_qd_mmo_500_ppr</title>
<path fill="none" stroke="black" d="M956.81,-451.11C917.14,-439.11 864.88,-423.31 823.89,-410.92"/>
<polygon fill="black" stroke="black" points="824.85,-407.55 814.26,-408.01 822.82,-414.25 824.85,-407.55"/>
</g>
<!-- limits_qd_mmo_500_ppr -->
<g id="node12" class="node">
<title>limits_qd_mmo_500_ppr</title>
<polygon fill="none" stroke="magenta" points="421.68,-390 350.84,-408 209.16,-408 138.32,-390 209.16,-372 350.84,-372 421.68,-390"/>
<text text-anchor="middle" x="280" y="-386.3" font-family="Times,serif" font-size="14.00">limits_qd_mmo_500_ppr</text>
</g>
<!-- qd_mmo_500_ppr&#45;&gt;limits_qd_mmo_500_ppr -->
<g id="edge5" class="edge">
<title>qd_mmo_500_ppr&#45;&gt;limits_qd_mmo_500_ppr</title>
<path fill="none" stroke="black" d="M916.36,-458.44C778.2,-443.8 529.46,-417.44 387.33,-402.37"/>
<polygon fill="black" stroke="black" points="387.6,-398.88 377.28,-401.31 386.86,-405.84 387.6,-398.88"/>
</g>
<!-- qdd_mmo_500_ppr -->
<g id="node3" class="node">
<title>qdd_mmo_500_ppr</title>
<polygon fill="none" stroke="cyan" points="1257.45,-542.54 1257.45,-557.46 1195.09,-568 1106.91,-568 1044.55,-557.46 1044.55,-542.54 1106.91,-532 1195.09,-532 1257.45,-542.54"/>
<polygon fill="none" stroke="cyan" points="1261.46,-539.16 1261.46,-560.84 1195.43,-572 1106.57,-572 1040.54,-560.84 1040.54,-539.16 1106.57,-528 1195.43,-528 1261.46,-539.16"/>
<text text-anchor="middle" x="1151" y="-546.3" font-family="Times,serif" font-size="14.00">qdd_mmo_500_ppr</text>
</g>
<!-- qdd_mmo_500_ppr&#45;&gt;qd_mmo_500_ppr -->
<g id="edge25" class="edge">
<title>qdd_mmo_500_ppr&#45;&gt;qd_mmo_500_ppr</title>
<path fill="none" stroke="black" stroke-dasharray="5,2" d="M1114.47,-527.89C1098.11,-518.44 1078.65,-507.2 1061.37,-497.22"/>
<polygon fill="black" stroke="black" points="1062.97,-494.1 1052.56,-492.12 1059.47,-500.16 1062.97,-494.1"/>
</g>
<!-- limits_qdd_mmo_500_ppr -->
<g id="node14" class="node">
<title>limits_qdd_mmo_500_ppr</title>
<polygon fill="none" stroke="magenta" points="1582.69,-470 1508.35,-488 1359.65,-488 1285.31,-470 1359.65,-452 1508.35,-452 1582.69,-470"/>
<text text-anchor="middle" x="1434" y="-466.3" font-family="Times,serif" font-size="14.00">limits_qdd_mmo_500_ppr</text>
</g>
<!-- qdd_mmo_500_ppr&#45;&gt;limits_qdd_mmo_500_ppr -->
<g id="edge6" class="edge">
<title>qdd_mmo_500_ppr&#45;&gt;limits_qdd_mmo_500_ppr</title>
<path fill="none" stroke="black" d="M1215.22,-531.3C1258.97,-519.24 1316.95,-503.26 1362.23,-490.78"/>
<polygon fill="black" stroke="black" points="1363.27,-494.12 1371.98,-488.09 1361.41,-487.38 1363.27,-494.12"/>
</g>
<!-- q_init_mmo_500_ppr -->
<g id="node4" class="node">
<title>q_init_mmo_500_ppr</title>
<polygon fill="none" stroke="blue" points="1215.25,-382.54 1215.25,-397.46 1147.74,-408 1052.26,-408 984.75,-397.46 984.75,-382.54 1052.26,-372 1147.74,-372 1215.25,-382.54"/>
<polygon fill="none" stroke="blue" points="1219.25,-379.12 1219.25,-400.88 1148.05,-412 1051.95,-412 980.75,-400.88 980.75,-379.12 1051.95,-368 1148.05,-368 1219.25,-379.12"/>
<text text-anchor="middle" x="1100" y="-386.3" font-family="Times,serif" font-size="14.00">q_init_mmo_500_ppr</text>
</g>
<!-- q_init_mmo_500_ppr&#45;&gt;error_q_mmo_500_ppr_q_init_mmo_500_ppr -->
<g id="edge7" class="edge">
<title>q_init_mmo_500_ppr&#45;&gt;error_q_mmo_500_ppr_q_init_mmo_500_ppr</title>
<path fill="none" stroke="black" d="M1110.66,-367.69C1115.37,-358.25 1120.97,-347.07 1125.93,-337.13"/>
<polygon fill="black" stroke="black" points="1129.11,-338.6 1130.45,-328.09 1122.85,-335.47 1129.11,-338.6"/>
</g>
<!-- equality_q_mmo_500_ppr -->
<g id="node6" class="node">
<title>equality_q_mmo_500_ppr</title>
<polygon fill="none" stroke="magenta" points="1286.69,-234 1212.85,-252 1065.15,-252 991.31,-234 1065.15,-216 1212.85,-216 1286.69,-234"/>
<text text-anchor="middle" x="1139" y="-230.3" font-family="Times,serif" font-size="14.00">equality_q_mmo_500_ppr</text>
</g>
<!-- error_q_mmo_500_ppr_q_init_mmo_500_ppr&#45;&gt;equality_q_mmo_500_ppr -->
<g id="edge8" class="edge">
<title>error_q_mmo_500_ppr_q_init_mmo_500_ppr&#45;&gt;equality_q_mmo_500_ppr</title>
<path fill="none" stroke="black" d="M1139,-291.84C1139,-283.06 1139,-272.16 1139,-262.27"/>
<polygon fill="black" stroke="black" points="1142.5,-262.07 1139,-252.07 1135.5,-262.07 1142.5,-262.07"/>
</g>
<!-- (&#39;initial&#39;, &#39;equality_q_mmo_500_ppr&#39;) -->
<g id="node7" class="node">
<title>(&#39;initial&#39;, &#39;equality_q_mmo_500_ppr&#39;)</title>
<polygon fill="none" stroke="purple" points="1275.5,-180 1002.5,-180 1002.5,-144 1275.5,-144 1275.5,-180"/>
<text text-anchor="middle" x="1139" y="-158.3" font-family="Times,serif" font-size="14.00">(&#39;initial&#39;, &#39;equality_q_mmo_500_ppr&#39;)</text>
</g>
<!-- equality_q_mmo_500_ppr&#45;&gt;(&#39;initial&#39;, &#39;equality_q_mmo_500_ppr&#39;) -->
<g id="edge9" class="edge">
<title>equality_q_mmo_500_ppr&#45;&gt;(&#39;initial&#39;, &#39;equality_q_mmo_500_ppr&#39;)</title>
<path fill="none" stroke="black" d="M1139,-215.7C1139,-207.98 1139,-198.71 1139,-190.11"/>
<polygon fill="black" stroke="black" points="1142.5,-190.1 1139,-180.1 1135.5,-190.1 1142.5,-190.1"/>
</g>
<!-- (&#39;initial&#39;, &#39;stationary_qd_mmo_500_ppr&#39;) -->
<g id="node9" class="node">
<title>(&#39;initial&#39;, &#39;stationary_qd_mmo_500_ppr&#39;)</title>
<polygon fill="none" stroke="purple" points="906.5,-328 609.5,-328 609.5,-292 906.5,-292 906.5,-328"/>
<text text-anchor="middle" x="758" y="-306.3" font-family="Times,serif" font-size="14.00">(&#39;initial&#39;, &#39;stationary_qd_mmo_500_ppr&#39;)</text>
</g>
<!-- stationary_qd_mmo_500_ppr&#45;&gt;(&#39;initial&#39;, &#39;stationary_qd_mmo_500_ppr&#39;) -->
<g id="edge10" class="edge">
<title>stationary_qd_mmo_500_ppr&#45;&gt;(&#39;initial&#39;, &#39;stationary_qd_mmo_500_ppr&#39;)</title>
<path fill="none" stroke="black" d="M758,-371.69C758,-361.89 758,-349.42 758,-338.33"/>
<polygon fill="black" stroke="black" points="761.5,-338.26 758,-328.26 754.5,-338.26 761.5,-338.26"/>
</g>
<!-- (&#39;terminal&#39;, &#39;stationary_qd_mmo_500_ppr&#39;) -->
<g id="node25" class="node">
<title>(&#39;terminal&#39;, &#39;stationary_qd_mmo_500_ppr&#39;)</title>
<polygon fill="none" stroke="purple" points="591.5,-328 274.5,-328 274.5,-292 591.5,-292 591.5,-328"/>
<text text-anchor="middle" x="433" y="-306.3" font-family="Times,serif" font-size="14.00">(&#39;terminal&#39;, &#39;stationary_qd_mmo_500_ppr&#39;)</text>
</g>
<!-- stationary_qd_mmo_500_ppr&#45;&gt;(&#39;terminal&#39;, &#39;stationary_qd_mmo_500_ppr&#39;) -->
<g id="edge11" class="edge">
<title>stationary_qd_mmo_500_ppr&#45;&gt;(&#39;terminal&#39;, &#39;stationary_qd_mmo_500_ppr&#39;)</title>
<path fill="none" stroke="black" d="M687.08,-371.98C636,-359.72 567,-343.16 513.79,-330.39"/>
<polygon fill="black" stroke="black" points="514.59,-326.98 504.05,-328.05 512.96,-333.79 514.59,-326.98"/>
</g>
<!-- (&#39;path&#39;, &#39;limits_q_mmo_500_ppr&#39;) -->
<g id="node11" class="node">
<title>(&#39;path&#39;, &#39;limits_q_mmo_500_ppr&#39;)</title>
<polygon fill="none" stroke="purple" points="1590.5,-252 1343.5,-252 1343.5,-216 1590.5,-216 1590.5,-252"/>
<text text-anchor="middle" x="1467" y="-230.3" font-family="Times,serif" font-size="14.00">(&#39;path&#39;, &#39;limits_q_mmo_500_ppr&#39;)</text>
</g>
<!-- limits_q_mmo_500_ppr&#45;&gt;(&#39;path&#39;, &#39;limits_q_mmo_500_ppr&#39;) -->
<g id="edge12" class="edge">
<title>limits_q_mmo_500_ppr&#45;&gt;(&#39;path&#39;, &#39;limits_q_mmo_500_ppr&#39;)</title>
<path fill="none" stroke="black" d="M1497.72,-291.84C1492.78,-282.68 1486.58,-271.23 1481.06,-261.01"/>
<polygon fill="black" stroke="black" points="1484.06,-259.2 1476.23,-252.07 1477.9,-262.53 1484.06,-259.2"/>
</g>
<!-- (&#39;path&#39;, &#39;limits_qd_mmo_500_ppr&#39;) -->
<g id="node13" class="node">
<title>(&#39;path&#39;, &#39;limits_qd_mmo_500_ppr&#39;)</title>
<polygon fill="none" stroke="purple" points="256,-328 0,-328 0,-292 256,-292 256,-328"/>
<text text-anchor="middle" x="128" y="-306.3" font-family="Times,serif" font-size="14.00">(&#39;path&#39;, &#39;limits_qd_mmo_500_ppr&#39;)</text>
</g>
<!-- limits_qd_mmo_500_ppr&#45;&gt;(&#39;path&#39;, &#39;limits_qd_mmo_500_ppr&#39;) -->
<g id="edge13" class="edge">
<title>limits_qd_mmo_500_ppr&#45;&gt;(&#39;path&#39;, &#39;limits_qd_mmo_500_ppr&#39;)</title>
<path fill="none" stroke="black" d="M246.64,-371.88C224.17,-360.35 194.34,-345.04 170.22,-332.67"/>
<polygon fill="black" stroke="black" points="171.77,-329.53 161.28,-328.08 168.58,-335.76 171.77,-329.53"/>
</g>
<!-- (&#39;path&#39;, &#39;limits_qdd_mmo_500_ppr&#39;) -->
<g id="node15" class="node">
<title>(&#39;path&#39;, &#39;limits_qdd_mmo_500_ppr&#39;)</title>
<polygon fill="none" stroke="purple" points="1715.5,-408 1450.5,-408 1450.5,-372 1715.5,-372 1715.5,-408"/>
<text text-anchor="middle" x="1583" y="-386.3" font-family="Times,serif" font-size="14.00">(&#39;path&#39;, &#39;limits_qdd_mmo_500_ppr&#39;)</text>
</g>
<!-- limits_qdd_mmo_500_ppr&#45;&gt;(&#39;path&#39;, &#39;limits_qdd_mmo_500_ppr&#39;) -->
<g id="edge14" class="edge">
<title>limits_qdd_mmo_500_ppr&#45;&gt;(&#39;path&#39;, &#39;limits_qdd_mmo_500_ppr&#39;)</title>
<path fill="none" stroke="black" d="M1466.7,-451.88C1488.63,-440.4 1517.71,-425.18 1541.3,-412.83"/>
<polygon fill="black" stroke="black" points="1543.14,-415.82 1550.38,-408.08 1539.89,-409.61 1543.14,-415.82"/>
</g>
<!-- trans_error_pose_9_mmo_500_ppr_vs_goal -->
<g id="node18" class="node">
<title>trans_error_pose_9_mmo_500_ppr_vs_goal</title>
<ellipse fill="none" stroke="green" cx="1816" cy="-234" rx="207.96" ry="18"/>
<text text-anchor="middle" x="1816" y="-230.3" font-family="Times,serif" font-size="14.00">trans_error_pose_9_mmo_500_ppr_vs_goal</text>
</g>
<!-- pose_9_mmo_500_ppr&#45;&gt;trans_error_pose_9_mmo_500_ppr_vs_goal -->
<g id="edge15" class="edge">
<title>pose_9_mmo_500_ppr&#45;&gt;trans_error_pose_9_mmo_500_ppr_vs_goal</title>
<path fill="none" stroke="black" d="M1816,-291.84C1816,-283.06 1816,-272.16 1816,-262.27"/>
<polygon fill="black" stroke="black" points="1819.5,-262.07 1816,-252.07 1812.5,-262.07 1819.5,-262.07"/>
</g>
<!-- rotmat_error_pose_9_mmo_500_ppr_vs_goal -->
<g id="node21" class="node">
<title>rotmat_error_pose_9_mmo_500_ppr_vs_goal</title>
<ellipse fill="none" stroke="green" cx="2257" cy="-234" rx="215.26" ry="18"/>
<text text-anchor="middle" x="2257" y="-230.3" font-family="Times,serif" font-size="14.00">rotmat_error_pose_9_mmo_500_ppr_vs_goal</text>
</g>
<!-- pose_9_mmo_500_ppr&#45;&gt;rotmat_error_pose_9_mmo_500_ppr_vs_goal -->
<g id="edge16" class="edge">
<title>pose_9_mmo_500_ppr&#45;&gt;rotmat_error_pose_9_mmo_500_ppr_vs_goal</title>
<path fill="none" stroke="black" d="M1890.81,-296.45C1963.63,-284.23 2074.82,-265.57 2155.57,-252.02"/>
<polygon fill="black" stroke="black" points="2156.48,-255.42 2165.76,-250.31 2155.32,-248.51 2156.48,-255.42"/>
</g>
<!-- goal_pose_mmo_500_ppr -->
<g id="node17" class="node">
<title>goal_pose_mmo_500_ppr</title>
<polygon fill="none" stroke="blue" points="2308.46,-302.54 2308.46,-317.46 2228.52,-328 2115.48,-328 2035.54,-317.46 2035.54,-302.54 2115.48,-292 2228.52,-292 2308.46,-302.54"/>
<polygon fill="none" stroke="blue" points="2312.46,-299.04 2312.46,-320.96 2228.78,-332 2115.22,-332 2031.54,-320.96 2031.54,-299.04 2115.22,-288 2228.78,-288 2312.46,-299.04"/>
<text text-anchor="middle" x="2172" y="-306.3" font-family="Times,serif" font-size="14.00">goal_pose_mmo_500_ppr</text>
</g>
<!-- goal_pose_mmo_500_ppr&#45;&gt;trans_error_pose_9_mmo_500_ppr_vs_goal -->
<g id="edge17" class="edge">
<title>goal_pose_mmo_500_ppr&#45;&gt;trans_error_pose_9_mmo_500_ppr_vs_goal</title>
<path fill="none" stroke="black" d="M2088.08,-291.56C2032.04,-279.91 1958.54,-264.63 1902.06,-252.89"/>
<polygon fill="black" stroke="black" points="1902.58,-249.42 1892.07,-250.81 1901.15,-256.27 1902.58,-249.42"/>
</g>
<!-- goal_pose_mmo_500_ppr&#45;&gt;rotmat_error_pose_9_mmo_500_ppr_vs_goal -->
<g id="edge18" class="edge">
<title>goal_pose_mmo_500_ppr&#45;&gt;rotmat_error_pose_9_mmo_500_ppr_vs_goal</title>
<path fill="none" stroke="black" d="M2196.13,-287.99C2206.64,-278.85 2219,-268.09 2229.82,-258.66"/>
<polygon fill="black" stroke="black" points="2232.15,-261.28 2237.39,-252.07 2227.55,-256 2232.15,-261.28"/>
</g>
<!-- trans_con_pose_9_mmo_500_ppr_vs_goal -->
<g id="node19" class="node">
<title>trans_con_pose_9_mmo_500_ppr_vs_goal</title>
<polygon fill="none" stroke="magenta" points="2035.3,-162 1919.65,-180 1688.35,-180 1572.7,-162 1688.35,-144 1919.65,-144 2035.3,-162"/>
<text text-anchor="middle" x="1804" y="-158.3" font-family="Times,serif" font-size="14.00">trans_con_pose_9_mmo_500_ppr_vs_goal</text>
</g>
<!-- trans_error_pose_9_mmo_500_ppr_vs_goal&#45;&gt;trans_con_pose_9_mmo_500_ppr_vs_goal -->
<g id="edge19" class="edge">
<title>trans_error_pose_9_mmo_500_ppr_vs_goal&#45;&gt;trans_con_pose_9_mmo_500_ppr_vs_goal</title>
<path fill="none" stroke="black" d="M1813.03,-215.7C1811.71,-207.98 1810.12,-198.71 1808.65,-190.11"/>
<polygon fill="black" stroke="black" points="1812.07,-189.37 1806.93,-180.1 1805.17,-190.55 1812.07,-189.37"/>
</g>
<!-- (&#39;terminal&#39;, &#39;trans_con_pose_9_mmo_500_ppr_vs_goal&#39;) -->
<g id="node20" class="node">
<title>(&#39;terminal&#39;, &#39;trans_con_pose_9_mmo_500_ppr_vs_goal&#39;)</title>
<polygon fill="none" stroke="purple" points="2005.5,-108 1602.5,-108 1602.5,-72 2005.5,-72 2005.5,-108"/>
<text text-anchor="middle" x="1804" y="-86.3" font-family="Times,serif" font-size="14.00">(&#39;terminal&#39;, &#39;trans_con_pose_9_mmo_500_ppr_vs_goal&#39;)</text>
</g>
<!-- trans_con_pose_9_mmo_500_ppr_vs_goal&#45;&gt;(&#39;terminal&#39;, &#39;trans_con_pose_9_mmo_500_ppr_vs_goal&#39;) -->
<g id="edge20" class="edge">
<title>trans_con_pose_9_mmo_500_ppr_vs_goal&#45;&gt;(&#39;terminal&#39;, &#39;trans_con_pose_9_mmo_500_ppr_vs_goal&#39;)</title>
<path fill="none" stroke="black" d="M1804,-143.7C1804,-135.98 1804,-126.71 1804,-118.11"/>
<polygon fill="black" stroke="black" points="1807.5,-118.1 1804,-108.1 1800.5,-118.1 1807.5,-118.1"/>
</g>
<!-- ax_ang_error_pose_9_mmo_500_ppr_vs_goal -->
<g id="node22" class="node">
<title>ax_ang_error_pose_9_mmo_500_ppr_vs_goal</title>
<ellipse fill="none" stroke="green" cx="2269" cy="-162" rx="215.56" ry="18"/>
<text text-anchor="middle" x="2269" y="-158.3" font-family="Times,serif" font-size="14.00">ax_ang_error_pose_9_mmo_500_ppr_vs_goal</text>
</g>
<!-- rotmat_error_pose_9_mmo_500_ppr_vs_goal&#45;&gt;ax_ang_error_pose_9_mmo_500_ppr_vs_goal -->
<g id="edge21" class="edge">
<title>rotmat_error_pose_9_mmo_500_ppr_vs_goal&#45;&gt;ax_ang_error_pose_9_mmo_500_ppr_vs_goal</title>
<path fill="none" stroke="black" d="M2259.97,-215.7C2261.29,-207.98 2262.88,-198.71 2264.35,-190.11"/>
<polygon fill="black" stroke="black" points="2267.83,-190.55 2266.07,-180.1 2260.93,-189.37 2267.83,-190.55"/>
</g>
<!-- rot_con_pose_9_mmo_500_ppr_vs_goal -->
<g id="node23" class="node">
<title>rot_con_pose_9_mmo_500_ppr_vs_goal</title>
<polygon fill="none" stroke="magenta" points="2487.28,-90 2378.14,-108 2159.86,-108 2050.72,-90 2159.86,-72 2378.14,-72 2487.28,-90"/>
<text text-anchor="middle" x="2269" y="-86.3" font-family="Times,serif" font-size="14.00">rot_con_pose_9_mmo_500_ppr_vs_goal</text>
</g>
<!-- ax_ang_error_pose_9_mmo_500_ppr_vs_goal&#45;&gt;rot_con_pose_9_mmo_500_ppr_vs_goal -->
<g id="edge22" class="edge">
<title>ax_ang_error_pose_9_mmo_500_ppr_vs_goal&#45;&gt;rot_con_pose_9_mmo_500_ppr_vs_goal</title>
<path fill="none" stroke="black" d="M2269,-143.7C2269,-135.98 2269,-126.71 2269,-118.11"/>
<polygon fill="black" stroke="black" points="2272.5,-118.1 2269,-108.1 2265.5,-118.1 2272.5,-118.1"/>
</g>
<!-- (&#39;terminal&#39;, &#39;rot_con_pose_9_mmo_500_ppr_vs_goal&#39;) -->
<g id="node24" class="node">
<title>(&#39;terminal&#39;, &#39;rot_con_pose_9_mmo_500_ppr_vs_goal&#39;)</title>
<polygon fill="none" stroke="purple" points="2462,-36 2076,-36 2076,0 2462,0 2462,-36"/>
<text text-anchor="middle" x="2269" y="-14.3" font-family="Times,serif" font-size="14.00">(&#39;terminal&#39;, &#39;rot_con_pose_9_mmo_500_ppr_vs_goal&#39;)</text>
</g>
<!-- rot_con_pose_9_mmo_500_ppr_vs_goal&#45;&gt;(&#39;terminal&#39;, &#39;rot_con_pose_9_mmo_500_ppr_vs_goal&#39;) -->
<g id="edge23" class="edge">
<title>rot_con_pose_9_mmo_500_ppr_vs_goal&#45;&gt;(&#39;terminal&#39;, &#39;rot_con_pose_9_mmo_500_ppr_vs_goal&#39;)</title>
<path fill="none" stroke="black" d="M2269,-71.7C2269,-63.98 2269,-54.71 2269,-46.11"/>
<polygon fill="black" stroke="black" points="2272.5,-46.1 2269,-36.1 2265.5,-46.1 2272.5,-46.1"/>
</g>
</g>
</svg>
