<?xml version="1.0" encoding="UTF-8" standalone="no"?>
<!DOCTYPE svg PUBLIC "-//W3C//DTD SVG 1.1//EN"
 "http://www.w3.org/Graphics/SVG/1.1/DTD/svg11.dtd">
<!-- Generated by graphviz version 2.43.0 (0)
 -->
<!-- Title: %3 Pages: 1 -->
<svg width="2896pt" height="580pt"
 viewBox="0.00 0.00 2896.09 580.00" xmlns="http://www.w3.org/2000/svg" xmlns:xlink="http://www.w3.org/1999/xlink">
<g id="graph0" class="graph" transform="scale(1 1) rotate(0) translate(4 576)">
<title>%3</title>
<polygon fill="white" stroke="transparent" points="-4,4 -4,-576 2892.09,-576 2892.09,4 -4,4"/>
<!-- q_mmo_500_ppr -->
<g id="node1" class="node">
<title>q_mmo_500_ppr</title>
<polygon fill="none" stroke="green" points="1785.13,-382.54 1785.13,-397.46 1730.28,-408 1652.72,-408 1597.87,-397.46 1597.87,-382.54 1652.72,-372 1730.28,-372 1785.13,-382.54"/>
<polygon fill="none" stroke="green" points="1789.13,-379.24 1789.13,-400.76 1730.66,-412 1652.34,-412 1593.87,-400.76 1593.87,-379.24 1652.34,-368 1730.66,-368 1789.13,-379.24"/>
<text text-anchor="middle" x="1691.5" y="-386.3" font-family="Times,serif" font-size="14.00">q_mmo_500_ppr</text>
</g>
<!-- error_q_mmo_500_ppr_jointpos_init_mmo_500_ppr -->
<g id="node5" class="node">
<title>error_q_mmo_500_ppr_jointpos_init_mmo_500_ppr</title>
<ellipse fill="none" stroke="green" cx="2257.5" cy="-310" rx="245.86" ry="18"/>
<text text-anchor="middle" x="2257.5" y="-306.3" font-family="Times,serif" font-size="14.00">error_q_mmo_500_ppr_jointpos_init_mmo_500_ppr</text>
</g>
<!-- q_mmo_500_ppr&#45;&gt;error_q_mmo_500_ppr_jointpos_init_mmo_500_ppr -->
<g id="edge1" class="edge">
<title>q_mmo_500_ppr&#45;&gt;error_q_mmo_500_ppr_jointpos_init_mmo_500_ppr</title>
<path fill="none" stroke="black" d="M1778.08,-377.07C1874.25,-363.82 2030.14,-342.33 2137.92,-327.48"/>
<polygon fill="black" stroke="black" points="2138.44,-330.94 2147.87,-326.11 2137.48,-324.01 2138.44,-330.94"/>
</g>
<!-- limits_q_mmo_500_ppr -->
<g id="node10" class="node">
<title>limits_q_mmo_500_ppr</title>
<polygon fill="none" stroke="magenta" points="1993.68,-310 1926.09,-328 1790.91,-328 1723.32,-310 1790.91,-292 1926.09,-292 1993.68,-310"/>
<text text-anchor="middle" x="1858.5" y="-306.3" font-family="Times,serif" font-size="14.00">limits_q_mmo_500_ppr</text>
</g>
<!-- q_mmo_500_ppr&#45;&gt;limits_q_mmo_500_ppr -->
<g id="edge2" class="edge">
<title>q_mmo_500_ppr&#45;&gt;limits_q_mmo_500_ppr</title>
<path fill="none" stroke="black" d="M1734.94,-368.71C1758.83,-357.55 1788.45,-343.72 1812.7,-332.39"/>
<polygon fill="black" stroke="black" points="1814.47,-335.43 1822.05,-328.02 1811.51,-329.08 1814.47,-335.43"/>
</g>
<!-- pose_9_mmo_500_ppr -->
<g id="node16" class="node">
<title>pose_9_mmo_500_ppr</title>
<ellipse fill="none" stroke="green" cx="1592.5" cy="-310" rx="112.38" ry="18"/>
<text text-anchor="middle" x="1592.5" y="-306.3" font-family="Times,serif" font-size="14.00">pose_9_mmo_500_ppr</text>
</g>
<!-- q_mmo_500_ppr&#45;&gt;pose_9_mmo_500_ppr -->
<g id="edge3" class="edge">
<title>q_mmo_500_ppr&#45;&gt;pose_9_mmo_500_ppr</title>
<path fill="none" stroke="black" d="M1664.71,-367.89C1651.53,-357.51 1635.6,-344.96 1622.06,-334.29"/>
<polygon fill="black" stroke="black" points="1624.01,-331.37 1613.99,-327.93 1619.68,-336.87 1624.01,-331.37"/>
</g>
<!-- qd_mmo_500_ppr -->
<g id="node2" class="node">
<title>qd_mmo_500_ppr</title>
<polygon fill="none" stroke="green" points="1442.3,-462.54 1442.3,-477.46 1383.84,-488 1301.16,-488 1242.7,-477.46 1242.7,-462.54 1301.16,-452 1383.84,-452 1442.3,-462.54"/>
<polygon fill="none" stroke="green" points="1446.29,-459.2 1446.29,-480.8 1384.19,-492 1300.81,-492 1238.71,-480.8 1238.71,-459.2 1300.81,-448 1384.19,-448 1446.29,-459.2"/>
<text text-anchor="middle" x="1342.5" y="-466.3" font-family="Times,serif" font-size="14.00">qd_mmo_500_ppr</text>
</g>
<!-- qd_mmo_500_ppr&#45;&gt;q_mmo_500_ppr -->
<g id="edge28" class="edge">
<title>qd_mmo_500_ppr&#45;&gt;q_mmo_500_ppr</title>
<path fill="none" stroke="black" stroke-dasharray="5,2" d="M1413.13,-453.22C1471.05,-440.27 1552.98,-421.96 1612.96,-408.55"/>
<polygon fill="black" stroke="black" points="1613.77,-411.96 1622.76,-406.36 1612.24,-405.13 1613.77,-411.96"/>
</g>
<!-- stationary_qd_mmo_500_ppr -->
<g id="node8" class="node">
<title>stationary_qd_mmo_500_ppr</title>
<polygon fill="none" stroke="magenta" points="649.22,-390 566.36,-408 400.64,-408 317.78,-390 400.64,-372 566.36,-372 649.22,-390"/>
<text text-anchor="middle" x="483.5" y="-386.3" font-family="Times,serif" font-size="14.00">stationary_qd_mmo_500_ppr</text>
</g>
<!-- qd_mmo_500_ppr&#45;&gt;stationary_qd_mmo_500_ppr -->
<g id="edge4" class="edge">
<title>qd_mmo_500_ppr&#45;&gt;stationary_qd_mmo_500_ppr</title>
<path fill="none" stroke="black" d="M1238.46,-459.55C1079.59,-445.13 777.14,-417.66 607.24,-402.24"/>
<polygon fill="black" stroke="black" points="607.53,-398.75 597.25,-401.33 606.89,-405.72 607.53,-398.75"/>
</g>
<!-- limits_qd_mmo_500_ppr -->
<g id="node12" class="node">
<title>limits_qd_mmo_500_ppr</title>
<polygon fill="none" stroke="magenta" points="1073.18,-390 1002.34,-408 860.66,-408 789.82,-390 860.66,-372 1002.34,-372 1073.18,-390"/>
<text text-anchor="middle" x="931.5" y="-386.3" font-family="Times,serif" font-size="14.00">limits_qd_mmo_500_ppr</text>
</g>
<!-- qd_mmo_500_ppr&#45;&gt;limits_qd_mmo_500_ppr -->
<g id="edge5" class="edge">
<title>qd_mmo_500_ppr&#45;&gt;limits_qd_mmo_500_ppr</title>
<path fill="none" stroke="black" d="M1265.19,-454.33C1195.68,-441.14 1093.58,-421.76 1020.65,-407.92"/>
<polygon fill="black" stroke="black" points="1021.04,-404.43 1010.56,-406 1019.73,-411.31 1021.04,-404.43"/>
</g>
<!-- reg_qd_mmo_500_ppr -->
<g id="node26" class="node">
<title>reg_qd_mmo_500_ppr</title>
<polygon fill="none" stroke="magenta" points="1472.17,-390 1407.33,-408 1277.67,-408 1212.83,-390 1277.67,-372 1407.33,-372 1472.17,-390"/>
<text text-anchor="middle" x="1342.5" y="-386.3" font-family="Times,serif" font-size="14.00">reg_qd_mmo_500_ppr</text>
</g>
<!-- qd_mmo_500_ppr&#45;&gt;reg_qd_mmo_500_ppr -->
<g id="edge6" class="edge">
<title>qd_mmo_500_ppr&#45;&gt;reg_qd_mmo_500_ppr</title>
<path fill="none" stroke="black" d="M1342.5,-447.69C1342.5,-438.64 1342.5,-427.99 1342.5,-418.37"/>
<polygon fill="black" stroke="black" points="1346,-418.09 1342.5,-408.09 1339,-418.09 1346,-418.09"/>
</g>
<!-- qdd_mmo_500_ppr -->
<g id="node3" class="node">
<title>qdd_mmo_500_ppr</title>
<polygon fill="none" stroke="cyan" points="2554.95,-542.54 2554.95,-557.46 2492.59,-568 2404.41,-568 2342.05,-557.46 2342.05,-542.54 2404.41,-532 2492.59,-532 2554.95,-542.54"/>
<polygon fill="none" stroke="cyan" points="2558.96,-539.16 2558.96,-560.84 2492.93,-572 2404.07,-572 2338.04,-560.84 2338.04,-539.16 2404.07,-528 2492.93,-528 2558.96,-539.16"/>
<text text-anchor="middle" x="2448.5" y="-546.3" font-family="Times,serif" font-size="14.00">qdd_mmo_500_ppr</text>
</g>
<!-- qdd_mmo_500_ppr&#45;&gt;qd_mmo_500_ppr -->
<g id="edge29" class="edge">
<title>qdd_mmo_500_ppr&#45;&gt;qd_mmo_500_ppr</title>
<path fill="none" stroke="black" stroke-dasharray="5,2" d="M2338.15,-541.22C2127.45,-526.36 1669.84,-494.09 1456.4,-479.03"/>
<polygon fill="black" stroke="black" points="1456.64,-475.54 1446.42,-478.33 1456.15,-482.52 1456.64,-475.54"/>
</g>
<!-- limits_qdd_mmo_500_ppr -->
<g id="node14" class="node">
<title>limits_qdd_mmo_500_ppr</title>
<polygon fill="none" stroke="magenta" points="2597.19,-470 2522.85,-488 2374.15,-488 2299.81,-470 2374.15,-452 2522.85,-452 2597.19,-470"/>
<text text-anchor="middle" x="2448.5" y="-466.3" font-family="Times,serif" font-size="14.00">limits_qdd_mmo_500_ppr</text>
</g>
<!-- qdd_mmo_500_ppr&#45;&gt;limits_qdd_mmo_500_ppr -->
<g id="edge7" class="edge">
<title>qdd_mmo_500_ppr&#45;&gt;limits_qdd_mmo_500_ppr</title>
<path fill="none" stroke="black" d="M2448.5,-527.69C2448.5,-518.64 2448.5,-507.99 2448.5,-498.37"/>
<polygon fill="black" stroke="black" points="2452,-498.09 2448.5,-488.09 2445,-498.09 2452,-498.09"/>
</g>
<!-- reg_qdd_mmo_500_ppr -->
<g id="node28" class="node">
<title>reg_qdd_mmo_500_ppr</title>
<polygon fill="none" stroke="magenta" points="2888.18,-470 2819.84,-488 2683.16,-488 2614.82,-470 2683.16,-452 2819.84,-452 2888.18,-470"/>
<text text-anchor="middle" x="2751.5" y="-466.3" font-family="Times,serif" font-size="14.00">reg_qdd_mmo_500_ppr</text>
</g>
<!-- qdd_mmo_500_ppr&#45;&gt;reg_qdd_mmo_500_ppr -->
<g id="edge8" class="edge">
<title>qdd_mmo_500_ppr&#45;&gt;reg_qdd_mmo_500_ppr</title>
<path fill="none" stroke="black" d="M2515.37,-531.79C2562.65,-519.61 2626.13,-503.27 2675.36,-490.6"/>
<polygon fill="black" stroke="black" points="2676.51,-493.92 2685.32,-488.04 2674.77,-487.14 2676.51,-493.92"/>
</g>
<!-- jointpos_init_mmo_500_ppr -->
<g id="node4" class="node">
<title>jointpos_init_mmo_500_ppr</title>
<polygon fill="none" stroke="red" points="2307.78,-382.54 2307.78,-397.46 2220.33,-408 2096.67,-408 2009.22,-397.46 2009.22,-382.54 2096.67,-372 2220.33,-372 2307.78,-382.54"/>
<polygon fill="none" stroke="red" points="2311.78,-379 2311.78,-401 2220.57,-412 2096.43,-412 2005.22,-401 2005.22,-379 2096.43,-368 2220.57,-368 2311.78,-379"/>
<text text-anchor="middle" x="2158.5" y="-386.3" font-family="Times,serif" font-size="14.00">jointpos_init_mmo_500_ppr</text>
</g>
<!-- jointpos_init_mmo_500_ppr&#45;&gt;error_q_mmo_500_ppr_jointpos_init_mmo_500_ppr -->
<g id="edge9" class="edge">
<title>jointpos_init_mmo_500_ppr&#45;&gt;error_q_mmo_500_ppr_jointpos_init_mmo_500_ppr</title>
<path fill="none" stroke="black" d="M2185.29,-367.89C2198.38,-357.58 2214.17,-345.14 2227.65,-334.52"/>
<polygon fill="black" stroke="black" points="2230,-337.12 2235.69,-328.18 2225.67,-331.62 2230,-337.12"/>
</g>
<!-- equality_q_mmo_500_ppr -->
<g id="node6" class="node">
<title>equality_q_mmo_500_ppr</title>
<polygon fill="none" stroke="magenta" points="2405.19,-234 2331.35,-252 2183.65,-252 2109.81,-234 2183.65,-216 2331.35,-216 2405.19,-234"/>
<text text-anchor="middle" x="2257.5" y="-230.3" font-family="Times,serif" font-size="14.00">equality_q_mmo_500_ppr</text>
</g>
<!-- error_q_mmo_500_ppr_jointpos_init_mmo_500_ppr&#45;&gt;equality_q_mmo_500_ppr -->
<g id="edge10" class="edge">
<title>error_q_mmo_500_ppr_jointpos_init_mmo_500_ppr&#45;&gt;equality_q_mmo_500_ppr</title>
<path fill="none" stroke="black" d="M2257.5,-291.84C2257.5,-283.06 2257.5,-272.16 2257.5,-262.27"/>
<polygon fill="black" stroke="black" points="2261,-262.07 2257.5,-252.07 2254,-262.07 2261,-262.07"/>
</g>
<!-- (&#39;initial&#39;, &#39;equality_q_mmo_500_ppr&#39;) -->
<g id="node7" class="node">
<title>(&#39;initial&#39;, &#39;equality_q_mmo_500_ppr&#39;)</title>
<polygon fill="none" stroke="purple" points="2394,-180 2121,-180 2121,-144 2394,-144 2394,-180"/>
<text text-anchor="middle" x="2257.5" y="-158.3" font-family="Times,serif" font-size="14.00">(&#39;initial&#39;, &#39;equality_q_mmo_500_ppr&#39;)</text>
</g>
<!-- equality_q_mmo_500_ppr&#45;&gt;(&#39;initial&#39;, &#39;equality_q_mmo_500_ppr&#39;) -->
<g id="edge11" class="edge">
<title>equality_q_mmo_500_ppr&#45;&gt;(&#39;initial&#39;, &#39;equality_q_mmo_500_ppr&#39;)</title>
<path fill="none" stroke="black" d="M2257.5,-215.7C2257.5,-207.98 2257.5,-198.71 2257.5,-190.11"/>
<polygon fill="black" stroke="black" points="2261,-190.1 2257.5,-180.1 2254,-190.1 2261,-190.1"/>
</g>
<!-- (&#39;initial&#39;, &#39;stationary_qd_mmo_500_ppr&#39;) -->
<g id="node9" class="node">
<title>(&#39;initial&#39;, &#39;stationary_qd_mmo_500_ppr&#39;)</title>
<polygon fill="none" stroke="purple" points="632,-328 335,-328 335,-292 632,-292 632,-328"/>
<text text-anchor="middle" x="483.5" y="-306.3" font-family="Times,serif" font-size="14.00">(&#39;initial&#39;, &#39;stationary_qd_mmo_500_ppr&#39;)</text>
</g>
<!-- stationary_qd_mmo_500_ppr&#45;&gt;(&#39;initial&#39;, &#39;stationary_qd_mmo_500_ppr&#39;) -->
<g id="edge12" class="edge">
<title>stationary_qd_mmo_500_ppr&#45;&gt;(&#39;initial&#39;, &#39;stationary_qd_mmo_500_ppr&#39;)</title>
<path fill="none" stroke="black" d="M483.5,-371.69C483.5,-361.89 483.5,-349.42 483.5,-338.33"/>
<polygon fill="black" stroke="black" points="487,-338.26 483.5,-328.26 480,-338.26 487,-338.26"/>
</g>
<!-- (&#39;terminal&#39;, &#39;stationary_qd_mmo_500_ppr&#39;) -->
<g id="node25" class="node">
<title>(&#39;terminal&#39;, &#39;stationary_qd_mmo_500_ppr&#39;)</title>
<polygon fill="none" stroke="purple" points="317,-328 0,-328 0,-292 317,-292 317,-328"/>
<text text-anchor="middle" x="158.5" y="-306.3" font-family="Times,serif" font-size="14.00">(&#39;terminal&#39;, &#39;stationary_qd_mmo_500_ppr&#39;)</text>
</g>
<!-- stationary_qd_mmo_500_ppr&#45;&gt;(&#39;terminal&#39;, &#39;stationary_qd_mmo_500_ppr&#39;) -->
<g id="edge13" class="edge">
<title>stationary_qd_mmo_500_ppr&#45;&gt;(&#39;terminal&#39;, &#39;stationary_qd_mmo_500_ppr&#39;)</title>
<path fill="none" stroke="black" d="M412.58,-371.98C361.5,-359.72 292.5,-343.16 239.29,-330.39"/>
<polygon fill="black" stroke="black" points="240.09,-326.98 229.55,-328.05 238.46,-333.79 240.09,-326.98"/>
</g>
<!-- (&#39;path&#39;, &#39;limits_q_mmo_500_ppr&#39;) -->
<g id="node11" class="node">
<title>(&#39;path&#39;, &#39;limits_q_mmo_500_ppr&#39;)</title>
<polygon fill="none" stroke="purple" points="1987,-252 1740,-252 1740,-216 1987,-216 1987,-252"/>
<text text-anchor="middle" x="1863.5" y="-230.3" font-family="Times,serif" font-size="14.00">(&#39;path&#39;, &#39;limits_q_mmo_500_ppr&#39;)</text>
</g>
<!-- limits_q_mmo_500_ppr&#45;&gt;(&#39;path&#39;, &#39;limits_q_mmo_500_ppr&#39;) -->
<g id="edge14" class="edge">
<title>limits_q_mmo_500_ppr&#45;&gt;(&#39;path&#39;, &#39;limits_q_mmo_500_ppr&#39;)</title>
<path fill="none" stroke="black" d="M1859.66,-291.84C1860.25,-283.06 1860.99,-272.16 1861.66,-262.27"/>
<polygon fill="black" stroke="black" points="1865.16,-262.28 1862.35,-252.07 1858.18,-261.81 1865.16,-262.28"/>
</g>
<!-- (&#39;path&#39;, &#39;limits_qd_mmo_500_ppr&#39;) -->
<g id="node13" class="node">
<title>(&#39;path&#39;, &#39;limits_qd_mmo_500_ppr&#39;)</title>
<polygon fill="none" stroke="purple" points="906.5,-328 650.5,-328 650.5,-292 906.5,-292 906.5,-328"/>
<text text-anchor="middle" x="778.5" y="-306.3" font-family="Times,serif" font-size="14.00">(&#39;path&#39;, &#39;limits_qd_mmo_500_ppr&#39;)</text>
</g>
<!-- limits_qd_mmo_500_ppr&#45;&gt;(&#39;path&#39;, &#39;limits_qd_mmo_500_ppr&#39;) -->
<g id="edge15" class="edge">
<title>limits_qd_mmo_500_ppr&#45;&gt;(&#39;path&#39;, &#39;limits_qd_mmo_500_ppr&#39;)</title>
<path fill="none" stroke="black" d="M897.92,-371.88C875.3,-360.35 845.28,-345.04 821,-332.67"/>
<polygon fill="black" stroke="black" points="822.5,-329.5 812,-328.08 819.32,-335.74 822.5,-329.5"/>
</g>
<!-- (&#39;path&#39;, &#39;limits_qdd_mmo_500_ppr&#39;) -->
<g id="node15" class="node">
<title>(&#39;path&#39;, &#39;limits_qdd_mmo_500_ppr&#39;)</title>
<polygon fill="none" stroke="purple" points="2595,-408 2330,-408 2330,-372 2595,-372 2595,-408"/>
<text text-anchor="middle" x="2462.5" y="-386.3" font-family="Times,serif" font-size="14.00">(&#39;path&#39;, &#39;limits_qdd_mmo_500_ppr&#39;)</text>
</g>
<!-- limits_qdd_mmo_500_ppr&#45;&gt;(&#39;path&#39;, &#39;limits_qdd_mmo_500_ppr&#39;) -->
<g id="edge16" class="edge">
<title>limits_qdd_mmo_500_ppr&#45;&gt;(&#39;path&#39;, &#39;limits_qdd_mmo_500_ppr&#39;)</title>
<path fill="none" stroke="black" d="M2451.61,-451.69C2453.37,-441.89 2455.6,-429.42 2457.59,-418.33"/>
<polygon fill="black" stroke="black" points="2461.08,-418.72 2459.4,-408.26 2454.19,-417.49 2461.08,-418.72"/>
</g>
<!-- trans_error_pose_9_mmo_500_ppr_vs_goal -->
<g id="node18" class="node">
<title>trans_error_pose_9_mmo_500_ppr_vs_goal</title>
<ellipse fill="none" stroke="green" cx="1514.5" cy="-234" rx="207.96" ry="18"/>
<text text-anchor="middle" x="1514.5" y="-230.3" font-family="Times,serif" font-size="14.00">trans_error_pose_9_mmo_500_ppr_vs_goal</text>
</g>
<!-- pose_9_mmo_500_ppr&#45;&gt;trans_error_pose_9_mmo_500_ppr_vs_goal -->
<g id="edge17" class="edge">
<title>pose_9_mmo_500_ppr&#45;&gt;trans_error_pose_9_mmo_500_ppr_vs_goal</title>
<path fill="none" stroke="black" d="M1574.8,-292.21C1564.5,-282.44 1551.34,-269.96 1539.95,-259.14"/>
<polygon fill="black" stroke="black" points="1542.06,-256.32 1532.4,-251.98 1537.25,-261.4 1542.06,-256.32"/>
</g>
<!-- rotmat_error_pose_9_mmo_500_ppr_vs_goal -->
<g id="node21" class="node">
<title>rotmat_error_pose_9_mmo_500_ppr_vs_goal</title>
<ellipse fill="none" stroke="green" cx="1064.5" cy="-234" rx="215.26" ry="18"/>
<text text-anchor="middle" x="1064.5" y="-230.3" font-family="Times,serif" font-size="14.00">rotmat_error_pose_9_mmo_500_ppr_vs_goal</text>
</g>
<!-- pose_9_mmo_500_ppr&#45;&gt;rotmat_error_pose_9_mmo_500_ppr_vs_goal -->
<g id="edge18" class="edge">
<title>pose_9_mmo_500_ppr&#45;&gt;rotmat_error_pose_9_mmo_500_ppr_vs_goal</title>
<path fill="none" stroke="black" d="M1520.65,-296.13C1504.19,-293.32 1486.76,-290.46 1470.5,-288 1377.65,-273.95 1272.52,-260.29 1192.5,-250.36"/>
<polygon fill="black" stroke="black" points="1192.73,-246.86 1182.38,-249.1 1191.87,-253.81 1192.73,-246.86"/>
</g>
<!-- goal_pose_mmo_500_ppr -->
<g id="node17" class="node">
<title>goal_pose_mmo_500_ppr</title>
<polygon fill="none" stroke="red" points="1200.96,-302.54 1200.96,-317.46 1121.02,-328 1007.98,-328 928.04,-317.46 928.04,-302.54 1007.98,-292 1121.02,-292 1200.96,-302.54"/>
<polygon fill="none" stroke="red" points="1204.96,-299.04 1204.96,-320.96 1121.28,-332 1007.72,-332 924.04,-320.96 924.04,-299.04 1007.72,-288 1121.28,-288 1204.96,-299.04"/>
<text text-anchor="middle" x="1064.5" y="-306.3" font-family="Times,serif" font-size="14.00">goal_pose_mmo_500_ppr</text>
</g>
<!-- goal_pose_mmo_500_ppr&#45;&gt;trans_error_pose_9_mmo_500_ppr_vs_goal -->
<g id="edge19" class="edge">
<title>goal_pose_mmo_500_ppr&#45;&gt;trans_error_pose_9_mmo_500_ppr_vs_goal</title>
<path fill="none" stroke="black" d="M1160.76,-293.17C1234.77,-281 1336.77,-264.23 1412.24,-251.82"/>
<polygon fill="black" stroke="black" points="1412.94,-255.25 1422.24,-250.17 1411.8,-248.34 1412.94,-255.25"/>
</g>
<!-- goal_pose_mmo_500_ppr&#45;&gt;rotmat_error_pose_9_mmo_500_ppr_vs_goal -->
<g id="edge20" class="edge">
<title>goal_pose_mmo_500_ppr&#45;&gt;rotmat_error_pose_9_mmo_500_ppr_vs_goal</title>
<path fill="none" stroke="black" d="M1064.5,-287.99C1064.5,-280.06 1064.5,-270.91 1064.5,-262.48"/>
<polygon fill="black" stroke="black" points="1068,-262.31 1064.5,-252.31 1061,-262.31 1068,-262.31"/>
</g>
<!-- trans_con_pose_9_mmo_500_ppr_vs_goal -->
<g id="node19" class="node">
<title>trans_con_pose_9_mmo_500_ppr_vs_goal</title>
<polygon fill="none" stroke="magenta" points="1750.8,-162 1635.15,-180 1403.85,-180 1288.2,-162 1403.85,-144 1635.15,-144 1750.8,-162"/>
<text text-anchor="middle" x="1519.5" y="-158.3" font-family="Times,serif" font-size="14.00">trans_con_pose_9_mmo_500_ppr_vs_goal</text>
</g>
<!-- trans_error_pose_9_mmo_500_ppr_vs_goal&#45;&gt;trans_con_pose_9_mmo_500_ppr_vs_goal -->
<g id="edge21" class="edge">
<title>trans_error_pose_9_mmo_500_ppr_vs_goal&#45;&gt;trans_con_pose_9_mmo_500_ppr_vs_goal</title>
<path fill="none" stroke="black" d="M1515.74,-215.7C1516.29,-207.98 1516.95,-198.71 1517.56,-190.11"/>
<polygon fill="black" stroke="black" points="1521.06,-190.33 1518.28,-180.1 1514.07,-189.83 1521.06,-190.33"/>
</g>
<!-- (&#39;terminal&#39;, &#39;trans_con_pose_9_mmo_500_ppr_vs_goal&#39;) -->
<g id="node20" class="node">
<title>(&#39;terminal&#39;, &#39;trans_con_pose_9_mmo_500_ppr_vs_goal&#39;)</title>
<polygon fill="none" stroke="purple" points="1721,-108 1318,-108 1318,-72 1721,-72 1721,-108"/>
<text text-anchor="middle" x="1519.5" y="-86.3" font-family="Times,serif" font-size="14.00">(&#39;terminal&#39;, &#39;trans_con_pose_9_mmo_500_ppr_vs_goal&#39;)</text>
</g>
<!-- trans_con_pose_9_mmo_500_ppr_vs_goal&#45;&gt;(&#39;terminal&#39;, &#39;trans_con_pose_9_mmo_500_ppr_vs_goal&#39;) -->
<g id="edge22" class="edge">
<title>trans_con_pose_9_mmo_500_ppr_vs_goal&#45;&gt;(&#39;terminal&#39;, &#39;trans_con_pose_9_mmo_500_ppr_vs_goal&#39;)</title>
<path fill="none" stroke="black" d="M1519.5,-143.7C1519.5,-135.98 1519.5,-126.71 1519.5,-118.11"/>
<polygon fill="black" stroke="black" points="1523,-118.1 1519.5,-108.1 1516,-118.1 1523,-118.1"/>
</g>
<!-- ax_ang_error_pose_9_mmo_500_ppr_vs_goal -->
<g id="node22" class="node">
<title>ax_ang_error_pose_9_mmo_500_ppr_vs_goal</title>
<ellipse fill="none" stroke="green" cx="1054.5" cy="-162" rx="215.56" ry="18"/>
<text text-anchor="middle" x="1054.5" y="-158.3" font-family="Times,serif" font-size="14.00">ax_ang_error_pose_9_mmo_500_ppr_vs_goal</text>
</g>
<!-- rotmat_error_pose_9_mmo_500_ppr_vs_goal&#45;&gt;ax_ang_error_pose_9_mmo_500_ppr_vs_goal -->
<g id="edge23" class="edge">
<title>rotmat_error_pose_9_mmo_500_ppr_vs_goal&#45;&gt;ax_ang_error_pose_9_mmo_500_ppr_vs_goal</title>
<path fill="none" stroke="black" d="M1062.03,-215.7C1060.93,-207.98 1059.6,-198.71 1058.37,-190.11"/>
<polygon fill="black" stroke="black" points="1061.82,-189.51 1056.94,-180.1 1054.89,-190.5 1061.82,-189.51"/>
</g>
<!-- rot_con_pose_9_mmo_500_ppr_vs_goal -->
<g id="node23" class="node">
<title>rot_con_pose_9_mmo_500_ppr_vs_goal</title>
<polygon fill="none" stroke="magenta" points="1272.78,-90 1163.64,-108 945.36,-108 836.22,-90 945.36,-72 1163.64,-72 1272.78,-90"/>
<text text-anchor="middle" x="1054.5" y="-86.3" font-family="Times,serif" font-size="14.00">rot_con_pose_9_mmo_500_ppr_vs_goal</text>
</g>
<!-- ax_ang_error_pose_9_mmo_500_ppr_vs_goal&#45;&gt;rot_con_pose_9_mmo_500_ppr_vs_goal -->
<g id="edge24" class="edge">
<title>ax_ang_error_pose_9_mmo_500_ppr_vs_goal&#45;&gt;rot_con_pose_9_mmo_500_ppr_vs_goal</title>
<path fill="none" stroke="black" d="M1054.5,-143.7C1054.5,-135.98 1054.5,-126.71 1054.5,-118.11"/>
<polygon fill="black" stroke="black" points="1058,-118.1 1054.5,-108.1 1051,-118.1 1058,-118.1"/>
</g>
<!-- (&#39;terminal&#39;, &#39;rot_con_pose_9_mmo_500_ppr_vs_goal&#39;) -->
<g id="node24" class="node">
<title>(&#39;terminal&#39;, &#39;rot_con_pose_9_mmo_500_ppr_vs_goal&#39;)</title>
<polygon fill="none" stroke="purple" points="1247.5,-36 861.5,-36 861.5,0 1247.5,0 1247.5,-36"/>
<text text-anchor="middle" x="1054.5" y="-14.3" font-family="Times,serif" font-size="14.00">(&#39;terminal&#39;, &#39;rot_con_pose_9_mmo_500_ppr_vs_goal&#39;)</text>
</g>
<!-- rot_con_pose_9_mmo_500_ppr_vs_goal&#45;&gt;(&#39;terminal&#39;, &#39;rot_con_pose_9_mmo_500_ppr_vs_goal&#39;) -->
<g id="edge25" class="edge">
<title>rot_con_pose_9_mmo_500_ppr_vs_goal&#45;&gt;(&#39;terminal&#39;, &#39;rot_con_pose_9_mmo_500_ppr_vs_goal&#39;)</title>
<path fill="none" stroke="black" d="M1054.5,-71.7C1054.5,-63.98 1054.5,-54.71 1054.5,-46.11"/>
<polygon fill="black" stroke="black" points="1058,-46.1 1054.5,-36.1 1051,-46.1 1058,-46.1"/>
</g>
<!-- (&#39;path&#39;, &#39;reg_qd_mmo_500_ppr&#39;) -->
<g id="node27" class="node">
<title>(&#39;path&#39;, &#39;reg_qd_mmo_500_ppr&#39;)</title>
<polygon fill="none" stroke="purple" points="1462,-328 1223,-328 1223,-292 1462,-292 1462,-328"/>
<text text-anchor="middle" x="1342.5" y="-306.3" font-family="Times,serif" font-size="14.00">(&#39;path&#39;, &#39;reg_qd_mmo_500_ppr&#39;)</text>
</g>
<!-- reg_qd_mmo_500_ppr&#45;&gt;(&#39;path&#39;, &#39;reg_qd_mmo_500_ppr&#39;) -->
<g id="edge26" class="edge">
<title>reg_qd_mmo_500_ppr&#45;&gt;(&#39;path&#39;, &#39;reg_qd_mmo_500_ppr&#39;)</title>
<path fill="none" stroke="black" d="M1342.5,-371.69C1342.5,-361.89 1342.5,-349.42 1342.5,-338.33"/>
<polygon fill="black" stroke="black" points="1346,-338.26 1342.5,-328.26 1339,-338.26 1346,-338.26"/>
</g>
<!-- (&#39;path&#39;, &#39;reg_qdd_mmo_500_ppr&#39;) -->
<g id="node29" class="node">
<title>(&#39;path&#39;, &#39;reg_qdd_mmo_500_ppr&#39;)</title>
<polygon fill="none" stroke="purple" points="2875.5,-408 2627.5,-408 2627.5,-372 2875.5,-372 2875.5,-408"/>
<text text-anchor="middle" x="2751.5" y="-386.3" font-family="Times,serif" font-size="14.00">(&#39;path&#39;, &#39;reg_qdd_mmo_500_ppr&#39;)</text>
</g>
<!-- reg_qdd_mmo_500_ppr&#45;&gt;(&#39;path&#39;, &#39;reg_qdd_mmo_500_ppr&#39;) -->
<g id="edge27" class="edge">
<title>reg_qdd_mmo_500_ppr&#45;&gt;(&#39;path&#39;, &#39;reg_qdd_mmo_500_ppr&#39;)</title>
<path fill="none" stroke="black" d="M2751.5,-451.69C2751.5,-441.89 2751.5,-429.42 2751.5,-418.33"/>
<polygon fill="black" stroke="black" points="2755,-418.26 2751.5,-408.26 2748,-418.26 2755,-418.26"/>
</g>
</g>
</svg>
