<?xml version="1.0" encoding="UTF-8" standalone="no"?>
<!DOCTYPE svg PUBLIC "-//W3C//DTD SVG 1.1//EN"
 "http://www.w3.org/Graphics/SVG/1.1/DTD/svg11.dtd">
<!-- Generated by graphviz version 2.43.0 (0)
 -->
<!-- Title: %3 Pages: 1 -->
<svg width="2340pt" height="508pt"
 viewBox="0.00 0.00 2340.00 508.00" xmlns="http://www.w3.org/2000/svg" xmlns:xlink="http://www.w3.org/1999/xlink">
<g id="graph0" class="graph" transform="scale(1 1) rotate(0) translate(4 504)">
<title>%3</title>
<polygon fill="white" stroke="transparent" points="-4,4 -4,-504 2336,-504 2336,4 -4,4"/>
<!-- q_mmo_500_ppr -->
<g id="node1" class="node">
<title>q_mmo_500_ppr</title>
<polygon fill="none" stroke="green" points="856.13,-310.54 856.13,-325.46 801.28,-336 723.72,-336 668.87,-325.46 668.87,-310.54 723.72,-300 801.28,-300 856.13,-310.54"/>
<polygon fill="none" stroke="green" points="860.13,-307.24 860.13,-328.76 801.66,-340 723.34,-340 664.87,-328.76 664.87,-307.24 723.34,-296 801.66,-296 860.13,-307.24"/>
<text text-anchor="middle" x="762.5" y="-314.3" font-family="Times,serif" font-size="14.00">q_mmo_500_ppr</text>
</g>
<!-- error_q_mmo_500_ppr_q_init_mmo_500_ppr -->
<g id="node5" class="node">
<title>error_q_mmo_500_ppr_q_init_mmo_500_ppr</title>
<ellipse fill="none" stroke="green" cx="1201.5" cy="-238" rx="214.46" ry="18"/>
<text text-anchor="middle" x="1201.5" y="-234.3" font-family="Times,serif" font-size="14.00">error_q_mmo_500_ppr_q_init_mmo_500_ppr</text>
</g>
<!-- q_mmo_500_ppr&#45;&gt;error_q_mmo_500_ppr_q_init_mmo_500_ppr -->
<g id="edge1" class="edge">
<title>q_mmo_500_ppr&#45;&gt;error_q_mmo_500_ppr_q_init_mmo_500_ppr</title>
<path fill="none" stroke="black" d="M839.72,-303.28C913.33,-290.2 1024.46,-270.46 1104.11,-256.3"/>
<polygon fill="black" stroke="black" points="1104.92,-259.71 1114.16,-254.52 1103.7,-252.82 1104.92,-259.71"/>
</g>
<!-- limits_q_mmo_500_ppr -->
<g id="node9" class="node">
<title>limits_q_mmo_500_ppr</title>
<polygon fill="none" stroke="magenta" points="385.68,-238 318.09,-256 182.91,-256 115.32,-238 182.91,-220 318.09,-220 385.68,-238"/>
<text text-anchor="middle" x="250.5" y="-234.3" font-family="Times,serif" font-size="14.00">limits_q_mmo_500_ppr</text>
</g>
<!-- q_mmo_500_ppr&#45;&gt;limits_q_mmo_500_ppr -->
<g id="edge2" class="edge">
<title>q_mmo_500_ppr&#45;&gt;limits_q_mmo_500_ppr</title>
<path fill="none" stroke="black" d="M679.67,-304.38C587.96,-290.41 440.44,-267.94 344.48,-253.32"/>
<polygon fill="black" stroke="black" points="344.9,-249.84 334.49,-251.8 343.85,-256.76 344.9,-249.84"/>
</g>
<!-- pose_9_mmo_500_ppr -->
<g id="node15" class="node">
<title>pose_9_mmo_500_ppr</title>
<ellipse fill="none" stroke="green" cx="557.5" cy="-238" rx="112.38" ry="18"/>
<text text-anchor="middle" x="557.5" y="-234.3" font-family="Times,serif" font-size="14.00">pose_9_mmo_500_ppr</text>
</g>
<!-- q_mmo_500_ppr&#45;&gt;pose_9_mmo_500_ppr -->
<g id="edge3" class="edge">
<title>q_mmo_500_ppr&#45;&gt;pose_9_mmo_500_ppr</title>
<path fill="none" stroke="black" d="M712.61,-298.02C681.04,-286 640.32,-270.51 608.53,-258.41"/>
<polygon fill="black" stroke="black" points="609.56,-255.06 598.96,-254.78 607.07,-261.6 609.56,-255.06"/>
</g>
<!-- qd_mmo_500_ppr -->
<g id="node2" class="node">
<title>qd_mmo_500_ppr</title>
<polygon fill="none" stroke="green" points="1844.3,-390.54 1844.3,-405.46 1785.84,-416 1703.16,-416 1644.7,-405.46 1644.7,-390.54 1703.16,-380 1785.84,-380 1844.3,-390.54"/>
<polygon fill="none" stroke="green" points="1848.29,-387.2 1848.29,-408.8 1786.19,-420 1702.81,-420 1640.71,-408.8 1640.71,-387.2 1702.81,-376 1786.19,-376 1848.29,-387.2"/>
<text text-anchor="middle" x="1744.5" y="-394.3" font-family="Times,serif" font-size="14.00">qd_mmo_500_ppr</text>
</g>
<!-- qd_mmo_500_ppr&#45;&gt;q_mmo_500_ppr -->
<g id="edge21" class="edge">
<title>qd_mmo_500_ppr&#45;&gt;q_mmo_500_ppr</title>
<path fill="none" stroke="black" stroke-dasharray="5,2" d="M1640.34,-388.73C1452.79,-373.83 1060.17,-342.64 870.13,-327.55"/>
<polygon fill="black" stroke="black" points="870.37,-324.06 860.12,-326.75 869.81,-331.04 870.37,-324.06"/>
</g>
<!-- stationary_qd_mmo_500_ppr -->
<g id="node8" class="node">
<title>stationary_qd_mmo_500_ppr</title>
<polygon fill="none" stroke="magenta" points="1747.22,-318 1664.36,-336 1498.64,-336 1415.78,-318 1498.64,-300 1664.36,-300 1747.22,-318"/>
<text text-anchor="middle" x="1581.5" y="-314.3" font-family="Times,serif" font-size="14.00">stationary_qd_mmo_500_ppr</text>
</g>
<!-- qd_mmo_500_ppr&#45;&gt;stationary_qd_mmo_500_ppr -->
<g id="edge4" class="edge">
<title>qd_mmo_500_ppr&#45;&gt;stationary_qd_mmo_500_ppr</title>
<path fill="none" stroke="black" d="M1700.82,-376.1C1677.78,-365.07 1649.55,-351.57 1626.34,-340.46"/>
<polygon fill="black" stroke="black" points="1627.59,-337.18 1617.06,-336.02 1624.57,-343.49 1627.59,-337.18"/>
</g>
<!-- limits_qd_mmo_500_ppr -->
<g id="node11" class="node">
<title>limits_qd_mmo_500_ppr</title>
<polygon fill="none" stroke="magenta" points="2049.18,-318 1978.34,-336 1836.66,-336 1765.82,-318 1836.66,-300 1978.34,-300 2049.18,-318"/>
<text text-anchor="middle" x="1907.5" y="-314.3" font-family="Times,serif" font-size="14.00">limits_qd_mmo_500_ppr</text>
</g>
<!-- qd_mmo_500_ppr&#45;&gt;limits_qd_mmo_500_ppr -->
<g id="edge5" class="edge">
<title>qd_mmo_500_ppr&#45;&gt;limits_qd_mmo_500_ppr</title>
<path fill="none" stroke="black" d="M1788.18,-376.1C1811.22,-365.07 1839.45,-351.57 1862.66,-340.46"/>
<polygon fill="black" stroke="black" points="1864.43,-343.49 1871.94,-336.02 1861.41,-337.18 1864.43,-343.49"/>
</g>
<!-- qdd_mmo_500_ppr -->
<g id="node3" class="node">
<title>qdd_mmo_500_ppr</title>
<polygon fill="none" stroke="cyan" points="1985.95,-470.54 1985.95,-485.46 1923.59,-496 1835.41,-496 1773.05,-485.46 1773.05,-470.54 1835.41,-460 1923.59,-460 1985.95,-470.54"/>
<polygon fill="none" stroke="cyan" points="1989.96,-467.16 1989.96,-488.84 1923.93,-500 1835.07,-500 1769.04,-488.84 1769.04,-467.16 1835.07,-456 1923.93,-456 1989.96,-467.16"/>
<text text-anchor="middle" x="1879.5" y="-474.3" font-family="Times,serif" font-size="14.00">qdd_mmo_500_ppr</text>
</g>
<!-- qdd_mmo_500_ppr&#45;&gt;qd_mmo_500_ppr -->
<g id="edge22" class="edge">
<title>qdd_mmo_500_ppr&#45;&gt;qd_mmo_500_ppr</title>
<path fill="none" stroke="black" stroke-dasharray="5,2" d="M1842.97,-455.89C1826.61,-446.44 1807.15,-435.2 1789.87,-425.22"/>
<polygon fill="black" stroke="black" points="1791.47,-422.1 1781.06,-420.12 1787.97,-428.16 1791.47,-422.1"/>
</g>
<!-- limits_qdd_mmo_500_ppr -->
<g id="node13" class="node">
<title>limits_qdd_mmo_500_ppr</title>
<polygon fill="none" stroke="magenta" points="2255.19,-398 2180.85,-416 2032.15,-416 1957.81,-398 2032.15,-380 2180.85,-380 2255.19,-398"/>
<text text-anchor="middle" x="2106.5" y="-394.3" font-family="Times,serif" font-size="14.00">limits_qdd_mmo_500_ppr</text>
</g>
<!-- qdd_mmo_500_ppr&#45;&gt;limits_qdd_mmo_500_ppr -->
<g id="edge6" class="edge">
<title>qdd_mmo_500_ppr&#45;&gt;limits_qdd_mmo_500_ppr</title>
<path fill="none" stroke="black" d="M1935.32,-457.82C1969.28,-446.15 2012.62,-431.26 2047.19,-419.38"/>
<polygon fill="black" stroke="black" points="2048.38,-422.67 2056.7,-416.11 2046.1,-416.05 2048.38,-422.67"/>
</g>
<!-- q_init_mmo_500_ppr -->
<g id="node4" class="node">
<title>q_init_mmo_500_ppr</title>
<polygon fill="none" stroke="blue" points="1316.75,-310.54 1316.75,-325.46 1249.24,-336 1153.76,-336 1086.25,-325.46 1086.25,-310.54 1153.76,-300 1249.24,-300 1316.75,-310.54"/>
<polygon fill="none" stroke="blue" points="1320.75,-307.12 1320.75,-328.88 1249.55,-340 1153.45,-340 1082.25,-328.88 1082.25,-307.12 1153.45,-296 1249.55,-296 1320.75,-307.12"/>
<text text-anchor="middle" x="1201.5" y="-314.3" font-family="Times,serif" font-size="14.00">q_init_mmo_500_ppr</text>
</g>
<!-- q_init_mmo_500_ppr&#45;&gt;error_q_mmo_500_ppr_q_init_mmo_500_ppr -->
<g id="edge7" class="edge">
<title>q_init_mmo_500_ppr&#45;&gt;error_q_mmo_500_ppr_q_init_mmo_500_ppr</title>
<path fill="none" stroke="black" d="M1201.5,-295.69C1201.5,-286.64 1201.5,-275.99 1201.5,-266.37"/>
<polygon fill="black" stroke="black" points="1205,-266.09 1201.5,-256.09 1198,-266.09 1205,-266.09"/>
</g>
<!-- equality_q_mmo_500_ppr -->
<g id="node6" class="node">
<title>equality_q_mmo_500_ppr</title>
<polygon fill="none" stroke="magenta" points="1442.19,-162 1368.35,-180 1220.65,-180 1146.81,-162 1220.65,-144 1368.35,-144 1442.19,-162"/>
<text text-anchor="middle" x="1294.5" y="-158.3" font-family="Times,serif" font-size="14.00">equality_q_mmo_500_ppr</text>
</g>
<!-- error_q_mmo_500_ppr_q_init_mmo_500_ppr&#45;&gt;equality_q_mmo_500_ppr -->
<g id="edge8" class="edge">
<title>error_q_mmo_500_ppr_q_init_mmo_500_ppr&#45;&gt;equality_q_mmo_500_ppr</title>
<path fill="none" stroke="black" d="M1223.07,-219.84C1235.51,-209.94 1251.33,-197.35 1264.92,-186.53"/>
<polygon fill="black" stroke="black" points="1267.4,-189.04 1273.05,-180.07 1263.04,-183.56 1267.4,-189.04"/>
</g>
<!-- (&#39;initial&#39;, &#39;equality_q_mmo_500_ppr&#39;) -->
<g id="node7" class="node">
<title>(&#39;initial&#39;, &#39;equality_q_mmo_500_ppr&#39;)</title>
<polygon fill="none" stroke="purple" points="1431,-108 1158,-108 1158,-72 1431,-72 1431,-108"/>
<text text-anchor="middle" x="1294.5" y="-86.3" font-family="Times,serif" font-size="14.00">(&#39;initial&#39;, &#39;equality_q_mmo_500_ppr&#39;)</text>
</g>
<!-- equality_q_mmo_500_ppr&#45;&gt;(&#39;initial&#39;, &#39;equality_q_mmo_500_ppr&#39;) -->
<g id="edge9" class="edge">
<title>equality_q_mmo_500_ppr&#45;&gt;(&#39;initial&#39;, &#39;equality_q_mmo_500_ppr&#39;)</title>
<path fill="none" stroke="black" d="M1294.5,-143.7C1294.5,-135.98 1294.5,-126.71 1294.5,-118.11"/>
<polygon fill="black" stroke="black" points="1298,-118.1 1294.5,-108.1 1291,-118.1 1298,-118.1"/>
</g>
<!-- (&#39;terminal&#39;, &#39;stationary_qd_mmo_500_ppr&#39;) -->
<g id="node22" class="node">
<title>(&#39;terminal&#39;, &#39;stationary_qd_mmo_500_ppr&#39;)</title>
<polygon fill="none" stroke="purple" points="1751,-256 1434,-256 1434,-220 1751,-220 1751,-256"/>
<text text-anchor="middle" x="1592.5" y="-234.3" font-family="Times,serif" font-size="14.00">(&#39;terminal&#39;, &#39;stationary_qd_mmo_500_ppr&#39;)</text>
</g>
<!-- stationary_qd_mmo_500_ppr&#45;&gt;(&#39;terminal&#39;, &#39;stationary_qd_mmo_500_ppr&#39;) -->
<g id="edge10" class="edge">
<title>stationary_qd_mmo_500_ppr&#45;&gt;(&#39;terminal&#39;, &#39;stationary_qd_mmo_500_ppr&#39;)</title>
<path fill="none" stroke="black" d="M1583.94,-299.69C1585.32,-289.89 1587.08,-277.42 1588.65,-266.33"/>
<polygon fill="black" stroke="black" points="1592.13,-266.65 1590.07,-256.26 1585.2,-265.68 1592.13,-266.65"/>
</g>
<!-- (&#39;path&#39;, &#39;limits_q_mmo_500_ppr&#39;) -->
<g id="node10" class="node">
<title>(&#39;path&#39;, &#39;limits_q_mmo_500_ppr&#39;)</title>
<polygon fill="none" stroke="purple" points="247,-180 0,-180 0,-144 247,-144 247,-180"/>
<text text-anchor="middle" x="123.5" y="-158.3" font-family="Times,serif" font-size="14.00">(&#39;path&#39;, &#39;limits_q_mmo_500_ppr&#39;)</text>
</g>
<!-- limits_q_mmo_500_ppr&#45;&gt;(&#39;path&#39;, &#39;limits_q_mmo_500_ppr&#39;) -->
<g id="edge11" class="edge">
<title>limits_q_mmo_500_ppr&#45;&gt;(&#39;path&#39;, &#39;limits_q_mmo_500_ppr&#39;)</title>
<path fill="none" stroke="black" d="M221.04,-219.84C203.33,-209.52 180.6,-196.27 161.54,-185.17"/>
<polygon fill="black" stroke="black" points="163.2,-182.08 152.8,-180.07 159.67,-188.13 163.2,-182.08"/>
</g>
<!-- (&#39;path&#39;, &#39;limits_qd_mmo_500_ppr&#39;) -->
<g id="node12" class="node">
<title>(&#39;path&#39;, &#39;limits_qd_mmo_500_ppr&#39;)</title>
<polygon fill="none" stroke="purple" points="2035.5,-256 1779.5,-256 1779.5,-220 2035.5,-220 2035.5,-256"/>
<text text-anchor="middle" x="1907.5" y="-234.3" font-family="Times,serif" font-size="14.00">(&#39;path&#39;, &#39;limits_qd_mmo_500_ppr&#39;)</text>
</g>
<!-- limits_qd_mmo_500_ppr&#45;&gt;(&#39;path&#39;, &#39;limits_qd_mmo_500_ppr&#39;) -->
<g id="edge12" class="edge">
<title>limits_qd_mmo_500_ppr&#45;&gt;(&#39;path&#39;, &#39;limits_qd_mmo_500_ppr&#39;)</title>
<path fill="none" stroke="black" d="M1907.5,-299.69C1907.5,-289.89 1907.5,-277.42 1907.5,-266.33"/>
<polygon fill="black" stroke="black" points="1911,-266.26 1907.5,-256.26 1904,-266.26 1911,-266.26"/>
</g>
<!-- (&#39;path&#39;, &#39;limits_qdd_mmo_500_ppr&#39;) -->
<g id="node14" class="node">
<title>(&#39;path&#39;, &#39;limits_qdd_mmo_500_ppr&#39;)</title>
<polygon fill="none" stroke="purple" points="2332,-336 2067,-336 2067,-300 2332,-300 2332,-336"/>
<text text-anchor="middle" x="2199.5" y="-314.3" font-family="Times,serif" font-size="14.00">(&#39;path&#39;, &#39;limits_qdd_mmo_500_ppr&#39;)</text>
</g>
<!-- limits_qdd_mmo_500_ppr&#45;&gt;(&#39;path&#39;, &#39;limits_qdd_mmo_500_ppr&#39;) -->
<g id="edge13" class="edge">
<title>limits_qdd_mmo_500_ppr&#45;&gt;(&#39;path&#39;, &#39;limits_qdd_mmo_500_ppr&#39;)</title>
<path fill="none" stroke="black" d="M2127.14,-379.69C2140.02,-368.88 2156.79,-354.82 2170.94,-342.95"/>
<polygon fill="black" stroke="black" points="2173.51,-345.37 2178.92,-336.26 2169.01,-340.01 2173.51,-345.37"/>
</g>
<!-- trans_error_pose_9_mmo_500_ppr_vs_goal -->
<g id="node17" class="node">
<title>trans_error_pose_9_mmo_500_ppr_vs_goal</title>
<ellipse fill="none" stroke="green" cx="472.5" cy="-162" rx="207.96" ry="18"/>
<text text-anchor="middle" x="472.5" y="-158.3" font-family="Times,serif" font-size="14.00">trans_error_pose_9_mmo_500_ppr_vs_goal</text>
</g>
<!-- pose_9_mmo_500_ppr&#45;&gt;trans_error_pose_9_mmo_500_ppr_vs_goal -->
<g id="edge14" class="edge">
<title>pose_9_mmo_500_ppr&#45;&gt;trans_error_pose_9_mmo_500_ppr_vs_goal</title>
<path fill="none" stroke="black" d="M538.21,-220.21C526.88,-210.34 512.38,-197.71 499.88,-186.83"/>
<polygon fill="black" stroke="black" points="501.85,-183.91 492.01,-179.98 497.25,-189.19 501.85,-183.91"/>
</g>
<!-- rotmat_error_pose_9_mmo_500_ppr_vs_goal -->
<g id="node19" class="node">
<title>rotmat_error_pose_9_mmo_500_ppr_vs_goal</title>
<ellipse fill="none" stroke="green" cx="913.5" cy="-162" rx="215.26" ry="18"/>
<text text-anchor="middle" x="913.5" y="-158.3" font-family="Times,serif" font-size="14.00">rotmat_error_pose_9_mmo_500_ppr_vs_goal</text>
</g>
<!-- pose_9_mmo_500_ppr&#45;&gt;rotmat_error_pose_9_mmo_500_ppr_vs_goal -->
<g id="edge15" class="edge">
<title>pose_9_mmo_500_ppr&#45;&gt;rotmat_error_pose_9_mmo_500_ppr_vs_goal</title>
<path fill="none" stroke="black" d="M623.21,-223.34C680.61,-211.41 764.35,-194 827.15,-180.95"/>
<polygon fill="black" stroke="black" points="827.96,-184.35 837.04,-178.89 826.54,-177.5 827.96,-184.35"/>
</g>
<!-- goal_pose_mmo_500_ppr -->
<g id="node16" class="node">
<title>goal_pose_mmo_500_ppr</title>
<polygon fill="none" stroke="blue" points="964.96,-230.54 964.96,-245.46 885.02,-256 771.98,-256 692.04,-245.46 692.04,-230.54 771.98,-220 885.02,-220 964.96,-230.54"/>
<polygon fill="none" stroke="blue" points="968.96,-227.04 968.96,-248.96 885.28,-260 771.72,-260 688.04,-248.96 688.04,-227.04 771.72,-216 885.28,-216 968.96,-227.04"/>
<text text-anchor="middle" x="828.5" y="-234.3" font-family="Times,serif" font-size="14.00">goal_pose_mmo_500_ppr</text>
</g>
<!-- goal_pose_mmo_500_ppr&#45;&gt;trans_error_pose_9_mmo_500_ppr_vs_goal -->
<g id="edge16" class="edge">
<title>goal_pose_mmo_500_ppr&#45;&gt;trans_error_pose_9_mmo_500_ppr_vs_goal</title>
<path fill="none" stroke="black" d="M744.58,-219.56C688.54,-207.91 615.04,-192.63 558.56,-180.89"/>
<polygon fill="black" stroke="black" points="559.08,-177.42 548.57,-178.81 557.65,-184.27 559.08,-177.42"/>
</g>
<!-- goal_pose_mmo_500_ppr&#45;&gt;rotmat_error_pose_9_mmo_500_ppr_vs_goal -->
<g id="edge17" class="edge">
<title>goal_pose_mmo_500_ppr&#45;&gt;rotmat_error_pose_9_mmo_500_ppr_vs_goal</title>
<path fill="none" stroke="black" d="M852.63,-215.99C863.14,-206.85 875.5,-196.09 886.32,-186.66"/>
<polygon fill="black" stroke="black" points="888.65,-189.28 893.89,-180.07 884.05,-184 888.65,-189.28"/>
</g>
<!-- trans_con_pose_9_mmo_500_ppr_vs_goal -->
<g id="node18" class="node">
<title>trans_con_pose_9_mmo_500_ppr_vs_goal</title>
<polygon fill="none" stroke="magenta" points="684.8,-90 569.15,-108 337.85,-108 222.2,-90 337.85,-72 569.15,-72 684.8,-90"/>
<text text-anchor="middle" x="453.5" y="-86.3" font-family="Times,serif" font-size="14.00">trans_con_pose_9_mmo_500_ppr_vs_goal</text>
</g>
<!-- trans_error_pose_9_mmo_500_ppr_vs_goal&#45;&gt;trans_con_pose_9_mmo_500_ppr_vs_goal -->
<g id="edge18" class="edge">
<title>trans_error_pose_9_mmo_500_ppr_vs_goal&#45;&gt;trans_con_pose_9_mmo_500_ppr_vs_goal</title>
<path fill="none" stroke="black" d="M467.8,-143.7C465.69,-135.9 463.14,-126.51 460.78,-117.83"/>
<polygon fill="black" stroke="black" points="464.14,-116.84 458.14,-108.1 457.38,-118.67 464.14,-116.84"/>
</g>
<!-- ax_ang_error_pose_9_mmo_500_ppr_vs_goal -->
<g id="node20" class="node">
<title>ax_ang_error_pose_9_mmo_500_ppr_vs_goal</title>
<ellipse fill="none" stroke="green" cx="918.5" cy="-90" rx="215.56" ry="18"/>
<text text-anchor="middle" x="918.5" y="-86.3" font-family="Times,serif" font-size="14.00">ax_ang_error_pose_9_mmo_500_ppr_vs_goal</text>
</g>
<!-- rotmat_error_pose_9_mmo_500_ppr_vs_goal&#45;&gt;ax_ang_error_pose_9_mmo_500_ppr_vs_goal -->
<g id="edge19" class="edge">
<title>rotmat_error_pose_9_mmo_500_ppr_vs_goal&#45;&gt;ax_ang_error_pose_9_mmo_500_ppr_vs_goal</title>
<path fill="none" stroke="black" d="M914.74,-143.7C915.29,-135.98 915.95,-126.71 916.56,-118.11"/>
<polygon fill="black" stroke="black" points="920.06,-118.33 917.28,-108.1 913.07,-117.83 920.06,-118.33"/>
</g>
<!-- rot_con_pose_9_mmo_500_ppr_vs_goal -->
<g id="node21" class="node">
<title>rot_con_pose_9_mmo_500_ppr_vs_goal</title>
<polygon fill="none" stroke="magenta" points="1136.78,-18 1027.64,-36 809.36,-36 700.22,-18 809.36,0 1027.64,0 1136.78,-18"/>
<text text-anchor="middle" x="918.5" y="-14.3" font-family="Times,serif" font-size="14.00">rot_con_pose_9_mmo_500_ppr_vs_goal</text>
</g>
<!-- ax_ang_error_pose_9_mmo_500_ppr_vs_goal&#45;&gt;rot_con_pose_9_mmo_500_ppr_vs_goal -->
<g id="edge20" class="edge">
<title>ax_ang_error_pose_9_mmo_500_ppr_vs_goal&#45;&gt;rot_con_pose_9_mmo_500_ppr_vs_goal</title>
<path fill="none" stroke="black" d="M918.5,-71.7C918.5,-63.98 918.5,-54.71 918.5,-46.11"/>
<polygon fill="black" stroke="black" points="922,-46.1 918.5,-36.1 915,-46.1 922,-46.1"/>
</g>
</g>
</svg>
