<?xml version="1.0" encoding="UTF-8" standalone="no"?>
<!DOCTYPE svg PUBLIC "-//W3C//DTD SVG 1.1//EN"
 "http://www.w3.org/Graphics/SVG/1.1/DTD/svg11.dtd">
<!-- Generated by graphviz version 2.43.0 (0)
 -->
<!-- Title: %3 Pages: 1 -->
<svg width="2237pt" height="580pt"
 viewBox="0.00 0.00 2236.50 580.00" xmlns="http://www.w3.org/2000/svg" xmlns:xlink="http://www.w3.org/1999/xlink">
<g id="graph0" class="graph" transform="scale(1 1) rotate(0) translate(4 576)">
<title>%3</title>
<polygon fill="white" stroke="transparent" points="-4,4 -4,-576 2232.5,-576 2232.5,4 -4,4"/>
<!-- q_kinova -->
<g id="node1" class="node">
<title>q_kinova</title>
<polygon fill="none" stroke="green" points="1392.15,-382.54 1392.15,-397.46 1359.55,-408 1313.45,-408 1280.85,-397.46 1280.85,-382.54 1313.45,-372 1359.55,-372 1392.15,-382.54"/>
<polygon fill="none" stroke="green" points="1396.15,-379.64 1396.15,-400.36 1360.18,-412 1312.82,-412 1276.85,-400.36 1276.85,-379.64 1312.82,-368 1360.18,-368 1396.15,-379.64"/>
<text text-anchor="middle" x="1336.5" y="-386.3" font-family="Times,serif" font-size="14.00">q_kinova</text>
</g>
<!-- error_q_kinova_jointpos_init_kinova -->
<g id="node5" class="node">
<title>error_q_kinova_jointpos_init_kinova</title>
<ellipse fill="none" stroke="green" cx="1743.5" cy="-310" rx="175.47" ry="18"/>
<text text-anchor="middle" x="1743.5" y="-306.3" font-family="Times,serif" font-size="14.00">error_q_kinova_jointpos_init_kinova</text>
</g>
<!-- q_kinova&#45;&gt;error_q_kinova_jointpos_init_kinova -->
<g id="edge1" class="edge">
<title>q_kinova&#45;&gt;error_q_kinova_jointpos_init_kinova</title>
<path fill="none" stroke="black" d="M1392.24,-378.32C1459.88,-365.35 1574.79,-343.33 1654.68,-328.02"/>
<polygon fill="black" stroke="black" points="1655.57,-331.42 1664.73,-326.1 1654.25,-324.54 1655.57,-331.42"/>
</g>
<!-- limits_q_kinova -->
<g id="node10" class="node">
<title>limits_q_kinova</title>
<polygon fill="none" stroke="magenta" points="1550.12,-310 1502.81,-328 1408.19,-328 1360.88,-310 1408.19,-292 1502.81,-292 1550.12,-310"/>
<text text-anchor="middle" x="1455.5" y="-306.3" font-family="Times,serif" font-size="14.00">limits_q_kinova</text>
</g>
<!-- q_kinova&#45;&gt;limits_q_kinova -->
<g id="edge2" class="edge">
<title>q_kinova&#45;&gt;limits_q_kinova</title>
<path fill="none" stroke="black" d="M1365.92,-369.72C1382.44,-358.89 1403.17,-345.3 1420.53,-333.92"/>
<polygon fill="black" stroke="black" points="1422.81,-336.61 1429.26,-328.2 1418.98,-330.76 1422.81,-336.61"/>
</g>
<!-- pose_7_kinova -->
<g id="node16" class="node">
<title>pose_7_kinova</title>
<ellipse fill="none" stroke="green" cx="1265.5" cy="-310" rx="77.19" ry="18"/>
<text text-anchor="middle" x="1265.5" y="-306.3" font-family="Times,serif" font-size="14.00">pose_7_kinova</text>
</g>
<!-- q_kinova&#45;&gt;pose_7_kinova -->
<g id="edge3" class="edge">
<title>q_kinova&#45;&gt;pose_7_kinova</title>
<path fill="none" stroke="black" d="M1317.1,-367.69C1308,-357.69 1297.12,-345.74 1287.7,-335.38"/>
<polygon fill="black" stroke="black" points="1290.15,-332.88 1280.83,-327.84 1284.97,-337.59 1290.15,-332.88"/>
</g>
<!-- qd_kinova -->
<g id="node2" class="node">
<title>qd_kinova</title>
<polygon fill="none" stroke="green" points="1139.32,-462.54 1139.32,-477.46 1103.11,-488 1051.89,-488 1015.68,-477.46 1015.68,-462.54 1051.89,-452 1103.11,-452 1139.32,-462.54"/>
<polygon fill="none" stroke="green" points="1143.31,-459.54 1143.31,-480.46 1103.68,-492 1051.32,-492 1011.69,-480.46 1011.69,-459.54 1051.32,-448 1103.68,-448 1143.31,-459.54"/>
<text text-anchor="middle" x="1077.5" y="-466.3" font-family="Times,serif" font-size="14.00">qd_kinova</text>
</g>
<!-- qd_kinova&#45;&gt;q_kinova -->
<g id="edge28" class="edge">
<title>qd_kinova&#45;&gt;q_kinova</title>
<path fill="none" stroke="black" stroke-dasharray="5,2" d="M1125.91,-454.42C1169.83,-441.19 1234.58,-421.69 1280.67,-407.81"/>
<polygon fill="black" stroke="black" points="1281.93,-411.09 1290.5,-404.85 1279.92,-404.39 1281.93,-411.09"/>
</g>
<!-- stationary_qd_kinova -->
<g id="node8" class="node">
<title>stationary_qd_kinova</title>
<polygon fill="none" stroke="magenta" points="527.66,-390 465.08,-408 339.92,-408 277.34,-390 339.92,-372 465.08,-372 527.66,-390"/>
<text text-anchor="middle" x="402.5" y="-386.3" font-family="Times,serif" font-size="14.00">stationary_qd_kinova</text>
</g>
<!-- qd_kinova&#45;&gt;stationary_qd_kinova -->
<g id="edge4" class="edge">
<title>qd_kinova&#45;&gt;stationary_qd_kinova</title>
<path fill="none" stroke="black" d="M1011.55,-461.38C892.05,-447.57 639.21,-418.35 499.81,-402.25"/>
<polygon fill="black" stroke="black" points="499.9,-398.73 489.57,-401.06 499.1,-405.69 499.9,-398.73"/>
</g>
<!-- limits_qd_kinova -->
<g id="node12" class="node">
<title>limits_qd_kinova</title>
<polygon fill="none" stroke="magenta" points="859.63,-390 809.07,-408 707.93,-408 657.37,-390 707.93,-372 809.07,-372 859.63,-390"/>
<text text-anchor="middle" x="758.5" y="-386.3" font-family="Times,serif" font-size="14.00">limits_qd_kinova</text>
</g>
<!-- qd_kinova&#45;&gt;limits_qd_kinova -->
<g id="edge5" class="edge">
<title>qd_kinova&#45;&gt;limits_qd_kinova</title>
<path fill="none" stroke="black" d="M1023.75,-455.86C969.53,-442.6 885.65,-422.09 826.76,-407.69"/>
<polygon fill="black" stroke="black" points="827.35,-404.23 816.8,-405.26 825.68,-411.03 827.35,-404.23"/>
</g>
<!-- reg_qd_kinova -->
<g id="node26" class="node">
<title>reg_qd_kinova</title>
<polygon fill="none" stroke="magenta" points="1166.62,-390 1122.06,-408 1032.94,-408 988.38,-390 1032.94,-372 1122.06,-372 1166.62,-390"/>
<text text-anchor="middle" x="1077.5" y="-386.3" font-family="Times,serif" font-size="14.00">reg_qd_kinova</text>
</g>
<!-- qd_kinova&#45;&gt;reg_qd_kinova -->
<g id="edge6" class="edge">
<title>qd_kinova&#45;&gt;reg_qd_kinova</title>
<path fill="none" stroke="black" d="M1077.5,-447.69C1077.5,-438.64 1077.5,-427.99 1077.5,-418.37"/>
<polygon fill="black" stroke="black" points="1081,-418.09 1077.5,-408.09 1074,-418.09 1081,-418.09"/>
</g>
<!-- qdd_kinova -->
<g id="node3" class="node">
<title>qdd_kinova</title>
<polygon fill="none" stroke="cyan" points="1977.97,-542.54 1977.97,-557.46 1937.86,-568 1881.14,-568 1841.03,-557.46 1841.03,-542.54 1881.14,-532 1937.86,-532 1977.97,-542.54"/>
<polygon fill="none" stroke="cyan" points="1981.98,-539.46 1981.98,-560.54 1938.38,-572 1880.62,-572 1837.02,-560.54 1837.02,-539.46 1880.62,-528 1938.38,-528 1981.98,-539.46"/>
<text text-anchor="middle" x="1909.5" y="-546.3" font-family="Times,serif" font-size="14.00">qdd_kinova</text>
</g>
<!-- qdd_kinova&#45;&gt;qd_kinova -->
<g id="edge29" class="edge">
<title>qdd_kinova&#45;&gt;qd_kinova</title>
<path fill="none" stroke="black" stroke-dasharray="5,2" d="M1837.12,-542.21C1680.83,-527.56 1313.04,-493.08 1153.52,-478.13"/>
<polygon fill="black" stroke="black" points="1153.6,-474.62 1143.32,-477.17 1152.95,-481.59 1153.6,-474.62"/>
</g>
<!-- limits_qdd_kinova -->
<g id="node14" class="node">
<title>limits_qdd_kinova</title>
<polygon fill="none" stroke="magenta" points="2017.64,-470 1963.57,-488 1855.43,-488 1801.36,-470 1855.43,-452 1963.57,-452 2017.64,-470"/>
<text text-anchor="middle" x="1909.5" y="-466.3" font-family="Times,serif" font-size="14.00">limits_qdd_kinova</text>
</g>
<!-- qdd_kinova&#45;&gt;limits_qdd_kinova -->
<g id="edge7" class="edge">
<title>qdd_kinova&#45;&gt;limits_qdd_kinova</title>
<path fill="none" stroke="black" d="M1909.5,-527.69C1909.5,-518.64 1909.5,-507.99 1909.5,-498.37"/>
<polygon fill="black" stroke="black" points="1913,-498.09 1909.5,-488.09 1906,-498.09 1913,-498.09"/>
</g>
<!-- reg_qdd_kinova -->
<g id="node28" class="node">
<title>reg_qdd_kinova</title>
<polygon fill="none" stroke="magenta" points="2227.63,-470 2179.56,-488 2083.44,-488 2035.37,-470 2083.44,-452 2179.56,-452 2227.63,-470"/>
<text text-anchor="middle" x="2131.5" y="-466.3" font-family="Times,serif" font-size="14.00">reg_qdd_kinova</text>
</g>
<!-- qdd_kinova&#45;&gt;reg_qdd_kinova -->
<g id="edge8" class="edge">
<title>qdd_kinova&#45;&gt;reg_qdd_kinova</title>
<path fill="none" stroke="black" d="M1956.31,-532.55C1990.52,-520.53 2037.14,-504.15 2073.68,-491.31"/>
<polygon fill="black" stroke="black" points="2074.95,-494.58 2083.22,-487.96 2072.63,-487.98 2074.95,-494.58"/>
</g>
<!-- jointpos_init_kinova -->
<g id="node4" class="node">
<title>jointpos_init_kinova</title>
<polygon fill="none" stroke="red" points="1782.8,-382.54 1782.8,-397.46 1717.6,-408 1625.4,-408 1560.2,-397.46 1560.2,-382.54 1625.4,-372 1717.6,-372 1782.8,-382.54"/>
<polygon fill="none" stroke="red" points="1786.8,-379.14 1786.8,-400.86 1717.92,-412 1625.08,-412 1556.2,-400.86 1556.2,-379.14 1625.08,-368 1717.92,-368 1786.8,-379.14"/>
<text text-anchor="middle" x="1671.5" y="-386.3" font-family="Times,serif" font-size="14.00">jointpos_init_kinova</text>
</g>
<!-- jointpos_init_kinova&#45;&gt;error_q_kinova_jointpos_init_kinova -->
<g id="edge9" class="edge">
<title>jointpos_init_kinova&#45;&gt;error_q_kinova_jointpos_init_kinova</title>
<path fill="none" stroke="black" d="M1691.17,-367.69C1700.33,-357.77 1711.28,-345.91 1720.78,-335.61"/>
<polygon fill="black" stroke="black" points="1723.51,-337.82 1727.72,-328.09 1718.37,-333.07 1723.51,-337.82"/>
</g>
<!-- equality_q_kinova -->
<g id="node6" class="node">
<title>equality_q_kinova</title>
<polygon fill="none" stroke="magenta" points="1850.64,-234 1797.07,-252 1689.93,-252 1636.36,-234 1689.93,-216 1797.07,-216 1850.64,-234"/>
<text text-anchor="middle" x="1743.5" y="-230.3" font-family="Times,serif" font-size="14.00">equality_q_kinova</text>
</g>
<!-- error_q_kinova_jointpos_init_kinova&#45;&gt;equality_q_kinova -->
<g id="edge10" class="edge">
<title>error_q_kinova_jointpos_init_kinova&#45;&gt;equality_q_kinova</title>
<path fill="none" stroke="black" d="M1743.5,-291.84C1743.5,-283.06 1743.5,-272.16 1743.5,-262.27"/>
<polygon fill="black" stroke="black" points="1747,-262.07 1743.5,-252.07 1740,-262.07 1747,-262.07"/>
</g>
<!-- (&#39;initial&#39;, &#39;equality_q_kinova&#39;) -->
<g id="node7" class="node">
<title>(&#39;initial&#39;, &#39;equality_q_kinova&#39;)</title>
<polygon fill="none" stroke="purple" points="1853,-180 1634,-180 1634,-144 1853,-144 1853,-180"/>
<text text-anchor="middle" x="1743.5" y="-158.3" font-family="Times,serif" font-size="14.00">(&#39;initial&#39;, &#39;equality_q_kinova&#39;)</text>
</g>
<!-- equality_q_kinova&#45;&gt;(&#39;initial&#39;, &#39;equality_q_kinova&#39;) -->
<g id="edge11" class="edge">
<title>equality_q_kinova&#45;&gt;(&#39;initial&#39;, &#39;equality_q_kinova&#39;)</title>
<path fill="none" stroke="black" d="M1743.5,-215.7C1743.5,-207.98 1743.5,-198.71 1743.5,-190.11"/>
<polygon fill="black" stroke="black" points="1747,-190.1 1743.5,-180.1 1740,-190.1 1747,-190.1"/>
</g>
<!-- (&#39;initial&#39;, &#39;stationary_qd_kinova&#39;) -->
<g id="node9" class="node">
<title>(&#39;initial&#39;, &#39;stationary_qd_kinova&#39;)</title>
<polygon fill="none" stroke="purple" points="524,-328 281,-328 281,-292 524,-292 524,-328"/>
<text text-anchor="middle" x="402.5" y="-306.3" font-family="Times,serif" font-size="14.00">(&#39;initial&#39;, &#39;stationary_qd_kinova&#39;)</text>
</g>
<!-- stationary_qd_kinova&#45;&gt;(&#39;initial&#39;, &#39;stationary_qd_kinova&#39;) -->
<g id="edge12" class="edge">
<title>stationary_qd_kinova&#45;&gt;(&#39;initial&#39;, &#39;stationary_qd_kinova&#39;)</title>
<path fill="none" stroke="black" d="M402.5,-371.69C402.5,-361.89 402.5,-349.42 402.5,-338.33"/>
<polygon fill="black" stroke="black" points="406,-338.26 402.5,-328.26 399,-338.26 406,-338.26"/>
</g>
<!-- (&#39;terminal&#39;, &#39;stationary_qd_kinova&#39;) -->
<g id="node25" class="node">
<title>(&#39;terminal&#39;, &#39;stationary_qd_kinova&#39;)</title>
<polygon fill="none" stroke="purple" points="263,-328 0,-328 0,-292 263,-292 263,-328"/>
<text text-anchor="middle" x="131.5" y="-306.3" font-family="Times,serif" font-size="14.00">(&#39;terminal&#39;, &#39;stationary_qd_kinova&#39;)</text>
</g>
<!-- stationary_qd_kinova&#45;&gt;(&#39;terminal&#39;, &#39;stationary_qd_kinova&#39;) -->
<g id="edge13" class="edge">
<title>stationary_qd_kinova&#45;&gt;(&#39;terminal&#39;, &#39;stationary_qd_kinova&#39;)</title>
<path fill="none" stroke="black" d="M343.36,-371.98C301.37,-359.89 244.86,-343.63 200.76,-330.93"/>
<polygon fill="black" stroke="black" points="201.56,-327.52 190.98,-328.12 199.62,-334.25 201.56,-327.52"/>
</g>
<!-- (&#39;path&#39;, &#39;limits_q_kinova&#39;) -->
<g id="node11" class="node">
<title>(&#39;path&#39;, &#39;limits_q_kinova&#39;)</title>
<polygon fill="none" stroke="purple" points="1618,-252 1425,-252 1425,-216 1618,-216 1618,-252"/>
<text text-anchor="middle" x="1521.5" y="-230.3" font-family="Times,serif" font-size="14.00">(&#39;path&#39;, &#39;limits_q_kinova&#39;)</text>
</g>
<!-- limits_q_kinova&#45;&gt;(&#39;path&#39;, &#39;limits_q_kinova&#39;) -->
<g id="edge14" class="edge">
<title>limits_q_kinova&#45;&gt;(&#39;path&#39;, &#39;limits_q_kinova&#39;)</title>
<path fill="none" stroke="black" d="M1470.81,-291.84C1479.3,-282.31 1490.02,-270.29 1499.41,-259.76"/>
<polygon fill="black" stroke="black" points="1502.23,-261.86 1506.28,-252.07 1497.01,-257.2 1502.23,-261.86"/>
</g>
<!-- (&#39;path&#39;, &#39;limits_qd_kinova&#39;) -->
<g id="node13" class="node">
<title>(&#39;path&#39;, &#39;limits_qd_kinova&#39;)</title>
<polygon fill="none" stroke="purple" points="744.5,-328 542.5,-328 542.5,-292 744.5,-292 744.5,-328"/>
<text text-anchor="middle" x="643.5" y="-306.3" font-family="Times,serif" font-size="14.00">(&#39;path&#39;, &#39;limits_qd_kinova&#39;)</text>
</g>
<!-- limits_qd_kinova&#45;&gt;(&#39;path&#39;, &#39;limits_qd_kinova&#39;) -->
<g id="edge15" class="edge">
<title>limits_qd_kinova&#45;&gt;(&#39;path&#39;, &#39;limits_qd_kinova&#39;)</title>
<path fill="none" stroke="black" d="M733.26,-371.88C716.79,-360.71 695.08,-345.99 677.14,-333.82"/>
<polygon fill="black" stroke="black" points="678.92,-330.79 668.68,-328.08 674.99,-336.59 678.92,-330.79"/>
</g>
<!-- (&#39;path&#39;, &#39;limits_qdd_kinova&#39;) -->
<g id="node15" class="node">
<title>(&#39;path&#39;, &#39;limits_qdd_kinova&#39;)</title>
<polygon fill="none" stroke="purple" points="2016,-408 1805,-408 1805,-372 2016,-372 2016,-408"/>
<text text-anchor="middle" x="1910.5" y="-386.3" font-family="Times,serif" font-size="14.00">(&#39;path&#39;, &#39;limits_qdd_kinova&#39;)</text>
</g>
<!-- limits_qdd_kinova&#45;&gt;(&#39;path&#39;, &#39;limits_qdd_kinova&#39;) -->
<g id="edge16" class="edge">
<title>limits_qdd_kinova&#45;&gt;(&#39;path&#39;, &#39;limits_qdd_kinova&#39;)</title>
<path fill="none" stroke="black" d="M1909.72,-451.69C1909.85,-441.89 1910.01,-429.42 1910.15,-418.33"/>
<polygon fill="black" stroke="black" points="1913.65,-418.31 1910.28,-408.26 1906.65,-418.22 1913.65,-418.31"/>
</g>
<!-- trans_error_pose_7_kinova_vs_goal -->
<g id="node18" class="node">
<title>trans_error_pose_7_kinova_vs_goal</title>
<ellipse fill="none" stroke="green" cx="1234.5" cy="-234" rx="172.77" ry="18"/>
<text text-anchor="middle" x="1234.5" y="-230.3" font-family="Times,serif" font-size="14.00">trans_error_pose_7_kinova_vs_goal</text>
</g>
<!-- pose_7_kinova&#45;&gt;trans_error_pose_7_kinova_vs_goal -->
<g id="edge17" class="edge">
<title>pose_7_kinova&#45;&gt;trans_error_pose_7_kinova_vs_goal</title>
<path fill="none" stroke="black" d="M1258.31,-291.84C1254.51,-282.78 1249.78,-271.47 1245.53,-261.32"/>
<polygon fill="black" stroke="black" points="1248.74,-259.94 1241.65,-252.07 1242.29,-262.65 1248.74,-259.94"/>
</g>
<!-- rotmat_error_pose_7_kinova_vs_goal -->
<g id="node21" class="node">
<title>rotmat_error_pose_7_kinova_vs_goal</title>
<ellipse fill="none" stroke="green" cx="863.5" cy="-234" rx="180.07" ry="18"/>
<text text-anchor="middle" x="863.5" y="-230.3" font-family="Times,serif" font-size="14.00">rotmat_error_pose_7_kinova_vs_goal</text>
</g>
<!-- pose_7_kinova&#45;&gt;rotmat_error_pose_7_kinova_vs_goal -->
<g id="edge18" class="edge">
<title>pose_7_kinova&#45;&gt;rotmat_error_pose_7_kinova_vs_goal</title>
<path fill="none" stroke="black" d="M1215.03,-296.18C1203.09,-293.33 1190.37,-290.43 1178.5,-288 1109.02,-273.79 1030.35,-260.55 969.01,-250.86"/>
<polygon fill="black" stroke="black" points="969.36,-247.37 958.93,-249.27 968.27,-254.28 969.36,-247.37"/>
</g>
<!-- goal_pose_kinova -->
<g id="node17" class="node">
<title>goal_pose_kinova</title>
<polygon fill="none" stroke="red" points="962.98,-302.54 962.98,-317.46 905.29,-328 823.71,-328 766.02,-317.46 766.02,-302.54 823.71,-292 905.29,-292 962.98,-302.54"/>
<polygon fill="none" stroke="red" points="966.98,-299.21 966.98,-320.79 905.65,-332 823.35,-332 762.02,-320.79 762.02,-299.21 823.35,-288 905.65,-288 966.98,-299.21"/>
<text text-anchor="middle" x="864.5" y="-306.3" font-family="Times,serif" font-size="14.00">goal_pose_kinova</text>
</g>
<!-- goal_pose_kinova&#45;&gt;trans_error_pose_7_kinova_vs_goal -->
<g id="edge19" class="edge">
<title>goal_pose_kinova&#45;&gt;trans_error_pose_7_kinova_vs_goal</title>
<path fill="none" stroke="black" d="M939.38,-294.02C999.91,-281.92 1085.17,-264.87 1148.5,-252.2"/>
<polygon fill="black" stroke="black" points="1149.35,-255.6 1158.47,-250.21 1147.97,-248.74 1149.35,-255.6"/>
</g>
<!-- goal_pose_kinova&#45;&gt;rotmat_error_pose_7_kinova_vs_goal -->
<g id="edge20" class="edge">
<title>goal_pose_kinova&#45;&gt;rotmat_error_pose_7_kinova_vs_goal</title>
<path fill="none" stroke="black" d="M864.22,-287.99C864.11,-280.06 863.99,-270.91 863.87,-262.48"/>
<polygon fill="black" stroke="black" points="867.37,-262.27 863.73,-252.31 860.37,-262.36 867.37,-262.27"/>
</g>
<!-- trans_con_pose_7_kinova_vs_goal -->
<g id="node19" class="node">
<title>trans_con_pose_7_kinova_vs_goal</title>
<polygon fill="none" stroke="magenta" points="1434.25,-162 1338.87,-180 1148.13,-180 1052.75,-162 1148.13,-144 1338.87,-144 1434.25,-162"/>
<text text-anchor="middle" x="1243.5" y="-158.3" font-family="Times,serif" font-size="14.00">trans_con_pose_7_kinova_vs_goal</text>
</g>
<!-- trans_error_pose_7_kinova_vs_goal&#45;&gt;trans_con_pose_7_kinova_vs_goal -->
<g id="edge21" class="edge">
<title>trans_error_pose_7_kinova_vs_goal&#45;&gt;trans_con_pose_7_kinova_vs_goal</title>
<path fill="none" stroke="black" d="M1236.72,-215.7C1237.72,-207.98 1238.91,-198.71 1240.01,-190.11"/>
<polygon fill="black" stroke="black" points="1243.5,-190.47 1241.3,-180.1 1236.55,-189.58 1243.5,-190.47"/>
</g>
<!-- (&#39;terminal&#39;, &#39;trans_con_pose_7_kinova_vs_goal&#39;) -->
<g id="node20" class="node">
<title>(&#39;terminal&#39;, &#39;trans_con_pose_7_kinova_vs_goal&#39;)</title>
<polygon fill="none" stroke="purple" points="1418,-108 1069,-108 1069,-72 1418,-72 1418,-108"/>
<text text-anchor="middle" x="1243.5" y="-86.3" font-family="Times,serif" font-size="14.00">(&#39;terminal&#39;, &#39;trans_con_pose_7_kinova_vs_goal&#39;)</text>
</g>
<!-- trans_con_pose_7_kinova_vs_goal&#45;&gt;(&#39;terminal&#39;, &#39;trans_con_pose_7_kinova_vs_goal&#39;) -->
<g id="edge22" class="edge">
<title>trans_con_pose_7_kinova_vs_goal&#45;&gt;(&#39;terminal&#39;, &#39;trans_con_pose_7_kinova_vs_goal&#39;)</title>
<path fill="none" stroke="black" d="M1243.5,-143.7C1243.5,-135.98 1243.5,-126.71 1243.5,-118.11"/>
<polygon fill="black" stroke="black" points="1247,-118.1 1243.5,-108.1 1240,-118.1 1247,-118.1"/>
</g>
<!-- ax_ang_error_pose_7_kinova_vs_goal -->
<g id="node22" class="node">
<title>ax_ang_error_pose_7_kinova_vs_goal</title>
<ellipse fill="none" stroke="green" cx="854.5" cy="-162" rx="180.87" ry="18"/>
<text text-anchor="middle" x="854.5" y="-158.3" font-family="Times,serif" font-size="14.00">ax_ang_error_pose_7_kinova_vs_goal</text>
</g>
<!-- rotmat_error_pose_7_kinova_vs_goal&#45;&gt;ax_ang_error_pose_7_kinova_vs_goal -->
<g id="edge23" class="edge">
<title>rotmat_error_pose_7_kinova_vs_goal&#45;&gt;ax_ang_error_pose_7_kinova_vs_goal</title>
<path fill="none" stroke="black" d="M861.28,-215.7C860.28,-207.98 859.09,-198.71 857.99,-190.11"/>
<polygon fill="black" stroke="black" points="861.45,-189.58 856.7,-180.1 854.5,-190.47 861.45,-189.58"/>
</g>
<!-- rot_con_pose_7_kinova_vs_goal -->
<g id="node23" class="node">
<title>rot_con_pose_7_kinova_vs_goal</title>
<polygon fill="none" stroke="magenta" points="1032.23,-90 943.37,-108 765.63,-108 676.77,-90 765.63,-72 943.37,-72 1032.23,-90"/>
<text text-anchor="middle" x="854.5" y="-86.3" font-family="Times,serif" font-size="14.00">rot_con_pose_7_kinova_vs_goal</text>
</g>
<!-- ax_ang_error_pose_7_kinova_vs_goal&#45;&gt;rot_con_pose_7_kinova_vs_goal -->
<g id="edge24" class="edge">
<title>ax_ang_error_pose_7_kinova_vs_goal&#45;&gt;rot_con_pose_7_kinova_vs_goal</title>
<path fill="none" stroke="black" d="M854.5,-143.7C854.5,-135.98 854.5,-126.71 854.5,-118.11"/>
<polygon fill="black" stroke="black" points="858,-118.1 854.5,-108.1 851,-118.1 858,-118.1"/>
</g>
<!-- (&#39;terminal&#39;, &#39;rot_con_pose_7_kinova_vs_goal&#39;) -->
<g id="node24" class="node">
<title>(&#39;terminal&#39;, &#39;rot_con_pose_7_kinova_vs_goal&#39;)</title>
<polygon fill="none" stroke="purple" points="1020.5,-36 688.5,-36 688.5,0 1020.5,0 1020.5,-36"/>
<text text-anchor="middle" x="854.5" y="-14.3" font-family="Times,serif" font-size="14.00">(&#39;terminal&#39;, &#39;rot_con_pose_7_kinova_vs_goal&#39;)</text>
</g>
<!-- rot_con_pose_7_kinova_vs_goal&#45;&gt;(&#39;terminal&#39;, &#39;rot_con_pose_7_kinova_vs_goal&#39;) -->
<g id="edge25" class="edge">
<title>rot_con_pose_7_kinova_vs_goal&#45;&gt;(&#39;terminal&#39;, &#39;rot_con_pose_7_kinova_vs_goal&#39;)</title>
<path fill="none" stroke="black" d="M854.5,-71.7C854.5,-63.98 854.5,-54.71 854.5,-46.11"/>
<polygon fill="black" stroke="black" points="858,-46.1 854.5,-36.1 851,-46.1 858,-46.1"/>
</g>
<!-- (&#39;path&#39;, &#39;reg_qd_kinova&#39;) -->
<g id="node27" class="node">
<title>(&#39;path&#39;, &#39;reg_qd_kinova&#39;)</title>
<polygon fill="none" stroke="purple" points="1170,-328 985,-328 985,-292 1170,-292 1170,-328"/>
<text text-anchor="middle" x="1077.5" y="-306.3" font-family="Times,serif" font-size="14.00">(&#39;path&#39;, &#39;reg_qd_kinova&#39;)</text>
</g>
<!-- reg_qd_kinova&#45;&gt;(&#39;path&#39;, &#39;reg_qd_kinova&#39;) -->
<g id="edge26" class="edge">
<title>reg_qd_kinova&#45;&gt;(&#39;path&#39;, &#39;reg_qd_kinova&#39;)</title>
<path fill="none" stroke="black" d="M1077.5,-371.69C1077.5,-361.89 1077.5,-349.42 1077.5,-338.33"/>
<polygon fill="black" stroke="black" points="1081,-338.26 1077.5,-328.26 1074,-338.26 1081,-338.26"/>
</g>
<!-- (&#39;path&#39;, &#39;reg_qdd_kinova&#39;) -->
<g id="node29" class="node">
<title>(&#39;path&#39;, &#39;reg_qdd_kinova&#39;)</title>
<polygon fill="none" stroke="purple" points="2228.5,-408 2034.5,-408 2034.5,-372 2228.5,-372 2228.5,-408"/>
<text text-anchor="middle" x="2131.5" y="-386.3" font-family="Times,serif" font-size="14.00">(&#39;path&#39;, &#39;reg_qdd_kinova&#39;)</text>
</g>
<!-- reg_qdd_kinova&#45;&gt;(&#39;path&#39;, &#39;reg_qdd_kinova&#39;) -->
<g id="edge27" class="edge">
<title>reg_qdd_kinova&#45;&gt;(&#39;path&#39;, &#39;reg_qdd_kinova&#39;)</title>
<path fill="none" stroke="black" d="M2131.5,-451.69C2131.5,-441.89 2131.5,-429.42 2131.5,-418.33"/>
<polygon fill="black" stroke="black" points="2135,-418.26 2131.5,-408.26 2128,-418.26 2135,-418.26"/>
</g>
</g>
</svg>
