<?xml version="1.0" encoding="UTF-8" standalone="no"?>
<!DOCTYPE svg PUBLIC "-//W3C//DTD SVG 1.1//EN"
 "http://www.w3.org/Graphics/SVG/1.1/DTD/svg11.dtd">
<!-- Generated by graphviz version 2.43.0 (0)
 -->
<!-- Title: %3 Pages: 1 -->
<svg width="1967pt" height="580pt"
 viewBox="0.00 0.00 1967.12 580.00" xmlns="http://www.w3.org/2000/svg" xmlns:xlink="http://www.w3.org/1999/xlink">
<g id="graph0" class="graph" transform="scale(1 1) rotate(0) translate(4 576)">
<title>%3</title>
<polygon fill="white" stroke="transparent" points="-4,4 -4,-576 1963.12,-576 1963.12,4 -4,4"/>
<!-- q_kinova -->
<g id="node1" class="node">
<title>q_kinova</title>
<polygon fill="none" stroke="green" points="1047.15,-382.54 1047.15,-397.46 1014.55,-408 968.45,-408 935.85,-397.46 935.85,-382.54 968.45,-372 1014.55,-372 1047.15,-382.54"/>
<polygon fill="none" stroke="green" points="1051.15,-379.64 1051.15,-400.36 1015.18,-412 967.82,-412 931.85,-400.36 931.85,-379.64 967.82,-368 1015.18,-368 1051.15,-379.64"/>
<text text-anchor="middle" x="991.5" y="-386.3" font-family="Times,serif" font-size="14.00">q_kinova</text>
</g>
<!-- error_q_kinova_q_init_kinova -->
<g id="node5" class="node">
<title>error_q_kinova_q_init_kinova</title>
<ellipse fill="none" stroke="green" cx="849.5" cy="-310" rx="144.07" ry="18"/>
<text text-anchor="middle" x="849.5" y="-306.3" font-family="Times,serif" font-size="14.00">error_q_kinova_q_init_kinova</text>
</g>
<!-- q_kinova&#45;&gt;error_q_kinova_q_init_kinova -->
<g id="edge1" class="edge">
<title>q_kinova&#45;&gt;error_q_kinova_q_init_kinova</title>
<path fill="none" stroke="black" d="M958.57,-370.91C937.78,-359.49 910.8,-344.67 888.88,-332.63"/>
<polygon fill="black" stroke="black" points="890.28,-329.41 879.83,-327.66 886.91,-335.54 890.28,-329.41"/>
</g>
<!-- limits_q_kinova -->
<g id="node9" class="node">
<title>limits_q_kinova</title>
<polygon fill="none" stroke="magenta" points="1646.12,-310 1598.81,-328 1504.19,-328 1456.88,-310 1504.19,-292 1598.81,-292 1646.12,-310"/>
<text text-anchor="middle" x="1551.5" y="-306.3" font-family="Times,serif" font-size="14.00">limits_q_kinova</text>
</g>
<!-- q_kinova&#45;&gt;limits_q_kinova -->
<g id="edge2" class="edge">
<title>q_kinova&#45;&gt;limits_q_kinova</title>
<path fill="none" stroke="black" d="M1035.35,-374.3C1043.63,-371.91 1052.28,-369.67 1060.5,-368 1208.54,-337.87 1248.54,-350.27 1398.5,-332 1423.19,-328.99 1450.07,-325.41 1474.31,-322.06"/>
<polygon fill="black" stroke="black" points="1475.1,-325.48 1484.53,-320.64 1474.14,-318.55 1475.1,-325.48"/>
</g>
<!-- pose_7_kinova -->
<g id="node15" class="node">
<title>pose_7_kinova</title>
<ellipse fill="none" stroke="green" cx="1312.5" cy="-310" rx="77.19" ry="18"/>
<text text-anchor="middle" x="1312.5" y="-306.3" font-family="Times,serif" font-size="14.00">pose_7_kinova</text>
</g>
<!-- q_kinova&#45;&gt;pose_7_kinova -->
<g id="edge3" class="edge">
<title>q_kinova&#45;&gt;pose_7_kinova</title>
<path fill="none" stroke="black" d="M1036.26,-374.8C1044.3,-372.42 1052.62,-370.05 1060.5,-368 1133.13,-349.06 1152.35,-348.81 1225.5,-332 1233.77,-330.1 1242.48,-328.05 1251.05,-326.01"/>
<polygon fill="black" stroke="black" points="1252.11,-329.36 1261.02,-323.62 1250.48,-322.55 1252.11,-329.36"/>
</g>
<!-- qd_kinova -->
<g id="node2" class="node">
<title>qd_kinova</title>
<polygon fill="none" stroke="green" points="863.32,-462.54 863.32,-477.46 827.11,-488 775.89,-488 739.68,-477.46 739.68,-462.54 775.89,-452 827.11,-452 863.32,-462.54"/>
<polygon fill="none" stroke="green" points="867.31,-459.54 867.31,-480.46 827.68,-492 775.32,-492 735.69,-480.46 735.69,-459.54 775.32,-448 827.68,-448 867.31,-459.54"/>
<text text-anchor="middle" x="801.5" y="-466.3" font-family="Times,serif" font-size="14.00">qd_kinova</text>
</g>
<!-- qd_kinova&#45;&gt;q_kinova -->
<g id="edge33" class="edge">
<title>qd_kinova&#45;&gt;q_kinova</title>
<path fill="none" stroke="black" stroke-dasharray="5,2" d="M842.73,-452.08C872.2,-439.97 911.97,-423.65 942.98,-410.92"/>
<polygon fill="black" stroke="black" points="944.38,-414.13 952.3,-407.09 941.72,-407.65 944.38,-414.13"/>
</g>
<!-- stationary_qd_kinova -->
<g id="node8" class="node">
<title>stationary_qd_kinova</title>
<polygon fill="none" stroke="magenta" points="260.66,-390 198.08,-408 72.92,-408 10.34,-390 72.92,-372 198.08,-372 260.66,-390"/>
<text text-anchor="middle" x="135.5" y="-386.3" font-family="Times,serif" font-size="14.00">stationary_qd_kinova</text>
</g>
<!-- qd_kinova&#45;&gt;stationary_qd_kinova -->
<g id="edge4" class="edge">
<title>qd_kinova&#45;&gt;stationary_qd_kinova</title>
<path fill="none" stroke="black" d="M735.54,-462.81C635.49,-453.21 439.45,-433.57 273.5,-412 257.48,-409.92 240.44,-407.5 224.01,-405.05"/>
<polygon fill="black" stroke="black" points="224.28,-401.55 213.87,-403.53 223.24,-408.48 224.28,-401.55"/>
</g>
<!-- limits_qd_kinova -->
<g id="node11" class="node">
<title>limits_qd_kinova</title>
<polygon fill="none" stroke="magenta" points="484.63,-390 434.07,-408 332.93,-408 282.37,-390 332.93,-372 434.07,-372 484.63,-390"/>
<text text-anchor="middle" x="383.5" y="-386.3" font-family="Times,serif" font-size="14.00">limits_qd_kinova</text>
</g>
<!-- qd_kinova&#45;&gt;limits_qd_kinova -->
<g id="edge5" class="edge">
<title>qd_kinova&#45;&gt;limits_qd_kinova</title>
<path fill="none" stroke="black" d="M741.17,-457.74C666.47,-443.8 539.26,-420.06 458.4,-404.98"/>
<polygon fill="black" stroke="black" points="458.76,-401.48 448.28,-403.09 457.47,-408.36 458.76,-401.48"/>
</g>
<!-- err_qd_qinit_kinova -->
<g id="node24" class="node">
<title>err_qd_qinit_kinova</title>
<ellipse fill="none" stroke="green" cx="1170.5" cy="-390" rx="101.28" ry="18"/>
<text text-anchor="middle" x="1170.5" y="-386.3" font-family="Times,serif" font-size="14.00">err_qd_qinit_kinova</text>
</g>
<!-- qd_kinova&#45;&gt;err_qd_qinit_kinova -->
<g id="edge6" class="edge">
<title>qd_kinova&#45;&gt;err_qd_qinit_kinova</title>
<path fill="none" stroke="black" d="M858.75,-456.9C923.1,-443.3 1027.71,-421.18 1097.78,-406.37"/>
<polygon fill="black" stroke="black" points="1098.8,-409.73 1107.86,-404.24 1097.36,-402.88 1098.8,-409.73"/>
</g>
<!-- reg_qd_kinova -->
<g id="node31" class="node">
<title>reg_qd_kinova</title>
<polygon fill="none" stroke="magenta" points="699.62,-390 655.06,-408 565.94,-408 521.38,-390 565.94,-372 655.06,-372 699.62,-390"/>
<text text-anchor="middle" x="610.5" y="-386.3" font-family="Times,serif" font-size="14.00">reg_qd_kinova</text>
</g>
<!-- qd_kinova&#45;&gt;reg_qd_kinova -->
<g id="edge7" class="edge">
<title>qd_kinova&#45;&gt;reg_qd_kinova</title>
<path fill="none" stroke="black" d="M760.53,-452.27C731.62,-440.46 692.69,-424.56 661.73,-411.92"/>
<polygon fill="black" stroke="black" points="662.98,-408.65 652.4,-408.11 660.33,-415.13 662.98,-408.65"/>
</g>
<!-- qdd_kinova -->
<g id="node3" class="node">
<title>qdd_kinova</title>
<polygon fill="none" stroke="cyan" points="1462.97,-542.54 1462.97,-557.46 1422.86,-568 1366.14,-568 1326.03,-557.46 1326.03,-542.54 1366.14,-532 1422.86,-532 1462.97,-542.54"/>
<polygon fill="none" stroke="cyan" points="1466.98,-539.46 1466.98,-560.54 1423.38,-572 1365.62,-572 1322.02,-560.54 1322.02,-539.46 1365.62,-528 1423.38,-528 1466.98,-539.46"/>
<text text-anchor="middle" x="1394.5" y="-546.3" font-family="Times,serif" font-size="14.00">qdd_kinova</text>
</g>
<!-- qdd_kinova&#45;&gt;qd_kinova -->
<g id="edge34" class="edge">
<title>qdd_kinova&#45;&gt;qd_kinova</title>
<path fill="none" stroke="black" stroke-dasharray="5,2" d="M1322.08,-539.47C1209.31,-524.64 992.78,-496.16 877.72,-481.03"/>
<polygon fill="black" stroke="black" points="877.96,-477.53 867.59,-479.69 877.05,-484.47 877.96,-477.53"/>
</g>
<!-- limits_qdd_kinova -->
<g id="node13" class="node">
<title>limits_qdd_kinova</title>
<polygon fill="none" stroke="magenta" points="1502.64,-470 1448.57,-488 1340.43,-488 1286.36,-470 1340.43,-452 1448.57,-452 1502.64,-470"/>
<text text-anchor="middle" x="1394.5" y="-466.3" font-family="Times,serif" font-size="14.00">limits_qdd_kinova</text>
</g>
<!-- qdd_kinova&#45;&gt;limits_qdd_kinova -->
<g id="edge8" class="edge">
<title>qdd_kinova&#45;&gt;limits_qdd_kinova</title>
<path fill="none" stroke="black" d="M1394.5,-527.69C1394.5,-518.64 1394.5,-507.99 1394.5,-498.37"/>
<polygon fill="black" stroke="black" points="1398,-498.09 1394.5,-488.09 1391,-498.09 1398,-498.09"/>
</g>
<!-- reg_qdd_kinova -->
<g id="node33" class="node">
<title>reg_qdd_kinova</title>
<polygon fill="none" stroke="magenta" points="1712.63,-470 1664.56,-488 1568.44,-488 1520.37,-470 1568.44,-452 1664.56,-452 1712.63,-470"/>
<text text-anchor="middle" x="1616.5" y="-466.3" font-family="Times,serif" font-size="14.00">reg_qdd_kinova</text>
</g>
<!-- qdd_kinova&#45;&gt;reg_qdd_kinova -->
<g id="edge9" class="edge">
<title>qdd_kinova&#45;&gt;reg_qdd_kinova</title>
<path fill="none" stroke="black" d="M1441.31,-532.55C1475.52,-520.53 1522.14,-504.15 1558.68,-491.31"/>
<polygon fill="black" stroke="black" points="1559.95,-494.58 1568.22,-487.96 1557.63,-487.98 1559.95,-494.58"/>
</g>
<!-- q_init_kinova -->
<g id="node4" class="node">
<title>q_init_kinova</title>
<polygon fill="none" stroke="blue" points="909.77,-382.54 909.77,-397.46 864.51,-408 800.49,-408 755.23,-397.46 755.23,-382.54 800.49,-372 864.51,-372 909.77,-382.54"/>
<polygon fill="none" stroke="blue" points="913.77,-379.37 913.77,-400.63 864.97,-412 800.03,-412 751.23,-400.63 751.23,-379.37 800.03,-368 864.97,-368 913.77,-379.37"/>
<text text-anchor="middle" x="832.5" y="-386.3" font-family="Times,serif" font-size="14.00">q_init_kinova</text>
</g>
<!-- q_init_kinova&#45;&gt;error_q_kinova_q_init_kinova -->
<g id="edge10" class="edge">
<title>q_init_kinova&#45;&gt;error_q_kinova_q_init_kinova</title>
<path fill="none" stroke="black" d="M837.15,-367.69C839.14,-358.54 841.49,-347.76 843.6,-338.06"/>
<polygon fill="black" stroke="black" points="847.06,-338.61 845.77,-328.09 840.23,-337.12 847.06,-338.61"/>
</g>
<!-- equality_q_kinova -->
<g id="node6" class="node">
<title>equality_q_kinova</title>
<polygon fill="none" stroke="magenta" points="742.64,-234 689.07,-252 581.93,-252 528.36,-234 581.93,-216 689.07,-216 742.64,-234"/>
<text text-anchor="middle" x="635.5" y="-230.3" font-family="Times,serif" font-size="14.00">equality_q_kinova</text>
</g>
<!-- error_q_kinova_q_init_kinova&#45;&gt;equality_q_kinova -->
<g id="edge11" class="edge">
<title>error_q_kinova_q_init_kinova&#45;&gt;equality_q_kinova</title>
<path fill="none" stroke="black" d="M803.07,-292.94C771.29,-281.96 728.89,-267.29 694.69,-255.47"/>
<polygon fill="black" stroke="black" points="695.42,-252.02 684.82,-252.06 693.13,-258.63 695.42,-252.02"/>
</g>
<!-- (&#39;initial&#39;, &#39;equality_q_kinova&#39;) -->
<g id="node7" class="node">
<title>(&#39;initial&#39;, &#39;equality_q_kinova&#39;)</title>
<polygon fill="none" stroke="purple" points="718,-180 499,-180 499,-144 718,-144 718,-180"/>
<text text-anchor="middle" x="608.5" y="-158.3" font-family="Times,serif" font-size="14.00">(&#39;initial&#39;, &#39;equality_q_kinova&#39;)</text>
</g>
<!-- equality_q_kinova&#45;&gt;(&#39;initial&#39;, &#39;equality_q_kinova&#39;) -->
<g id="edge12" class="edge">
<title>equality_q_kinova&#45;&gt;(&#39;initial&#39;, &#39;equality_q_kinova&#39;)</title>
<path fill="none" stroke="black" d="M628.83,-215.7C625.79,-207.81 622.12,-198.3 618.74,-189.55"/>
<polygon fill="black" stroke="black" points="621.96,-188.17 615.1,-180.1 615.43,-190.69 621.96,-188.17"/>
</g>
<!-- (&#39;terminal&#39;, &#39;stationary_qd_kinova&#39;) -->
<g id="node22" class="node">
<title>(&#39;terminal&#39;, &#39;stationary_qd_kinova&#39;)</title>
<polygon fill="none" stroke="purple" points="263,-328 0,-328 0,-292 263,-292 263,-328"/>
<text text-anchor="middle" x="131.5" y="-306.3" font-family="Times,serif" font-size="14.00">(&#39;terminal&#39;, &#39;stationary_qd_kinova&#39;)</text>
</g>
<!-- stationary_qd_kinova&#45;&gt;(&#39;terminal&#39;, &#39;stationary_qd_kinova&#39;) -->
<g id="edge13" class="edge">
<title>stationary_qd_kinova&#45;&gt;(&#39;terminal&#39;, &#39;stationary_qd_kinova&#39;)</title>
<path fill="none" stroke="black" d="M134.61,-371.69C134.11,-361.89 133.47,-349.42 132.9,-338.33"/>
<polygon fill="black" stroke="black" points="136.39,-338.07 132.39,-328.26 129.4,-338.43 136.39,-338.07"/>
</g>
<!-- (&#39;path&#39;, &#39;limits_q_kinova&#39;) -->
<g id="node10" class="node">
<title>(&#39;path&#39;, &#39;limits_q_kinova&#39;)</title>
<polygon fill="none" stroke="purple" points="1696,-252 1503,-252 1503,-216 1696,-216 1696,-252"/>
<text text-anchor="middle" x="1599.5" y="-230.3" font-family="Times,serif" font-size="14.00">(&#39;path&#39;, &#39;limits_q_kinova&#39;)</text>
</g>
<!-- limits_q_kinova&#45;&gt;(&#39;path&#39;, &#39;limits_q_kinova&#39;) -->
<g id="edge14" class="edge">
<title>limits_q_kinova&#45;&gt;(&#39;path&#39;, &#39;limits_q_kinova&#39;)</title>
<path fill="none" stroke="black" d="M1562.63,-291.84C1568.63,-282.59 1576.15,-271 1582.83,-260.7"/>
<polygon fill="black" stroke="black" points="1585.92,-262.36 1588.43,-252.07 1580.05,-258.55 1585.92,-262.36"/>
</g>
<!-- (&#39;path&#39;, &#39;limits_qd_kinova&#39;) -->
<g id="node12" class="node">
<title>(&#39;path&#39;, &#39;limits_qd_kinova&#39;)</title>
<polygon fill="none" stroke="purple" points="483.5,-328 281.5,-328 281.5,-292 483.5,-292 483.5,-328"/>
<text text-anchor="middle" x="382.5" y="-306.3" font-family="Times,serif" font-size="14.00">(&#39;path&#39;, &#39;limits_qd_kinova&#39;)</text>
</g>
<!-- limits_qd_kinova&#45;&gt;(&#39;path&#39;, &#39;limits_qd_kinova&#39;) -->
<g id="edge15" class="edge">
<title>limits_qd_kinova&#45;&gt;(&#39;path&#39;, &#39;limits_qd_kinova&#39;)</title>
<path fill="none" stroke="black" d="M383.28,-371.69C383.15,-361.89 382.99,-349.42 382.85,-338.33"/>
<polygon fill="black" stroke="black" points="386.35,-338.22 382.72,-328.26 379.35,-338.31 386.35,-338.22"/>
</g>
<!-- (&#39;path&#39;, &#39;limits_qdd_kinova&#39;) -->
<g id="node14" class="node">
<title>(&#39;path&#39;, &#39;limits_qdd_kinova&#39;)</title>
<polygon fill="none" stroke="purple" points="1501,-408 1290,-408 1290,-372 1501,-372 1501,-408"/>
<text text-anchor="middle" x="1395.5" y="-386.3" font-family="Times,serif" font-size="14.00">(&#39;path&#39;, &#39;limits_qdd_kinova&#39;)</text>
</g>
<!-- limits_qdd_kinova&#45;&gt;(&#39;path&#39;, &#39;limits_qdd_kinova&#39;) -->
<g id="edge16" class="edge">
<title>limits_qdd_kinova&#45;&gt;(&#39;path&#39;, &#39;limits_qdd_kinova&#39;)</title>
<path fill="none" stroke="black" d="M1394.72,-451.69C1394.85,-441.89 1395.01,-429.42 1395.15,-418.33"/>
<polygon fill="black" stroke="black" points="1398.65,-418.31 1395.28,-408.26 1391.65,-418.22 1398.65,-418.31"/>
</g>
<!-- trans_error_pose_7_kinova_vs_goal -->
<g id="node17" class="node">
<title>trans_error_pose_7_kinova_vs_goal</title>
<ellipse fill="none" stroke="green" cx="1312.5" cy="-234" rx="172.77" ry="18"/>
<text text-anchor="middle" x="1312.5" y="-230.3" font-family="Times,serif" font-size="14.00">trans_error_pose_7_kinova_vs_goal</text>
</g>
<!-- pose_7_kinova&#45;&gt;trans_error_pose_7_kinova_vs_goal -->
<g id="edge17" class="edge">
<title>pose_7_kinova&#45;&gt;trans_error_pose_7_kinova_vs_goal</title>
<path fill="none" stroke="black" d="M1312.5,-291.84C1312.5,-283.06 1312.5,-272.16 1312.5,-262.27"/>
<polygon fill="black" stroke="black" points="1316,-262.07 1312.5,-252.07 1309,-262.07 1316,-262.07"/>
</g>
<!-- rotmat_error_pose_7_kinova_vs_goal -->
<g id="node19" class="node">
<title>rotmat_error_pose_7_kinova_vs_goal</title>
<ellipse fill="none" stroke="green" cx="941.5" cy="-234" rx="180.07" ry="18"/>
<text text-anchor="middle" x="941.5" y="-230.3" font-family="Times,serif" font-size="14.00">rotmat_error_pose_7_kinova_vs_goal</text>
</g>
<!-- pose_7_kinova&#45;&gt;rotmat_error_pose_7_kinova_vs_goal -->
<g id="edge18" class="edge">
<title>pose_7_kinova&#45;&gt;rotmat_error_pose_7_kinova_vs_goal</title>
<path fill="none" stroke="black" d="M1262,-296.34C1250.06,-293.47 1237.35,-290.53 1225.5,-288 1163.17,-274.67 1092.73,-261.51 1037.6,-251.64"/>
<polygon fill="black" stroke="black" points="1037.94,-248.15 1027.49,-249.84 1036.72,-255.04 1037.94,-248.15"/>
</g>
<!-- goal_pose_kinova -->
<g id="node16" class="node">
<title>goal_pose_kinova</title>
<polygon fill="none" stroke="blue" points="1212.98,-302.54 1212.98,-317.46 1155.29,-328 1073.71,-328 1016.02,-317.46 1016.02,-302.54 1073.71,-292 1155.29,-292 1212.98,-302.54"/>
<polygon fill="none" stroke="blue" points="1216.98,-299.21 1216.98,-320.79 1155.65,-332 1073.35,-332 1012.02,-320.79 1012.02,-299.21 1073.35,-288 1155.65,-288 1216.98,-299.21"/>
<text text-anchor="middle" x="1114.5" y="-306.3" font-family="Times,serif" font-size="14.00">goal_pose_kinova</text>
</g>
<!-- goal_pose_kinova&#45;&gt;trans_error_pose_7_kinova_vs_goal -->
<g id="edge19" class="edge">
<title>goal_pose_kinova&#45;&gt;trans_error_pose_7_kinova_vs_goal</title>
<path fill="none" stroke="black" d="M1166.01,-289.75C1194.52,-279.09 1229.93,-265.86 1258.79,-255.07"/>
<polygon fill="black" stroke="black" points="1260.16,-258.3 1268.3,-251.52 1257.71,-251.74 1260.16,-258.3"/>
</g>
<!-- goal_pose_kinova&#45;&gt;rotmat_error_pose_7_kinova_vs_goal -->
<g id="edge20" class="edge">
<title>goal_pose_kinova&#45;&gt;rotmat_error_pose_7_kinova_vs_goal</title>
<path fill="none" stroke="black" d="M1067.68,-288.97C1043.57,-278.66 1014.19,-266.09 989.86,-255.69"/>
<polygon fill="black" stroke="black" points="991.03,-252.38 980.46,-251.66 988.28,-258.82 991.03,-252.38"/>
</g>
<!-- trans_con_pose_7_kinova_vs_goal -->
<g id="node18" class="node">
<title>trans_con_pose_7_kinova_vs_goal</title>
<polygon fill="none" stroke="magenta" points="1959.25,-162 1863.87,-180 1673.13,-180 1577.75,-162 1673.13,-144 1863.87,-144 1959.25,-162"/>
<text text-anchor="middle" x="1768.5" y="-158.3" font-family="Times,serif" font-size="14.00">trans_con_pose_7_kinova_vs_goal</text>
</g>
<!-- trans_error_pose_7_kinova_vs_goal&#45;&gt;trans_con_pose_7_kinova_vs_goal -->
<g id="edge21" class="edge">
<title>trans_error_pose_7_kinova_vs_goal&#45;&gt;trans_con_pose_7_kinova_vs_goal</title>
<path fill="none" stroke="black" d="M1405.05,-218.79C1477.55,-207.66 1578.71,-192.13 1655.91,-180.28"/>
<polygon fill="black" stroke="black" points="1656.8,-183.69 1666.15,-178.71 1655.74,-176.77 1656.8,-183.69"/>
</g>
<!-- reg_trans_error_pose_7_kinova_vs_goal -->
<g id="node27" class="node">
<title>reg_trans_error_pose_7_kinova_vs_goal</title>
<polygon fill="none" stroke="magenta" points="1559.79,-162 1448.64,-180 1226.36,-180 1115.21,-162 1226.36,-144 1448.64,-144 1559.79,-162"/>
<text text-anchor="middle" x="1337.5" y="-158.3" font-family="Times,serif" font-size="14.00">reg_trans_error_pose_7_kinova_vs_goal</text>
</g>
<!-- trans_error_pose_7_kinova_vs_goal&#45;&gt;reg_trans_error_pose_7_kinova_vs_goal -->
<g id="edge22" class="edge">
<title>trans_error_pose_7_kinova_vs_goal&#45;&gt;reg_trans_error_pose_7_kinova_vs_goal</title>
<path fill="none" stroke="black" d="M1318.68,-215.7C1321.5,-207.81 1324.89,-198.3 1328.02,-189.55"/>
<polygon fill="black" stroke="black" points="1331.32,-190.7 1331.39,-180.1 1324.73,-188.34 1331.32,-190.7"/>
</g>
<!-- ax_ang_error_pose_7_kinova_vs_goal -->
<g id="node20" class="node">
<title>ax_ang_error_pose_7_kinova_vs_goal</title>
<ellipse fill="none" stroke="green" cx="916.5" cy="-162" rx="180.87" ry="18"/>
<text text-anchor="middle" x="916.5" y="-158.3" font-family="Times,serif" font-size="14.00">ax_ang_error_pose_7_kinova_vs_goal</text>
</g>
<!-- rotmat_error_pose_7_kinova_vs_goal&#45;&gt;ax_ang_error_pose_7_kinova_vs_goal -->
<g id="edge23" class="edge">
<title>rotmat_error_pose_7_kinova_vs_goal&#45;&gt;ax_ang_error_pose_7_kinova_vs_goal</title>
<path fill="none" stroke="black" d="M935.32,-215.7C932.5,-207.81 929.11,-198.3 925.98,-189.55"/>
<polygon fill="black" stroke="black" points="929.27,-188.34 922.61,-180.1 922.68,-190.7 929.27,-188.34"/>
</g>
<!-- rot_con_pose_7_kinova_vs_goal -->
<g id="node21" class="node">
<title>rot_con_pose_7_kinova_vs_goal</title>
<polygon fill="none" stroke="magenta" points="1116.23,-90 1027.37,-108 849.63,-108 760.77,-90 849.63,-72 1027.37,-72 1116.23,-90"/>
<text text-anchor="middle" x="938.5" y="-86.3" font-family="Times,serif" font-size="14.00">rot_con_pose_7_kinova_vs_goal</text>
</g>
<!-- ax_ang_error_pose_7_kinova_vs_goal&#45;&gt;rot_con_pose_7_kinova_vs_goal -->
<g id="edge24" class="edge">
<title>ax_ang_error_pose_7_kinova_vs_goal&#45;&gt;rot_con_pose_7_kinova_vs_goal</title>
<path fill="none" stroke="black" d="M921.94,-143.7C924.39,-135.9 927.34,-126.51 930.07,-117.83"/>
<polygon fill="black" stroke="black" points="933.46,-118.69 933.12,-108.1 926.79,-116.59 933.46,-118.69"/>
</g>
<!-- reg_ax_ang_error_pose_7_kinova_vs_goal -->
<g id="node29" class="node">
<title>reg_ax_ang_error_pose_7_kinova_vs_goal</title>
<polygon fill="none" stroke="magenta" points="742.8,-90 627.15,-108 395.85,-108 280.2,-90 395.85,-72 627.15,-72 742.8,-90"/>
<text text-anchor="middle" x="511.5" y="-86.3" font-family="Times,serif" font-size="14.00">reg_ax_ang_error_pose_7_kinova_vs_goal</text>
</g>
<!-- ax_ang_error_pose_7_kinova_vs_goal&#45;&gt;reg_ax_ang_error_pose_7_kinova_vs_goal -->
<g id="edge25" class="edge">
<title>ax_ang_error_pose_7_kinova_vs_goal&#45;&gt;reg_ax_ang_error_pose_7_kinova_vs_goal</title>
<path fill="none" stroke="black" d="M830.61,-146.15C769.21,-135.54 686.12,-121.18 620.11,-109.77"/>
<polygon fill="black" stroke="black" points="620.54,-106.29 610.09,-108.04 619.35,-113.19 620.54,-106.29"/>
</g>
<!-- qd_init_kinova -->
<g id="node23" class="node">
<title>qd_init_kinova</title>
<polygon fill="none" stroke="blue" points="1254.42,-462.54 1254.42,-477.46 1205.26,-488 1135.74,-488 1086.58,-477.46 1086.58,-462.54 1135.74,-452 1205.26,-452 1254.42,-462.54"/>
<polygon fill="none" stroke="blue" points="1258.43,-459.31 1258.43,-480.69 1205.69,-492 1135.31,-492 1082.57,-480.69 1082.57,-459.31 1135.31,-448 1205.69,-448 1258.43,-459.31"/>
<text text-anchor="middle" x="1170.5" y="-466.3" font-family="Times,serif" font-size="14.00">qd_init_kinova</text>
</g>
<!-- qd_init_kinova&#45;&gt;err_qd_qinit_kinova -->
<g id="edge26" class="edge">
<title>qd_init_kinova&#45;&gt;err_qd_qinit_kinova</title>
<path fill="none" stroke="black" d="M1170.5,-447.69C1170.5,-438.64 1170.5,-427.99 1170.5,-418.37"/>
<polygon fill="black" stroke="black" points="1174,-418.09 1170.5,-408.09 1167,-418.09 1174,-418.09"/>
</g>
<!-- eq_kinova -->
<g id="node25" class="node">
<title>eq_kinova</title>
<polygon fill="none" stroke="magenta" points="1827.59,-310 1795.04,-328 1729.96,-328 1697.41,-310 1729.96,-292 1795.04,-292 1827.59,-310"/>
<text text-anchor="middle" x="1762.5" y="-306.3" font-family="Times,serif" font-size="14.00">eq_kinova</text>
</g>
<!-- err_qd_qinit_kinova&#45;&gt;eq_kinova -->
<g id="edge27" class="edge">
<title>err_qd_qinit_kinova&#45;&gt;eq_kinova</title>
<path fill="none" stroke="black" d="M1233.73,-375.89C1249,-373.01 1265.3,-370.18 1280.5,-368 1446.24,-344.28 1489.82,-356.15 1655.5,-332 1672.33,-329.55 1690.53,-326.23 1707.06,-322.95"/>
<polygon fill="black" stroke="black" points="1708,-326.34 1717.11,-320.93 1706.62,-319.47 1708,-326.34"/>
</g>
<!-- (&#39;initial&#39;, &#39;eq_kinova&#39;) -->
<g id="node26" class="node">
<title>(&#39;initial&#39;, &#39;eq_kinova&#39;)</title>
<polygon fill="none" stroke="purple" points="1877,-252 1714,-252 1714,-216 1877,-216 1877,-252"/>
<text text-anchor="middle" x="1795.5" y="-230.3" font-family="Times,serif" font-size="14.00">(&#39;initial&#39;, &#39;eq_kinova&#39;)</text>
</g>
<!-- eq_kinova&#45;&gt;(&#39;initial&#39;, &#39;eq_kinova&#39;) -->
<g id="edge28" class="edge">
<title>eq_kinova&#45;&gt;(&#39;initial&#39;, &#39;eq_kinova&#39;)</title>
<path fill="none" stroke="black" d="M1770.15,-291.84C1774.19,-282.78 1779.24,-271.47 1783.76,-261.32"/>
<polygon fill="black" stroke="black" points="1787.01,-262.63 1787.89,-252.07 1780.62,-259.78 1787.01,-262.63"/>
</g>
<!-- (&#39;path&#39;, &#39;reg_trans_error_pose_7_kinova_vs_goal&#39;) -->
<g id="node28" class="node">
<title>(&#39;path&#39;, &#39;reg_trans_error_pose_7_kinova_vs_goal&#39;)</title>
<polygon fill="none" stroke="purple" points="1519,-108 1156,-108 1156,-72 1519,-72 1519,-108"/>
<text text-anchor="middle" x="1337.5" y="-86.3" font-family="Times,serif" font-size="14.00">(&#39;path&#39;, &#39;reg_trans_error_pose_7_kinova_vs_goal&#39;)</text>
</g>
<!-- reg_trans_error_pose_7_kinova_vs_goal&#45;&gt;(&#39;path&#39;, &#39;reg_trans_error_pose_7_kinova_vs_goal&#39;) -->
<g id="edge29" class="edge">
<title>reg_trans_error_pose_7_kinova_vs_goal&#45;&gt;(&#39;path&#39;, &#39;reg_trans_error_pose_7_kinova_vs_goal&#39;)</title>
<path fill="none" stroke="black" d="M1337.5,-143.7C1337.5,-135.98 1337.5,-126.71 1337.5,-118.11"/>
<polygon fill="black" stroke="black" points="1341,-118.1 1337.5,-108.1 1334,-118.1 1341,-118.1"/>
</g>
<!-- (&#39;path&#39;, &#39;reg_ax_ang_error_pose_7_kinova_vs_goal&#39;) -->
<g id="node30" class="node">
<title>(&#39;path&#39;, &#39;reg_ax_ang_error_pose_7_kinova_vs_goal&#39;)</title>
<polygon fill="none" stroke="purple" points="699,-36 324,-36 324,0 699,0 699,-36"/>
<text text-anchor="middle" x="511.5" y="-14.3" font-family="Times,serif" font-size="14.00">(&#39;path&#39;, &#39;reg_ax_ang_error_pose_7_kinova_vs_goal&#39;)</text>
</g>
<!-- reg_ax_ang_error_pose_7_kinova_vs_goal&#45;&gt;(&#39;path&#39;, &#39;reg_ax_ang_error_pose_7_kinova_vs_goal&#39;) -->
<g id="edge30" class="edge">
<title>reg_ax_ang_error_pose_7_kinova_vs_goal&#45;&gt;(&#39;path&#39;, &#39;reg_ax_ang_error_pose_7_kinova_vs_goal&#39;)</title>
<path fill="none" stroke="black" d="M511.5,-71.7C511.5,-63.98 511.5,-54.71 511.5,-46.11"/>
<polygon fill="black" stroke="black" points="515,-46.1 511.5,-36.1 508,-46.1 515,-46.1"/>
</g>
<!-- (&#39;path&#39;, &#39;reg_qd_kinova&#39;) -->
<g id="node32" class="node">
<title>(&#39;path&#39;, &#39;reg_qd_kinova&#39;)</title>
<polygon fill="none" stroke="purple" points="687,-328 502,-328 502,-292 687,-292 687,-328"/>
<text text-anchor="middle" x="594.5" y="-306.3" font-family="Times,serif" font-size="14.00">(&#39;path&#39;, &#39;reg_qd_kinova&#39;)</text>
</g>
<!-- reg_qd_kinova&#45;&gt;(&#39;path&#39;, &#39;reg_qd_kinova&#39;) -->
<g id="edge31" class="edge">
<title>reg_qd_kinova&#45;&gt;(&#39;path&#39;, &#39;reg_qd_kinova&#39;)</title>
<path fill="none" stroke="black" d="M606.95,-371.69C604.94,-361.89 602.38,-349.42 600.11,-338.33"/>
<polygon fill="black" stroke="black" points="603.48,-337.36 598.04,-328.26 596.62,-338.76 603.48,-337.36"/>
</g>
<!-- (&#39;path&#39;, &#39;reg_qdd_kinova&#39;) -->
<g id="node34" class="node">
<title>(&#39;path&#39;, &#39;reg_qdd_kinova&#39;)</title>
<polygon fill="none" stroke="purple" points="1713.5,-408 1519.5,-408 1519.5,-372 1713.5,-372 1713.5,-408"/>
<text text-anchor="middle" x="1616.5" y="-386.3" font-family="Times,serif" font-size="14.00">(&#39;path&#39;, &#39;reg_qdd_kinova&#39;)</text>
</g>
<!-- reg_qdd_kinova&#45;&gt;(&#39;path&#39;, &#39;reg_qdd_kinova&#39;) -->
<g id="edge32" class="edge">
<title>reg_qdd_kinova&#45;&gt;(&#39;path&#39;, &#39;reg_qdd_kinova&#39;)</title>
<path fill="none" stroke="black" d="M1616.5,-451.69C1616.5,-441.89 1616.5,-429.42 1616.5,-418.33"/>
<polygon fill="black" stroke="black" points="1620,-418.26 1616.5,-408.26 1613,-418.26 1620,-418.26"/>
</g>
</g>
</svg>
