<?xml version="1.0" encoding="UTF-8" standalone="no"?>
<!DOCTYPE svg PUBLIC "-//W3C//DTD SVG 1.1//EN"
 "http://www.w3.org/Graphics/SVG/1.1/DTD/svg11.dtd">
<!-- Generated by graphviz version 2.43.0 (0)
 -->
<!-- Title: %3 Pages: 1 -->
<svg width="2002pt" height="580pt"
 viewBox="0.00 0.00 2001.68 580.00" xmlns="http://www.w3.org/2000/svg" xmlns:xlink="http://www.w3.org/1999/xlink">
<g id="graph0" class="graph" transform="scale(1 1) rotate(0) translate(4 576)">
<title>%3</title>
<polygon fill="white" stroke="transparent" points="-4,4 -4,-576 1997.68,-576 1997.68,4 -4,4"/>
<!-- q_kinova -->
<g id="node1" class="node">
<title>q_kinova</title>
<polygon fill="none" stroke="green" points="1091.65,-382.54 1091.65,-397.46 1059.05,-408 1012.95,-408 980.35,-397.46 980.35,-382.54 1012.95,-372 1059.05,-372 1091.65,-382.54"/>
<polygon fill="none" stroke="green" points="1095.65,-379.64 1095.65,-400.36 1059.68,-412 1012.32,-412 976.35,-400.36 976.35,-379.64 1012.32,-368 1059.68,-368 1095.65,-379.64"/>
<text text-anchor="middle" x="1036" y="-386.3" font-family="Times,serif" font-size="14.00">q_kinova</text>
</g>
<!-- error_q_kinova_q_init_kinova -->
<g id="node5" class="node">
<title>error_q_kinova_q_init_kinova</title>
<ellipse fill="none" stroke="green" cx="907" cy="-310" rx="144.07" ry="18"/>
<text text-anchor="middle" x="907" y="-306.3" font-family="Times,serif" font-size="14.00">error_q_kinova_q_init_kinova</text>
</g>
<!-- q_kinova&#45;&gt;error_q_kinova_q_init_kinova -->
<g id="edge1" class="edge">
<title>q_kinova&#45;&gt;error_q_kinova_q_init_kinova</title>
<path fill="none" stroke="black" d="M1005.1,-370.32C986.49,-359.06 962.69,-344.67 943.19,-332.89"/>
<polygon fill="black" stroke="black" points="944.94,-329.85 934.57,-327.67 941.32,-335.84 944.94,-329.85"/>
</g>
<!-- limits_q_kinova -->
<g id="node10" class="node">
<title>limits_q_kinova</title>
<polygon fill="none" stroke="magenta" points="1258.62,-310 1211.31,-328 1116.69,-328 1069.38,-310 1116.69,-292 1211.31,-292 1258.62,-310"/>
<text text-anchor="middle" x="1164" y="-306.3" font-family="Times,serif" font-size="14.00">limits_q_kinova</text>
</g>
<!-- q_kinova&#45;&gt;limits_q_kinova -->
<g id="edge2" class="edge">
<title>q_kinova&#45;&gt;limits_q_kinova</title>
<path fill="none" stroke="black" d="M1066.99,-370.12C1085.13,-359.06 1108.14,-345.04 1127.2,-333.43"/>
<polygon fill="black" stroke="black" points="1129.2,-336.3 1135.92,-328.11 1125.56,-330.33 1129.2,-336.3"/>
</g>
<!-- pose_7_kinova -->
<g id="node16" class="node">
<title>pose_7_kinova</title>
<ellipse fill="none" stroke="green" cx="1433" cy="-310" rx="77.19" ry="18"/>
<text text-anchor="middle" x="1433" y="-306.3" font-family="Times,serif" font-size="14.00">pose_7_kinova</text>
</g>
<!-- q_kinova&#45;&gt;pose_7_kinova -->
<g id="edge3" class="edge">
<title>q_kinova&#45;&gt;pose_7_kinova</title>
<path fill="none" stroke="black" d="M1080.32,-374.63C1088.48,-372.24 1096.96,-369.91 1105,-368 1190.97,-347.53 1291.25,-331.18 1358.08,-321.33"/>
<polygon fill="black" stroke="black" points="1358.72,-324.77 1368.1,-319.86 1357.7,-317.85 1358.72,-324.77"/>
</g>
<!-- qd_kinova -->
<g id="node2" class="node">
<title>qd_kinova</title>
<polygon fill="none" stroke="green" points="871.82,-462.54 871.82,-477.46 835.61,-488 784.39,-488 748.18,-477.46 748.18,-462.54 784.39,-452 835.61,-452 871.82,-462.54"/>
<polygon fill="none" stroke="green" points="875.81,-459.54 875.81,-480.46 836.18,-492 783.82,-492 744.19,-480.46 744.19,-459.54 783.82,-448 836.18,-448 875.81,-459.54"/>
<text text-anchor="middle" x="810" y="-466.3" font-family="Times,serif" font-size="14.00">qd_kinova</text>
</g>
<!-- qd_kinova&#45;&gt;q_kinova -->
<g id="edge24" class="edge">
<title>qd_kinova&#45;&gt;q_kinova</title>
<path fill="none" stroke="black" stroke-dasharray="5,2" d="M855.19,-453.4C892.12,-440.66 944.39,-422.62 983.23,-409.21"/>
<polygon fill="black" stroke="black" points="984.49,-412.48 992.8,-405.91 982.21,-405.86 984.49,-412.48"/>
</g>
<!-- stationary_qd_kinova -->
<g id="node8" class="node">
<title>stationary_qd_kinova</title>
<polygon fill="none" stroke="magenta" points="748.16,-390 685.58,-408 560.42,-408 497.84,-390 560.42,-372 685.58,-372 748.16,-390"/>
<text text-anchor="middle" x="623" y="-386.3" font-family="Times,serif" font-size="14.00">stationary_qd_kinova</text>
</g>
<!-- qd_kinova&#45;&gt;stationary_qd_kinova -->
<g id="edge4" class="edge">
<title>qd_kinova&#45;&gt;stationary_qd_kinova</title>
<path fill="none" stroke="black" d="M769.42,-452.08C741.22,-440.31 703.43,-424.55 673.31,-411.98"/>
<polygon fill="black" stroke="black" points="674.4,-408.65 663.82,-408.03 671.7,-415.11 674.4,-408.65"/>
</g>
<!-- limits_qd_kinova -->
<g id="node12" class="node">
<title>limits_qd_kinova</title>
<polygon fill="none" stroke="magenta" points="341.13,-390 290.57,-408 189.43,-408 138.87,-390 189.43,-372 290.57,-372 341.13,-390"/>
<text text-anchor="middle" x="240" y="-386.3" font-family="Times,serif" font-size="14.00">limits_qd_kinova</text>
</g>
<!-- qd_kinova&#45;&gt;limits_qd_kinova -->
<g id="edge5" class="edge">
<title>qd_kinova&#45;&gt;limits_qd_kinova</title>
<path fill="none" stroke="black" d="M744.06,-459.98C639.23,-445.63 434.85,-417.66 321.18,-402.11"/>
<polygon fill="black" stroke="black" points="321.52,-398.62 311.14,-400.74 320.58,-405.56 321.52,-398.62"/>
</g>
<!-- qdd_kinova -->
<g id="node3" class="node">
<title>qdd_kinova</title>
<polygon fill="none" stroke="cyan" points="974.47,-542.54 974.47,-557.46 934.36,-568 877.64,-568 837.53,-557.46 837.53,-542.54 877.64,-532 934.36,-532 974.47,-542.54"/>
<polygon fill="none" stroke="cyan" points="978.48,-539.46 978.48,-560.54 934.88,-572 877.12,-572 833.52,-560.54 833.52,-539.46 877.12,-528 934.88,-528 978.48,-539.46"/>
<text text-anchor="middle" x="906" y="-546.3" font-family="Times,serif" font-size="14.00">qdd_kinova</text>
</g>
<!-- qdd_kinova&#45;&gt;qd_kinova -->
<g id="edge25" class="edge">
<title>qdd_kinova&#45;&gt;qd_kinova</title>
<path fill="none" stroke="black" stroke-dasharray="5,2" d="M880.02,-527.89C868.92,-518.87 855.82,-508.23 843.97,-498.6"/>
<polygon fill="black" stroke="black" points="845.97,-495.71 836,-492.12 841.55,-501.15 845.97,-495.71"/>
</g>
<!-- limits_qdd_kinova -->
<g id="node14" class="node">
<title>limits_qdd_kinova</title>
<polygon fill="none" stroke="magenta" points="1218.14,-470 1164.07,-488 1055.93,-488 1001.86,-470 1055.93,-452 1164.07,-452 1218.14,-470"/>
<text text-anchor="middle" x="1110" y="-466.3" font-family="Times,serif" font-size="14.00">limits_qdd_kinova</text>
</g>
<!-- qdd_kinova&#45;&gt;limits_qdd_kinova -->
<g id="edge6" class="edge">
<title>qdd_kinova&#45;&gt;limits_qdd_kinova</title>
<path fill="none" stroke="black" d="M950.52,-531.98C981.46,-520.15 1022.88,-504.31 1055.76,-491.74"/>
<polygon fill="black" stroke="black" points="1057.14,-494.96 1065.23,-488.12 1054.64,-488.42 1057.14,-494.96"/>
</g>
<!-- q_init_kinova -->
<g id="node4" class="node">
<title>q_init_kinova</title>
<polygon fill="none" stroke="blue" points="954.27,-382.54 954.27,-397.46 909.01,-408 844.99,-408 799.73,-397.46 799.73,-382.54 844.99,-372 909.01,-372 954.27,-382.54"/>
<polygon fill="none" stroke="blue" points="958.27,-379.37 958.27,-400.63 909.47,-412 844.53,-412 795.73,-400.63 795.73,-379.37 844.53,-368 909.47,-368 958.27,-379.37"/>
<text text-anchor="middle" x="877" y="-386.3" font-family="Times,serif" font-size="14.00">q_init_kinova</text>
</g>
<!-- q_init_kinova&#45;&gt;error_q_kinova_q_init_kinova -->
<g id="edge7" class="edge">
<title>q_init_kinova&#45;&gt;error_q_kinova_q_init_kinova</title>
<path fill="none" stroke="black" d="M885.2,-367.69C888.79,-358.35 893.04,-347.3 896.83,-337.44"/>
<polygon fill="black" stroke="black" points="900.1,-338.68 900.43,-328.09 893.57,-336.17 900.1,-338.68"/>
</g>
<!-- equality_q_kinova -->
<g id="node6" class="node">
<title>equality_q_kinova</title>
<polygon fill="none" stroke="magenta" points="1014.14,-234 960.57,-252 853.43,-252 799.86,-234 853.43,-216 960.57,-216 1014.14,-234"/>
<text text-anchor="middle" x="907" y="-230.3" font-family="Times,serif" font-size="14.00">equality_q_kinova</text>
</g>
<!-- error_q_kinova_q_init_kinova&#45;&gt;equality_q_kinova -->
<g id="edge8" class="edge">
<title>error_q_kinova_q_init_kinova&#45;&gt;equality_q_kinova</title>
<path fill="none" stroke="black" d="M907,-291.84C907,-283.06 907,-272.16 907,-262.27"/>
<polygon fill="black" stroke="black" points="910.5,-262.07 907,-252.07 903.5,-262.07 910.5,-262.07"/>
</g>
<!-- (&#39;initial&#39;, &#39;equality_q_kinova&#39;) -->
<g id="node7" class="node">
<title>(&#39;initial&#39;, &#39;equality_q_kinova&#39;)</title>
<polygon fill="none" stroke="purple" points="1016.5,-180 797.5,-180 797.5,-144 1016.5,-144 1016.5,-180"/>
<text text-anchor="middle" x="907" y="-158.3" font-family="Times,serif" font-size="14.00">(&#39;initial&#39;, &#39;equality_q_kinova&#39;)</text>
</g>
<!-- equality_q_kinova&#45;&gt;(&#39;initial&#39;, &#39;equality_q_kinova&#39;) -->
<g id="edge9" class="edge">
<title>equality_q_kinova&#45;&gt;(&#39;initial&#39;, &#39;equality_q_kinova&#39;)</title>
<path fill="none" stroke="black" d="M907,-215.7C907,-207.98 907,-198.71 907,-190.11"/>
<polygon fill="black" stroke="black" points="910.5,-190.1 907,-180.1 903.5,-190.1 910.5,-190.1"/>
</g>
<!-- (&#39;initial&#39;, &#39;stationary_qd_kinova&#39;) -->
<g id="node9" class="node">
<title>(&#39;initial&#39;, &#39;stationary_qd_kinova&#39;)</title>
<polygon fill="none" stroke="purple" points="744.5,-328 501.5,-328 501.5,-292 744.5,-292 744.5,-328"/>
<text text-anchor="middle" x="623" y="-306.3" font-family="Times,serif" font-size="14.00">(&#39;initial&#39;, &#39;stationary_qd_kinova&#39;)</text>
</g>
<!-- stationary_qd_kinova&#45;&gt;(&#39;initial&#39;, &#39;stationary_qd_kinova&#39;) -->
<g id="edge10" class="edge">
<title>stationary_qd_kinova&#45;&gt;(&#39;initial&#39;, &#39;stationary_qd_kinova&#39;)</title>
<path fill="none" stroke="black" d="M623,-371.69C623,-361.89 623,-349.42 623,-338.33"/>
<polygon fill="black" stroke="black" points="626.5,-338.26 623,-328.26 619.5,-338.26 626.5,-338.26"/>
</g>
<!-- (&#39;terminal&#39;, &#39;stationary_qd_kinova&#39;) -->
<g id="node25" class="node">
<title>(&#39;terminal&#39;, &#39;stationary_qd_kinova&#39;)</title>
<polygon fill="none" stroke="purple" points="483.5,-328 220.5,-328 220.5,-292 483.5,-292 483.5,-328"/>
<text text-anchor="middle" x="352" y="-306.3" font-family="Times,serif" font-size="14.00">(&#39;terminal&#39;, &#39;stationary_qd_kinova&#39;)</text>
</g>
<!-- stationary_qd_kinova&#45;&gt;(&#39;terminal&#39;, &#39;stationary_qd_kinova&#39;) -->
<g id="edge11" class="edge">
<title>stationary_qd_kinova&#45;&gt;(&#39;terminal&#39;, &#39;stationary_qd_kinova&#39;)</title>
<path fill="none" stroke="black" d="M563.86,-371.98C521.87,-359.89 465.36,-343.63 421.26,-330.93"/>
<polygon fill="black" stroke="black" points="422.06,-327.52 411.48,-328.12 420.12,-334.25 422.06,-327.52"/>
</g>
<!-- (&#39;path&#39;, &#39;limits_q_kinova&#39;) -->
<g id="node11" class="node">
<title>(&#39;path&#39;, &#39;limits_q_kinova&#39;)</title>
<polygon fill="none" stroke="purple" points="1242.5,-252 1049.5,-252 1049.5,-216 1242.5,-216 1242.5,-252"/>
<text text-anchor="middle" x="1146" y="-230.3" font-family="Times,serif" font-size="14.00">(&#39;path&#39;, &#39;limits_q_kinova&#39;)</text>
</g>
<!-- limits_q_kinova&#45;&gt;(&#39;path&#39;, &#39;limits_q_kinova&#39;) -->
<g id="edge12" class="edge">
<title>limits_q_kinova&#45;&gt;(&#39;path&#39;, &#39;limits_q_kinova&#39;)</title>
<path fill="none" stroke="black" d="M1159.83,-291.84C1157.67,-282.96 1154.98,-271.93 1152.56,-261.95"/>
<polygon fill="black" stroke="black" points="1155.92,-260.96 1150.15,-252.07 1149.11,-262.61 1155.92,-260.96"/>
</g>
<!-- (&#39;path&#39;, &#39;limits_qd_kinova&#39;) -->
<g id="node13" class="node">
<title>(&#39;path&#39;, &#39;limits_qd_kinova&#39;)</title>
<polygon fill="none" stroke="purple" points="202,-328 0,-328 0,-292 202,-292 202,-328"/>
<text text-anchor="middle" x="101" y="-306.3" font-family="Times,serif" font-size="14.00">(&#39;path&#39;, &#39;limits_qd_kinova&#39;)</text>
</g>
<!-- limits_qd_kinova&#45;&gt;(&#39;path&#39;, &#39;limits_qd_kinova&#39;) -->
<g id="edge13" class="edge">
<title>limits_qd_kinova&#45;&gt;(&#39;path&#39;, &#39;limits_qd_kinova&#39;)</title>
<path fill="none" stroke="black" d="M209.5,-371.88C189.13,-360.45 162.15,-345.31 140.19,-332.99"/>
<polygon fill="black" stroke="black" points="141.87,-329.92 131.43,-328.08 138.44,-336.02 141.87,-329.92"/>
</g>
<!-- (&#39;path&#39;, &#39;limits_qdd_kinova&#39;) -->
<g id="node15" class="node">
<title>(&#39;path&#39;, &#39;limits_qdd_kinova&#39;)</title>
<polygon fill="none" stroke="purple" points="1324.5,-408 1113.5,-408 1113.5,-372 1324.5,-372 1324.5,-408"/>
<text text-anchor="middle" x="1219" y="-386.3" font-family="Times,serif" font-size="14.00">(&#39;path&#39;, &#39;limits_qdd_kinova&#39;)</text>
</g>
<!-- limits_qdd_kinova&#45;&gt;(&#39;path&#39;, &#39;limits_qdd_kinova&#39;) -->
<g id="edge14" class="edge">
<title>limits_qdd_kinova&#45;&gt;(&#39;path&#39;, &#39;limits_qdd_kinova&#39;)</title>
<path fill="none" stroke="black" d="M1133.92,-451.88C1149.4,-440.81 1169.74,-426.25 1186.65,-414.15"/>
<polygon fill="black" stroke="black" points="1189.04,-416.74 1195.14,-408.08 1184.97,-411.05 1189.04,-416.74"/>
</g>
<!-- trans_error_pose_7_kinova_vs_goal -->
<g id="node18" class="node">
<title>trans_error_pose_7_kinova_vs_goal</title>
<ellipse fill="none" stroke="green" cx="1433" cy="-234" rx="172.77" ry="18"/>
<text text-anchor="middle" x="1433" y="-230.3" font-family="Times,serif" font-size="14.00">trans_error_pose_7_kinova_vs_goal</text>
</g>
<!-- pose_7_kinova&#45;&gt;trans_error_pose_7_kinova_vs_goal -->
<g id="edge15" class="edge">
<title>pose_7_kinova&#45;&gt;trans_error_pose_7_kinova_vs_goal</title>
<path fill="none" stroke="black" d="M1433,-291.84C1433,-283.06 1433,-272.16 1433,-262.27"/>
<polygon fill="black" stroke="black" points="1436.5,-262.07 1433,-252.07 1429.5,-262.07 1436.5,-262.07"/>
</g>
<!-- rotmat_error_pose_7_kinova_vs_goal -->
<g id="node21" class="node">
<title>rotmat_error_pose_7_kinova_vs_goal</title>
<ellipse fill="none" stroke="green" cx="1804" cy="-234" rx="180.07" ry="18"/>
<text text-anchor="middle" x="1804" y="-230.3" font-family="Times,serif" font-size="14.00">rotmat_error_pose_7_kinova_vs_goal</text>
</g>
<!-- pose_7_kinova&#45;&gt;rotmat_error_pose_7_kinova_vs_goal -->
<g id="edge16" class="edge">
<title>pose_7_kinova&#45;&gt;rotmat_error_pose_7_kinova_vs_goal</title>
<path fill="none" stroke="black" d="M1489.75,-297.68C1550.31,-285.6 1646.98,-266.32 1717.13,-252.33"/>
<polygon fill="black" stroke="black" points="1718.16,-255.69 1727.28,-250.3 1716.79,-248.83 1718.16,-255.69"/>
</g>
<!-- goal_pose_kinova -->
<g id="node17" class="node">
<title>goal_pose_kinova</title>
<polygon fill="none" stroke="blue" points="1816.48,-302.54 1816.48,-317.46 1758.79,-328 1677.21,-328 1619.52,-317.46 1619.52,-302.54 1677.21,-292 1758.79,-292 1816.48,-302.54"/>
<polygon fill="none" stroke="blue" points="1820.48,-299.21 1820.48,-320.79 1759.15,-332 1676.85,-332 1615.52,-320.79 1615.52,-299.21 1676.85,-288 1759.15,-288 1820.48,-299.21"/>
<text text-anchor="middle" x="1718" y="-306.3" font-family="Times,serif" font-size="14.00">goal_pose_kinova</text>
</g>
<!-- goal_pose_kinova&#45;&gt;trans_error_pose_7_kinova_vs_goal -->
<g id="edge17" class="edge">
<title>goal_pose_kinova&#45;&gt;trans_error_pose_7_kinova_vs_goal</title>
<path fill="none" stroke="black" d="M1653.33,-292.21C1608.96,-280.69 1550.06,-265.4 1504.33,-253.52"/>
<polygon fill="black" stroke="black" points="1505.04,-250.09 1494.48,-250.96 1503.28,-256.87 1505.04,-250.09"/>
</g>
<!-- goal_pose_kinova&#45;&gt;rotmat_error_pose_7_kinova_vs_goal -->
<g id="edge18" class="edge">
<title>goal_pose_kinova&#45;&gt;rotmat_error_pose_7_kinova_vs_goal</title>
<path fill="none" stroke="black" d="M1742.41,-287.99C1753.04,-278.85 1765.55,-268.09 1776.5,-258.66"/>
<polygon fill="black" stroke="black" points="1778.86,-261.25 1784.16,-252.07 1774.3,-255.94 1778.86,-261.25"/>
</g>
<!-- trans_con_pose_7_kinova_vs_goal -->
<g id="node19" class="node">
<title>trans_con_pose_7_kinova_vs_goal</title>
<polygon fill="none" stroke="magenta" points="1614.75,-162 1519.37,-180 1328.63,-180 1233.25,-162 1328.63,-144 1519.37,-144 1614.75,-162"/>
<text text-anchor="middle" x="1424" y="-158.3" font-family="Times,serif" font-size="14.00">trans_con_pose_7_kinova_vs_goal</text>
</g>
<!-- trans_error_pose_7_kinova_vs_goal&#45;&gt;trans_con_pose_7_kinova_vs_goal -->
<g id="edge19" class="edge">
<title>trans_error_pose_7_kinova_vs_goal&#45;&gt;trans_con_pose_7_kinova_vs_goal</title>
<path fill="none" stroke="black" d="M1430.78,-215.7C1429.78,-207.98 1428.59,-198.71 1427.49,-190.11"/>
<polygon fill="black" stroke="black" points="1430.95,-189.58 1426.2,-180.1 1424,-190.47 1430.95,-189.58"/>
</g>
<!-- (&#39;terminal&#39;, &#39;trans_con_pose_7_kinova_vs_goal&#39;) -->
<g id="node20" class="node">
<title>(&#39;terminal&#39;, &#39;trans_con_pose_7_kinova_vs_goal&#39;)</title>
<polygon fill="none" stroke="purple" points="1598.5,-108 1249.5,-108 1249.5,-72 1598.5,-72 1598.5,-108"/>
<text text-anchor="middle" x="1424" y="-86.3" font-family="Times,serif" font-size="14.00">(&#39;terminal&#39;, &#39;trans_con_pose_7_kinova_vs_goal&#39;)</text>
</g>
<!-- trans_con_pose_7_kinova_vs_goal&#45;&gt;(&#39;terminal&#39;, &#39;trans_con_pose_7_kinova_vs_goal&#39;) -->
<g id="edge20" class="edge">
<title>trans_con_pose_7_kinova_vs_goal&#45;&gt;(&#39;terminal&#39;, &#39;trans_con_pose_7_kinova_vs_goal&#39;)</title>
<path fill="none" stroke="black" d="M1424,-143.7C1424,-135.98 1424,-126.71 1424,-118.11"/>
<polygon fill="black" stroke="black" points="1427.5,-118.1 1424,-108.1 1420.5,-118.1 1427.5,-118.1"/>
</g>
<!-- ax_ang_error_pose_7_kinova_vs_goal -->
<g id="node22" class="node">
<title>ax_ang_error_pose_7_kinova_vs_goal</title>
<ellipse fill="none" stroke="green" cx="1813" cy="-162" rx="180.87" ry="18"/>
<text text-anchor="middle" x="1813" y="-158.3" font-family="Times,serif" font-size="14.00">ax_ang_error_pose_7_kinova_vs_goal</text>
</g>
<!-- rotmat_error_pose_7_kinova_vs_goal&#45;&gt;ax_ang_error_pose_7_kinova_vs_goal -->
<g id="edge21" class="edge">
<title>rotmat_error_pose_7_kinova_vs_goal&#45;&gt;ax_ang_error_pose_7_kinova_vs_goal</title>
<path fill="none" stroke="black" d="M1806.22,-215.7C1807.22,-207.98 1808.41,-198.71 1809.51,-190.11"/>
<polygon fill="black" stroke="black" points="1813,-190.47 1810.8,-180.1 1806.05,-189.58 1813,-190.47"/>
</g>
<!-- rot_con_pose_7_kinova_vs_goal -->
<g id="node23" class="node">
<title>rot_con_pose_7_kinova_vs_goal</title>
<polygon fill="none" stroke="magenta" points="1990.73,-90 1901.87,-108 1724.13,-108 1635.27,-90 1724.13,-72 1901.87,-72 1990.73,-90"/>
<text text-anchor="middle" x="1813" y="-86.3" font-family="Times,serif" font-size="14.00">rot_con_pose_7_kinova_vs_goal</text>
</g>
<!-- ax_ang_error_pose_7_kinova_vs_goal&#45;&gt;rot_con_pose_7_kinova_vs_goal -->
<g id="edge22" class="edge">
<title>ax_ang_error_pose_7_kinova_vs_goal&#45;&gt;rot_con_pose_7_kinova_vs_goal</title>
<path fill="none" stroke="black" d="M1813,-143.7C1813,-135.98 1813,-126.71 1813,-118.11"/>
<polygon fill="black" stroke="black" points="1816.5,-118.1 1813,-108.1 1809.5,-118.1 1816.5,-118.1"/>
</g>
<!-- (&#39;terminal&#39;, &#39;rot_con_pose_7_kinova_vs_goal&#39;) -->
<g id="node24" class="node">
<title>(&#39;terminal&#39;, &#39;rot_con_pose_7_kinova_vs_goal&#39;)</title>
<polygon fill="none" stroke="purple" points="1979,-36 1647,-36 1647,0 1979,0 1979,-36"/>
<text text-anchor="middle" x="1813" y="-14.3" font-family="Times,serif" font-size="14.00">(&#39;terminal&#39;, &#39;rot_con_pose_7_kinova_vs_goal&#39;)</text>
</g>
<!-- rot_con_pose_7_kinova_vs_goal&#45;&gt;(&#39;terminal&#39;, &#39;rot_con_pose_7_kinova_vs_goal&#39;) -->
<g id="edge23" class="edge">
<title>rot_con_pose_7_kinova_vs_goal&#45;&gt;(&#39;terminal&#39;, &#39;rot_con_pose_7_kinova_vs_goal&#39;)</title>
<path fill="none" stroke="black" d="M1813,-71.7C1813,-63.98 1813,-54.71 1813,-46.11"/>
<polygon fill="black" stroke="black" points="1816.5,-46.1 1813,-36.1 1809.5,-46.1 1816.5,-46.1"/>
</g>
</g>
</svg>
