<?xml version="1.0" encoding="UTF-8" standalone="no"?>
<!DOCTYPE svg PUBLIC "-//W3C//DTD SVG 1.1//EN"
 "http://www.w3.org/Graphics/SVG/1.1/DTD/svg11.dtd">
<!-- Generated by graphviz version 2.43.0 (0)
 -->
<!-- Title: %3 Pages: 1 -->
<svg width="2049pt" height="580pt"
 viewBox="0.00 0.00 2048.68 580.00" xmlns="http://www.w3.org/2000/svg" xmlns:xlink="http://www.w3.org/1999/xlink">
<g id="graph0" class="graph" transform="scale(1 1) rotate(0) translate(4 576)">
<title>%3</title>
<polygon fill="white" stroke="transparent" points="-4,4 -4,-576 2044.68,-576 2044.68,4 -4,4"/>
<!-- q_kinova -->
<g id="node1" class="node">
<title>q_kinova</title>
<polygon fill="none" stroke="green" points="1157.65,-382.54 1157.65,-397.46 1125.05,-408 1078.95,-408 1046.35,-397.46 1046.35,-382.54 1078.95,-372 1125.05,-372 1157.65,-382.54"/>
<polygon fill="none" stroke="green" points="1161.65,-379.64 1161.65,-400.36 1125.68,-412 1078.32,-412 1042.35,-400.36 1042.35,-379.64 1078.32,-368 1125.68,-368 1161.65,-379.64"/>
<text text-anchor="middle" x="1102" y="-386.3" font-family="Times,serif" font-size="14.00">q_kinova</text>
</g>
<!-- error_q_kinova_jointpos_init_kinova -->
<g id="node5" class="node">
<title>error_q_kinova_jointpos_init_kinova</title>
<ellipse fill="none" stroke="green" cx="938" cy="-310" rx="175.47" ry="18"/>
<text text-anchor="middle" x="938" y="-306.3" font-family="Times,serif" font-size="14.00">error_q_kinova_jointpos_init_kinova</text>
</g>
<!-- q_kinova&#45;&gt;error_q_kinova_jointpos_init_kinova -->
<g id="edge1" class="edge">
<title>q_kinova&#45;&gt;error_q_kinova_jointpos_init_kinova</title>
<path fill="none" stroke="black" d="M1066.01,-371.88C1041.4,-360.18 1008.63,-344.59 982.4,-332.12"/>
<polygon fill="black" stroke="black" points="983.6,-328.81 973.06,-327.68 980.59,-335.13 983.6,-328.81"/>
</g>
<!-- limits_q_kinova -->
<g id="node10" class="node">
<title>limits_q_kinova</title>
<polygon fill="none" stroke="magenta" points="1320.62,-310 1273.31,-328 1178.69,-328 1131.38,-310 1178.69,-292 1273.31,-292 1320.62,-310"/>
<text text-anchor="middle" x="1226" y="-306.3" font-family="Times,serif" font-size="14.00">limits_q_kinova</text>
</g>
<!-- q_kinova&#45;&gt;limits_q_kinova -->
<g id="edge2" class="edge">
<title>q_kinova&#45;&gt;limits_q_kinova</title>
<path fill="none" stroke="black" d="M1132.33,-369.92C1149.83,-358.91 1171.93,-345.01 1190.27,-333.48"/>
<polygon fill="black" stroke="black" points="1192.33,-336.31 1198.93,-328.03 1188.61,-330.39 1192.33,-336.31"/>
</g>
<!-- pose_7_kinova -->
<g id="node16" class="node">
<title>pose_7_kinova</title>
<ellipse fill="none" stroke="green" cx="1480" cy="-310" rx="77.19" ry="18"/>
<text text-anchor="middle" x="1480" y="-306.3" font-family="Times,serif" font-size="14.00">pose_7_kinova</text>
</g>
<!-- q_kinova&#45;&gt;pose_7_kinova -->
<g id="edge3" class="edge">
<title>q_kinova&#45;&gt;pose_7_kinova</title>
<path fill="none" stroke="black" d="M1146.71,-374.59C1154.75,-372.23 1163.09,-369.93 1171,-368 1250.83,-348.56 1343.68,-332.26 1406.6,-322.14"/>
<polygon fill="black" stroke="black" points="1407.5,-325.54 1416.83,-320.51 1406.4,-318.63 1407.5,-325.54"/>
</g>
<!-- qd_kinova -->
<g id="node2" class="node">
<title>qd_kinova</title>
<polygon fill="none" stroke="green" points="905.82,-462.54 905.82,-477.46 869.61,-488 818.39,-488 782.18,-477.46 782.18,-462.54 818.39,-452 869.61,-452 905.82,-462.54"/>
<polygon fill="none" stroke="green" points="909.81,-459.54 909.81,-480.46 870.18,-492 817.82,-492 778.19,-480.46 778.19,-459.54 817.82,-448 870.18,-448 909.81,-459.54"/>
<text text-anchor="middle" x="844" y="-466.3" font-family="Times,serif" font-size="14.00">qd_kinova</text>
</g>
<!-- qd_kinova&#45;&gt;q_kinova -->
<g id="edge24" class="edge">
<title>qd_kinova&#45;&gt;q_kinova</title>
<path fill="none" stroke="black" stroke-dasharray="5,2" d="M892.57,-454.39C930.75,-442.89 985.28,-426.46 1033,-412 1037.36,-410.68 1041.88,-409.31 1046.43,-407.93"/>
<polygon fill="black" stroke="black" points="1047.8,-411.17 1056.35,-404.91 1045.77,-404.47 1047.8,-411.17"/>
</g>
<!-- stationary_qd_kinova -->
<g id="node8" class="node">
<title>stationary_qd_kinova</title>
<polygon fill="none" stroke="magenta" points="748.16,-390 685.58,-408 560.42,-408 497.84,-390 560.42,-372 685.58,-372 748.16,-390"/>
<text text-anchor="middle" x="623" y="-386.3" font-family="Times,serif" font-size="14.00">stationary_qd_kinova</text>
</g>
<!-- qd_kinova&#45;&gt;stationary_qd_kinova -->
<g id="edge4" class="edge">
<title>qd_kinova&#45;&gt;stationary_qd_kinova</title>
<path fill="none" stroke="black" d="M799.54,-453.31C765.41,-441.26 718,-424.53 680.9,-411.44"/>
<polygon fill="black" stroke="black" points="681.81,-408.05 671.22,-408.02 679.48,-414.65 681.81,-408.05"/>
</g>
<!-- limits_qd_kinova -->
<g id="node12" class="node">
<title>limits_qd_kinova</title>
<polygon fill="none" stroke="magenta" points="341.13,-390 290.57,-408 189.43,-408 138.87,-390 189.43,-372 290.57,-372 341.13,-390"/>
<text text-anchor="middle" x="240" y="-386.3" font-family="Times,serif" font-size="14.00">limits_qd_kinova</text>
</g>
<!-- qd_kinova&#45;&gt;limits_qd_kinova -->
<g id="edge5" class="edge">
<title>qd_kinova&#45;&gt;limits_qd_kinova</title>
<path fill="none" stroke="black" d="M777.92,-460.47C666.87,-446.13 443.1,-417.23 322.12,-401.61"/>
<polygon fill="black" stroke="black" points="322.53,-398.13 312.17,-400.32 321.64,-405.07 322.53,-398.13"/>
</g>
<!-- qdd_kinova -->
<g id="node3" class="node">
<title>qdd_kinova</title>
<polygon fill="none" stroke="cyan" points="1008.47,-542.54 1008.47,-557.46 968.36,-568 911.64,-568 871.53,-557.46 871.53,-542.54 911.64,-532 968.36,-532 1008.47,-542.54"/>
<polygon fill="none" stroke="cyan" points="1012.48,-539.46 1012.48,-560.54 968.88,-572 911.12,-572 867.52,-560.54 867.52,-539.46 911.12,-528 968.88,-528 1012.48,-539.46"/>
<text text-anchor="middle" x="940" y="-546.3" font-family="Times,serif" font-size="14.00">qdd_kinova</text>
</g>
<!-- qdd_kinova&#45;&gt;qd_kinova -->
<g id="edge25" class="edge">
<title>qdd_kinova&#45;&gt;qd_kinova</title>
<path fill="none" stroke="black" stroke-dasharray="5,2" d="M914.02,-527.89C902.92,-518.87 889.82,-508.23 877.97,-498.6"/>
<polygon fill="black" stroke="black" points="879.97,-495.71 870,-492.12 875.55,-501.15 879.97,-495.71"/>
</g>
<!-- limits_qdd_kinova -->
<g id="node14" class="node">
<title>limits_qdd_kinova</title>
<polygon fill="none" stroke="magenta" points="1268.14,-470 1214.07,-488 1105.93,-488 1051.86,-470 1105.93,-452 1214.07,-452 1268.14,-470"/>
<text text-anchor="middle" x="1160" y="-466.3" font-family="Times,serif" font-size="14.00">limits_qdd_kinova</text>
</g>
<!-- qdd_kinova&#45;&gt;limits_qdd_kinova -->
<g id="edge6" class="edge">
<title>qdd_kinova&#45;&gt;limits_qdd_kinova</title>
<path fill="none" stroke="black" d="M986.39,-532.55C1020.18,-520.57 1066.17,-504.27 1102.33,-491.45"/>
<polygon fill="black" stroke="black" points="1103.52,-494.74 1111.77,-488.1 1101.18,-488.14 1103.52,-494.74"/>
</g>
<!-- jointpos_init_kinova -->
<g id="node4" class="node">
<title>jointpos_init_kinova</title>
<polygon fill="none" stroke="red" points="1020.3,-382.54 1020.3,-397.46 955.1,-408 862.9,-408 797.7,-397.46 797.7,-382.54 862.9,-372 955.1,-372 1020.3,-382.54"/>
<polygon fill="none" stroke="red" points="1024.3,-379.14 1024.3,-400.86 955.42,-412 862.58,-412 793.7,-400.86 793.7,-379.14 862.58,-368 955.42,-368 1024.3,-379.14"/>
<text text-anchor="middle" x="909" y="-386.3" font-family="Times,serif" font-size="14.00">jointpos_init_kinova</text>
</g>
<!-- jointpos_init_kinova&#45;&gt;error_q_kinova_jointpos_init_kinova -->
<g id="edge7" class="edge">
<title>jointpos_init_kinova&#45;&gt;error_q_kinova_jointpos_init_kinova</title>
<path fill="none" stroke="black" d="M916.92,-367.69C920.36,-358.45 924.42,-347.53 928.05,-337.75"/>
<polygon fill="black" stroke="black" points="931.44,-338.69 931.64,-328.09 924.88,-336.25 931.44,-338.69"/>
</g>
<!-- equality_q_kinova -->
<g id="node6" class="node">
<title>equality_q_kinova</title>
<polygon fill="none" stroke="magenta" points="1045.14,-234 991.57,-252 884.43,-252 830.86,-234 884.43,-216 991.57,-216 1045.14,-234"/>
<text text-anchor="middle" x="938" y="-230.3" font-family="Times,serif" font-size="14.00">equality_q_kinova</text>
</g>
<!-- error_q_kinova_jointpos_init_kinova&#45;&gt;equality_q_kinova -->
<g id="edge8" class="edge">
<title>error_q_kinova_jointpos_init_kinova&#45;&gt;equality_q_kinova</title>
<path fill="none" stroke="black" d="M938,-291.84C938,-283.06 938,-272.16 938,-262.27"/>
<polygon fill="black" stroke="black" points="941.5,-262.07 938,-252.07 934.5,-262.07 941.5,-262.07"/>
</g>
<!-- (&#39;initial&#39;, &#39;equality_q_kinova&#39;) -->
<g id="node7" class="node">
<title>(&#39;initial&#39;, &#39;equality_q_kinova&#39;)</title>
<polygon fill="none" stroke="purple" points="1047.5,-180 828.5,-180 828.5,-144 1047.5,-144 1047.5,-180"/>
<text text-anchor="middle" x="938" y="-158.3" font-family="Times,serif" font-size="14.00">(&#39;initial&#39;, &#39;equality_q_kinova&#39;)</text>
</g>
<!-- equality_q_kinova&#45;&gt;(&#39;initial&#39;, &#39;equality_q_kinova&#39;) -->
<g id="edge9" class="edge">
<title>equality_q_kinova&#45;&gt;(&#39;initial&#39;, &#39;equality_q_kinova&#39;)</title>
<path fill="none" stroke="black" d="M938,-215.7C938,-207.98 938,-198.71 938,-190.11"/>
<polygon fill="black" stroke="black" points="941.5,-190.1 938,-180.1 934.5,-190.1 941.5,-190.1"/>
</g>
<!-- (&#39;initial&#39;, &#39;stationary_qd_kinova&#39;) -->
<g id="node9" class="node">
<title>(&#39;initial&#39;, &#39;stationary_qd_kinova&#39;)</title>
<polygon fill="none" stroke="purple" points="744.5,-328 501.5,-328 501.5,-292 744.5,-292 744.5,-328"/>
<text text-anchor="middle" x="623" y="-306.3" font-family="Times,serif" font-size="14.00">(&#39;initial&#39;, &#39;stationary_qd_kinova&#39;)</text>
</g>
<!-- stationary_qd_kinova&#45;&gt;(&#39;initial&#39;, &#39;stationary_qd_kinova&#39;) -->
<g id="edge10" class="edge">
<title>stationary_qd_kinova&#45;&gt;(&#39;initial&#39;, &#39;stationary_qd_kinova&#39;)</title>
<path fill="none" stroke="black" d="M623,-371.69C623,-361.89 623,-349.42 623,-338.33"/>
<polygon fill="black" stroke="black" points="626.5,-338.26 623,-328.26 619.5,-338.26 626.5,-338.26"/>
</g>
<!-- (&#39;terminal&#39;, &#39;stationary_qd_kinova&#39;) -->
<g id="node25" class="node">
<title>(&#39;terminal&#39;, &#39;stationary_qd_kinova&#39;)</title>
<polygon fill="none" stroke="purple" points="483.5,-328 220.5,-328 220.5,-292 483.5,-292 483.5,-328"/>
<text text-anchor="middle" x="352" y="-306.3" font-family="Times,serif" font-size="14.00">(&#39;terminal&#39;, &#39;stationary_qd_kinova&#39;)</text>
</g>
<!-- stationary_qd_kinova&#45;&gt;(&#39;terminal&#39;, &#39;stationary_qd_kinova&#39;) -->
<g id="edge11" class="edge">
<title>stationary_qd_kinova&#45;&gt;(&#39;terminal&#39;, &#39;stationary_qd_kinova&#39;)</title>
<path fill="none" stroke="black" d="M563.86,-371.98C521.87,-359.89 465.36,-343.63 421.26,-330.93"/>
<polygon fill="black" stroke="black" points="422.06,-327.52 411.48,-328.12 420.12,-334.25 422.06,-327.52"/>
</g>
<!-- (&#39;path&#39;, &#39;limits_q_kinova&#39;) -->
<g id="node11" class="node">
<title>(&#39;path&#39;, &#39;limits_q_kinova&#39;)</title>
<polygon fill="none" stroke="purple" points="1289.5,-252 1096.5,-252 1096.5,-216 1289.5,-216 1289.5,-252"/>
<text text-anchor="middle" x="1193" y="-230.3" font-family="Times,serif" font-size="14.00">(&#39;path&#39;, &#39;limits_q_kinova&#39;)</text>
</g>
<!-- limits_q_kinova&#45;&gt;(&#39;path&#39;, &#39;limits_q_kinova&#39;) -->
<g id="edge12" class="edge">
<title>limits_q_kinova&#45;&gt;(&#39;path&#39;, &#39;limits_q_kinova&#39;)</title>
<path fill="none" stroke="black" d="M1218.35,-291.84C1214.31,-282.78 1209.26,-271.47 1204.74,-261.32"/>
<polygon fill="black" stroke="black" points="1207.88,-259.78 1200.61,-252.07 1201.49,-262.63 1207.88,-259.78"/>
</g>
<!-- (&#39;path&#39;, &#39;limits_qd_kinova&#39;) -->
<g id="node13" class="node">
<title>(&#39;path&#39;, &#39;limits_qd_kinova&#39;)</title>
<polygon fill="none" stroke="purple" points="202,-328 0,-328 0,-292 202,-292 202,-328"/>
<text text-anchor="middle" x="101" y="-306.3" font-family="Times,serif" font-size="14.00">(&#39;path&#39;, &#39;limits_qd_kinova&#39;)</text>
</g>
<!-- limits_qd_kinova&#45;&gt;(&#39;path&#39;, &#39;limits_qd_kinova&#39;) -->
<g id="edge13" class="edge">
<title>limits_qd_kinova&#45;&gt;(&#39;path&#39;, &#39;limits_qd_kinova&#39;)</title>
<path fill="none" stroke="black" d="M209.5,-371.88C189.13,-360.45 162.15,-345.31 140.19,-332.99"/>
<polygon fill="black" stroke="black" points="141.87,-329.92 131.43,-328.08 138.44,-336.02 141.87,-329.92"/>
</g>
<!-- (&#39;path&#39;, &#39;limits_qdd_kinova&#39;) -->
<g id="node15" class="node">
<title>(&#39;path&#39;, &#39;limits_qdd_kinova&#39;)</title>
<polygon fill="none" stroke="purple" points="1390.5,-408 1179.5,-408 1179.5,-372 1390.5,-372 1390.5,-408"/>
<text text-anchor="middle" x="1285" y="-386.3" font-family="Times,serif" font-size="14.00">(&#39;path&#39;, &#39;limits_qdd_kinova&#39;)</text>
</g>
<!-- limits_qdd_kinova&#45;&gt;(&#39;path&#39;, &#39;limits_qdd_kinova&#39;) -->
<g id="edge14" class="edge">
<title>limits_qdd_kinova&#45;&gt;(&#39;path&#39;, &#39;limits_qdd_kinova&#39;)</title>
<path fill="none" stroke="black" d="M1187.43,-451.88C1205.51,-440.6 1229.36,-425.72 1248.96,-413.49"/>
<polygon fill="black" stroke="black" points="1251,-416.34 1257.63,-408.08 1247.3,-410.4 1251,-416.34"/>
</g>
<!-- trans_error_pose_7_kinova_vs_goal -->
<g id="node18" class="node">
<title>trans_error_pose_7_kinova_vs_goal</title>
<ellipse fill="none" stroke="green" cx="1480" cy="-234" rx="172.77" ry="18"/>
<text text-anchor="middle" x="1480" y="-230.3" font-family="Times,serif" font-size="14.00">trans_error_pose_7_kinova_vs_goal</text>
</g>
<!-- pose_7_kinova&#45;&gt;trans_error_pose_7_kinova_vs_goal -->
<g id="edge15" class="edge">
<title>pose_7_kinova&#45;&gt;trans_error_pose_7_kinova_vs_goal</title>
<path fill="none" stroke="black" d="M1480,-291.84C1480,-283.06 1480,-272.16 1480,-262.27"/>
<polygon fill="black" stroke="black" points="1483.5,-262.07 1480,-252.07 1476.5,-262.07 1483.5,-262.07"/>
</g>
<!-- rotmat_error_pose_7_kinova_vs_goal -->
<g id="node21" class="node">
<title>rotmat_error_pose_7_kinova_vs_goal</title>
<ellipse fill="none" stroke="green" cx="1851" cy="-234" rx="180.07" ry="18"/>
<text text-anchor="middle" x="1851" y="-230.3" font-family="Times,serif" font-size="14.00">rotmat_error_pose_7_kinova_vs_goal</text>
</g>
<!-- pose_7_kinova&#45;&gt;rotmat_error_pose_7_kinova_vs_goal -->
<g id="edge16" class="edge">
<title>pose_7_kinova&#45;&gt;rotmat_error_pose_7_kinova_vs_goal</title>
<path fill="none" stroke="black" d="M1536.75,-297.68C1597.31,-285.6 1693.98,-266.32 1764.13,-252.33"/>
<polygon fill="black" stroke="black" points="1765.16,-255.69 1774.28,-250.3 1763.79,-248.83 1765.16,-255.69"/>
</g>
<!-- goal_pose_kinova -->
<g id="node17" class="node">
<title>goal_pose_kinova</title>
<polygon fill="none" stroke="red" points="1863.48,-302.54 1863.48,-317.46 1805.79,-328 1724.21,-328 1666.52,-317.46 1666.52,-302.54 1724.21,-292 1805.79,-292 1863.48,-302.54"/>
<polygon fill="none" stroke="red" points="1867.48,-299.21 1867.48,-320.79 1806.15,-332 1723.85,-332 1662.52,-320.79 1662.52,-299.21 1723.85,-288 1806.15,-288 1867.48,-299.21"/>
<text text-anchor="middle" x="1765" y="-306.3" font-family="Times,serif" font-size="14.00">goal_pose_kinova</text>
</g>
<!-- goal_pose_kinova&#45;&gt;trans_error_pose_7_kinova_vs_goal -->
<g id="edge17" class="edge">
<title>goal_pose_kinova&#45;&gt;trans_error_pose_7_kinova_vs_goal</title>
<path fill="none" stroke="black" d="M1700.33,-292.21C1655.96,-280.69 1597.06,-265.4 1551.33,-253.52"/>
<polygon fill="black" stroke="black" points="1552.04,-250.09 1541.48,-250.96 1550.28,-256.87 1552.04,-250.09"/>
</g>
<!-- goal_pose_kinova&#45;&gt;rotmat_error_pose_7_kinova_vs_goal -->
<g id="edge18" class="edge">
<title>goal_pose_kinova&#45;&gt;rotmat_error_pose_7_kinova_vs_goal</title>
<path fill="none" stroke="black" d="M1789.41,-287.99C1800.04,-278.85 1812.55,-268.09 1823.5,-258.66"/>
<polygon fill="black" stroke="black" points="1825.86,-261.25 1831.16,-252.07 1821.3,-255.94 1825.86,-261.25"/>
</g>
<!-- trans_con_pose_7_kinova_vs_goal -->
<g id="node19" class="node">
<title>trans_con_pose_7_kinova_vs_goal</title>
<polygon fill="none" stroke="magenta" points="1661.75,-162 1566.37,-180 1375.63,-180 1280.25,-162 1375.63,-144 1566.37,-144 1661.75,-162"/>
<text text-anchor="middle" x="1471" y="-158.3" font-family="Times,serif" font-size="14.00">trans_con_pose_7_kinova_vs_goal</text>
</g>
<!-- trans_error_pose_7_kinova_vs_goal&#45;&gt;trans_con_pose_7_kinova_vs_goal -->
<g id="edge19" class="edge">
<title>trans_error_pose_7_kinova_vs_goal&#45;&gt;trans_con_pose_7_kinova_vs_goal</title>
<path fill="none" stroke="black" d="M1477.78,-215.7C1476.78,-207.98 1475.59,-198.71 1474.49,-190.11"/>
<polygon fill="black" stroke="black" points="1477.95,-189.58 1473.2,-180.1 1471,-190.47 1477.95,-189.58"/>
</g>
<!-- (&#39;terminal&#39;, &#39;trans_con_pose_7_kinova_vs_goal&#39;) -->
<g id="node20" class="node">
<title>(&#39;terminal&#39;, &#39;trans_con_pose_7_kinova_vs_goal&#39;)</title>
<polygon fill="none" stroke="purple" points="1645.5,-108 1296.5,-108 1296.5,-72 1645.5,-72 1645.5,-108"/>
<text text-anchor="middle" x="1471" y="-86.3" font-family="Times,serif" font-size="14.00">(&#39;terminal&#39;, &#39;trans_con_pose_7_kinova_vs_goal&#39;)</text>
</g>
<!-- trans_con_pose_7_kinova_vs_goal&#45;&gt;(&#39;terminal&#39;, &#39;trans_con_pose_7_kinova_vs_goal&#39;) -->
<g id="edge20" class="edge">
<title>trans_con_pose_7_kinova_vs_goal&#45;&gt;(&#39;terminal&#39;, &#39;trans_con_pose_7_kinova_vs_goal&#39;)</title>
<path fill="none" stroke="black" d="M1471,-143.7C1471,-135.98 1471,-126.71 1471,-118.11"/>
<polygon fill="black" stroke="black" points="1474.5,-118.1 1471,-108.1 1467.5,-118.1 1474.5,-118.1"/>
</g>
<!-- ax_ang_error_pose_7_kinova_vs_goal -->
<g id="node22" class="node">
<title>ax_ang_error_pose_7_kinova_vs_goal</title>
<ellipse fill="none" stroke="green" cx="1860" cy="-162" rx="180.87" ry="18"/>
<text text-anchor="middle" x="1860" y="-158.3" font-family="Times,serif" font-size="14.00">ax_ang_error_pose_7_kinova_vs_goal</text>
</g>
<!-- rotmat_error_pose_7_kinova_vs_goal&#45;&gt;ax_ang_error_pose_7_kinova_vs_goal -->
<g id="edge21" class="edge">
<title>rotmat_error_pose_7_kinova_vs_goal&#45;&gt;ax_ang_error_pose_7_kinova_vs_goal</title>
<path fill="none" stroke="black" d="M1853.22,-215.7C1854.22,-207.98 1855.41,-198.71 1856.51,-190.11"/>
<polygon fill="black" stroke="black" points="1860,-190.47 1857.8,-180.1 1853.05,-189.58 1860,-190.47"/>
</g>
<!-- rot_con_pose_7_kinova_vs_goal -->
<g id="node23" class="node">
<title>rot_con_pose_7_kinova_vs_goal</title>
<polygon fill="none" stroke="magenta" points="2037.73,-90 1948.87,-108 1771.13,-108 1682.27,-90 1771.13,-72 1948.87,-72 2037.73,-90"/>
<text text-anchor="middle" x="1860" y="-86.3" font-family="Times,serif" font-size="14.00">rot_con_pose_7_kinova_vs_goal</text>
</g>
<!-- ax_ang_error_pose_7_kinova_vs_goal&#45;&gt;rot_con_pose_7_kinova_vs_goal -->
<g id="edge22" class="edge">
<title>ax_ang_error_pose_7_kinova_vs_goal&#45;&gt;rot_con_pose_7_kinova_vs_goal</title>
<path fill="none" stroke="black" d="M1860,-143.7C1860,-135.98 1860,-126.71 1860,-118.11"/>
<polygon fill="black" stroke="black" points="1863.5,-118.1 1860,-108.1 1856.5,-118.1 1863.5,-118.1"/>
</g>
<!-- (&#39;terminal&#39;, &#39;rot_con_pose_7_kinova_vs_goal&#39;) -->
<g id="node24" class="node">
<title>(&#39;terminal&#39;, &#39;rot_con_pose_7_kinova_vs_goal&#39;)</title>
<polygon fill="none" stroke="purple" points="2026,-36 1694,-36 1694,0 2026,0 2026,-36"/>
<text text-anchor="middle" x="1860" y="-14.3" font-family="Times,serif" font-size="14.00">(&#39;terminal&#39;, &#39;rot_con_pose_7_kinova_vs_goal&#39;)</text>
</g>
<!-- rot_con_pose_7_kinova_vs_goal&#45;&gt;(&#39;terminal&#39;, &#39;rot_con_pose_7_kinova_vs_goal&#39;) -->
<g id="edge23" class="edge">
<title>rot_con_pose_7_kinova_vs_goal&#45;&gt;(&#39;terminal&#39;, &#39;rot_con_pose_7_kinova_vs_goal&#39;)</title>
<path fill="none" stroke="black" d="M1860,-71.7C1860,-63.98 1860,-54.71 1860,-46.11"/>
<polygon fill="black" stroke="black" points="1863.5,-46.1 1860,-36.1 1856.5,-46.1 1863.5,-46.1"/>
</g>
</g>
</svg>
