<?xml version="1.0" encoding="UTF-8" standalone="no"?>
<!DOCTYPE svg PUBLIC "-//W3C//DTD SVG 1.1//EN"
 "http://www.w3.org/Graphics/SVG/1.1/DTD/svg11.dtd">
<!-- Generated by graphviz version 2.43.0 (0)
 -->
<!-- Title: %3 Pages: 1 -->
<svg width="1810pt" height="508pt"
 viewBox="0.00 0.00 1810.00 508.00" xmlns="http://www.w3.org/2000/svg" xmlns:xlink="http://www.w3.org/1999/xlink">
<g id="graph0" class="graph" transform="scale(1 1) rotate(0) translate(4 504)">
<title>%3</title>
<polygon fill="white" stroke="transparent" points="-4,4 -4,-504 1806,-504 1806,4 -4,4"/>
<!-- q_kinova -->
<g id="node1" class="node">
<title>q_kinova</title>
<polygon fill="none" stroke="green" points="677.15,-310.54 677.15,-325.46 644.55,-336 598.45,-336 565.85,-325.46 565.85,-310.54 598.45,-300 644.55,-300 677.15,-310.54"/>
<polygon fill="none" stroke="green" points="681.15,-307.64 681.15,-328.36 645.18,-340 597.82,-340 561.85,-328.36 561.85,-307.64 597.82,-296 645.18,-296 681.15,-307.64"/>
<text text-anchor="middle" x="621.5" y="-314.3" font-family="Times,serif" font-size="14.00">q_kinova</text>
</g>
<!-- error_q_kinova_q_init_kinova -->
<g id="node5" class="node">
<title>error_q_kinova_q_init_kinova</title>
<ellipse fill="none" stroke="green" cx="932.5" cy="-238" rx="144.07" ry="18"/>
<text text-anchor="middle" x="932.5" y="-234.3" font-family="Times,serif" font-size="14.00">error_q_kinova_q_init_kinova</text>
</g>
<!-- q_kinova&#45;&gt;error_q_kinova_q_init_kinova -->
<g id="edge1" class="edge">
<title>q_kinova&#45;&gt;error_q_kinova_q_init_kinova</title>
<path fill="none" stroke="black" d="M671.47,-304.47C722.92,-291.56 803.56,-271.34 861.6,-256.78"/>
<polygon fill="black" stroke="black" points="862.59,-260.14 871.44,-254.32 860.89,-253.35 862.59,-260.14"/>
</g>
<!-- limits_q_kinova -->
<g id="node9" class="node">
<title>limits_q_kinova</title>
<polygon fill="none" stroke="magenta" points="326.12,-238 278.81,-256 184.19,-256 136.88,-238 184.19,-220 278.81,-220 326.12,-238"/>
<text text-anchor="middle" x="231.5" y="-234.3" font-family="Times,serif" font-size="14.00">limits_q_kinova</text>
</g>
<!-- q_kinova&#45;&gt;limits_q_kinova -->
<g id="edge2" class="edge">
<title>q_kinova&#45;&gt;limits_q_kinova</title>
<path fill="none" stroke="black" d="M566.45,-305.99C497.12,-292.12 377.92,-268.28 301.99,-253.1"/>
<polygon fill="black" stroke="black" points="302.53,-249.64 292.04,-251.11 301.16,-256.5 302.53,-249.64"/>
</g>
<!-- pose_7_kinova -->
<g id="node15" class="node">
<title>pose_7_kinova</title>
<ellipse fill="none" stroke="green" cx="469.5" cy="-238" rx="77.19" ry="18"/>
<text text-anchor="middle" x="469.5" y="-234.3" font-family="Times,serif" font-size="14.00">pose_7_kinova</text>
</g>
<!-- q_kinova&#45;&gt;pose_7_kinova -->
<g id="edge3" class="edge">
<title>q_kinova&#45;&gt;pose_7_kinova</title>
<path fill="none" stroke="black" d="M587.01,-299.3C563.79,-287.38 533.1,-271.64 508.92,-259.23"/>
<polygon fill="black" stroke="black" points="510.49,-256.1 499.99,-254.65 507.29,-262.33 510.49,-256.1"/>
</g>
<!-- qd_kinova -->
<g id="node2" class="node">
<title>qd_kinova</title>
<polygon fill="none" stroke="green" points="1410.32,-390.54 1410.32,-405.46 1374.11,-416 1322.89,-416 1286.68,-405.46 1286.68,-390.54 1322.89,-380 1374.11,-380 1410.32,-390.54"/>
<polygon fill="none" stroke="green" points="1414.31,-387.54 1414.31,-408.46 1374.68,-420 1322.32,-420 1282.69,-408.46 1282.69,-387.54 1322.32,-376 1374.68,-376 1414.31,-387.54"/>
<text text-anchor="middle" x="1348.5" y="-394.3" font-family="Times,serif" font-size="14.00">qd_kinova</text>
</g>
<!-- qd_kinova&#45;&gt;q_kinova -->
<g id="edge21" class="edge">
<title>qd_kinova&#45;&gt;q_kinova</title>
<path fill="none" stroke="black" stroke-dasharray="5,2" d="M1282.38,-389.91C1145.36,-375.21 831.54,-341.54 691.37,-326.5"/>
<polygon fill="black" stroke="black" points="691.49,-322.99 681.17,-325.4 690.74,-329.95 691.49,-322.99"/>
</g>
<!-- stationary_qd_kinova -->
<g id="node8" class="node">
<title>stationary_qd_kinova</title>
<polygon fill="none" stroke="magenta" points="1351.66,-318 1289.08,-336 1163.92,-336 1101.34,-318 1163.92,-300 1289.08,-300 1351.66,-318"/>
<text text-anchor="middle" x="1226.5" y="-314.3" font-family="Times,serif" font-size="14.00">stationary_qd_kinova</text>
</g>
<!-- qd_kinova&#45;&gt;stationary_qd_kinova -->
<g id="edge4" class="edge">
<title>qd_kinova&#45;&gt;stationary_qd_kinova</title>
<path fill="none" stroke="black" d="M1317.71,-377.32C1300.76,-366.48 1279.65,-352.98 1262,-341.7"/>
<polygon fill="black" stroke="black" points="1263.44,-338.46 1253.13,-336.03 1259.67,-344.36 1263.44,-338.46"/>
</g>
<!-- limits_qd_kinova -->
<g id="node11" class="node">
<title>limits_qd_kinova</title>
<polygon fill="none" stroke="magenta" points="1572.63,-318 1522.07,-336 1420.93,-336 1370.37,-318 1420.93,-300 1522.07,-300 1572.63,-318"/>
<text text-anchor="middle" x="1471.5" y="-314.3" font-family="Times,serif" font-size="14.00">limits_qd_kinova</text>
</g>
<!-- qd_kinova&#45;&gt;limits_qd_kinova -->
<g id="edge5" class="edge">
<title>qd_kinova&#45;&gt;limits_qd_kinova</title>
<path fill="none" stroke="black" d="M1379.54,-377.32C1396.79,-366.38 1418.31,-352.73 1436.2,-341.39"/>
<polygon fill="black" stroke="black" points="1438.08,-344.34 1444.65,-336.03 1434.33,-338.43 1438.08,-344.34"/>
</g>
<!-- qdd_kinova -->
<g id="node3" class="node">
<title>qdd_kinova</title>
<polygon fill="none" stroke="cyan" points="1512.97,-470.54 1512.97,-485.46 1472.86,-496 1416.14,-496 1376.03,-485.46 1376.03,-470.54 1416.14,-460 1472.86,-460 1512.97,-470.54"/>
<polygon fill="none" stroke="cyan" points="1516.98,-467.46 1516.98,-488.54 1473.38,-500 1415.62,-500 1372.02,-488.54 1372.02,-467.46 1415.62,-456 1473.38,-456 1516.98,-467.46"/>
<text text-anchor="middle" x="1444.5" y="-474.3" font-family="Times,serif" font-size="14.00">qdd_kinova</text>
</g>
<!-- qdd_kinova&#45;&gt;qd_kinova -->
<g id="edge22" class="edge">
<title>qdd_kinova&#45;&gt;qd_kinova</title>
<path fill="none" stroke="black" stroke-dasharray="5,2" d="M1418.52,-455.89C1407.42,-446.87 1394.32,-436.23 1382.47,-426.6"/>
<polygon fill="black" stroke="black" points="1384.47,-423.71 1374.5,-420.12 1380.05,-429.15 1384.47,-423.71"/>
</g>
<!-- limits_qdd_kinova -->
<g id="node13" class="node">
<title>limits_qdd_kinova</title>
<polygon fill="none" stroke="magenta" points="1726.64,-398 1672.57,-416 1564.43,-416 1510.36,-398 1564.43,-380 1672.57,-380 1726.64,-398"/>
<text text-anchor="middle" x="1618.5" y="-394.3" font-family="Times,serif" font-size="14.00">limits_qdd_kinova</text>
</g>
<!-- qdd_kinova&#45;&gt;limits_qdd_kinova -->
<g id="edge6" class="edge">
<title>qdd_kinova&#45;&gt;limits_qdd_kinova</title>
<path fill="none" stroke="black" d="M1484.86,-458.91C1510.63,-447.36 1544.16,-432.33 1571.18,-420.21"/>
<polygon fill="black" stroke="black" points="1572.76,-423.34 1580.45,-416.06 1569.89,-416.95 1572.76,-423.34"/>
</g>
<!-- q_init_kinova -->
<g id="node4" class="node">
<title>q_init_kinova</title>
<polygon fill="none" stroke="blue" points="1009.77,-310.54 1009.77,-325.46 964.51,-336 900.49,-336 855.23,-325.46 855.23,-310.54 900.49,-300 964.51,-300 1009.77,-310.54"/>
<polygon fill="none" stroke="blue" points="1013.77,-307.37 1013.77,-328.63 964.97,-340 900.03,-340 851.23,-328.63 851.23,-307.37 900.03,-296 964.97,-296 1013.77,-307.37"/>
<text text-anchor="middle" x="932.5" y="-314.3" font-family="Times,serif" font-size="14.00">q_init_kinova</text>
</g>
<!-- q_init_kinova&#45;&gt;error_q_kinova_q_init_kinova -->
<g id="edge7" class="edge">
<title>q_init_kinova&#45;&gt;error_q_kinova_q_init_kinova</title>
<path fill="none" stroke="black" d="M932.5,-295.69C932.5,-286.64 932.5,-275.99 932.5,-266.37"/>
<polygon fill="black" stroke="black" points="936,-266.09 932.5,-256.09 929,-266.09 936,-266.09"/>
</g>
<!-- equality_q_kinova -->
<g id="node6" class="node">
<title>equality_q_kinova</title>
<polygon fill="none" stroke="magenta" points="1168.64,-162 1115.07,-180 1007.93,-180 954.36,-162 1007.93,-144 1115.07,-144 1168.64,-162"/>
<text text-anchor="middle" x="1061.5" y="-158.3" font-family="Times,serif" font-size="14.00">equality_q_kinova</text>
</g>
<!-- error_q_kinova_q_init_kinova&#45;&gt;equality_q_kinova -->
<g id="edge8" class="edge">
<title>error_q_kinova_q_init_kinova&#45;&gt;equality_q_kinova</title>
<path fill="none" stroke="black" d="M961.77,-220.21C979.82,-209.85 1003.18,-196.45 1022.75,-185.23"/>
<polygon fill="black" stroke="black" points="1024.52,-188.25 1031.45,-180.24 1021.03,-182.18 1024.52,-188.25"/>
</g>
<!-- (&#39;initial&#39;, &#39;equality_q_kinova&#39;) -->
<g id="node7" class="node">
<title>(&#39;initial&#39;, &#39;equality_q_kinova&#39;)</title>
<polygon fill="none" stroke="purple" points="1172,-108 953,-108 953,-72 1172,-72 1172,-108"/>
<text text-anchor="middle" x="1062.5" y="-86.3" font-family="Times,serif" font-size="14.00">(&#39;initial&#39;, &#39;equality_q_kinova&#39;)</text>
</g>
<!-- equality_q_kinova&#45;&gt;(&#39;initial&#39;, &#39;equality_q_kinova&#39;) -->
<g id="edge9" class="edge">
<title>equality_q_kinova&#45;&gt;(&#39;initial&#39;, &#39;equality_q_kinova&#39;)</title>
<path fill="none" stroke="black" d="M1061.75,-143.7C1061.86,-135.98 1061.99,-126.71 1062.11,-118.11"/>
<polygon fill="black" stroke="black" points="1065.61,-118.15 1062.26,-108.1 1058.61,-118.05 1065.61,-118.15"/>
</g>
<!-- (&#39;terminal&#39;, &#39;stationary_qd_kinova&#39;) -->
<g id="node22" class="node">
<title>(&#39;terminal&#39;, &#39;stationary_qd_kinova&#39;)</title>
<polygon fill="none" stroke="purple" points="1358,-256 1095,-256 1095,-220 1358,-220 1358,-256"/>
<text text-anchor="middle" x="1226.5" y="-234.3" font-family="Times,serif" font-size="14.00">(&#39;terminal&#39;, &#39;stationary_qd_kinova&#39;)</text>
</g>
<!-- stationary_qd_kinova&#45;&gt;(&#39;terminal&#39;, &#39;stationary_qd_kinova&#39;) -->
<g id="edge10" class="edge">
<title>stationary_qd_kinova&#45;&gt;(&#39;terminal&#39;, &#39;stationary_qd_kinova&#39;)</title>
<path fill="none" stroke="black" d="M1226.5,-299.69C1226.5,-289.89 1226.5,-277.42 1226.5,-266.33"/>
<polygon fill="black" stroke="black" points="1230,-266.26 1226.5,-256.26 1223,-266.26 1230,-266.26"/>
</g>
<!-- (&#39;path&#39;, &#39;limits_q_kinova&#39;) -->
<g id="node10" class="node">
<title>(&#39;path&#39;, &#39;limits_q_kinova&#39;)</title>
<polygon fill="none" stroke="purple" points="193,-180 0,-180 0,-144 193,-144 193,-180"/>
<text text-anchor="middle" x="96.5" y="-158.3" font-family="Times,serif" font-size="14.00">(&#39;path&#39;, &#39;limits_q_kinova&#39;)</text>
</g>
<!-- limits_q_kinova&#45;&gt;(&#39;path&#39;, &#39;limits_q_kinova&#39;) -->
<g id="edge11" class="edge">
<title>limits_q_kinova&#45;&gt;(&#39;path&#39;, &#39;limits_q_kinova&#39;)</title>
<path fill="none" stroke="black" d="M200.19,-219.84C181.28,-209.47 156.98,-196.15 136.66,-185.02"/>
<polygon fill="black" stroke="black" points="138.09,-181.81 127.64,-180.07 134.73,-187.95 138.09,-181.81"/>
</g>
<!-- (&#39;path&#39;, &#39;limits_qd_kinova&#39;) -->
<g id="node12" class="node">
<title>(&#39;path&#39;, &#39;limits_qd_kinova&#39;)</title>
<polygon fill="none" stroke="purple" points="1578.5,-256 1376.5,-256 1376.5,-220 1578.5,-220 1578.5,-256"/>
<text text-anchor="middle" x="1477.5" y="-234.3" font-family="Times,serif" font-size="14.00">(&#39;path&#39;, &#39;limits_qd_kinova&#39;)</text>
</g>
<!-- limits_qd_kinova&#45;&gt;(&#39;path&#39;, &#39;limits_qd_kinova&#39;) -->
<g id="edge12" class="edge">
<title>limits_qd_kinova&#45;&gt;(&#39;path&#39;, &#39;limits_qd_kinova&#39;)</title>
<path fill="none" stroke="black" d="M1472.83,-299.69C1473.59,-289.89 1474.54,-277.42 1475.4,-266.33"/>
<polygon fill="black" stroke="black" points="1478.89,-266.5 1476.17,-256.26 1471.92,-265.96 1478.89,-266.5"/>
</g>
<!-- (&#39;path&#39;, &#39;limits_qdd_kinova&#39;) -->
<g id="node14" class="node">
<title>(&#39;path&#39;, &#39;limits_qdd_kinova&#39;)</title>
<polygon fill="none" stroke="purple" points="1802,-336 1591,-336 1591,-300 1802,-300 1802,-336"/>
<text text-anchor="middle" x="1696.5" y="-314.3" font-family="Times,serif" font-size="14.00">(&#39;path&#39;, &#39;limits_qdd_kinova&#39;)</text>
</g>
<!-- limits_qdd_kinova&#45;&gt;(&#39;path&#39;, &#39;limits_qdd_kinova&#39;) -->
<g id="edge13" class="edge">
<title>limits_qdd_kinova&#45;&gt;(&#39;path&#39;, &#39;limits_qdd_kinova&#39;)</title>
<path fill="none" stroke="black" d="M1635.81,-379.69C1646.41,-369.09 1660.15,-355.35 1671.88,-343.62"/>
<polygon fill="black" stroke="black" points="1674.64,-345.81 1679.24,-336.26 1669.69,-340.86 1674.64,-345.81"/>
</g>
<!-- trans_error_pose_7_kinova_vs_goal -->
<g id="node17" class="node">
<title>trans_error_pose_7_kinova_vs_goal</title>
<ellipse fill="none" stroke="green" cx="383.5" cy="-162" rx="172.77" ry="18"/>
<text text-anchor="middle" x="383.5" y="-158.3" font-family="Times,serif" font-size="14.00">trans_error_pose_7_kinova_vs_goal</text>
</g>
<!-- pose_7_kinova&#45;&gt;trans_error_pose_7_kinova_vs_goal -->
<g id="edge14" class="edge">
<title>pose_7_kinova&#45;&gt;trans_error_pose_7_kinova_vs_goal</title>
<path fill="none" stroke="black" d="M449.99,-220.21C438.41,-210.25 423.56,-197.47 410.84,-186.52"/>
<polygon fill="black" stroke="black" points="413.1,-183.85 403.24,-179.98 408.53,-189.16 413.1,-183.85"/>
</g>
<!-- rotmat_error_pose_7_kinova_vs_goal -->
<g id="node19" class="node">
<title>rotmat_error_pose_7_kinova_vs_goal</title>
<ellipse fill="none" stroke="green" cx="754.5" cy="-162" rx="180.07" ry="18"/>
<text text-anchor="middle" x="754.5" y="-158.3" font-family="Times,serif" font-size="14.00">rotmat_error_pose_7_kinova_vs_goal</text>
</g>
<!-- pose_7_kinova&#45;&gt;rotmat_error_pose_7_kinova_vs_goal -->
<g id="edge15" class="edge">
<title>pose_7_kinova&#45;&gt;rotmat_error_pose_7_kinova_vs_goal</title>
<path fill="none" stroke="black" d="M519.14,-224.11C564.45,-212.35 631.93,-194.83 683.03,-181.56"/>
<polygon fill="black" stroke="black" points="684.22,-184.86 693.02,-178.96 682.46,-178.09 684.22,-184.86"/>
</g>
<!-- goal_pose_kinova -->
<g id="node16" class="node">
<title>goal_pose_kinova</title>
<polygon fill="none" stroke="blue" points="765.98,-230.54 765.98,-245.46 708.29,-256 626.71,-256 569.02,-245.46 569.02,-230.54 626.71,-220 708.29,-220 765.98,-230.54"/>
<polygon fill="none" stroke="blue" points="769.98,-227.21 769.98,-248.79 708.65,-260 626.35,-260 565.02,-248.79 565.02,-227.21 626.35,-216 708.65,-216 769.98,-227.21"/>
<text text-anchor="middle" x="667.5" y="-234.3" font-family="Times,serif" font-size="14.00">goal_pose_kinova</text>
</g>
<!-- goal_pose_kinova&#45;&gt;trans_error_pose_7_kinova_vs_goal -->
<g id="edge16" class="edge">
<title>goal_pose_kinova&#45;&gt;trans_error_pose_7_kinova_vs_goal</title>
<path fill="none" stroke="black" d="M603.06,-220.21C558.84,-208.69 500.15,-193.4 454.58,-181.52"/>
<polygon fill="black" stroke="black" points="455.33,-178.1 444.77,-178.96 453.56,-184.87 455.33,-178.1"/>
</g>
<!-- goal_pose_kinova&#45;&gt;rotmat_error_pose_7_kinova_vs_goal -->
<g id="edge17" class="edge">
<title>goal_pose_kinova&#45;&gt;rotmat_error_pose_7_kinova_vs_goal</title>
<path fill="none" stroke="black" d="M692.2,-215.99C702.95,-206.85 715.6,-196.09 726.68,-186.66"/>
<polygon fill="black" stroke="black" points="729.08,-189.22 734.43,-180.07 724.54,-183.89 729.08,-189.22"/>
</g>
<!-- trans_con_pose_7_kinova_vs_goal -->
<g id="node18" class="node">
<title>trans_con_pose_7_kinova_vs_goal</title>
<polygon fill="none" stroke="magenta" points="556.25,-90 460.87,-108 270.13,-108 174.75,-90 270.13,-72 460.87,-72 556.25,-90"/>
<text text-anchor="middle" x="365.5" y="-86.3" font-family="Times,serif" font-size="14.00">trans_con_pose_7_kinova_vs_goal</text>
</g>
<!-- trans_error_pose_7_kinova_vs_goal&#45;&gt;trans_con_pose_7_kinova_vs_goal -->
<g id="edge18" class="edge">
<title>trans_error_pose_7_kinova_vs_goal&#45;&gt;trans_con_pose_7_kinova_vs_goal</title>
<path fill="none" stroke="black" d="M379.05,-143.7C377.05,-135.9 374.63,-126.51 372.4,-117.83"/>
<polygon fill="black" stroke="black" points="375.78,-116.92 369.9,-108.1 369,-118.66 375.78,-116.92"/>
</g>
<!-- ax_ang_error_pose_7_kinova_vs_goal -->
<g id="node20" class="node">
<title>ax_ang_error_pose_7_kinova_vs_goal</title>
<ellipse fill="none" stroke="green" cx="754.5" cy="-90" rx="180.87" ry="18"/>
<text text-anchor="middle" x="754.5" y="-86.3" font-family="Times,serif" font-size="14.00">ax_ang_error_pose_7_kinova_vs_goal</text>
</g>
<!-- rotmat_error_pose_7_kinova_vs_goal&#45;&gt;ax_ang_error_pose_7_kinova_vs_goal -->
<g id="edge19" class="edge">
<title>rotmat_error_pose_7_kinova_vs_goal&#45;&gt;ax_ang_error_pose_7_kinova_vs_goal</title>
<path fill="none" stroke="black" d="M754.5,-143.7C754.5,-135.98 754.5,-126.71 754.5,-118.11"/>
<polygon fill="black" stroke="black" points="758,-118.1 754.5,-108.1 751,-118.1 758,-118.1"/>
</g>
<!-- rot_con_pose_7_kinova_vs_goal -->
<g id="node21" class="node">
<title>rot_con_pose_7_kinova_vs_goal</title>
<polygon fill="none" stroke="magenta" points="932.23,-18 843.37,-36 665.63,-36 576.77,-18 665.63,0 843.37,0 932.23,-18"/>
<text text-anchor="middle" x="754.5" y="-14.3" font-family="Times,serif" font-size="14.00">rot_con_pose_7_kinova_vs_goal</text>
</g>
<!-- ax_ang_error_pose_7_kinova_vs_goal&#45;&gt;rot_con_pose_7_kinova_vs_goal -->
<g id="edge20" class="edge">
<title>ax_ang_error_pose_7_kinova_vs_goal&#45;&gt;rot_con_pose_7_kinova_vs_goal</title>
<path fill="none" stroke="black" d="M754.5,-71.7C754.5,-63.98 754.5,-54.71 754.5,-46.11"/>
<polygon fill="black" stroke="black" points="758,-46.1 754.5,-36.1 751,-46.1 758,-46.1"/>
</g>
</g>
</svg>
